<svg width="894" height="292" viewBox="0 0 894 292" fill="none" xmlns="http://www.w3.org/2000/svg">
<path fill-rule="evenodd" clip-rule="evenodd" d="M295.646 265.646C295.842 265.451 296.158 265.451 296.354 265.646L302 271.293L307.646 265.646C307.842 265.451 308.158 265.451 308.354 265.646C308.549 265.842 308.549 266.158 308.354 266.354L302.354 272.354C302.158 272.549 301.842 272.549 301.646 272.354L295.646 266.354C295.451 266.158 295.451 265.842 295.646 265.646Z" fill="#999FA3"/>
<path fill-rule="evenodd" clip-rule="evenodd" d="M583.646 265.646C583.842 265.451 584.158 265.451 584.354 265.646L590 271.293L595.646 265.646C595.842 265.451 596.158 265.451 596.354 265.646C596.549 265.842 596.549 266.158 596.354 266.354L590.354 272.354C590.158 272.549 589.842 272.549 589.646 272.354L583.646 266.354C583.451 266.158 583.451 265.842 583.646 265.646Z" fill="#999FA3"/>
<path fill-rule="evenodd" clip-rule="evenodd" d="M0.646447 265.646C0.841709 265.451 1.15829 265.451 1.35355 265.646L7 271.293L12.6464 265.646C12.8417 265.451 13.1583 265.451 13.3536 265.646C13.5488 265.842 13.5488 266.158 13.3536 266.354L7.35355 272.354C7.15829 272.549 6.84171 272.549 6.64645 272.354L0.646447 266.354C0.451184 266.158 0.451184 265.842 0.646447 265.646Z" fill="#999FA3"/>
<path d="M582 144.287V139.15H541.132L541.347 144.501C541.347 144.93 541.347 145.358 541.347 146C541.347 204.015 495.747 251.326 439.823 251.326C383.898 251.326 338.298 204.015 338.083 146C338.083 88.1994 383.468 40.8886 439.392 40.6745H443.694V0H439.392C360.668 0.214076 297 65.7214 297 146C297 226.493 360.883 291.786 439.392 292C517.902 292 581.785 226.493 581.785 146C582 145.358 582 144.93 582 144.287Z" fill="#F8F9FC"/>
<mask id="mask0" mask-type="alpha" maskUnits="userSpaceOnUse" x="404" y="68" width="72" height="80">
<path fill-rule="evenodd" clip-rule="evenodd" d="M404 89.1768C404 88.4505 404.394 87.7812 405.029 87.4285L439.029 68.5396C439.633 68.204 440.367 68.204 440.971 68.5396L474.971 87.4285C475.606 87.7812 476 88.4505 476 89.1768V127.017C476 127.747 475.603 128.418 474.964 128.77L440.964 147.47C440.364 147.8 439.636 147.8 439.036 147.47L405.036 128.77C404.397 128.418 404 127.747 404 127.017V89.1768Z" fill="#EBEBEB"/>
</mask>
<g mask="url(#mask0)">
<path fill-rule="evenodd" clip-rule="evenodd" d="M404 88L440 108V148L404 128V88Z" fill="#4841EF"/>
<path fill-rule="evenodd" clip-rule="evenodd" d="M476 88L440 108V148L476 128V88Z" fill="#090C9B"/>
<path fill-rule="evenodd" clip-rule="evenodd" d="M404 88L439.029 68.5396C439.633 68.204 440.367 68.204 440.971 68.5396L476 88L440 108L404 88Z" fill="#EBEBEB"/>
</g>
<mask id="mask1" mask-type="alpha" maskUnits="userSpaceOnUse" x="404" y="108" width="72" height="80">
<path fill-rule="evenodd" clip-rule="evenodd" d="M404 129.177C404 128.45 404.394 127.781 405.029 127.428L439.029 108.54C439.633 108.204 440.367 108.204 440.971 108.54L474.971 127.428C475.606 127.781 476 128.45 476 129.177V167.017C476 167.747 475.603 168.418 474.964 168.77L440.964 187.47C440.364 187.8 439.636 187.8 439.036 187.47L405.036 168.77C404.397 168.418 404 167.747 404 167.017V129.177Z" fill="#EBEBEB"/>
</mask>
<g mask="url(#mask1)">
<path fill-rule="evenodd" clip-rule="evenodd" d="M404 128L440 148V188L404 168V128Z" fill="#4841EF"/>
<path fill-rule="evenodd" clip-rule="evenodd" d="M476 128L440 148V188L476 168V128Z" fill="#090C9B"/>
<path fill-rule="evenodd" clip-rule="evenodd" d="M404 128L439.029 108.54C439.633 108.204 440.367 108.204 440.971 108.54L476 128L440 148L404 128Z" fill="#EBEBEB"/>
</g>
<mask id="mask2" mask-type="alpha" maskUnits="userSpaceOnUse" x="440" y="127" width="72" height="80">
<path fill-rule="evenodd" clip-rule="evenodd" d="M440 148.177C440 147.45 440.394 146.781 441.029 146.428L475.029 127.54C475.633 127.204 476.367 127.204 476.971 127.54L510.971 146.428C511.606 146.781 512 147.45 512 148.177V186.017C512 186.747 511.603 187.418 510.964 187.77L476.964 206.47C476.364 206.8 475.636 206.8 475.036 206.47L441.036 187.77C440.397 187.418 440 186.747 440 186.017V148.177Z" fill="#EBEBEB"/>
</mask>
<g mask="url(#mask2)">
<path fill-rule="evenodd" clip-rule="evenodd" d="M440 147L476 167V207L440 187V147Z" fill="#090C9B"/>
<path fill-rule="evenodd" clip-rule="evenodd" d="M512 147L476 167V207L512 187V147Z" fill="#8F099B"/>
<path fill-rule="evenodd" clip-rule="evenodd" d="M440 147L475.029 127.54C475.633 127.204 476.367 127.204 476.971 127.54L512 147L476 167L440 147Z" fill="#EBEBEB"/>
</g>
<mask id="mask3" mask-type="alpha" maskUnits="userSpaceOnUse" x="440" y="88" width="72" height="80">
<path fill-rule="evenodd" clip-rule="evenodd" d="M440 109.177C440 108.45 440.394 107.781 441.029 107.428L475.029 88.5396C475.633 88.204 476.367 88.204 476.971 88.5396L510.971 107.428C511.606 107.781 512 108.45 512 109.177V147.017C512 147.747 511.603 148.418 510.964 148.77L476.964 167.47C476.364 167.8 475.636 167.8 475.036 167.47L441.036 148.77C440.397 148.418 440 147.747 440 147.017V109.177Z" fill="#EBEBEB"/>
</mask>
<g mask="url(#mask3)">
<path fill-rule="evenodd" clip-rule="evenodd" d="M440 108L476 128V168L440 148V108Z" fill="#EF9E00"/>
<path fill-rule="evenodd" clip-rule="evenodd" d="M512 108L476 128V168L512 148V108Z" fill="#C98502"/>
<path fill-rule="evenodd" clip-rule="evenodd" d="M440 108L475.029 88.5396C475.633 88.204 476.367 88.204 476.971 88.5396L512 108L476 128L440 108Z" fill="#EBEBEB"/>
</g>
<mask id="mask4" mask-type="alpha" maskUnits="userSpaceOnUse" x="368" y="127" width="72" height="80">
<path fill-rule="evenodd" clip-rule="evenodd" d="M368 148.177C368 147.45 368.394 146.781 369.029 146.428L403.029 127.54C403.633 127.204 404.367 127.204 404.971 127.54L438.971 146.428C439.606 146.781 440 147.45 440 148.177V186.017C440 186.747 439.603 187.418 438.964 187.77L404.964 206.47C404.364 206.8 403.636 206.8 403.036 206.47L369.036 187.77C368.397 187.418 368 186.747 368 186.017V148.177Z" fill="#EBEBEB"/>
</mask>
<g mask="url(#mask4)">
<path fill-rule="evenodd" clip-rule="evenodd" d="M368 147L404 167V207L368 187V147Z" fill="#41B0EF"/>
<path fill-rule="evenodd" clip-rule="evenodd" d="M440 147L404 167V207L440 187V147Z" fill="#4841EF"/>
<path fill-rule="evenodd" clip-rule="evenodd" d="M368 147L403.029 127.54C403.633 127.204 404.367 127.204 404.971 127.54L440 147L404 167L368 147Z" fill="#EBEBEB"/>
</g>
<mask id="mask5" mask-type="alpha" maskUnits="userSpaceOnUse" x="404" y="147" width="72" height="80">
<path fill-rule="evenodd" clip-rule="evenodd" d="M404 168.177C404 167.45 404.394 166.781 405.029 166.428L439.029 147.54C439.633 147.204 440.367 147.204 440.971 147.54L474.971 166.428C475.606 166.781 476 167.45 476 168.177V206.017C476 206.747 475.603 207.418 474.964 207.77L440.964 226.47C440.364 226.8 439.636 226.8 439.036 226.47L405.036 207.77C404.397 207.418 404 206.747 404 206.017V168.177Z" fill="#EBEBEB"/>
</mask>
<g mask="url(#mask5)">
<path fill-rule="evenodd" clip-rule="evenodd" d="M404 167L440 187V227L404 207V167Z" fill="#4841EF"/>
<path fill-rule="evenodd" clip-rule="evenodd" d="M476 167L440 187V227L476 207V167Z" fill="#090C9B"/>
<path fill-rule="evenodd" clip-rule="evenodd" d="M404 167L439.029 147.54C439.633 147.204 440.367 147.204 440.971 147.54L476 167L440 187L404 167Z" fill="#EBEBEB"/>
</g>
<mask id="mask6" mask-type="alpha" maskUnits="userSpaceOnUse" x="368" y="88" width="72" height="80">
<path fill-rule="evenodd" clip-rule="evenodd" d="M368 109.177C368 108.45 368.394 107.781 369.029 107.428L403.029 88.5396C403.633 88.204 404.367 88.204 404.971 88.5396L438.971 107.428C439.606 107.781 440 108.45 440 109.177V147.017C440 147.747 439.603 148.418 438.964 148.77L404.964 167.47C404.364 167.8 403.636 167.8 403.036 167.47L369.036 148.77C368.397 148.418 368 147.747 368 147.017V109.177Z" fill="#EBEBEB"/>
</mask>
<g mask="url(#mask6)">
<path fill-rule="evenodd" clip-rule="evenodd" d="M368 108L404 128V168L368 148V108Z" fill="#6FCF97"/>
<path fill-rule="evenodd" clip-rule="evenodd" d="M440 108L404 128V168L440 148V108Z" fill="#50A372"/>
<path fill-rule="evenodd" clip-rule="evenodd" d="M368 108L403.029 88.5396C403.633 88.204 404.367 88.204 404.971 88.5396L440 108L404 128L368 108Z" fill="#EBEBEB"/>
</g>
<path fill-rule="evenodd" clip-rule="evenodd" d="M49 141.5C26.0802 141.5 7.5 160.08 7.5 183V272H6.5V183C6.5 159.528 25.5279 140.5 49 140.5H355V141.5H49Z" fill="#999FA3"/>
<path fill-rule="evenodd" clip-rule="evenodd" d="M834 141.5C856.92 141.5 875.5 160.08 875.5 183V243.5H876.5V183C876.5 159.528 857.472 140.5 834 140.5H526V141.5H834Z" fill="#999FA3"/>
<path fill-rule="evenodd" clip-rule="evenodd" d="M558 180.5C575.397 180.5 589.5 194.603 589.5 212V272H590.5V212C590.5 194.051 575.949 179.5 558 179.5H526V180.5H558Z" fill="#999FA3"/>
<path fill-rule="evenodd" clip-rule="evenodd" d="M334 180.5C316.603 180.5 302.5 194.603 302.5 212V272H301.5V212C301.5 194.051 316.051 179.5 334 179.5H355V180.5H334Z" fill="#999FA3"/>
<path fill-rule="evenodd" clip-rule="evenodd" d="M876 244.5C866.887 244.5 859.5 251.887 859.5 261C859.5 270.113 866.887 277.5 876 277.5C885.113 277.5 892.5 270.113 892.5 261C892.5 251.887 885.113 244.5 876 244.5ZM858.5 261C858.5 251.335 866.335 243.5 876 243.5C885.665 243.5 893.5 251.335 893.5 261C893.5 270.665 885.665 278.5 876 278.5C866.335 278.5 858.5 270.665 858.5 261ZM875.5 261V253H876.5V261H884V262H876.5V269H875.5V262H868V261H875.5Z" fill="#999FA3"/>
</svg>
