<svg width="292" height="894" viewBox="0 0 292 894" fill="none" xmlns="http://www.w3.org/2000/svg">
<path d="M144.287 312L139.15 312L139.15 352.868L144.502 352.653C144.93 352.653 145.358 352.653 146 352.653C204.015 352.653 251.326 398.253 251.326 454.177C251.326 510.102 204.015 555.702 146 555.917C88.1995 555.917 40.8886 510.532 40.6745 454.608L40.6745 450.306L5.46229e-05 450.306L5.4811e-05 454.608C0.214135 533.332 65.7215 597 146 597C226.493 597 291.786 533.117 292 454.608C292 376.098 226.493 312.215 146 312.215C145.358 312 144.93 312 144.287 312Z" fill="#F8F9FC"/>
<mask id="mask0" mask-type="alpha" maskUnits="userSpaceOnUse" x="111" y="374" width="73" height="81">
<path fill-rule="evenodd" clip-rule="evenodd" d="M111.5 395.677C111.5 394.95 111.894 394.281 112.529 393.928L146.529 375.04C147.133 374.704 147.867 374.704 148.471 375.04L182.471 393.928C183.106 394.281 183.5 394.95 183.5 395.677V433.517C183.5 434.247 183.103 434.918 182.464 435.27L148.464 453.97C147.864 454.3 147.136 454.3 146.536 453.97L112.536 435.27C111.897 434.918 111.5 434.247 111.5 433.517V395.677Z" fill="#EBEBEB"/>
</mask>
<g mask="url(#mask0)">
<path fill-rule="evenodd" clip-rule="evenodd" d="M111.5 394.5L147.5 414.5V454.5L111.5 434.5V394.5Z" fill="#4841EF"/>
<path fill-rule="evenodd" clip-rule="evenodd" d="M183.5 394.5L147.5 414.5V454.5L183.5 434.5V394.5Z" fill="#090C9B"/>
<path fill-rule="evenodd" clip-rule="evenodd" d="M111.5 394.5L146.529 375.04C147.133 374.704 147.867 374.704 148.471 375.04L183.5 394.5L147.5 414.5L111.5 394.5Z" fill="#EBEBEB"/>
</g>
<mask id="mask1" mask-type="alpha" maskUnits="userSpaceOnUse" x="111" y="414" width="73" height="81">
<path fill-rule="evenodd" clip-rule="evenodd" d="M111.5 435.677C111.5 434.95 111.894 434.281 112.529 433.928L146.529 415.04C147.133 414.704 147.867 414.704 148.471 415.04L182.471 433.928C183.106 434.281 183.5 434.95 183.5 435.677V473.517C183.5 474.247 183.103 474.918 182.464 475.27L148.464 493.97C147.864 494.3 147.136 494.3 146.536 493.97L112.536 475.27C111.897 474.918 111.5 474.247 111.5 473.517V435.677Z" fill="#EBEBEB"/>
</mask>
<g mask="url(#mask1)">
<path fill-rule="evenodd" clip-rule="evenodd" d="M111.5 434.5L147.5 454.5V494.5L111.5 474.5V434.5Z" fill="#4841EF"/>
<path fill-rule="evenodd" clip-rule="evenodd" d="M183.5 434.5L147.5 454.5V494.5L183.5 474.5V434.5Z" fill="#090C9B"/>
<path fill-rule="evenodd" clip-rule="evenodd" d="M111.5 434.5L146.529 415.04C147.133 414.704 147.867 414.704 148.471 415.04L183.5 434.5L147.5 454.5L111.5 434.5Z" fill="#EBEBEB"/>
</g>
<mask id="mask2" mask-type="alpha" maskUnits="userSpaceOnUse" x="147" y="433" width="73" height="81">
<path fill-rule="evenodd" clip-rule="evenodd" d="M147.5 454.677C147.5 453.95 147.894 453.281 148.529 452.928L182.529 434.04C183.133 433.704 183.867 433.704 184.471 434.04L218.471 452.928C219.106 453.281 219.5 453.95 219.5 454.677V492.517C219.5 493.247 219.103 493.918 218.464 494.27L184.464 512.97C183.864 513.3 183.136 513.3 182.536 512.97L148.536 494.27C147.897 493.918 147.5 493.247 147.5 492.517V454.677Z" fill="#EBEBEB"/>
</mask>
<g mask="url(#mask2)">
<path fill-rule="evenodd" clip-rule="evenodd" d="M147.5 453.5L183.5 473.5V513.5L147.5 493.5V453.5Z" fill="#090C9B"/>
<path fill-rule="evenodd" clip-rule="evenodd" d="M219.5 453.5L183.5 473.5V513.5L219.5 493.5V453.5Z" fill="#8F099B"/>
<path fill-rule="evenodd" clip-rule="evenodd" d="M147.5 453.5L182.529 434.04C183.133 433.704 183.867 433.704 184.471 434.04L219.5 453.5L183.5 473.5L147.5 453.5Z" fill="#EBEBEB"/>
</g>
<mask id="mask3" mask-type="alpha" maskUnits="userSpaceOnUse" x="147" y="394" width="73" height="81">
<path fill-rule="evenodd" clip-rule="evenodd" d="M147.5 415.677C147.5 414.95 147.894 414.281 148.529 413.928L182.529 395.04C183.133 394.704 183.867 394.704 184.471 395.04L218.471 413.928C219.106 414.281 219.5 414.95 219.5 415.677V453.517C219.5 454.247 219.103 454.918 218.464 455.27L184.464 473.97C183.864 474.3 183.136 474.3 182.536 473.97L148.536 455.27C147.897 454.918 147.5 454.247 147.5 453.517V415.677Z" fill="#EBEBEB"/>
</mask>
<g mask="url(#mask3)">
<path fill-rule="evenodd" clip-rule="evenodd" d="M147.5 414.5L183.5 434.5V474.5L147.5 454.5V414.5Z" fill="#EF9E00"/>
<path fill-rule="evenodd" clip-rule="evenodd" d="M219.5 414.5L183.5 434.5V474.5L219.5 454.5V414.5Z" fill="#C98502"/>
<path fill-rule="evenodd" clip-rule="evenodd" d="M147.5 414.5L182.529 395.04C183.133 394.704 183.867 394.704 184.471 395.04L219.5 414.5L183.5 434.5L147.5 414.5Z" fill="#EBEBEB"/>
</g>
<mask id="mask4" mask-type="alpha" maskUnits="userSpaceOnUse" x="75" y="433" width="73" height="81">
<path fill-rule="evenodd" clip-rule="evenodd" d="M75.5001 454.677C75.5001 453.95 75.8938 453.281 76.5288 452.928L110.529 434.04C111.133 433.704 111.867 433.704 112.471 434.04L146.471 452.928C147.106 453.281 147.5 453.95 147.5 454.677V492.517C147.5 493.247 147.103 493.918 146.464 494.27L112.464 512.97C111.864 513.3 111.136 513.3 110.536 512.97L76.5362 494.27C75.8971 493.918 75.5001 493.247 75.5001 492.517V454.677Z" fill="#EBEBEB"/>
</mask>
<g mask="url(#mask4)">
<path fill-rule="evenodd" clip-rule="evenodd" d="M75.5001 453.5L111.5 473.5V513.5L75.5001 493.5V453.5Z" fill="#41B0EF"/>
<path fill-rule="evenodd" clip-rule="evenodd" d="M147.5 453.5L111.5 473.5V513.5L147.5 493.5V453.5Z" fill="#4841EF"/>
<path fill-rule="evenodd" clip-rule="evenodd" d="M75.5001 453.5L110.529 434.04C111.133 433.704 111.867 433.704 112.471 434.04L147.5 453.5L111.5 473.5L75.5001 453.5Z" fill="#EBEBEB"/>
</g>
<mask id="mask5" mask-type="alpha" maskUnits="userSpaceOnUse" x="111" y="453" width="73" height="81">
<path fill-rule="evenodd" clip-rule="evenodd" d="M111.5 474.677C111.5 473.95 111.894 473.281 112.529 472.928L146.529 454.04C147.133 453.704 147.867 453.704 148.471 454.04L182.471 472.928C183.106 473.281 183.5 473.95 183.5 474.677V512.517C183.5 513.247 183.103 513.918 182.464 514.27L148.464 532.97C147.864 533.3 147.136 533.3 146.536 532.97L112.536 514.27C111.897 513.918 111.5 513.247 111.5 512.517V474.677Z" fill="#EBEBEB"/>
</mask>
<g mask="url(#mask5)">
<path fill-rule="evenodd" clip-rule="evenodd" d="M111.5 473.5L147.5 493.5V533.5L111.5 513.5V473.5Z" fill="#4841EF"/>
<path fill-rule="evenodd" clip-rule="evenodd" d="M183.5 473.5L147.5 493.5V533.5L183.5 513.5V473.5Z" fill="#090C9B"/>
<path fill-rule="evenodd" clip-rule="evenodd" d="M111.5 473.5L146.529 454.04C147.133 453.704 147.867 453.704 148.471 454.04L183.5 473.5L147.5 493.5L111.5 473.5Z" fill="#EBEBEB"/>
</g>
<mask id="mask6" mask-type="alpha" maskUnits="userSpaceOnUse" x="75" y="394" width="73" height="81">
<path fill-rule="evenodd" clip-rule="evenodd" d="M75.5001 415.677C75.5001 414.95 75.8938 414.281 76.5288 413.928L110.529 395.04C111.133 394.704 111.867 394.704 112.471 395.04L146.471 413.928C147.106 414.281 147.5 414.95 147.5 415.677V453.517C147.5 454.247 147.103 454.918 146.464 455.27L112.464 473.97C111.864 474.3 111.136 474.3 110.536 473.97L76.5362 455.27C75.8971 454.918 75.5001 454.247 75.5001 453.517V415.677Z" fill="#EBEBEB"/>
</mask>
<g mask="url(#mask6)">
<path fill-rule="evenodd" clip-rule="evenodd" d="M75.5001 414.5L111.5 434.5V474.5L75.5001 454.5V414.5Z" fill="#6FCF97"/>
<path fill-rule="evenodd" clip-rule="evenodd" d="M147.5 414.5L111.5 434.5V474.5L147.5 454.5V414.5Z" fill="#50A372"/>
<path fill-rule="evenodd" clip-rule="evenodd" d="M75.5001 414.5L110.529 395.04C111.133 394.704 111.867 394.704 112.471 395.04L147.5 414.5L111.5 434.5L75.5001 414.5Z" fill="#EBEBEB"/>
</g>
<path d="M272 887L183 887C159.804 887 141 868.196 141 845L141 539" stroke="#999FA3"/>
<path d="M243.5 18L183 18C159.804 18 141 36.804 141 60L141 368" stroke="#999FA3"/>
<path d="M272 304L212 304C194.327 304 180 318.327 180 336L180 368" stroke="#999FA3"/>
<path d="M266 598L272 592L266 586" stroke="#999FA3" stroke-linecap="round" stroke-linejoin="round"/>
<path d="M266 310L272 304L266 298" stroke="#999FA3" stroke-linecap="round" stroke-linejoin="round"/>
<path d="M266 893L272 887L266 881" stroke="#999FA3" stroke-linecap="round" stroke-linejoin="round"/>
<path d="M272 592L212 592C194.327 592 180 577.673 180 560L180 539" stroke="#999FA3"/>
<path d="M253 18L261.5 18M261.5 18L269 18M261.5 18L261.5 10M261.5 18L261.5 26M261 0.999999C270.389 0.999999 278 8.61116 278 18C278 27.3888 270.389 35 261 35C251.611 35 244 27.3888 244 18C244 8.61116 251.611 1 261 0.999999Z" stroke="#999FA3"/>
</svg>
