<svg width="79" height="77" viewBox="0 0 79 77" fill="none" xmlns="http://www.w3.org/2000/svg">
<circle cx="75" cy="49" r="3" fill="white" stroke="#6465FF" stroke-width="2"/>
<circle cx="3.5" cy="7.5" r="2.5" fill="white" stroke="#6465FF" stroke-width="2"/>
<path d="M76.378 1.62195C77.3256 1.75527 78 2.0981 78 2.5C78 2.9019 77.3256 3.24473 76.378 3.37805C76.2447 4.32561 75.9019 5 75.5 5C75.0981 5 74.7553 4.32561 74.622 3.37805C73.6744 3.24473 73 2.9019 73 2.5C73 2.0981 73.6744 1.75527 74.622 1.62195C74.7553 0.674387 75.0981 0 75.5 0C75.9019 0 76.2447 0.674387 76.378 1.62195Z" fill="#BBC6CB"/>
<path d="M54.378 73.622C55.3256 73.7553 56 74.0981 56 74.5C56 74.9019 55.3256 75.2447 54.378 75.378C54.2447 76.3256 53.9019 77 53.5 77C53.0981 77 52.7553 76.3256 52.622 75.378C51.6744 75.2447 51 74.9019 51 74.5C51 74.0981 51.6744 73.7553 52.622 73.622C52.7553 72.6744 53.0981 72 53.5 72C53.9019 72 54.2447 72.6744 54.378 73.622Z" fill="#BBC6CB"/>
<path d="M21.378 9.62195C22.3256 9.75527 23 10.0981 23 10.5C23 10.9019 22.3256 11.2447 21.378 11.378C21.2447 12.3256 20.9019 13 20.5 13C20.0981 13 19.7553 12.3256 19.622 11.378C18.6744 11.2447 18 10.9019 18 10.5C18 10.0981 18.6744 9.75527 19.622 9.62195C19.7553 8.67439 20.0981 8 20.5 8C20.9019 8 21.2447 8.67439 21.378 9.62195Z" fill="#BBC6CB"/>
<path d="M4.37805 53.622C5.32561 53.7553 6 54.0981 6 54.5C6 54.9019 5.32561 55.2447 4.37805 55.378C4.24473 56.3256 3.9019 57 3.5 57C3.0981 57 2.75527 56.3256 2.62195 55.378C1.67439 55.2447 1 54.9019 1 54.5C1 54.0981 1.67439 53.7553 2.62195 53.622C2.75527 52.6744 3.0981 52 3.5 52C3.9019 52 4.24473 52.6744 4.37805 53.622Z" fill="#BBC6CB"/>
<path fill-rule="evenodd" clip-rule="evenodd" d="M38.9431 18C31.4177 18 25.9815 23.4123 25.1195 29.2258C24.5819 33.1015 25.8801 36.8794 28.5779 39.7372C30.9511 42.184 32.2493 45.4529 32.2493 48.8197L32.2392 54.1243C32.2392 56.2677 34.0749 58 36.3467 58H41.6409C43.9127 58 45.7484 56.2677 45.7484 54.1243L45.7586 48.8197C45.7586 45.355 46.9452 42.184 49.217 39.9427C51.7018 37.496 53 34.3347 53 31.0658C52.9899 23.8136 46.6105 18 38.9431 18ZM43.6896 54.1243C43.6896 55.1422 42.8275 55.9643 41.7423 55.9643H36.4482C35.363 55.9643 34.5009 55.152 34.5009 54.1243V51.7754H43.6795V54.1243H43.6896ZM47.706 38.5138C45.0082 41.1662 43.5985 44.8363 43.5985 48.8197V49.7397H34.4199V48.8197C34.4199 45.0419 32.7972 41.2738 30.0994 38.416C27.7261 35.9692 26.7525 32.8079 27.1785 29.539C27.9391 24.6455 32.6552 20.0455 38.9534 20.0455C45.5457 20.0455 50.8399 25.0468 50.8399 31.0658C50.8399 33.816 49.7547 36.4683 47.706 38.5138Z" fill="#6465FF"/>
<path fill-rule="evenodd" clip-rule="evenodd" d="M43.9297 32.363C43.6909 32.0237 43.2827 31.8183 42.8442 31.8168H40.2434V26.1525C40.2448 25.5795 39.8117 25.0835 39.2044 24.963C39.1178 24.9469 39.0296 24.9387 38.9412 24.9387C38.4189 24.9407 37.9485 25.2307 37.7465 25.6751L33.8458 34.1716C33.6738 34.5463 33.7148 34.9755 33.9554 35.3166C34.1942 35.656 34.6023 35.8614 35.0409 35.8628H37.6417V41.5271C37.6402 42.1001 38.0731 42.5959 38.6803 42.7166C38.7669 42.7327 38.855 42.7409 38.9434 42.7409C39.4657 42.7391 39.9361 42.449 40.1377 42.0046L44.0411 33.5081C44.2126 33.133 44.1708 32.7039 43.9297 32.363ZM38.943 41.5272V34.6491H35.0422L38.943 26.1526V33.0307H42.8442L38.943 41.5272Z" fill="#6465FF"/>
<path d="M42.8442 31.8168L42.845 31.5668H42.8442V31.8168ZM40.2434 31.8168H39.9934V32.0668H40.2434V31.8168ZM40.2434 26.1525L39.9934 26.1519V26.1525H40.2434ZM39.2044 24.963L39.253 24.7178L39.2502 24.7172L39.2044 24.963ZM38.9412 24.9387V24.6887L38.9403 24.6887L38.9412 24.9387ZM37.7465 25.6751L37.9737 25.7794L37.9741 25.7785L37.7465 25.6751ZM33.8458 34.1716L33.6186 34.0673L33.6186 34.0673L33.8458 34.1716ZM33.9554 35.3166L34.1599 35.1728L34.1597 35.1725L33.9554 35.3166ZM35.0409 35.8628L35.0401 36.1128H35.0409V35.8628ZM37.6417 35.8628H37.8917V35.6128H37.6417V35.8628ZM37.6417 41.5271L37.8917 41.5278V41.5271H37.6417ZM38.6803 42.7166L38.6315 42.9619L38.6346 42.9624L38.6803 42.7166ZM38.9434 42.7409L38.9433 42.9909L38.9443 42.9909L38.9434 42.7409ZM40.1377 42.0046L39.9105 41.9002L39.91 41.9013L40.1377 42.0046ZM44.0411 33.5081L44.2682 33.6124L44.2684 33.612L44.0411 33.5081ZM38.943 41.5272H38.693L39.1702 41.6315L38.943 41.5272ZM38.943 34.6491H39.193V34.3991H38.943V34.6491ZM35.0422 34.6491L34.815 34.5448L34.6524 34.8991H35.0422V34.6491ZM38.943 26.1526H39.193L38.7158 26.0483L38.943 26.1526ZM38.943 33.0307H38.693V33.2807H38.943V33.0307ZM42.8442 33.0307L43.0714 33.135L43.2341 32.7807H42.8442V33.0307ZM44.1341 32.2192C43.8457 31.8092 43.3592 31.5685 42.845 31.5668L42.8434 32.0668C43.2063 32.068 43.5361 32.2382 43.7252 32.5069L44.1341 32.2192ZM42.8442 31.5668H40.2434V32.0668H42.8442V31.5668ZM40.4934 31.8168V26.1525H39.9934V31.8168H40.4934ZM40.4934 26.1531C40.4952 25.4471 39.9639 24.8589 39.253 24.7178L39.1557 25.2082C39.6595 25.3082 39.9945 25.7118 39.9934 26.1519L40.4934 26.1531ZM39.2502 24.7172C39.1484 24.6983 39.0449 24.6887 38.9412 24.6887V25.1887C39.0143 25.1887 39.0871 25.1954 39.1586 25.2088L39.2502 24.7172ZM38.9403 24.6887C38.329 24.6911 37.7648 25.0306 37.5189 25.5717L37.9741 25.7785C38.1321 25.4307 38.5088 25.1904 38.9422 25.1887L38.9403 24.6887ZM37.5193 25.5708L33.6186 34.0673L34.073 34.2759L37.9737 25.7794L37.5193 25.5708ZM33.6186 34.0673C33.4088 34.5242 33.46 35.0478 33.7511 35.4607L34.1597 35.1725C33.9697 34.9031 33.9387 34.5685 34.073 34.2759L33.6186 34.0673ZM33.7509 35.4604C34.0394 35.8705 34.5259 36.1111 35.0401 36.1128L35.0417 35.6128C34.6788 35.6116 34.3489 35.4415 34.1599 35.1728L33.7509 35.4604ZM35.0409 36.1128H37.6417V35.6128H35.0409V36.1128ZM37.3917 35.8628V41.5271H37.8917V35.8628H37.3917ZM37.3917 41.5265C37.3898 42.2324 37.9209 42.8206 38.6315 42.9618L38.729 42.4714C38.2254 42.3713 37.8905 41.9677 37.8917 41.5278L37.3917 41.5265ZM38.6346 42.9624C38.7363 42.9813 38.8397 42.9909 38.9433 42.9909L38.9436 42.4909C38.8704 42.4909 38.7975 42.4841 38.7259 42.4708L38.6346 42.9624ZM38.9443 42.9909C39.5556 42.9888 40.1199 42.6491 40.3654 42.1078L39.91 41.9013C39.7523 42.249 39.3758 42.4894 38.9425 42.4909L38.9443 42.9909ZM40.3649 42.1089L44.2682 33.6124L43.8139 33.4037L39.9105 41.9002L40.3649 42.1089ZM44.2684 33.612C44.4775 33.1547 44.4256 32.6311 44.1338 32.2187L43.7256 32.5074C43.9161 32.7767 43.9476 33.1113 43.8137 33.4041L44.2684 33.612ZM39.193 41.5272V34.6491H38.693V41.5272H39.193ZM38.943 34.3991H35.0422V34.8991H38.943V34.3991ZM35.2694 34.7534L39.1702 26.2569L38.7158 26.0483L34.815 34.5448L35.2694 34.7534ZM38.693 26.1526V33.0307H39.193V26.1526H38.693ZM38.943 33.2807H42.8442V32.7807H38.943V33.2807ZM42.617 32.9264L38.7158 41.4229L39.1702 41.6315L43.0714 33.135L42.617 32.9264Z" fill="#6465FF"/>
</svg>
