<svg width="36" height="50" viewBox="0 0 36 50" fill="none" xmlns="http://www.w3.org/2000/svg">
<path d="M22.3749 1.90564H6.6249C4.01536 1.90564 1.8999 3.97358 1.8999 6.52451V43.4755C1.8999 46.0264 4.01536 48.0943 6.6249 48.0943H22.3749C24.9844 48.0943 27.0999 46.0264 27.0999 43.4755V6.52451C27.0999 3.97358 24.9844 1.90564 22.3749 1.90564Z" stroke="#6465FF" stroke-width="2" stroke-linecap="round" stroke-linejoin="round"/>
<path d="M5.57766 1.98108H8.26602C8.50369 1.98108 8.73162 2.07385 8.89968 2.23897C9.06773 2.4041 9.16214 2.62806 9.16214 2.86158C9.16214 3.32863 9.35097 3.77655 9.68708 4.1068C10.0232 4.43705 10.4791 4.62259 10.9544 4.62259H18.1233C18.5987 4.62259 19.0545 4.43705 19.3907 4.1068C19.7268 3.77655 19.9156 3.32863 19.9156 2.86158C19.9156 2.62806 20.01 2.4041 20.1781 2.23897C20.3461 2.07385 20.574 1.98108 20.8117 1.98108H23.5001" stroke="#6465FF" stroke-width="2" stroke-linecap="round" stroke-linejoin="round"/>
<path d="M9.5 26L9.5 42.5" stroke="#6465FF" stroke-width="2" stroke-linecap="round"/>
<path d="M18.5 19L18.5 35.5" stroke="#6465FF" stroke-width="2" stroke-linecap="round"/>
<path d="M6 39L9.5 43L13 39" stroke="#6465FF" stroke-width="2" stroke-linecap="round" stroke-linejoin="round"/>
<path d="M15 32L18.5 36L22 32" stroke="#6465FF" stroke-width="2" stroke-linecap="round" stroke-linejoin="round"/>
<path d="M10.5 22.0306C10.5 22.5829 10.0523 23.0306 9.5 23.0306C8.94772 23.0306 8.5 22.5829 8.5 22.0306C8.5 21.4784 8.94772 21.0306 9.5 21.0306C10.0523 21.0306 10.5 21.4784 10.5 22.0306Z" fill="#6465FF"/>
<path d="M19.5 15.0306C19.5 15.5829 19.0523 16.0306 18.5 16.0306C17.9477 16.0306 17.5 15.5829 17.5 15.0306C17.5 14.4784 17.9477 14.0306 18.5 14.0306C19.0523 14.0306 19.5 14.4784 19.5 15.0306Z" fill="#6465FF"/>
<path d="M10.5 18C10.5 18.5523 10.0523 19 9.5 19C8.94772 19 8.5 18.5523 8.5 18C8.5 17.4477 8.94772 17 9.5 17C10.0523 17 10.5 17.4477 10.5 18Z" fill="#6465FF"/>
<path d="M19.5 11C19.5 11.5523 19.0523 12 18.5 12C17.9477 12 17.5 11.5523 17.5 11C17.5 10.4477 17.9477 10 18.5 10C19.0523 10 19.5 10.4477 19.5 11Z" fill="#6465FF"/>
<circle cx="25" cy="17" r="10" fill="white" stroke="#6465FF" stroke-width="2"/>
<path d="M26.4844 19.2713C26.4844 18.9138 26.3721 18.6193 26.1476 18.388C25.9231 18.1525 25.5489 17.9422 25.0249 17.7571C24.501 17.5678 24.0936 17.3933 23.8025 17.2334C22.8337 16.7077 22.3493 15.9295 22.3493 14.8991C22.3493 14.2008 22.5593 13.6267 22.9792 13.1767C23.3992 12.7266 23.9688 12.4595 24.6881 12.3754V11H25.6861V12.388C26.4096 12.4932 26.9688 12.8044 27.3638 13.3218C27.7588 13.8349 27.9563 14.5037 27.9563 15.3281H26.447C26.447 14.7981 26.3285 14.3817 26.0915 14.0789C25.8586 13.7718 25.5405 13.6183 25.1372 13.6183C24.738 13.6183 24.4262 13.7277 24.2017 13.9464C23.9771 14.1651 23.8649 14.4784 23.8649 14.8864C23.8649 15.2524 23.9751 15.5468 24.1954 15.7697C24.42 15.9884 24.7983 16.1966 25.3306 16.3943C25.8628 16.592 26.2807 16.775 26.5842 16.9432C26.8877 17.1115 27.1435 17.3049 27.3514 17.5237C27.5593 17.7382 27.7193 17.9863 27.8316 18.2681C27.9439 18.5499 28 18.8801 28 19.2587C28 19.9695 27.7838 20.5457 27.3514 20.9874C26.9231 21.429 26.3243 21.6898 25.5551 21.7697V23H24.5634V21.776C23.7401 21.6835 23.106 21.3849 22.6611 20.8801C22.2204 20.3754 22 19.7066 22 18.8738H23.5156C23.5156 19.4038 23.6466 19.8139 23.9085 20.1041C24.1746 20.3943 24.5489 20.5394 25.0312 20.5394C25.5052 20.5394 25.8649 20.4238 26.1102 20.1924C26.3597 19.9611 26.4844 19.654 26.4844 19.2713Z" fill="#6465FF" stroke="#6465FF" stroke-width="0.5"/>
</svg>
