<svg width="125" height="125" viewBox="0 0 125 125" fill="none" xmlns="http://www.w3.org/2000/svg">
<mask id="mask0" mask-type="alpha" maskUnits="userSpaceOnUse" x="0" y="0" width="125" height="125">
<circle cx="62.5" cy="62.5" r="62.5" fill="#6465FF"/>
</mask>
<g mask="url(#mask0)">
<path d="M81.5 62L105.999 76.1341C106.928 76.6699 107.5 77.6606 107.5 78.7327V98.2115C107.5 99.2204 106.401 99.8447 105.534 99.3282L81.5 85V62Z" fill="#C1CCD9"/>
<path d="M81 62.2885L105.499 76.4226C106.428 76.9584 107 77.949 107 79.0211V98.557C107 99.3267 106.167 99.8078 105.5 99.4232L81 85.2885V62.2885Z" fill="#F2F6FA"/>
<path d="M104.221 78.7803L103.615 77.9485C103.589 77.9132 103.593 77.8679 103.625 77.8454C103.656 77.8228 103.701 77.8344 103.727 77.8697L104.342 78.7022L105.128 78.2117C105.163 78.1895 105.217 78.2018 105.251 78.2404C105.281 78.2785 105.277 78.3288 105.241 78.3535L104.442 78.843L105.117 79.7569C105.146 79.8001 105.142 79.8504 105.107 79.8701C105.071 79.8898 105.014 79.872 104.985 79.8288L104.322 78.9211L103.595 79.3661C103.564 79.3862 103.519 79.3695 103.493 79.3317C103.467 79.2939 103.471 79.2487 103.502 79.2286L104.221 78.7803Z" fill="#5B5B73"/>
<path d="M94.5 76L100.996 79.7121C101.308 79.8901 101.5 80.2215 101.5 80.5803V86.3107C101.5 86.6179 101.168 86.8104 100.902 86.658L94.5 83V76Z" fill="white"/>
<path d="M85.5 71L91.9961 74.7121C92.3077 74.8901 92.5 75.2215 92.5 75.5803V81.3107C92.5 81.6179 92.1682 81.8104 91.9015 81.658L85.5 78V71Z" fill="white"/>
<path d="M94.5 86.517C94.5 86.2866 94.7488 86.1422 94.9488 86.2565L101.248 89.856C101.404 89.9451 101.5 90.1107 101.5 90.2902V90.483C101.5 90.7134 101.251 90.8578 101.051 90.7435L94.7519 87.144C94.5961 87.0549 94.5 86.8893 94.5 86.7098V86.517Z" fill="#C1CCD9"/>
<path d="M85.5 81.517C85.5 81.2866 85.7488 81.1422 85.9488 81.2565L92.2481 84.856C92.4039 84.9451 92.5 85.1107 92.5 85.2902V85.483C92.5 85.7134 92.2512 85.8578 92.0512 85.7435L85.7519 82.144C85.5961 82.0549 85.5 81.8893 85.5 81.7098V81.517Z" fill="#C1CCD9"/>
<path d="M94.5 84.517C94.5 84.2866 94.7488 84.1422 94.9488 84.2565L101.248 87.856C101.404 87.9451 101.5 88.1107 101.5 88.2902V88.483C101.5 88.7134 101.251 88.8578 101.051 88.7435L94.7519 85.144C94.5961 85.0549 94.5 84.8893 94.5 84.7098V84.517Z" fill="#C1CCD9"/>
<path d="M85.5 79.517C85.5 79.2866 85.7488 79.1422 85.9488 79.2565L92.2481 82.856C92.4039 82.9451 92.5 83.1107 92.5 83.2902V83.483C92.5 83.7134 92.2512 83.8578 92.0512 83.7435L85.7519 80.144C85.5961 80.0549 85.5 79.8893 85.5 79.7098V79.517Z" fill="#C1CCD9"/>
<path d="M94.5 88.517C94.5 88.2866 94.7488 88.1422 94.9488 88.2565L99.2481 90.7132C99.4039 90.8022 99.5 90.9679 99.5 91.1473V91.483C99.5 91.7134 99.2512 91.8578 99.0512 91.7435L94.7519 89.2868C94.5961 89.1978 94.5 89.0321 94.5 88.8527V88.517Z" fill="#C1CCD9"/>
<path d="M85.5 83.517C85.5 83.2866 85.7488 83.1422 85.9488 83.2565L90.2481 85.7132C90.4039 85.8022 90.5 85.9679 90.5 86.1473V86.483C90.5 86.7134 90.2512 86.8578 90.0512 86.7435L85.7519 84.2868C85.5961 84.1978 85.5 84.0321 85.5 83.8527V83.517Z" fill="#C1CCD9"/>
<path opacity="0.2" d="M88 66L93 69V92L88 89V66Z" fill="#BBC7D3"/>
<path d="M57 17.062C57 16.083 57.4776 15.1657 58.2796 14.6043L59.9229 13.454C61.191 12.5663 62.8574 12.4899 64.2013 13.2579L86.9768 26.2725C88.8463 27.3407 90 29.3288 90 31.4819V96.3305C90 99.5401 86.5458 101.564 83.7462 99.9941L59.7594 86.5469C58.0552 85.5916 57 83.7903 57 81.8366V17.062Z" fill="#C1CCD9"/>
<path d="M57 17.1386C57 14.842 59.4749 13.3971 61.4748 14.5261L84.9496 27.778C86.8343 28.842 88 30.8386 88 33.0029V97.2757C88 99.7358 85.3397 101.276 83.2063 100.051L59.7107 86.5568C58.0339 85.5938 57 83.8077 57 81.8741V17.1386Z" fill="#F2F6FA"/>
<path d="M57.5 17.8325C57.5 15.688 59.8119 14.3396 61.6785 15.3953L84.4539 28.2771C86.3362 29.3418 87.5 31.337 87.5 33.4996V97.1577C87.5 99.3115 85.1699 100.659 83.3032 99.5844L60.2062 86.2902C58.5319 85.3265 57.5 83.5419 57.5 81.6101V17.8325Z" fill="#383839"/>
<path d="M58.5 18.4159C58.5 16.8871 60.1456 15.9235 61.4788 16.6717L83.4364 28.9946C85.3286 30.0565 86.5 32.0572 86.5 34.2269V96.5536C86.5 98.0893 84.841 99.052 83.5077 98.2901L61.0193 85.4396C59.4614 84.5494 58.5 82.8927 58.5 81.0984V18.4159Z" fill="url(#paint0_linear)"/>
<path d="M65.5 20.4197V18.5L79.5 26.5V28.3107C79.5 28.6179 79.1682 28.8104 78.9015 28.658L66.0039 21.2879C65.6923 21.1099 65.5 20.7785 65.5 20.4197Z" fill="#383839"/>
<path d="M61.0191 64.4949L63.6014 63.0193L63.6014 34.2451L54.3789 40.5164L54.3789 60.806L61.0191 64.4949Z" fill="#5092D2"/>
<path d="M54.3789 60.806L61.0191 64.495L61.0191 36.0896L54.3789 32.7695L54.3789 60.806Z" fill="#5092D2"/>
<path d="M66.5522 40.5164L49.9517 32.0317L57.6986 24.2848L66.5522 40.5164Z" fill="#5092D2"/>
<path d="M68.7657 39.0408L59.912 23.1781L58.5001 23.9177L58.5 26.5L66.5522 40.5164L68.7657 39.0408Z" fill="#5092D2"/>
<path d="M70.5003 22.4206C70.5003 22.2335 70.7028 22.1163 70.8651 22.2095L74.2556 24.1571C74.4068 24.2439 74.5001 24.405 74.5001 24.5794C74.5001 24.7665 74.2976 24.8837 74.1353 24.7905L70.7447 22.8429C70.5935 22.7561 70.5003 22.595 70.5003 22.4206Z" fill="#202023"/>
<path d="M67.5 85.2348C67.5 84.912 67.8526 84.713 68.1289 84.88L75.0999 89.0916C75.3484 89.2418 75.5002 89.5109 75.5002 89.8013C75.5002 90.1241 75.1476 90.323 74.8713 90.1561L67.9003 85.9444C67.6518 85.7943 67.5 85.5251 67.5 85.2348Z" fill="#A4BEFF"/>
<g clip-path="url(#clip0)">
<path d="M80.4995 58.6678V58.3026L78.0316 57.9139V58.2892V58.393C78.0316 62.454 75.3518 65.2317 72.1657 64.5984C69.0808 63.9853 66.6415 60.38 66.6288 56.5569C66.6161 52.7338 69.0587 49.9327 72.1404 50.2979L72.3808 50.328V47.5638L72.1404 47.5369C67.8311 47.0846 64.4868 50.9848 64.4868 56.2118C64.4868 61.4388 67.8406 66.4212 72.1404 67.3527C76.6458 68.3176 80.4742 64.4912 80.4742 58.7884C80.4891 58.75 80.4976 58.7092 80.4995 58.6678Z" fill="white"/>
<path d="M73.7576 50.3782V53.5278C73.2945 53.2115 72.7719 53.0057 72.2262 52.9247C70.2076 52.6466 68.6035 54.3822 68.6035 56.7914C68.6035 59.2005 70.1507 61.365 72.106 61.7972L73.7576 62.1021V59.5087L73.2197 59.4149L72.3338 59.2641L72.1408 59.2306C71.7138 59.0961 71.34 58.8173 71.0767 58.4367C70.8133 58.0562 70.6748 57.5948 70.6822 57.1231C70.6822 56.1179 71.372 55.3673 72.2262 55.4947C72.6169 55.5833 72.9727 55.796 73.2463 56.1042C73.5199 56.4125 73.6982 56.8018 73.7576 57.2202V59.5087L75.9913 59.8874V50.663L73.7576 50.3782Z" fill="white"/>
</g>
<path d="M108.882 34.3181C108.843 33.9625 108.707 33.6253 108.491 33.3446C108.274 33.0639 107.986 32.8508 107.657 32.7295C105.386 32.2392 103.535 29.2975 103.487 26.1939C103.443 25.4665 103.539 24.7374 103.771 24.0483C104.002 23.3592 104.364 22.7237 104.836 22.1784C105.038 21.9054 105.156 21.5772 105.177 21.2352C105.197 20.8932 105.118 20.5526 104.95 20.2564C104.129 18.627 103.168 17.0749 102.081 15.6183C101.669 15.0789 99.818 14.9257 99.5 15.1707C99.2606 15.5152 100.172 16.1546 99.818 16.3718C99.464 16.589 99.0699 16.7287 98.6607 16.7821C98.2514 16.8356 97.8358 16.8015 97.44 16.6822C97.0442 16.5629 96.6767 16.3609 96.3608 16.0889C94.8925 14.9024 93.9695 12.6078 94.0699 10.3329C94.0934 10.0174 94.0239 9.70191 93.8704 9.42739C93.7169 9.15287 93.4865 8.93198 93.209 8.79336C92.0161 8.38888 89 7.67068 87.5 8.17068C87.0217 8.17068 88.7038 8.70511 88.7134 9.40133C88.766 11.6224 87.8956 13.4904 86.5373 14.0738C85.1886 14.5641 83.6677 13.7551 82.7112 12.0244C82.4147 11.4704 80.3443 11.3177 80 11.6707C79.073 12.6308 79.8423 13.7091 79.1816 14.8779C79.0499 15.1547 78.9883 15.461 79.0025 15.7687C79.0167 16.0763 79.1063 16.3753 79.2629 16.6381C79.78 17.5112 80.1206 18.4819 80.2644 19.4927C80.4081 20.5034 80.3522 21.5335 80.0999 22.5216C79.526 24.321 78.2682 25.2133 76.9195 24.8064C76.4986 24.6593 76.1351 25.0564 76.0969 25.7036C75.9677 27.4089 75.9677 29.1219 76.0969 30.8272C76.1126 31.1228 76.2081 31.4082 76.3728 31.6515C76.5374 31.8948 76.7648 32.0864 77.0295 32.2049C78.3399 32.5628 79.5356 34.1661 80.0377 36.2155C80.5399 38.2649 80.2195 40.5105 79.2103 41.6087C79.0502 41.8589 78.9574 42.1481 78.9414 42.4469C78.9255 42.7457 77.8674 44.4041 78 44.6707C78.6701 46.2262 79.3251 47.5145 80.2213 48.9452C80.5657 49.4944 81.3465 49.3424 81.6478 48.9452C82.6283 47.7146 85.1216 46.8402 86.4799 48.0708C87.8477 49.4142 88.7134 51.7922 88.6225 53.9985C88.6055 54.3268 88.6693 54.6542 88.8081 54.9507C88.9468 55.2471 89.156 55.503 89.4164 55.6949C90.0211 56.0414 90.3532 56.9165 91 57.1707C91.5907 57.399 91.8811 57.5433 92.5 57.6707C92.9783 57.7785 93.9599 56.7637 93.9456 56.043C93.8834 53.7582 94.8016 52.003 96.2603 51.6304C97.7525 51.3509 97.8857 53.0967 99 55.1707C99.3491 55.8326 100.608 56.3519 101 56.043C102.125 55.1826 104.03 53.3144 104.855 52.1501C105.02 51.8422 105.098 51.4928 105.08 51.1418C105.061 50.7907 104.947 50.4521 104.749 50.1644C103.08 47.5756 102.923 43.9916 104.391 42.1138C104.747 41.6241 105.245 41.2629 105.814 41.0822C106.383 40.9016 105.436 40.9729 106 41.1707C106 41.1707 106.752 41.2393 107.234 41.2393C108 41.2393 108.839 40.9616 108.906 40.1967C109.052 38.2397 109.044 36.2738 108.882 34.3181ZM91.3295 40.5595C88.3451 39.6476 85.9825 35.4016 85.9825 31.0576C85.9825 26.7136 88.3451 23.7473 91.3295 24.4484C94.3903 25.1692 96.9395 29.4642 96.9395 34.0239C96.9347 38.5787 94.3903 41.4911 91.3295 40.5595Z" fill="#BBC7D3"/>
<path d="M106.882 34.3181C106.843 33.9625 106.707 33.6253 106.491 33.3446C106.274 33.0639 105.986 32.8508 105.657 32.7295C103.386 32.2392 101.535 29.2975 101.487 26.1939C101.443 25.4665 101.539 24.7374 101.771 24.0483C102.002 23.3592 102.364 22.7237 102.836 22.1784C103.038 21.9054 103.156 21.5772 103.177 21.2352C103.197 20.8932 103.118 20.5526 102.95 20.2564C102.129 18.627 101.168 17.0749 100.081 15.6183C99.6695 15.0789 99.0716 15.0348 98.7177 15.5202C98.4784 15.8647 98.172 16.1546 97.818 16.3718C97.464 16.589 97.0699 16.7287 96.6607 16.7821C96.2514 16.8356 95.8358 16.8016 95.44 16.6823C95.0442 16.5629 94.6767 16.3609 94.3608 16.0889C92.8925 14.9024 91.9695 12.6078 92.0699 10.3329C92.0934 10.0174 92.0239 9.70191 91.8704 9.42739C91.7169 9.15288 91.4865 8.93198 91.209 8.79336C90.0161 8.38888 88.7686 8.17877 87.5121 8.17068C87.0338 8.17068 86.7038 8.70511 86.7134 9.40133C86.766 11.6224 85.8956 13.4904 84.5373 14.0738C83.1886 14.5641 81.6677 13.7551 80.7112 12.0244C80.4147 11.4704 79.9173 11.3184 79.5729 11.6714C78.6459 12.6315 77.8423 13.7091 77.1816 14.8779C77.0499 15.1547 76.9883 15.461 77.0025 15.7687C77.0167 16.0763 77.1063 16.3753 77.2629 16.6381C77.78 17.5112 78.1206 18.4819 78.2644 19.4927C78.4081 20.5034 78.3522 21.5335 78.0999 22.5216C77.526 24.321 76.2682 25.2133 74.9195 24.8064C74.4986 24.6593 74.1351 25.0564 74.0969 25.7036C73.9677 27.4089 73.9677 29.1219 74.0969 30.8272C74.1126 31.1228 74.2081 31.4082 74.3728 31.6515C74.5374 31.8948 74.7648 32.0864 75.0295 32.2049C76.3399 32.5628 77.5356 34.1661 78.0377 36.2155C78.5399 38.2649 78.2195 40.5105 77.2103 41.6087C77.0502 41.8589 76.9574 42.1481 76.9414 42.4469C76.9255 42.7457 76.9869 43.0435 77.1195 43.3101C77.7895 44.8656 78.5762 46.3655 79.4725 47.7963C79.8169 48.3454 80.319 48.468 80.6203 48.0708C81.6008 46.8402 83.1216 46.8402 84.4799 48.0708C85.8477 49.4142 86.7134 51.7922 86.6225 53.9985C86.6055 54.3268 86.6693 54.6542 86.8081 54.9507C86.9468 55.2471 87.156 55.503 87.4164 55.6949C88.0211 56.0414 88.6492 56.3429 89.296 56.597C89.8867 56.8254 90.4945 57.0041 91.1134 57.1315C91.5916 57.2393 91.9599 56.7637 91.9456 56.043C91.8834 53.7582 92.8016 52.003 94.2603 51.6304C95.7525 51.3509 97.4503 52.4982 98.5647 54.5721C98.9138 55.234 99.5212 55.5135 99.9134 55.2046C101.038 54.3442 102.03 53.3144 102.855 52.1501C103.02 51.8422 103.098 51.4928 103.08 51.1418C103.061 50.7907 102.947 50.4521 102.749 50.1644C101.08 47.5756 100.923 43.9916 102.391 42.1138C102.747 41.6241 103.245 41.2629 103.814 41.0822C104.383 40.9016 104.993 40.9108 105.557 41.1086L105.791 41.1773C106.351 41.3783 106.839 40.9616 106.906 40.1967C107.052 38.2397 107.044 36.2738 106.882 34.3181ZM89.3295 40.5595C86.3451 39.6476 83.9825 35.4016 83.9825 31.0576C83.9825 26.7136 86.3451 23.7473 89.3295 24.4484C92.3903 25.1692 94.9395 29.4642 94.9395 34.0239C94.9347 38.5787 92.3903 41.4911 89.3295 40.5595Z" fill="#DDE2E8"/>
<path d="M52.9996 91.5L83.4656 109.215C84.5187 109.828 84.4413 111.373 83.3323 111.877L82.3523 112.323C81.1754 112.858 79.8126 112.791 78.6937 112.144L50.4486 95.8003L52.9996 91.5Z" fill="#E0E5EC"/>
<path d="M40.2718 19L46.912 23.0579V47.4053L37.6895 41.134V20.4756L40.2718 19Z" fill="#F4AD44"/>
<path d="M40.272 19L46.9128 23.0583L44.3302 24.534L37.6895 20.4757L40.272 19Z" fill="#FFBB56"/>
<path d="M34 38.1959L36.5825 37.076L40.2718 39.2896L37.6893 40.3964L34 38.1959Z" fill="#FFBB56"/>
<path d="M37.6895 20.4757L44.3297 24.5336V45.5609L37.6895 41.503V20.4757Z" fill="#F9D17B"/>
<path d="M48.0182 46.634L34 38.1828L41.0091 55.89L48.0182 46.634Z" fill="#F9D17B"/>
<path d="M44.3294 54.0455L41.0093 55.89L49.1251 44.823L50.6007 45.5608L44.3294 54.0455Z" fill="#F4AD44"/>
<path d="M44.3287 44.4541L46.9113 43.3473L50.6005 45.5609L47.6491 46.6677L44.3287 44.4541Z" fill="#FFBB56"/>
<path d="M58.3101 64.3168L60.8924 62.8412L60.8924 34.067L51.6699 40.3383L51.6699 60.6279L58.3101 64.3168Z" fill="#F4AD44"/>
<path d="M51.6699 60.6279L58.3101 64.3168L58.3101 35.9115L51.6699 32.5914L51.6699 60.6279Z" fill="#F9D17B"/>
<path d="M63.8432 40.3383L47.2427 31.8536L54.9896 24.1067L63.8432 40.3383Z" fill="#F9D17B"/>
<path d="M57.2027 23L54.9893 24.1067L63.8429 40.3383L66.0563 38.8627L57.2027 23Z" fill="#F4AD44"/>
<path d="M65.0059 97.0888C65.0059 100.679 59.8571 104.179 53.5059 104.179C47.1546 104.179 42.0059 100.679 42.0059 97.0888C42.0059 95.8002 41.8615 93.1889 43.0059 92.1786C45.0494 90.3745 49.4345 86.5 53.5059 86.5C57.5772 86.5 60.4941 88.8214 63 91.5C65.0059 93.6441 65.0059 95.8002 65.0059 97.0888Z" fill="#E0E5EC"/>
<path d="M63.0059 95.9101C63.0059 99.5 57.8571 103 51.5059 103C45.1546 103 40.0059 99.5 40.0059 95.9101C40.0059 94.6215 39.8615 92.0103 41.0059 91C43.0494 89.1958 47.4345 90 51.5059 90C55.5772 90 59.9623 89.1958 62.0059 91C63.1502 92.0103 63.0059 94.6215 63.0059 95.9101Z" fill="#F6BD48"/>
<path d="M63.0059 93.5C63.0059 97.6421 57.8571 101 51.5059 101C45.1546 101 40.0059 97.6421 40.0059 93.5C40.0059 89.3579 45.1546 86 51.5059 86C57.8571 86 63.0059 89.3579 63.0059 93.5Z" fill="#F9D17B"/>
<path d="M60.0059 93.5577C60.0059 96.5634 56.2003 99 51.5059 99C46.8114 99 43.0059 96.5634 43.0059 93.5577C43.0059 90.552 46.8114 88 51.5059 88C56.2003 88 60.0059 90.552 60.0059 93.5577Z" stroke="#FCE7BD" stroke-width="0.5"/>
<path d="M65.5 89C65.5 92.5899 62.3513 98 56 98C49.6487 98 44.5 94.5899 44.5 91C44.5 89.7114 45.8615 87.1889 47.0059 86.1786C49.0494 84.3745 53.4345 80.5 57.5059 80.5C61.5772 80.5 61.4941 83.5001 64 86.1786C66.0059 88.3228 65.5 87.7114 65.5 89Z" fill="#EFB02F"/>
<path d="M67.0059 89.9101C67.0059 93.5 61.8571 97 55.5059 97C49.1546 97 44.0059 93.5 44.0059 89.9101C44.0059 88.6215 43.8615 86.0103 45.0059 85C47.0494 83.1958 51.4345 84 55.5059 84C59.5772 84 63.9623 83.1958 66.0059 85C67.1502 86.0103 67.0059 88.6215 67.0059 89.9101Z" fill="#F6BD48"/>
<path d="M67.0059 87.5C67.0059 91.6421 61.8571 95 55.5059 95C49.1546 95 44.0059 91.6421 44.0059 87.5C44.0059 83.3579 49.1546 80 55.5059 80C61.8571 80 67.0059 83.3579 67.0059 87.5Z" fill="#F9D17B"/>
<path d="M64.0059 87.5577C64.0059 90.5634 60.2003 93 55.5059 93C50.8114 93 47.0059 90.5634 47.0059 87.5577C47.0059 84.552 50.8114 82 55.5059 82C60.2003 82 64.0059 84.552 64.0059 87.5577Z" stroke="#FCE7BD" stroke-width="0.5"/>
</g>
<defs>
<linearGradient id="paint0_linear" x1="72.5" y1="14.5" x2="72.5" y2="100.5" gradientUnits="userSpaceOnUse">
<stop stop-color="#58B0FF"/>
<stop offset="1" stop-color="#497BFF"/>
</linearGradient>
<clipPath id="clip0">
<rect width="16" height="20" fill="white" transform="translate(64.5 47.5)"/>
</clipPath>
</defs>
</svg>
