<svg width="77" height="48" viewBox="0 0 77 48" fill="none" xmlns="http://www.w3.org/2000/svg">
<path d="M58.1203 10.8053C58.7585 10.0675 59.1477 9.10865 59.1477 8.05897C59.1477 5.73961 57.2604 3.85234 54.941 3.85234C53.8913 3.85234 52.9325 4.24151 52.1947 4.87974C48.3126 2.18524 43.7686 0.75 39 0.75C34.2314 0.75 29.6874 2.18524 25.8053 4.87974C25.0675 4.24151 24.1087 3.85234 23.059 3.85234C20.7396 3.85234 18.8523 5.73961 18.8523 8.05897C18.8523 9.10865 19.2415 10.0675 19.8797 10.8053C17.1852 14.6874 15.75 19.2314 15.75 24C15.75 28.7686 17.1852 33.3126 19.8797 37.1947C19.2415 37.9325 18.8523 38.8913 18.8523 39.941C18.8523 42.2604 20.7396 44.1477 23.059 44.1477C24.1087 44.1477 25.0675 43.7585 25.8053 43.1203C29.6874 45.8148 34.2314 47.25 39 47.25C43.7686 47.25 48.3126 45.8148 52.1947 43.1203C52.9325 43.7585 53.8913 44.1477 54.941 44.1477C57.2604 44.1477 59.1477 42.2604 59.1477 39.941C59.1477 38.8913 58.7585 37.9325 58.1203 37.1947C60.8148 33.3126 62.25 28.7686 62.25 24C62.25 19.2314 60.8148 14.6874 58.1203 10.8053ZM57.7386 8.05897C57.7386 9.60154 56.4836 10.8565 54.941 10.8565C53.3985 10.8565 52.1435 9.60154 52.1435 8.05897C52.1435 6.5164 53.3985 5.26143 54.941 5.26143C56.4836 5.26143 57.7386 6.5164 57.7386 8.05897ZM23.059 5.26143C24.6015 5.26143 25.8565 6.5164 25.8565 8.05897C25.8565 9.60154 24.6015 10.8565 23.059 10.8565C21.5164 10.8565 20.2614 9.60154 20.2614 8.05897C20.2614 6.5164 21.5164 5.26143 23.059 5.26143ZM20.2614 39.941C20.2614 38.3985 21.5164 37.1435 23.059 37.1435C24.6015 37.1435 25.8565 38.3985 25.8565 39.941C25.8565 41.4836 24.6015 42.7386 23.059 42.7386C21.5164 42.7386 20.2614 41.4836 20.2614 39.941ZM26.7055 42.0293C27.0598 41.4131 27.2656 40.7013 27.2656 39.941C27.2656 37.6217 25.3783 35.7344 23.059 35.7344C22.2987 35.7344 21.5869 35.9402 20.9707 36.2945C18.4843 32.6703 17.1591 28.4396 17.1591 24C17.1591 19.5604 18.4843 15.3297 20.9707 11.7055C21.5869 12.0598 22.2987 12.2656 23.059 12.2656C25.3783 12.2656 27.2656 10.3783 27.2656 8.05897C27.2656 7.29874 27.0598 6.58688 26.7055 5.97075C30.3297 3.48428 34.5604 2.15909 39 2.15909C43.4396 2.15909 47.6703 3.48428 51.2945 5.97075C50.9402 6.58688 50.7344 7.29874 50.7344 8.05897C50.7344 10.3783 52.6217 12.2656 54.941 12.2656C55.7013 12.2656 56.4131 12.0598 57.0293 11.7055C59.5157 15.3297 60.8409 19.5604 60.8409 24C60.8409 28.4396 59.5157 32.6703 57.0293 36.2945C56.4131 35.9402 55.7013 35.7344 54.941 35.7344C52.6217 35.7344 50.7344 37.6217 50.7344 39.941C50.7344 40.7013 50.9402 41.4131 51.2945 42.0293C47.6703 44.5157 43.4396 45.8409 39 45.8409C34.5604 45.8409 30.3297 44.5157 26.7055 42.0293ZM54.941 42.7386C53.3985 42.7386 52.1435 41.4836 52.1435 39.941C52.1435 38.3985 53.3985 37.1435 54.941 37.1435C56.4836 37.1435 57.7386 38.3985 57.7386 39.941C57.7386 41.4836 56.4836 42.7386 54.941 42.7386Z" fill="#6465FF" stroke="#6465FF" stroke-width="0.5"/>
<path d="M45.143 22.6576H42.9172C42.6592 22.6576 42.4225 22.798 42.2986 23.0243C41.6374 24.2353 40.3426 25.0175 39.0002 25.0175C37.6578 25.0175 36.363 24.2353 35.7018 23.0243C35.5779 22.798 35.3412 22.6576 35.0832 22.6576H32.8574C30.4349 22.6576 28.4644 24.6288 28.4644 27.0514V33.587C28.4644 33.9764 28.7795 34.2915 29.1689 34.2915H33.4946H44.5058H48.8315C49.2209 34.2915 49.536 33.9764 49.536 33.587V27.0514C49.536 24.6288 47.5655 22.6576 45.143 22.6576ZM48.127 32.8824H45.2104V30.0725C45.2104 29.6831 44.8953 29.368 44.5058 29.368C44.1164 29.368 43.8013 29.6831 43.8013 30.0725V32.8824H34.1991V30.0725C34.1991 29.6831 33.884 29.368 33.4946 29.368C33.1051 29.368 32.79 29.6831 32.79 30.0725V32.8824H29.8734V27.0514C29.8734 25.4056 31.2124 24.0667 32.8574 24.0667H34.6855C35.6398 25.5122 37.2904 26.4266 39.0002 26.4266C40.71 26.4266 42.3605 25.5122 43.3149 24.0667H45.143C46.788 24.0667 48.127 25.4056 48.127 27.0514V32.8824Z" fill="#6465FF" stroke="#6465FF" stroke-width="0.5"/>
<path d="M39.0001 21.7075C42.3019 21.7075 44.9887 19.0207 44.9887 15.7181C44.9887 12.4163 42.3019 9.72949 39.0001 9.72949C35.6975 9.72949 33.0107 12.4163 33.0107 15.7181C33.0107 19.0207 35.6975 21.7075 39.0001 21.7075ZM39.0001 11.1386C41.5251 11.1386 43.5796 13.193 43.5796 15.7181C43.5796 18.2439 41.5251 20.2984 39.0001 20.2984C36.4743 20.2984 34.4198 18.2439 34.4198 15.7181C34.4198 13.193 36.4743 11.1386 39.0001 11.1386Z" fill="#6465FF" stroke="#6465FF" stroke-width="0.5"/>
<path fill-rule="evenodd" clip-rule="evenodd" d="M69.0005 23.1021V23.1022H70.0603L70.0693 23.1021C71.3014 23.107 72.2998 24.1019 72.3098 25.3322C72.3097 25.3384 72.3097 25.3445 72.3097 25.3507V26.4106H72.3098H73.1037H73.1038V25.3507C73.1038 25.3445 73.1038 25.3384 73.1037 25.3322C73.1137 24.1017 74.1124 23.1067 75.3447 23.1021C75.3475 23.1022 75.3504 23.1022 75.3532 23.1022H76.413V23.1021V22.3085V22.3085H75.3532C75.3503 22.3085 75.3473 22.3085 75.3444 22.3085C74.1123 22.3038 73.1137 21.3089 73.1037 20.0785L73.1038 20.06V19.0001H73.1037H72.3098H72.3097V20.06L72.3098 20.0785C72.2998 21.3087 71.3015 22.3036 70.0695 22.3085L70.0603 22.3085H69.0005V22.3085V23.1021ZM73.8492 22.7053C73.3734 22.4345 72.9778 22.039 72.7068 21.5634C72.4358 22.039 72.0401 22.4345 71.5643 22.7053C72.0401 22.9762 72.4357 23.3716 72.7068 23.8472C72.9778 23.3716 73.3734 22.9762 73.8492 22.7053Z" fill="#BBC6CB"/>
<path fill-rule="evenodd" clip-rule="evenodd" d="M0 23.1021V23.1022H1.05981L1.06886 23.1021C2.30091 23.107 3.29935 24.1019 3.30928 25.3322C3.30924 25.3384 3.30922 25.3445 3.30922 25.3507V26.4106H3.30935H4.10318H4.10331V25.3507C4.10331 25.3445 4.10329 25.3384 4.10325 25.3322C4.11319 24.1017 5.1119 23.1067 6.34417 23.1021C6.34702 23.1022 6.34987 23.1022 6.35273 23.1022H7.41253V23.1021V22.3085V22.3085H6.35273C6.34979 22.3085 6.34685 22.3085 6.34392 22.3085C5.11176 22.3038 4.11319 21.3089 4.10325 20.0785L4.10331 20.06V19.0001H4.10318H3.30935H3.30922V20.06L3.30928 20.0785C3.29935 21.3087 2.301 22.3036 1.06903 22.3085L1.05981 22.3085H0V22.3085V23.1021ZM4.8487 22.7053C4.37289 22.4345 3.97727 22.039 3.70627 21.5634C3.43526 22.039 3.03965 22.4345 2.56384 22.7053C3.03965 22.9762 3.43526 23.3716 3.70627 23.8472C3.97727 23.3716 4.37289 22.9762 4.8487 22.7053Z" fill="#BBC6CB"/>
</svg>
