<svg width="75" height="48" viewBox="0 0 75 48" fill="none" xmlns="http://www.w3.org/2000/svg">
<path d="M60.2727 0H52.7436C52.3416 0 52.0163 0.325639 52.0163 0.727273V3.76456H21.9837V0.727273C21.9837 0.325639 21.6584 0 21.2564 0H13.7273C13.3253 0 13 0.325639 13 0.727273V8.25675C13 8.65838 13.3253 8.98402 13.7273 8.98402H16.7649V19.5082H13.7273C13.3253 19.5082 13 19.8338 13 20.2354V27.7646C13 28.1662 13.3253 28.4918 13.7273 28.4918H16.7649V39.016H13.7273C13.3253 39.016 13 39.3416 13 39.7433V47.2727C13 47.6744 13.3253 48 13.7273 48H21.2564C21.6584 48 21.9837 47.6744 21.9837 47.2727V44.2354H52.0163V47.2727C52.0163 47.6744 52.3416 48 52.7436 48H60.2727C60.6747 48 61 47.6744 61 47.2727V39.7433C61 39.3416 60.6747 39.016 60.2727 39.016H57.2351V28.4918H60.2727C60.6747 28.4918 61 28.1662 61 27.7646V20.2354C61 19.8338 60.6747 19.5082 60.2727 19.5082H57.2351V8.98402H60.2727C60.6747 8.98402 61 8.65838 61 8.25675V0.727273C61 0.325639 60.6747 0 60.2727 0ZM14.4545 1.45455H20.5291V7.52947H14.4545V1.45455ZM14.4545 20.9627H20.5291V27.0373H14.4545V20.9627ZM20.5291 46.5455H14.4545V40.4705H20.5291V46.5455ZM59.5455 46.5455H53.4709V40.4705H59.5455V46.5455ZM59.5455 27.0373H53.4709V20.9627H59.5455V27.0373ZM55.7805 19.5082H52.7436C52.3416 19.5082 52.0163 19.8338 52.0163 20.2354V27.7646C52.0163 28.1662 52.3416 28.4918 52.7436 28.4918H55.7805V39.016H52.7436C52.3416 39.016 52.0163 39.3416 52.0163 39.7433V42.7809H21.9837V39.7433C21.9837 39.3416 21.6584 39.016 21.2564 39.016H18.2195V28.4918H21.2564C21.6584 28.4918 21.9837 28.1662 21.9837 27.7646V20.2354C21.9837 19.8338 21.6584 19.5082 21.2564 19.5082H18.2195V8.98402H21.2564C21.6584 8.98402 21.9837 8.65838 21.9837 8.25675V5.21911H52.0163V8.25675C52.0163 8.65838 52.3416 8.98402 52.7436 8.98402H55.7805V19.5082ZM59.5455 7.52947H53.4709V1.45455H59.5455V7.52947Z" fill="#6465FF"/>
<path d="M48.356 20.754L40.9597 19.6794L37.6521 12.9777C37.4078 12.4812 36.5925 12.4812 36.3482 12.9777L33.0406 19.6794L25.6443 20.754C25.3702 20.7937 25.1429 20.9859 25.057 21.249C24.9717 21.5121 25.0428 21.8012 25.2409 21.9944L30.5932 27.2117L29.3297 34.5778C29.2828 34.8506 29.395 35.1265 29.6188 35.2891C29.8439 35.4518 30.1401 35.4734 30.3851 35.3445L37.0001 31.8665L43.6152 35.3445C43.7217 35.4003 43.8382 35.428 43.954 35.428C44.1045 35.428 44.2544 35.3811 44.3815 35.2891C44.6053 35.1265 44.7175 34.8506 44.6706 34.5778L43.4071 27.2117L48.7594 21.9944C48.9575 21.8012 49.0285 21.5121 48.9433 21.249C48.8574 20.9859 48.6301 20.7937 48.356 20.754ZM42.118 26.4368C41.9469 26.6041 41.8687 26.8449 41.9092 27.0807L42.9881 33.3712L37.3389 30.401C37.2324 30.3452 37.1166 30.3175 37.0001 30.3175C36.8837 30.3175 36.7679 30.3452 36.6614 30.401L31.0122 33.3712L32.0911 27.0807C32.1315 26.8449 32.0534 26.6041 31.8822 26.4368L27.3112 21.9816L33.628 21.064C33.8652 21.0295 34.0697 20.8807 34.1756 20.6659L37.0001 14.9429L39.8247 20.6659C39.9305 20.8807 40.1351 21.0295 40.3723 21.064L46.6891 21.9816L42.118 26.4368Z" fill="#6465FF"/>
<path fill-rule="evenodd" clip-rule="evenodd" d="M67 38.102V38.102H68.0598L68.0689 38.102C69.3009 38.1069 70.2993 39.1018 70.3093 40.3321C70.3092 40.3382 70.3092 40.3444 70.3092 40.3506V41.4104H70.3094H71.1032H71.1033V40.3506C71.1033 40.3444 71.1033 40.3382 71.1033 40.3321C71.1132 39.1016 72.1119 38.1066 73.3442 38.102C73.347 38.102 73.3499 38.102 73.3527 38.102H74.4125V38.102V37.3084V37.3084H73.3527C73.3498 37.3084 73.3469 37.3084 73.3439 37.3084C72.1118 37.3037 71.1132 36.3088 71.1033 35.0784L71.1033 35.0598V34H71.1032H70.3094H70.3092V35.0598L70.3093 35.0784C70.2993 36.3086 69.301 37.3035 68.069 37.3084L68.0598 37.3084H67V37.3084V38.102ZM71.8487 37.7052C71.3729 37.4343 70.9773 37.0389 70.7063 36.5633C70.4353 37.0389 70.0396 37.4343 69.5638 37.7052C70.0396 37.9761 70.4353 38.3715 70.7063 38.8471C70.9773 38.3715 71.3729 37.9761 71.8487 37.7052Z" fill="#BBC6CB"/>
<path fill-rule="evenodd" clip-rule="evenodd" d="M0 16.102V16.102H1.05981L1.06886 16.102C2.30091 16.1069 3.29935 17.1018 3.30928 18.3321C3.30924 18.3382 3.30922 18.3444 3.30922 18.3506V19.4104H3.30935H4.10318H4.10331V18.3506C4.10331 18.3444 4.10329 18.3382 4.10325 18.3321C4.11319 17.1016 5.1119 16.1066 6.34417 16.102C6.34702 16.102 6.34987 16.102 6.35273 16.102H7.41253V16.102V15.3084V15.3084H6.35273C6.34979 15.3084 6.34685 15.3084 6.34392 15.3084C5.11176 15.3037 4.11319 14.3088 4.10325 13.0784L4.10331 13.0598V12H4.10318H3.30935H3.30922V13.0598L3.30928 13.0784C3.29935 14.3086 2.301 15.3035 1.06903 15.3084L1.05981 15.3084H0V15.3084V16.102ZM4.8487 15.7052C4.37289 15.4343 3.97727 15.0389 3.70627 14.5633C3.43526 15.0389 3.03965 15.4343 2.56384 15.7052C3.03965 15.9761 3.43526 16.3715 3.70627 16.8471C3.97727 16.3715 4.37289 15.9761 4.8487 15.7052Z" fill="#BBC6CB"/>
</svg>
