<svg width="38" height="38" viewBox="0 0 38 38" fill="none" xmlns="http://www.w3.org/2000/svg">
<path fill-rule="evenodd" clip-rule="evenodd" d="M12.2896 3.86476C13.1656 2.57751 14.5787 1.71184 16.0811 1.33866C17.8873 0.887038 20.0847 0.887188 21.8903 1.33866C23.3927 1.71184 24.8058 2.57751 25.6819 3.86476C26.4531 4.98262 26.7926 6.33695 26.8513 7.67599C26.8728 9.11225 26.8543 10.5515 26.8603 11.9907C26.8266 12.2765 27.4124 12.4739 27.5267 12.7104C28.1867 13.8919 27.8969 15.5009 26.8328 16.3607C26.5644 16.5429 26.1758 16.8769 26.0765 17.1656C25.6137 18.5866 24.3766 20.3599 23.4048 21.5079V23.1051C23.4048 25.7621 24.8631 26.4345 28.7639 27.4569C32.6646 28.4792 35.3735 31.3459 36.1868 33.3217C37 35.2975 37 37 37 37H1.01873C1.01873 37 0.888299 35.0359 1.66629 33.3217C2.83328 30.7504 5.30682 28.4792 9.20758 27.4569C13.1083 26.4345 14.5667 25.7621 14.5667 23.1051V21.5079C13.5948 20.3599 12.3577 18.5866 11.8949 17.1656C11.7957 16.8769 11.407 16.5429 11.1387 16.3607C10.0746 15.5009 9.78472 13.8919 10.4447 12.7104C10.559 12.4739 11.1448 12.2765 11.1111 11.9907C11.1172 10.5515 11.0986 9.11225 11.1202 7.67599C11.1788 6.33695 11.5183 4.98262 12.2896 3.86476Z" stroke="white" stroke-width="2"/>
</svg>
