<svg width="41" height="48" viewBox="0 0 41 48" fill="none" xmlns="http://www.w3.org/2000/svg">
<g clip-path="url(#clip0)">
<path d="M30.3728 4.57158L30.4019 4.6H30.4426H37.0026C38.6922 4.6 39.9776 5.85754 39.9776 7.5V45C39.9776 46.6425 38.6922 47.9 37.0026 47.9H11.2751C9.58549 47.9 8.30011 46.6425 8.30011 45V41.6V41.5H8.20011H3.99761C2.30799 41.5 1.02261 40.2425 1.02261 38.6V3C1.02261 1.35754 2.30799 0.1 3.99761 0.1H25.4201C25.6011 0.1 25.8829 0.191228 26.0678 0.371578L30.3728 4.57158ZM10.2501 41.5H10.1501V41.6V45C10.1501 45.3235 10.2611 45.6005 10.4621 45.7966C10.6629 45.9925 10.9456 46.1 11.2751 46.1H37.0026C37.3321 46.1 37.6148 45.9925 37.8156 45.7966C38.0166 45.6005 38.1276 45.3235 38.1276 45V7.5C38.1276 7.17652 38.0166 6.89954 37.8156 6.70342C37.6148 6.50752 37.3321 6.4 37.0026 6.4H32.4926H32.2469L32.4228 6.57158L34.4728 8.57158C34.5254 8.62289 34.571 8.66771 34.6043 8.71095C34.6384 8.75538 34.6476 8.78342 34.6476 8.8V8.9V8.94215L34.6778 8.97158C34.7484 9.04048 34.7501 9.10186 34.7501 9.2V38.6C34.7501 40.2425 33.4647 41.5 31.7751 41.5H10.2501ZM26.5149 3.32842L26.3451 3.16273V3.4V8.2V8.3H26.4451H31.3651H31.6108L31.4349 8.12842L26.5149 3.32842ZM24.4951 2V1.9H24.3951H3.99761C3.66811 1.9 3.38544 2.00752 3.18465 2.20342C2.98363 2.39954 2.87261 2.67652 2.87261 3V38.6C2.87261 38.8834 3.01678 39.1578 3.22309 39.3591C3.42955 39.5605 3.7097 39.7 3.99761 39.7H31.7751C32.1046 39.7 32.3873 39.5925 32.5881 39.3966C32.7891 39.2005 32.9001 38.9235 32.9001 38.6V10.2V10.1H32.8001H25.4201C25.1346 10.1 24.9048 10.0075 24.7468 9.85342C24.5891 9.69954 24.4951 9.47652 24.4951 9.2V2Z" fill="#6465FF" stroke="white" stroke-width="0.2"/>
<path d="M20.1119 7.32664L20.1123 7.32622C20.4712 6.97611 21.0229 7.05085 21.4077 7.42622C21.7774 7.78693 21.7774 8.32217 21.4078 8.68293C21.4078 8.68297 21.4077 8.68302 21.4077 8.68306L12.1831 17.5827L12.1827 17.5831C11.994 17.7672 11.8132 17.8546 11.535 17.8546C11.3541 17.8546 11.0726 17.7635 10.8877 17.5835C10.8876 17.5833 10.8875 17.5832 10.8873 17.5831L6.37813 13.0838L6.37814 13.0838L6.37733 13.0831C6.00756 12.7223 6.00756 12.187 6.37733 11.8262C6.74849 11.4641 7.30151 11.4641 7.67267 11.8262L11.4652 15.5262L11.5346 15.5939L11.6044 15.5266L20.1119 7.32664Z" fill="#6465FF" stroke="white" stroke-width="0.2"/>
<path d="M19.6657 31.5H24.7188V32.875H19.6657V31.5Z" fill="#6465FF"/>
<path d="M19.6657 28.75H24.7188V30.125H19.6657V28.75Z" fill="#6465FF"/>
<path d="M19.6657 26H24.7188V27.375H19.6657V26Z" fill="#6465FF"/>
<path d="M10.2813 31.5H15.3344V32.875H10.2813V31.5Z" fill="#6465FF"/>
<path d="M10.2813 28.75H15.3344V30.125H10.2813V28.75Z" fill="#6465FF"/>
<path d="M26.1625 17.75H18.2219C17.8391 17.7504 17.4721 17.8953 17.2015 18.1531C16.9308 18.4109 16.7786 18.7604 16.7782 19.125V23.25H8.83755C8.45476 23.2504 8.08776 23.3953 7.81709 23.6531C7.54641 23.9109 7.39418 24.2604 7.3938 24.625V34.25C7.39418 34.6146 7.54641 34.9641 7.81709 35.2219C8.08776 35.4797 8.45476 35.6246 8.83755 35.625H26.1625C26.5453 35.6246 26.9123 35.4797 27.183 35.2219C27.4537 34.9641 27.6059 34.6146 27.6063 34.25V19.125C27.6059 18.7604 27.4537 18.4109 27.183 18.1531C26.9123 17.8953 26.5453 17.7504 26.1625 17.75ZM16.7782 34.25H8.83755V24.625H16.7782V34.25ZM18.2219 34.25V19.125H26.1625V34.25H18.2219Z" fill="#6465FF"/>
</g>
<defs>
<clipPath id="clip0">
<rect width="41" height="48" fill="white"/>
</clipPath>
</defs>
</svg>
