<svg width="162" height="41" viewBox="0 0 162 41" fill="none" xmlns="http://www.w3.org/2000/svg">
<path d="M39 19.7799V19.0756H33.4075L33.437 19.8092C33.437 19.8679 33.437 19.9266 33.437 20.0147C33.437 27.9677 27.197 34.4534 19.5442 34.4534C11.8913 34.4534 5.65132 27.9677 5.62189 20.0147C5.62189 12.091 11.8325 5.60528 19.4853 5.57593H20.074V0H19.4853C8.71245 0.029347 0 9.00954 0 20.0147C0 31.0492 8.74189 40 19.4853 40.0293C30.2287 40.0293 38.9706 31.0492 38.9706 20.0147C39 19.9266 39 19.8679 39 19.7799Z" fill="white"/>
<path d="M23.4 5.34119V11.6508C22.2816 11.1519 21.0159 10.8584 19.6914 10.8584C14.717 10.8584 10.6846 14.879 10.6846 19.8386C10.6846 24.7102 14.5699 28.6721 19.397 28.8188H23.4V23.6244H22.1049H19.9563H19.4853C17.4838 23.507 15.8944 21.8636 15.8944 19.8386C15.8944 17.755 17.6016 16.0528 19.6914 16.0528C21.5163 16.0528 23.0468 17.3441 23.4 19.0462V23.6244H28.6982V5.34119H23.4Z" fill="white"/>
<path d="M56.5414 16.6873C57.4588 16.6873 58.2777 16.7746 59.0093 16.9402C59.729 17.1156 60.3487 17.3784 60.87 17.7487C61.3905 18.119 61.7252 18.5857 61.8741 19.1601C62.0229 19.7345 61.9859 20.4262 61.7504 21.2437C61.2669 22.7627 60.2747 23.8919 58.7738 24.6514C57.2729 25.4109 55.5736 25.7903 53.6514 25.7903H49L51.8899 16.6775H56.5414V16.6873ZM54.2586 23.8919C54.6429 23.8919 55.0028 23.873 55.3382 23.8241C55.6854 23.785 56.0327 23.6976 56.417 23.5712C56.7707 23.455 57.1082 23.2946 57.4218 23.0939C57.7334 22.8862 58.0096 22.6297 58.24 22.3344C58.488 22.0228 58.6746 21.6525 58.8108 21.2444C58.9471 20.7085 58.9715 20.2704 58.8975 19.9196C58.8234 19.5689 58.625 19.3061 58.2896 19.1021C57.9584 18.9094 57.5984 18.7711 57.2233 18.6927C56.8509 18.6151 56.417 18.5858 55.9335 18.5858H54.1846L52.5097 23.8821H54.2586V23.8919ZM61.9237 25.8008L64.5411 17.6117H68.0753L65.4341 25.8015H61.9237V25.8008ZM67.3563 14C67.7783 14 68.1249 14.0489 68.3736 14.1558C68.6217 14.2627 68.7831 14.399 68.8201 14.5646C68.869 14.7302 68.8823 14.8664 68.8823 14.9642C68.8697 15.0614 68.8571 15.1585 68.8194 15.2563C68.498 16.0836 67.7532 16.4931 66.5625 16.4931C66.2153 16.4931 65.9302 16.4532 65.6947 16.3659C65.4585 16.2786 65.3104 16.1912 65.2356 16.0836C65.1552 15.9786 65.1039 15.8542 65.0868 15.7231C65.0617 15.5868 65.0498 15.4897 65.0617 15.4212C65.0742 15.3534 65.0868 15.3045 65.0994 15.2654C65.4215 14.4185 66.1656 14 67.3563 14ZM78.2585 17.9429C78.6309 18.1085 78.9286 18.3132 79.127 18.5466C79.3381 18.7807 79.4373 19.0434 79.4492 19.3453C79.4617 19.6471 79.4492 19.8616 79.4247 19.9881C79.3995 20.1139 79.3499 20.3095 79.2759 20.5722L77.6388 25.8008H74.2898L76.0261 20.3479C76.1623 19.8903 75.8402 19.6862 75.0465 19.7156C74.2468 19.7591 73.4633 19.9574 72.7393 20.2997L71.0029 25.8008H67.6539L69.7627 19.1503C69.8368 18.8876 70.0352 18.6542 70.3329 18.4495C70.6416 18.238 70.9803 18.0738 71.3376 17.9625C71.6975 17.8458 72.0573 17.7487 72.4046 17.6802C72.7519 17.6026 73.0495 17.5635 73.285 17.5342L73.6448 17.4853L73.496 17.9625C74.3764 17.7291 75.1205 17.5922 75.741 17.5635C76.7206 17.5244 77.5766 17.6509 78.2585 17.9429ZM91.0704 18.6829C91.7412 19.3648 91.8893 20.2899 91.542 21.4387C91.3562 22.0424 90.7113 22.3442 89.6198 22.3442H83.4927C83.4557 22.7334 83.5919 23.0744 83.8896 23.3567C84.1872 23.6389 84.6093 23.785 85.1794 23.785C85.7999 23.785 86.4567 23.7074 87.1764 23.5418C87.8835 23.3762 88.3796 23.298 88.6521 23.298C88.9002 23.298 89.223 23.3567 89.5954 23.4734C89.9671 23.59 90.2773 23.6969 90.538 23.8045L90.9223 23.9792C88.6898 25.2258 86.5566 25.849 84.51 25.849C84.2739 25.849 84.0258 25.8392 83.7904 25.8197C83.479 25.7887 83.1688 25.7468 82.8603 25.6939C82.525 25.6372 82.1965 25.5459 81.88 25.4214C81.5648 25.2854 81.2621 25.1222 80.9752 24.9337C80.6524 24.7297 80.4295 24.476 80.2925 24.1937C80.1563 23.9017 80.0571 23.5509 79.9949 23.1422C79.9334 22.7334 80.0074 22.2562 80.2059 21.7209C80.6028 20.4744 81.4217 19.4717 82.6738 18.7024C83.9266 17.9338 85.4526 17.5537 87.2505 17.5537C89.0741 17.5342 90.3514 17.9143 91.0711 18.6829H91.0704ZM84.1879 20.6791H88.2056C88.2056 20.4164 88.0568 20.1726 87.7591 19.9588C87.4615 19.7442 87.0646 19.6373 86.5936 19.6373C86.0843 19.6384 85.5809 19.7479 85.1172 19.9588C84.6463 20.1823 84.3361 20.4164 84.1879 20.6791ZM97.6566 17.5146L97.5204 17.9338C98.1534 17.6802 98.7983 17.5439 99.4433 17.5439C99.7779 17.5439 100.138 17.5733 100.51 17.6418C100.894 17.7095 101.191 17.7675 101.415 17.836L101.725 17.9338L100.398 19.8414C99.7654 19.6862 99.2071 19.608 98.7361 19.608C97.9794 19.608 97.3219 19.8518 96.7636 20.3486L95.0273 25.8008H91.6042L93.713 19.1503C93.8367 18.7318 94.2335 18.3817 94.891 18.1092C95.5478 17.8367 96.1683 17.6704 96.7518 17.6124L97.6566 17.5146ZM103.3 18.6927C104.615 17.9241 106.203 17.5439 108.075 17.5439C109.948 17.5439 111.288 17.9241 112.107 18.6927C112.925 19.462 113.148 20.4555 112.751 21.6916C112.354 22.9283 111.498 23.931 110.184 24.6905C108.869 25.4591 107.282 25.8392 105.409 25.8392C103.536 25.8392 102.196 25.4598 101.377 24.6905C100.56 23.9219 100.336 22.9283 100.733 21.6916C101.13 20.4646 101.986 19.4627 103.3 18.6927ZM106.153 23.5803C107.889 23.5803 108.969 22.9479 109.378 21.6916C109.775 20.436 109.093 19.8029 107.331 19.8029C105.57 19.8029 104.503 20.436 104.107 21.6916C103.697 22.9577 104.379 23.5803 106.153 23.5803ZM124.298 23.3762C124.857 23.2498 125.279 23.1813 125.576 23.1813C126.035 23.1813 126.42 23.298 126.742 23.532C127.065 23.7654 127.3 24.0191 127.449 24.2916C125.551 25.3236 123.592 25.8392 121.582 25.8392C119.822 25.8392 118.581 25.4501 117.837 24.6612C117.105 23.873 116.919 22.8892 117.303 21.6916C117.713 20.4262 118.531 19.4137 119.759 18.664C120.987 17.9045 122.538 17.5342 124.398 17.5342C125.154 17.5342 125.936 17.6411 126.742 17.8556C127.536 18.0701 128.156 18.2748 128.577 18.4886L129.222 18.81C129.095 18.9236 128.963 19.0309 128.825 19.1315C128.665 19.2572 128.329 19.4228 127.833 19.6373C127.337 19.8518 126.854 19.9588 126.37 19.9588C126.098 19.9588 125.676 19.9098 125.117 19.812C124.546 19.7156 124.088 19.6667 123.741 19.6667C122.934 19.6667 122.277 19.8616 121.756 20.241C121.248 20.6204 120.888 21.1075 120.701 21.7112C120.528 22.2562 120.565 22.7243 120.826 23.0939C121.074 23.4643 121.57 23.6487 122.301 23.6487C122.975 23.6249 123.644 23.5336 124.298 23.3762ZM135.151 17.5635C135.883 17.5635 136.516 17.6704 137.074 17.8751L137.161 17.6124C137.26 17.6222 137.372 17.632 137.508 17.6509C137.644 17.6704 137.905 17.7193 138.265 17.7976C138.624 17.8849 138.934 17.9821 139.195 18.089C139.455 18.1966 139.666 18.3615 139.84 18.5662C140.013 18.7807 140.063 19.0141 139.976 19.2768L137.905 25.791H135.957C135.582 25.7984 135.218 25.6625 134.94 25.4109C134.308 25.703 133.489 25.8588 132.497 25.8588C131.046 25.8588 129.905 25.5276 129.099 24.8659C128.292 24.2035 128.119 23.1519 128.577 21.7112C128.9 20.7183 129.421 19.9001 130.165 19.2579C130.909 18.6151 131.691 18.1672 132.522 17.9234C133.377 17.6796 134.262 17.5584 135.151 17.5635ZM133.291 23.6292C134.023 23.6292 134.717 23.4636 135.399 23.1422L136.354 20.1439C135.957 19.8421 135.362 19.6862 134.543 19.6862C133.898 19.6862 133.353 19.8707 132.919 20.241C132.485 20.6114 132.174 21.0879 131.976 21.6818C131.592 22.9773 132.026 23.6292 133.291 23.6292ZM139.157 24.4858C139.43 24.3111 139.815 24.1155 140.336 23.9017C140.844 23.6879 141.303 23.5803 141.675 23.5803C141.998 23.5803 142.395 23.6487 142.878 23.7948C143.362 23.9408 143.796 24.0093 144.193 24.0093C144.937 24.0093 145.359 23.8339 145.445 23.4831C145.495 23.3175 145.371 23.1519 145.061 22.987C144.763 22.8214 144.379 22.6558 143.933 22.4902C143.479 22.3225 143.035 22.1274 142.605 21.9061C142.172 21.6825 141.836 21.3897 141.601 21.0201C141.365 20.6498 141.315 20.2313 141.464 19.754C141.625 19.2677 141.96 18.8485 142.494 18.4984C143.027 18.1476 143.585 17.8947 144.193 17.7578C144.77 17.6163 145.361 17.5445 145.954 17.5439C146.797 17.5439 147.542 17.6509 148.199 17.8556C148.856 18.0603 149.613 18.381 150.469 18.81C150.233 18.9659 149.824 19.1503 149.253 19.3551C148.683 19.5598 148.187 19.6667 147.753 19.6765C147.542 19.6862 147.207 19.6373 146.736 19.5206C146.264 19.404 145.88 19.3453 145.594 19.3453C145.346 19.3453 145.123 19.3844 144.925 19.4717C144.739 19.5598 144.627 19.6667 144.589 19.7932C144.541 19.949 144.664 20.1146 144.974 20.2704C145.272 20.4262 145.656 20.6016 146.128 20.7763C146.599 20.9516 147.058 21.1564 147.505 21.38C147.952 21.6036 148.311 21.8963 148.583 22.2464C148.856 22.6069 148.943 23.0059 148.844 23.4538C148.671 24.1064 148.124 24.6808 147.207 25.158C146.289 25.6352 145.111 25.8784 143.672 25.8784C142.781 25.8757 141.897 25.7243 141.055 25.4305C140.187 25.1091 139.554 24.7974 139.158 24.4858H139.157ZM160.255 17.9429C161.359 18.4495 161.706 19.3264 161.297 20.5722L159.648 25.8008H156.298L157.985 20.4646C158.06 20.2313 158.06 20.0559 157.96 19.9294C157.861 19.8029 157.663 19.7442 157.34 19.7547C156.88 19.7641 156.423 19.8227 155.976 19.9294C155.529 20.0363 155.219 20.1146 155.046 20.1921C154.872 20.2704 154.76 20.3095 154.711 20.3479L152.962 25.8099H149.613L152.54 16.5608C152.664 16.1416 153.061 15.7915 153.718 15.5093C154.376 15.227 154.996 15.0516 155.579 14.9733L156.459 14.8664L155.467 17.9918C156.373 17.7487 157.117 17.6124 157.724 17.5726C158.779 17.5342 159.623 17.6606 160.255 17.9429Z" fill="white"/>
</svg>
