<svg width="653" height="670" viewBox="0 0 653 670" fill="none" xmlns="http://www.w3.org/2000/svg">
<g opacity="0.1">
<path d="M653 331.07V319.282H559.362L559.855 331.562C559.855 332.544 559.855 333.526 559.855 335C559.855 468.116 455.375 576.672 327.239 576.672C199.103 576.672 94.6234 468.116 94.1306 335C94.1306 202.375 198.118 93.8196 326.254 93.3284H336.11V0H326.254C145.878 0.491202 0 150.799 0 335C0 519.692 146.371 669.509 326.254 670C506.137 670 652.507 519.692 652.507 335C653 333.526 653 332.544 653 331.07Z" fill="white"/>
<path d="M391.749 88.976V194.709C373.041 186.348 351.871 181.431 329.717 181.431C246.514 181.431 179.065 248.805 179.065 331.915C179.065 413.551 244.052 479.941 324.793 482.4H391.749V395.355H370.087H334.147H326.27C292.792 393.388 266.207 365.848 266.207 331.915C266.207 296.999 294.762 268.476 329.717 268.476C360.241 268.476 385.841 290.114 391.749 318.637V395.355H480.368V88.976H391.749Z" fill="white"/>
</g>
</svg>
