<svg width="78" height="77" viewBox="0 0 78 77" fill="none" xmlns="http://www.w3.org/2000/svg">
<path d="M30.5 54C27.5 54 25 51.5 25 48.5C25 45.5 27.5 43 30.5 43C33.5 43 36 45.5 36 48.5C36 51.5 33.5 54 30.5 54ZM30.5 45C28.6 45 27 46.6 27 48.5C27 50.4 28.6 52 30.5 52C32.4 52 34 50.4 34 48.5C34 46.6 32.4 45 30.5 45Z" fill="#6465FF"/>
<path d="M30.5 50C29.7 50 29 49.3 29 48.5C29 47.7 29.7 47 30.5 47C31.3 47 32 47.7 32 48.5C32 49.3 31.3 50 30.5 50ZM30.5 48C30.2 48 30 48.2 30 48.5C30 48.8 30.2 49 30.5 49C30.8 49 31 48.8 31 48.5C31 48.2 30.8 48 30.5 48Z" fill="#6465FF"/>
<path d="M67.9 49H65V47H67.9C68.5 46.9 69.8 44.7 70 43.8C70.4 42.2 69.9 41 69.5 40.4C68.9 39.5 68.2 39.1 67.8 39.1C66.6 38.9 64.7 38.5 62.8 38.2C60.4 37.7 57.3 37.2 56.9 37.1V35.1C57.2 35.1 58.2 35.3 63.1 36.2C65 36.6 66.9 36.9 68.1 37.1C69.2 37.3 70.3 38.2 71.1 39.3C71.8 40.3 72.4 42 71.9 44.3C71.8 45 70.1 49 67.9 49Z" fill="#6465FF"/>
<path d="M26 49H23C20.2 49 18 46.8 18 44V40C18 37.2 20.2 35 23 35H27.4L29.4 30.9C30.6 28.5 33.1 27 35.8 27H48.7C51.1 27 53.3 28.2 54.6 30.3L57.8 35.5L56.1 36.6L52.9 31.4C52 29.9 50.4 29 48.7 29H35.8C33.8 29 32.1 30.1 31.2 31.8L28.6 37H23C21.3 37 20 38.3 20 40V44C20 45.7 21.3 47 23 47H26V49Z" fill="#6465FF"/>
<path d="M60.5 54C57.5 54 55 51.5 55 48.5C55 45.5 57.5 43 60.5 43C63.5 43 66 45.5 66 48.5C66 51.5 63.5 54 60.5 54ZM60.5 45C58.6 45 57 46.6 57 48.5C57 50.4 58.6 52 60.5 52C62.4 52 64 50.4 64 48.5C64 46.6 62.4 45 60.5 45Z" fill="#6465FF"/>
<path d="M60.5 50C59.7 50 59 49.3 59 48.5C59 47.7 59.7 47 60.5 47C61.3 47 62 47.7 62 48.5C62 49.3 61.3 50 60.5 50ZM60.5 48C60.2 48 60 48.2 60 48.5C60 48.8 60.2 49 60.5 49C60.8 49 61 48.8 61 48.5C61 48.2 60.8 48 60.5 48Z" fill="#6465FF"/>
<path d="M57 37H43V30H53V32H45V35H57V37Z" fill="#6465FF"/>
<path d="M44 37H34.9C34.1 37 33.5 36.6 33.1 35.9C32.7 35.2 32.7 34.4 33.1 33.8L34.6 31.3C35.1 30.5 36 30 36.9 30H44V32H36.9C36.7 32 36.4 32.1 36.3 32.3L34.8 34.8L34.9 34.9H44V37Z" fill="#6465FF"/>
<path d="M55 47H35V49H55V47Z" fill="#6465FF"/>
<path d="M22 39H19V41H22V39Z" fill="#6465FF"/>
<path d="M71 41H67V43H71V41Z" fill="#6465FF"/>
<path d="M42 40H40V42H42V40Z" fill="#6465FF"/>
<path d="M44 42H42V44H44V42Z" fill="#6465FF"/>
<path d="M46 40H44V42H46V40Z" fill="#6465FF"/>
<path d="M50 40H48V42H50V40Z" fill="#6465FF"/>
<path d="M48 42H46V44H48V42Z" fill="#6465FF"/>
<path d="M49 28H47V26C47 25.5 46.5 25 45.8 25H40.2C39.6 25 39 25.4 39 26V28H37V26C37 24.4 38.4 23 40.2 23H45.8C47.6 23 49 24.3 49 26V28Z" fill="#6465FF"/>
<path d="M15 41H9V43H15V41Z" fill="#6465FF"/>
<path d="M13 36H4V38H13V36Z" fill="#6465FF"/>
<path d="M23 31H9V33H23V31Z" fill="#6465FF"/>
<circle cx="27" cy="73" r="3" fill="white" stroke="#6465FF" stroke-width="2"/>
<circle cx="6.5" cy="4.5" r="2.5" fill="white" stroke="#6465FF" stroke-width="2"/>
<path d="M76.378 1.62195C77.3256 1.75527 78 2.0981 78 2.5C78 2.9019 77.3256 3.24473 76.378 3.37805C76.2447 4.32561 75.9019 5 75.5 5C75.0981 5 74.7553 4.32561 74.622 3.37805C73.6744 3.24473 73 2.9019 73 2.5C73 2.0981 73.6744 1.75527 74.622 1.62195C74.7553 0.674387 75.0981 0 75.5 0C75.9019 0 76.2447 0.674387 76.378 1.62195Z" fill="#BBC6CB"/>
<path d="M54.378 66.622C55.3256 66.7553 56 67.0981 56 67.5C56 67.9019 55.3256 68.2447 54.378 68.378C54.2447 69.3256 53.9019 70 53.5 70C53.0981 70 52.7553 69.3256 52.622 68.378C51.6744 68.2447 51 67.9019 51 67.5C51 67.0981 51.6744 66.7553 52.622 66.622C52.7553 65.6744 53.0981 65 53.5 65C53.9019 65 54.2447 65.6744 54.378 66.622Z" fill="#BBC6CB"/>
<path d="M22.378 13.622C23.3256 13.7553 24 14.0981 24 14.5C24 14.9019 23.3256 15.2447 22.378 15.378C22.2447 16.3256 21.9019 17 21.5 17C21.0981 17 20.7553 16.3256 20.622 15.378C19.6744 15.2447 19 14.9019 19 14.5C19 14.0981 19.6744 13.7553 20.622 13.622C20.7553 12.6744 21.0981 12 21.5 12C21.9019 12 22.2447 12.6744 22.378 13.622Z" fill="#BBC6CB"/>
<path d="M4.37805 53.622C5.32561 53.7553 6 54.0981 6 54.5C6 54.9019 5.32561 55.2447 4.37805 55.378C4.24473 56.3256 3.9019 57 3.5 57C3.0981 57 2.75527 56.3256 2.62195 55.378C1.67439 55.2447 1 54.9019 1 54.5C1 54.0981 1.67439 53.7553 2.62195 53.622C2.75527 52.6744 3.0981 52 3.5 52C3.9019 52 4.24473 52.6744 4.37805 53.622Z" fill="#BBC6CB"/>
</svg>
