<svg width="79" height="77" viewBox="0 0 79 77" fill="none" xmlns="http://www.w3.org/2000/svg">
<circle cx="75" cy="49" r="3" fill="white" stroke="#6465FF" stroke-width="2"/>
<circle cx="3.5" cy="7.5" r="2.5" fill="white" stroke="#6465FF" stroke-width="2"/>
<path d="M76.378 1.62195C77.3256 1.75527 78 2.0981 78 2.5C78 2.9019 77.3256 3.24473 76.378 3.37805C76.2447 4.32561 75.9019 5 75.5 5C75.0981 5 74.7553 4.32561 74.622 3.37805C73.6744 3.24473 73 2.9019 73 2.5C73 2.0981 73.6744 1.75527 74.622 1.62195C74.7553 0.674387 75.0981 0 75.5 0C75.9019 0 76.2447 0.674387 76.378 1.62195Z" fill="#BBC6CB"/>
<path d="M54.378 73.622C55.3256 73.7553 56 74.0981 56 74.5C56 74.9019 55.3256 75.2447 54.378 75.378C54.2447 76.3256 53.9019 77 53.5 77C53.0981 77 52.7553 76.3256 52.622 75.378C51.6744 75.2447 51 74.9019 51 74.5C51 74.0981 51.6744 73.7553 52.622 73.622C52.7553 72.6744 53.0981 72 53.5 72C53.9019 72 54.2447 72.6744 54.378 73.622Z" fill="#BBC6CB"/>
<path d="M21.378 9.62195C22.3256 9.75527 23 10.0981 23 10.5C23 10.9019 22.3256 11.2447 21.378 11.378C21.2447 12.3256 20.9019 13 20.5 13C20.0981 13 19.7553 12.3256 19.622 11.378C18.6744 11.2447 18 10.9019 18 10.5C18 10.0981 18.6744 9.75527 19.622 9.62195C19.7553 8.67439 20.0981 8 20.5 8C20.9019 8 21.2447 8.67439 21.378 9.62195Z" fill="#BBC6CB"/>
<path d="M4.37805 53.622C5.32561 53.7553 6 54.0981 6 54.5C6 54.9019 5.32561 55.2447 4.37805 55.378C4.24473 56.3256 3.9019 57 3.5 57C3.0981 57 2.75527 56.3256 2.62195 55.378C1.67439 55.2447 1 54.9019 1 54.5C1 54.0981 1.67439 53.7553 2.62195 53.622C2.75527 52.6744 3.0981 52 3.5 52C3.9019 52 4.24473 52.6744 4.37805 53.622Z" fill="#BBC6CB"/>
<path d="M31.4167 18.7548H18.5834C16.4571 18.7548 14.7334 20.478 14.7334 22.6038V53.3963C14.7334 55.522 16.4571 57.2453 18.5834 57.2453H31.4167C33.543 57.2453 35.2667 55.522 35.2667 53.3963V22.6038C35.2667 20.478 33.543 18.7548 31.4167 18.7548Z" stroke="#6465FF" stroke-width="2" stroke-linecap="round" stroke-linejoin="round"/>
<path d="M17.73 18.8176H19.9205C20.1142 18.8176 20.2999 18.8949 20.4368 19.0325C20.5738 19.1701 20.6507 19.3568 20.6507 19.5514C20.6507 19.9406 20.8045 20.3139 21.0784 20.5891C21.3523 20.8643 21.7237 21.0189 22.111 21.0189H27.9524C28.3397 21.0189 28.7112 20.8643 28.985 20.5891C29.2589 20.3139 29.4128 19.9406 29.4128 19.5514C29.4128 19.3568 29.4897 19.1701 29.6266 19.0325C29.7636 18.8949 29.9493 18.8176 30.1429 18.8176H32.3334" stroke="#6465FF" stroke-width="2" stroke-linecap="round" stroke-linejoin="round"/>
<path d="M27.0899 41.0981C27.0899 40.676 26.9375 40.3284 26.6326 40.0553C26.3276 39.7773 25.8194 39.529 25.108 39.3105C24.3965 39.0871 23.8431 38.881 23.4478 38.6923C22.1322 38.0716 21.4743 37.153 21.4743 35.9364C21.4743 35.1121 21.7595 34.4343 22.3298 33.903C22.9001 33.3717 23.6737 33.0564 24.6506 32.9571V31.3334H26.0058V32.972C26.9883 33.0961 27.7478 33.4636 28.2842 34.0743C28.8206 34.6801 29.0889 35.4697 29.0889 36.4429H27.0391C27.0391 35.8173 26.8782 35.3257 26.5563 34.9681C26.2401 34.6057 25.8081 34.4244 25.2604 34.4244C24.7183 34.4244 24.2948 34.5535 23.9899 34.8117C23.685 35.0699 23.5325 35.4399 23.5325 35.9215C23.5325 36.3535 23.6822 36.7011 23.9814 36.9643C24.2864 37.2225 24.8002 37.4683 25.523 37.7017C26.2458 37.9351 26.8132 38.1511 27.2255 38.3497C27.6377 38.5483 27.9849 38.7767 28.2673 39.0349C28.5496 39.2882 28.767 39.5811 28.9195 39.9138C29.0719 40.2465 29.1481 40.6363 29.1481 41.0832C29.1481 41.9224 28.8545 42.6027 28.2673 43.124C27.6857 43.6454 26.8725 43.9533 25.8279 44.0476V45.5H24.4812V44.0551C23.3631 43.9458 22.502 43.5933 21.8978 42.9974C21.2993 42.4015 21 41.612 21 40.6289H23.0582C23.0582 41.2545 23.2361 41.7386 23.5918 42.0813C23.9532 42.4239 24.4614 42.5952 25.1164 42.5952C25.7601 42.5952 26.2486 42.4587 26.5817 42.1855C26.9205 41.9124 27.0899 41.55 27.0899 41.0981Z" fill="#6465FF" stroke="#6465FF" stroke-width="0.5"/>
<path d="M59.4167 18.7548H46.5834C44.4571 18.7548 42.7334 20.478 42.7334 22.6038V53.3963C42.7334 55.522 44.4571 57.2453 46.5834 57.2453H59.4167C61.543 57.2453 63.2667 55.522 63.2667 53.3963V22.6038C63.2667 20.478 61.543 18.7548 59.4167 18.7548Z" stroke="#6465FF" stroke-width="2" stroke-linecap="round" stroke-linejoin="round"/>
<path d="M55.0899 41.0981C55.0899 40.676 54.9375 40.3284 54.6326 40.0553C54.3276 39.7773 53.8194 39.529 53.108 39.3105C52.3965 39.0871 51.8431 38.881 51.4478 38.6923C50.1322 38.0716 49.4743 37.153 49.4743 35.9364C49.4743 35.1121 49.7595 34.4343 50.3298 33.903C50.9001 33.3717 51.6737 33.0564 52.6506 32.9571V31.3334H54.0058V32.972C54.9883 33.0961 55.7478 33.4636 56.2842 34.0743C56.8206 34.6801 57.0889 35.4697 57.0889 36.4429H55.0391C55.0391 35.8173 54.8782 35.3257 54.5563 34.9681C54.2401 34.6057 53.8081 34.4244 53.2604 34.4244C52.7183 34.4244 52.2948 34.5535 51.9899 34.8117C51.685 35.0699 51.5325 35.4399 51.5325 35.9215C51.5325 36.3535 51.6822 36.7011 51.9814 36.9643C52.2864 37.2225 52.8002 37.4683 53.523 37.7017C54.2458 37.9351 54.8132 38.1511 55.2255 38.3497C55.6377 38.5483 55.9849 38.7767 56.2673 39.0349C56.5496 39.2882 56.767 39.5811 56.9195 39.9138C57.0719 40.2465 57.1481 40.6363 57.1481 41.0832C57.1481 41.9224 56.8545 42.6027 56.2673 43.124C55.6857 43.6454 54.8725 43.9533 53.8279 44.0476V45.5H52.4812V44.0551C51.3631 43.9458 50.502 43.5933 49.8978 42.9974C49.2993 42.4015 49 41.612 49 40.6289H51.0582C51.0582 41.2545 51.2361 41.7386 51.5918 42.0813C51.9532 42.4239 52.4614 42.5952 53.1164 42.5952C53.7601 42.5952 54.2486 42.4587 54.5817 42.1855C54.9205 41.9124 55.0899 41.55 55.0899 41.0981Z" fill="#6465FF" stroke="#6465FF" stroke-width="0.5"/>
<path d="M45.73 18.8176H47.9205C48.1142 18.8176 48.2999 18.8949 48.4368 19.0325C48.5738 19.1701 48.6507 19.3568 48.6507 19.5514C48.6507 19.9406 48.8045 20.3139 49.0784 20.5891C49.3523 20.8643 49.7237 21.0189 50.111 21.0189H55.9524C56.3397 21.0189 56.7112 20.8643 56.985 20.5891C57.2589 20.3139 57.4128 19.9406 57.4128 19.5514C57.4128 19.3568 57.4897 19.1701 57.6266 19.0325C57.7636 18.8949 57.9493 18.8176 58.1429 18.8176H60.3334" stroke="#6465FF" stroke-width="2" stroke-linecap="round" stroke-linejoin="round"/>
<circle cx="48" cy="38" r="1" fill="#6465FF"/>
<path d="M46 36.4198C46 40.838 41.436 46 37.6956 46C33.9552 46 32 41.8849 32 37.4667C32 33.0484 33.9552 30 37.6956 30C41.436 30 46 32.0015 46 36.4198Z" fill="white"/>
<path d="M38.9998 48C38.7564 48 38.5126 47.9369 38.2956 47.8107C34.4572 45.6606 31 43.2618 31 37.6893V31.2045C31 30.7415 31.3431 30.3459 31.8113 30.2691L32.8045 30.1059C34.3954 29.8517 35.9411 29.3655 37.404 28.6606L38.5676 28.0985C38.8358 27.9695 39.1487 27.9671 39.4188 28.0919L40.8973 28.7782C42.3752 29.4698 43.9579 29.9394 45.6038 30.1761L46.1644 30.2544C46.6438 30.3213 47 30.7216 47 31.1936V37.6779C47 43.259 43.5452 45.6582 39.6952 47.8155C39.4801 47.9388 39.2402 48 38.9998 48ZM32.9462 32.0066V37.6893C32.9462 41.7686 34.9843 43.7314 38.9993 46.0158C43.0152 43.7314 45.0529 41.7667 45.0529 37.6779V32.0127C43.3062 31.7362 41.6282 31.2249 40.0568 30.4901L39.008 30.003L38.2678 30.3606C36.6307 31.1495 34.9001 31.6935 33.1238 31.9772L32.9462 32.0066Z" fill="#6465FF"/>
<path d="M39.2645 46.1657C39.2694 46.1681 39.2742 46.171 39.2786 46.1738M38.9998 48C38.7564 48 38.5126 47.9369 38.2956 47.8107C34.4572 45.6606 31 43.2618 31 37.6893V31.2045C31 30.7415 31.3431 30.3459 31.8113 30.2691L32.8045 30.1059C34.3954 29.8517 35.9411 29.3655 37.404 28.6606L38.5676 28.0985C38.8358 27.9695 39.1487 27.9671 39.4188 28.0919L40.8973 28.7782C42.3752 29.4698 43.9579 29.9394 45.6038 30.1761L46.1644 30.2544C46.6438 30.3213 47 30.7216 47 31.1936V37.6779C47 43.259 43.5452 45.6582 39.6952 47.8155C39.4801 47.9388 39.2402 48 38.9998 48ZM32.9462 32.0066V37.6893C32.9462 41.7686 34.9843 43.7314 38.9993 46.0158C43.0152 43.7314 45.0529 41.7667 45.0529 37.6779V32.0127C43.3062 31.7362 41.6282 31.2249 40.0568 30.4901L39.008 30.003L38.2678 30.3606C36.6307 31.1495 34.9001 31.6935 33.1238 31.9772L32.9462 32.0066Z" stroke="#6465FF" stroke-width="0.2"/>
<circle cx="43" cy="38" r="1" fill="#6465FF"/>
<circle cx="39" cy="38" r="1" fill="#6465FF"/>
<circle cx="35" cy="38" r="1" fill="#6465FF"/>
<circle cx="30" cy="38" r="1" fill="#6465FF"/>
</svg>
