<svg width="117" height="106" viewBox="0 0 117 106" fill="none" xmlns="http://www.w3.org/2000/svg">
<circle cx="36" cy="101" r="4" fill="white" stroke="#6465FF" stroke-width="2"/>
<circle cx="4.5" cy="13.5" r="3.5" fill="white" stroke="#6465FF" stroke-width="2"/>
<path d="M101.252 3.32237C101.252 5.15726 100.695 6.64474 100.007 6.64474C99.3185 6.64474 98.7607 5.15726 98.7607 3.32237C98.7607 1.48748 99.3185 0 100.007 0C100.695 0 101.252 1.48748 101.252 3.32237Z" fill="#C4C4C4"/>
<path d="M100.007 4.56831C98.1718 4.56831 96.6843 4.01051 96.6843 3.32243C96.6843 2.63434 98.1718 2.07654 100.007 2.07654C101.842 2.07654 103.329 2.63434 103.329 3.32243C103.329 4.01051 101.842 4.56831 100.007 4.56831Z" fill="#C4C4C4"/>
<path d="M72.0155 93.704C72.0155 95.5389 71.4577 97.0263 70.7697 97.0263C70.0816 97.0263 69.5238 95.5389 69.5238 93.704C69.5238 91.8691 70.0816 90.3816 70.7697 90.3816C71.4577 90.3816 72.0155 91.8691 72.0155 93.704Z" fill="#C4C4C4"/>
<path d="M70.7696 94.9498C68.9347 94.9498 67.4473 94.392 67.4473 93.7039C67.4473 93.0158 68.9347 92.458 70.7696 92.458C72.6045 92.458 74.092 93.0158 74.092 93.7039C74.092 94.392 72.6045 94.9498 70.7696 94.9498Z" fill="#C4C4C4"/>
<path d="M114.568 74.3224C114.568 76.1573 114.01 77.6447 113.322 77.6447C112.634 77.6447 112.076 76.1573 112.076 74.3224C112.076 72.4875 112.634 71 113.322 71C114.01 71 114.568 72.4875 114.568 74.3224Z" fill="#C4C4C4"/>
<path d="M113.322 75.5682C111.487 75.5682 110 75.0104 110 74.3223C110 73.6342 111.487 73.0764 113.322 73.0764C115.157 73.0764 116.645 73.6342 116.645 74.3223C116.645 75.0104 115.157 75.5682 113.322 75.5682Z" fill="#C4C4C4"/>
<path d="M5.56815 76.4276C5.56815 78.2625 5.01035 79.75 4.32227 79.75C3.63418 79.75 3.07638 78.2625 3.07638 76.4276C3.07638 74.5927 3.63418 73.1052 4.32227 73.1052C5.01035 73.1052 5.56815 74.5927 5.56815 76.4276Z" fill="#C4C4C4"/>
<path d="M4.32237 77.6735C2.48748 77.6735 1 77.1157 1 76.4277C1 75.7396 2.48748 75.1818 4.32237 75.1818C6.15726 75.1818 7.64474 75.7396 7.64474 76.4277C7.64474 77.1157 6.15726 77.6735 4.32237 77.6735Z" fill="#C4C4C4"/>
<path d="M66.6159 28.5C64.0989 17.3388 54.0841 9 42.1128 9C28.2434 9 17 20.1929 17 34C17 47.8071 28.2434 59 42.1128 59C50.101 59 57.2181 55.287 61.8176 49.5C61.9643 49.3154 62.1085 49.1288 62.25 48.94" stroke="#6465FF" stroke-width="2.5" stroke-linecap="round"/>
<path fill-rule="evenodd" clip-rule="evenodd" d="M53.25 24.8333H30.75C30.2527 24.8333 29.7758 25.0265 29.4242 25.3703C29.0725 25.7141 28.875 26.1804 28.875 26.6667V41.3333C28.875 41.8196 29.0725 42.2859 29.4242 42.6297C29.7758 42.9735 30.2527 43.1667 30.75 43.1667H53.25C53.7473 43.1667 54.2242 42.9735 54.5758 42.6297C54.9275 42.2859 55.125 41.8196 55.125 41.3333V26.6667C55.125 26.1804 54.9275 25.7141 54.5758 25.3703C54.2242 25.0265 53.7473 24.8333 53.25 24.8333ZM30.75 23C29.7554 23 28.8016 23.3863 28.0983 24.0739C27.3951 24.7616 27 25.6942 27 26.6667V41.3333C27 42.3058 27.3951 43.2384 28.0983 43.9261C28.8016 44.6137 29.7554 45 30.75 45H53.25C54.2446 45 55.1984 44.6137 55.9016 43.9261C56.6049 43.2384 57 42.3058 57 41.3333V26.6667C57 25.6942 56.6049 24.7616 55.9016 24.0739C55.1984 23.3863 54.2446 23 53.25 23H30.75Z" fill="#6465FF" stroke="#6465FF" stroke-width="0.5"/>
<path d="M47.5714 28.8333C47.5714 28.6123 47.6693 28.4004 47.8434 28.2441C48.0175 28.0878 48.2537 28 48.5 28H52.2143C52.4606 28 52.6967 28.0878 52.8709 28.2441C53.045 28.4004 53.1429 28.6123 53.1429 28.8333V30.5C53.1429 30.721 53.045 30.933 52.8709 31.0893C52.6967 31.2455 52.4606 31.3333 52.2143 31.3333H48.5C48.2537 31.3333 48.0175 31.2455 47.8434 31.0893C47.6693 30.933 47.5714 30.721 47.5714 30.5V28.8333ZM29 34.6667H55V38H29V34.6667Z" fill="#6465FF"/>
<path fill-rule="evenodd" clip-rule="evenodd" d="M61.2511 73.1212C60.0107 73.1212 59 72.1483 59 70.9495V60.0909C59 58.8921 60.0107 57.9192 61.2511 57.9192V40.5455C61.2511 29.7672 70.3386 21 81.5106 21C92.6826 21 101.77 29.7672 101.77 40.5455C101.77 41.7421 100.762 42.7172 99.5191 42.7172H94.4835C93.5358 42.7128 92.7659 41.9679 92.7659 41.058C92.865 35.3073 88.4889 30.4426 82.5866 29.7346C82.231 29.6999 81.855 29.6825 81.4836 29.6825C78.8679 29.6825 76.4097 30.536 74.3702 32.1474C72.0494 33.989 70.6065 36.5908 70.3116 39.4791C70.2756 39.831 70.2553 40.1915 70.2553 40.5455V57.9192C71.4956 57.9192 72.5064 58.8921 72.5064 60.0909V60.2408L74.8385 59.346C75.2369 59.194 75.6556 59.1158 76.0811 59.1158C77.4745 59.1158 78.708 59.9215 79.2235 61.1703C79.9124 62.8403 79.0637 64.7384 77.3326 65.4008L72.5041 67.2511V70.9495C72.5041 72.1483 71.4934 73.1212 70.2531 73.1212H61.2511ZM61.251 70.9493H70.2553V68.1152L67.9209 69.01C67.5225 69.162 67.1038 69.2402 66.6783 69.2402C65.2827 69.2402 64.0491 68.4323 63.5359 67.1836C62.8493 65.5135 63.6979 63.6155 65.429 62.9531L70.2575 61.1028V60.0908H61.2533L61.251 70.9493ZM76.0855 61.2874C75.9437 61.2874 75.8041 61.3134 75.6713 61.3634L66.2574 64.9706C65.9782 65.077 65.7599 65.2833 65.6406 65.5505C65.5213 65.8176 65.5168 66.1129 65.6271 66.3822C65.7982 66.7992 66.2101 67.0663 66.6761 67.0663C66.8179 67.0663 66.9575 67.0403 67.0903 66.9903L76.5042 63.3831C77.0805 63.1616 77.3641 62.5296 77.1345 61.9715C76.9634 61.5567 76.5515 61.2874 76.0855 61.2874ZM68.0042 57.9191V40.5454C68.0042 40.1219 68.0267 39.6898 68.0695 39.2641C68.4229 35.8002 70.1539 32.6773 72.943 30.4686C75.3899 28.5358 78.3433 27.5129 81.4858 27.5129C81.9337 27.5129 82.3885 27.5346 82.8387 27.5781C89.7157 28.4033 94.8548 33.9195 95.0169 40.528L99.5235 40.5454C99.5213 30.966 91.4422 23.1717 81.5128 23.1717C71.5834 23.1717 63.5043 30.966 63.5043 40.5454V57.9191H68.0042Z" fill="#6465FF"/>
<path fill-rule="evenodd" clip-rule="evenodd" d="M97.8639 57.7975C95.585 57.7975 93.7295 55.97 93.7295 53.7255C93.7295 53.6604 93.7378 53.5936 93.7543 53.5285C94.2901 51.442 95.2146 49.5054 96.5012 47.7691C96.7113 47.4417 97.085 47.1892 97.5117 47.098C97.6291 47.0736 97.7482 47.0605 97.8672 47.0605C98.1831 47.0605 98.4907 47.1501 98.7586 47.3179C98.9604 47.4449 99.1291 47.6111 99.2581 47.8114C100.52 49.5135 101.439 51.442 101.975 53.5268C101.992 53.5904 102 53.6588 102 53.7272C101.998 55.97 100.143 57.7975 97.8639 57.7975ZM95.385 53.82C95.4362 55.1197 96.5376 56.167 97.864 56.167C99.1903 56.167 100.292 55.1181 100.343 53.82C99.8568 51.9794 99.0315 50.2676 97.8921 48.7284C97.8921 48.7284 97.8722 48.7007 97.864 48.6893C96.6997 50.2627 95.8712 51.9811 95.385 53.82Z" fill="#6465FF"/>
<path d="M93.7543 53.5285L93.5122 53.4663L93.512 53.467L93.7543 53.5285ZM96.5012 47.7691L96.7021 47.9179L96.7071 47.9111L96.7116 47.9041L96.5012 47.7691ZM97.5117 47.098L97.4608 46.8532L97.4594 46.8535L97.5117 47.098ZM98.7586 47.3179L98.8918 47.1063L98.8913 47.106L98.7586 47.3179ZM99.2581 47.8114L99.0479 47.9468L99.0523 47.9537L99.0572 47.9603L99.2581 47.8114ZM101.975 53.5268L101.733 53.5891L101.733 53.5898L101.975 53.5268ZM102 53.7272L102.25 53.7274V53.7272H102ZM95.385 53.82L95.1433 53.7561L95.1337 53.7923L95.1352 53.8298L95.385 53.82ZM100.343 53.82L100.593 53.8298L100.594 53.7924L100.585 53.7561L100.343 53.82ZM97.8921 48.7284L97.6889 48.874L97.6912 48.8771L97.8921 48.7284ZM97.864 48.6893L98.0664 48.5425L97.866 48.2662L97.663 48.5406L97.864 48.6893ZM97.8639 57.5475C95.7195 57.5475 93.9795 55.8284 93.9795 53.7255H93.4795C93.4795 56.1117 95.4506 58.0475 97.8639 58.0475V57.5475ZM93.9795 53.7255C93.9795 53.6813 93.9851 53.6352 93.9966 53.59L93.512 53.467C93.4904 53.5521 93.4795 53.6395 93.4795 53.7255H93.9795ZM93.9964 53.5906C94.5242 51.5356 95.4346 49.6284 96.7021 47.9179L96.3004 47.6202C94.9946 49.3823 94.0561 51.3483 93.5122 53.4663L93.9964 53.5906ZM96.7116 47.9041C96.8824 47.6379 97.1963 47.4211 97.5639 47.3425L97.4594 46.8535C96.9737 46.9574 96.5401 47.2455 96.2908 47.6341L96.7116 47.9041ZM97.5626 47.3428C97.6644 47.3216 97.7664 47.3105 97.8672 47.3105V46.8105C97.7299 46.8105 97.5938 46.8256 97.4608 46.8533L97.5626 47.3428ZM97.8672 47.3105C98.1355 47.3105 98.3972 47.3866 98.626 47.5298L98.8913 47.106C98.5842 46.9137 98.2307 46.8105 97.8672 46.8105V47.3105ZM98.6254 47.5294C98.7966 47.6373 98.9389 47.7775 99.0479 47.9468L99.4683 47.6761C99.3193 47.4446 99.1241 47.2526 98.8918 47.1063L98.6254 47.5294ZM99.0572 47.9603C100.3 49.6363 101.205 51.5353 101.733 53.5891L102.217 53.4646C101.674 51.3487 100.74 49.3907 99.4589 47.6625L99.0572 47.9603ZM101.733 53.5898C101.744 53.6312 101.75 53.6783 101.75 53.7272H102.25C102.25 53.6392 102.239 53.5495 102.217 53.4638L101.733 53.5898ZM101.75 53.727C101.748 55.8283 100.008 57.5475 97.8639 57.5475V58.0475C100.277 58.0475 102.248 56.1117 102.25 53.7274L101.75 53.727ZM95.1352 53.8298C95.1918 55.2669 96.4066 56.417 97.864 56.417V55.917C96.6687 55.917 95.6806 54.9725 95.6348 53.8101L95.1352 53.8298ZM97.864 56.417C99.3214 56.417 100.536 55.2652 100.593 53.8298L100.093 53.8101C100.047 54.971 99.0592 55.917 97.864 55.917V56.417ZM100.585 53.7561C100.09 51.8846 99.2511 50.144 98.093 48.5796L97.6912 48.8771C98.812 50.3911 99.6233 52.0742 100.101 53.8838L100.585 53.7561ZM97.8921 48.7284C98.0953 48.5827 98.0953 48.5827 98.0953 48.5827C98.0953 48.5827 98.0953 48.5827 98.0953 48.5827C98.0953 48.5827 98.0953 48.5827 98.0953 48.5827C98.0953 48.5827 98.0953 48.5827 98.0953 48.5827C98.0953 48.5827 98.0952 48.5827 98.0952 48.5826C98.0952 48.5826 98.0951 48.5825 98.0951 48.5824C98.0949 48.5822 98.0947 48.5819 98.0944 48.5815C98.0938 48.5807 98.093 48.5796 98.092 48.5782C98.09 48.5753 98.0872 48.5715 98.0842 48.5673C98.0782 48.559 98.0709 48.5487 98.0664 48.5425L97.6616 48.8361C97.6653 48.8412 97.672 48.8505 97.6781 48.8589C97.681 48.8631 97.6837 48.8668 97.6857 48.8696C97.6867 48.8709 97.6875 48.8721 97.688 48.8728C97.6883 48.8732 97.6885 48.8735 97.6887 48.8737C97.6887 48.8738 97.6888 48.8739 97.6888 48.8739C97.6889 48.874 97.6889 48.874 97.6889 48.874C97.6889 48.874 97.6889 48.874 97.6889 48.874C97.6889 48.874 97.6889 48.874 97.6889 48.874C97.6889 48.874 97.6889 48.874 97.6889 48.874C97.6889 48.874 97.6889 48.874 97.8921 48.7284ZM97.663 48.5406C96.4804 50.1388 95.6377 51.8859 95.1433 53.7561L95.6267 53.8839C96.1046 52.0762 96.9191 50.3865 98.0649 48.838L97.663 48.5406Z" fill="#6465FF"/>
</svg>
