<svg width="78" height="77" viewBox="0 0 78 77" fill="none" xmlns="http://www.w3.org/2000/svg">
<circle cx="70" cy="49" r="3" fill="white" stroke="#6465FF" stroke-width="2"/>
<circle cx="3.5" cy="7.5" r="2.5" fill="white" stroke="#6465FF" stroke-width="2"/>
<path d="M76.378 1.62195C77.3256 1.75527 78 2.0981 78 2.5C78 2.9019 77.3256 3.24473 76.378 3.37805C76.2447 4.32561 75.9019 5 75.5 5C75.0981 5 74.7553 4.32561 74.622 3.37805C73.6744 3.24473 73 2.9019 73 2.5C73 2.0981 73.6744 1.75527 74.622 1.62195C74.7553 0.674387 75.0981 0 75.5 0C75.9019 0 76.2447 0.674387 76.378 1.62195Z" fill="#BBC6CB"/>
<path d="M54.378 66.622C55.3256 66.7553 56 67.0981 56 67.5C56 67.9019 55.3256 68.2447 54.378 68.378C54.2447 69.3256 53.9019 70 53.5 70C53.0981 70 52.7553 69.3256 52.622 68.378C51.6744 68.2447 51 67.9019 51 67.5C51 67.0981 51.6744 66.7553 52.622 66.622C52.7553 65.6744 53.0981 65 53.5 65C53.9019 65 54.2447 65.6744 54.378 66.622Z" fill="#BBC6CB"/>
<path d="M21.378 9.62195C22.3256 9.75527 23 10.0981 23 10.5C23 10.9019 22.3256 11.2447 21.378 11.378C21.2447 12.3256 20.9019 13 20.5 13C20.0981 13 19.7553 12.3256 19.622 11.378C18.6744 11.2447 18 10.9019 18 10.5C18 10.0981 18.6744 9.75527 19.622 9.62195C19.7553 8.67439 20.0981 8 20.5 8C20.9019 8 21.2447 8.67439 21.378 9.62195Z" fill="#BBC6CB"/>
<path d="M4.37805 53.622C5.32561 53.7553 6 54.0981 6 54.5C6 54.9019 5.32561 55.2447 4.37805 55.378C4.24473 56.3256 3.9019 57 3.5 57C3.0981 57 2.75527 56.3256 2.62195 55.378C1.67439 55.2447 1 54.9019 1 54.5C1 54.0981 1.67439 53.7553 2.62195 53.622C2.75527 52.6744 3.0981 52 3.5 52C3.9019 52 4.24473 52.6744 4.37805 53.622Z" fill="#BBC6CB"/>
<path fill-rule="evenodd" clip-rule="evenodd" d="M24.7276 59C23.7757 59 23 58.2533 23 57.3333V49C23 48.08 23.7757 47.3333 24.7276 47.3333V34C24.7276 25.7283 31.7017 19 40.2756 19C48.8495 19 55.8236 25.7283 55.8236 34C55.8236 34.9183 55.0497 35.6667 54.0961 35.6667H50.2315C49.5042 35.6633 48.9134 35.0917 48.9134 34.3933C48.9894 29.98 45.631 26.2467 41.1014 25.7033C40.8284 25.6767 40.5399 25.6633 40.2549 25.6633C38.2474 25.6633 36.3609 26.3183 34.7958 27.555C33.0147 28.9683 31.9073 30.965 31.681 33.1817C31.6533 33.4517 31.6378 33.7283 31.6378 34V47.3333C32.5897 47.3333 33.3654 48.08 33.3654 49V49.115L35.1551 48.4283C35.4609 48.3117 35.7822 48.2517 36.1087 48.2517C37.1781 48.2517 38.1248 48.87 38.5204 49.8283C39.049 51.11 38.3977 52.5667 37.0692 53.075L33.3636 54.495V57.3333C33.3636 58.2533 32.588 59 31.6361 59H24.7276ZM24.7275 57.3333H31.6378V55.1583L29.8463 55.8449C29.5405 55.9616 29.2192 56.0216 28.8927 56.0216C27.8216 56.0216 26.8749 55.4016 26.481 54.4433C25.9541 53.1616 26.6054 51.7049 27.9339 51.1966L31.6395 49.7766V48.9999H24.7293L24.7275 57.3333ZM36.1121 49.9182C36.0033 49.9182 35.8962 49.9382 35.7943 49.9766L28.5696 52.7449C28.3554 52.8266 28.1878 52.9849 28.0963 53.1899C28.0047 53.3949 28.0013 53.6216 28.0859 53.8283C28.2172 54.1483 28.5333 54.3532 28.8909 54.3532C28.9998 54.3532 29.1069 54.3332 29.2088 54.2949L36.4335 51.5266C36.8757 51.3566 37.0934 50.8716 36.9172 50.4432C36.7859 50.1249 36.4697 49.9182 36.1121 49.9182ZM29.9102 47.3333V34C29.9102 33.675 29.9275 33.3433 29.9603 33.0167C30.2315 30.3583 31.56 27.9617 33.7004 26.2667C35.5783 24.7833 37.8449 23.9983 40.2565 23.9983C40.6003 23.9983 40.9493 24.015 41.2948 24.0483C46.5725 24.6817 50.5165 28.915 50.6409 33.9867L54.0995 34C54.0977 26.6483 47.8975 20.6667 40.2773 20.6667C32.657 20.6667 26.4568 26.6483 26.4568 34V47.3333H29.9102Z" fill="#6465FF"/>
<path fill-rule="evenodd" clip-rule="evenodd" d="M52.8258 47.24C51.0769 47.24 49.6528 45.8375 49.6528 44.115C49.6528 44.065 49.6592 44.0138 49.6719 43.9638C50.0831 42.3625 50.7926 40.8763 51.78 39.5438C51.9412 39.2925 52.228 39.0988 52.5554 39.0288C52.6456 39.01 52.7369 39 52.8283 39C53.0707 39 53.3068 39.0688 53.5124 39.1975C53.6672 39.295 53.7967 39.4225 53.8957 39.5763C54.8641 40.8825 55.5697 42.3625 55.981 43.9625C55.9937 44.0113 56 44.0638 56 44.1163C55.9987 45.8375 54.5747 47.24 52.8258 47.24ZM50.9233 44.1875C50.9627 45.185 51.808 45.9888 52.8258 45.9888C53.8437 45.9888 54.689 45.1838 54.7283 44.1875C54.3552 42.775 53.7219 41.4613 52.8474 40.28C52.8474 40.28 52.8322 40.2588 52.8258 40.25C51.9323 41.4575 51.2965 42.7763 50.9233 44.1875Z" fill="#6465FF"/>
<path d="M49.6719 43.9638L49.4297 43.9016L49.4296 43.9022L49.6719 43.9638ZM51.78 39.5438L51.9808 39.6926L51.9859 39.6858L51.9904 39.6787L51.78 39.5438ZM52.5554 39.0288L52.5045 38.784L52.5032 38.7843L52.5554 39.0288ZM53.5124 39.1975L53.6456 38.9859L53.6451 38.9856L53.5124 39.1975ZM53.8957 39.5763L53.6855 39.7116L53.69 39.7185L53.6949 39.7251L53.8957 39.5763ZM55.981 43.9625L55.7388 44.0247L55.739 44.0255L55.981 43.9625ZM56 44.1163L56.25 44.1164V44.1163H56ZM50.9233 44.1875L50.6816 44.1236L50.6721 44.1599L50.6735 44.1974L50.9233 44.1875ZM54.7283 44.1875L54.9781 44.1974L54.9796 44.1599L54.9701 44.1237L54.7283 44.1875ZM52.8474 40.28L52.6442 40.4257L52.6465 40.4288L52.8474 40.28ZM52.8258 40.25L53.0282 40.1033L52.8279 39.827L52.6249 40.1013L52.8258 40.25ZM52.8258 46.99C51.2113 46.99 49.9028 45.6959 49.9028 44.115H49.4028C49.4028 45.9791 50.9424 47.49 52.8258 47.49V46.99ZM49.9028 44.115C49.9028 44.0859 49.9066 44.0553 49.9142 44.0253L49.4296 43.9022C49.4118 43.9722 49.4028 44.0441 49.4028 44.115H49.9028ZM49.914 44.0259C50.3171 42.4562 51.0125 40.9993 51.9808 39.6926L51.5791 39.3949C50.5726 40.7532 49.849 42.2688 49.4297 43.9016L49.914 44.0259ZM51.9904 39.6787C52.1123 39.4887 52.3393 39.3306 52.6077 39.2732L52.5032 38.7843C52.1167 38.8669 51.77 39.0963 51.5696 39.4088L51.9904 39.6787ZM52.6064 39.2735C52.6809 39.258 52.7552 39.25 52.8283 39.25V38.75C52.7187 38.75 52.6102 38.762 52.5045 38.784L52.6064 39.2735ZM52.8283 39.25C53.0231 39.25 53.2133 39.3052 53.3797 39.4094L53.6451 38.9856C53.4003 38.8323 53.1183 38.75 52.8283 38.75V39.25ZM53.3792 39.4091C53.5035 39.4873 53.6065 39.5889 53.6855 39.7116L54.1059 39.4409C53.9869 39.2561 53.831 39.1027 53.6456 38.9859L53.3792 39.4091ZM53.6949 39.7251C54.6439 41.0053 55.3356 42.4558 55.7388 44.0247L56.2231 43.9003C55.8039 42.2692 55.0843 40.7597 54.0965 39.4274L53.6949 39.7251ZM55.739 44.0255C55.746 44.0521 55.75 44.0833 55.75 44.1163H56.25C56.25 44.0442 56.2414 43.9704 56.2229 43.8995L55.739 44.0255ZM55.75 44.1161C55.7488 45.6958 54.4403 46.99 52.8258 46.99V47.49C54.7092 47.49 56.2486 45.9792 56.25 44.1164L55.75 44.1161ZM50.6735 44.1974C50.7183 45.3322 51.6769 46.2388 52.8258 46.2388V45.7388C51.939 45.7388 51.2071 45.0378 51.1731 44.1777L50.6735 44.1974ZM52.8258 46.2388C53.9749 46.2388 54.9334 45.3309 54.9781 44.1974L54.4785 44.1777C54.4446 45.0367 53.7126 45.7388 52.8258 45.7388V46.2388ZM54.9701 44.1237C54.5887 42.6802 53.9415 41.3377 53.0484 40.1313L52.6465 40.4288C53.5023 41.5849 54.1217 42.8698 54.4866 44.2514L54.9701 44.1237ZM52.8474 40.28C53.0506 40.1344 53.0506 40.1344 53.0506 40.1344C53.0506 40.1344 53.0506 40.1344 53.0506 40.1344C53.0506 40.1344 53.0506 40.1344 53.0506 40.1344C53.0506 40.1344 53.0506 40.1344 53.0506 40.1344C53.0506 40.1344 53.0506 40.1344 53.0506 40.1343C53.0505 40.1343 53.0505 40.1342 53.0504 40.1341C53.0503 40.134 53.0501 40.1337 53.0499 40.1334C53.0495 40.1328 53.0489 40.1319 53.0481 40.1309C53.0465 40.1287 53.0444 40.1257 53.0421 40.1225C53.0375 40.1161 53.0318 40.1082 53.0282 40.1033L52.6235 40.3968C52.6262 40.4006 52.6313 40.4077 52.636 40.4141C52.6382 40.4173 52.6403 40.4202 52.6418 40.4223C52.6425 40.4233 52.6432 40.4242 52.6436 40.4248C52.6438 40.4251 52.6439 40.4253 52.6441 40.4254C52.6441 40.4255 52.6442 40.4256 52.6442 40.4256C52.6442 40.4256 52.6442 40.4257 52.6442 40.4257C52.6442 40.4257 52.6442 40.4257 52.6442 40.4257C52.6442 40.4257 52.6442 40.4257 52.6442 40.4257C52.6442 40.4257 52.6442 40.4257 52.6442 40.4257C52.6442 40.4257 52.6442 40.4257 52.8474 40.28ZM52.6249 40.1013C51.713 41.3337 51.0631 42.6811 50.6816 44.1236L51.165 44.2514C51.5299 42.8715 52.1517 41.5814 53.0268 40.3987L52.6249 40.1013Z" fill="#6465FF"/>
</svg>
