<svg width="256" height="256" viewBox="0 0 256 256" fill="none" xmlns="http://www.w3.org/2000/svg">
<path d="M242 129.636V125.519H209.306L209.478 129.808C209.478 130.151 209.478 130.494 209.478 131.009C209.478 177.504 172.998 215.42 128.258 215.42C83.5185 215.42 47.0385 177.504 46.8664 131.009C46.8664 84.6857 83.1743 46.7693 127.914 46.5978H131.355V14H127.914C64.9343 14.1716 14 66.6711 14 131.009C14 195.518 65.1064 247.846 127.914 248.018C190.722 248.018 241.828 195.518 241.828 131.009C242 130.494 242 130.151 242 129.636Z" fill="#6465FF"/>
<path d="M150.801 45.2252V82.1122C144.262 79.1955 136.863 77.4799 129.12 77.4799C100.039 77.4799 76.4647 100.985 76.4647 129.979C76.4647 158.46 99.1787 181.621 127.399 182.479H150.801V152.112H143.23H130.668H127.915C116.214 151.425 106.922 141.818 106.922 129.979C106.922 117.798 116.902 107.847 129.12 107.847C139.788 107.847 148.736 115.396 150.801 125.347V152.112H181.775V45.2252H150.801Z" fill="#4B4CEF"/>
</svg>
