<svg width="16" height="16" viewBox="0 0 16 16" fill="none" xmlns="http://www.w3.org/2000/svg">
<path fill-rule="evenodd" clip-rule="evenodd" d="M15.5883 11.801L13.5992 9.812C13.0508 9.26366 12.1585 9.26366 11.6102 9.812L10.7061 10.7161C10.2907 11.1315 9.61466 11.1314 9.19938 10.7163L5.28063 6.79416C4.86422 6.37775 4.86416 5.70378 5.28063 5.28731C5.42626 5.14169 5.84441 4.72353 6.18472 4.38322C6.73069 3.83728 6.73832 2.94775 6.18419 2.39369L4.19569 0.411438C3.64732 -0.136906 2.75504 -0.136906 2.20813 0.41C1.79888 0.815688 1.66688 0.946563 1.48338 1.12847C-0.494119 3.10594 -0.494119 6.32353 1.48329 8.30094L7.69241 14.5133C9.67454 16.4955 12.8827 16.4956 14.8649 14.5133L15.5883 13.79C16.1366 13.2417 16.1366 12.3494 15.5883 11.801ZM2.86966 1.07444C3.05244 0.891659 3.34981 0.891627 3.53319 1.07494L5.52169 3.05719C5.70491 3.24041 5.70491 3.53694 5.52169 3.72019L5.19016 4.05169L2.53984 1.40138L2.86966 1.07444ZM8.35554 13.8504L2.14639 7.63797C0.616451 6.10803 0.532357 3.70569 1.88776 2.07528L4.53039 4.71791C3.83601 5.50507 3.86495 6.70453 4.61748 7.45707L8.53611 11.379C8.53614 11.379 8.5362 11.3791 8.53623 11.3791C9.28795 12.1308 10.4874 12.1617 11.2755 11.4663L13.9182 14.109C12.293 15.4621 9.89601 15.3909 8.35554 13.8504ZM14.9253 13.127L14.5938 13.4586L11.9418 10.8065L12.2732 10.475C12.456 10.2922 12.7534 10.2922 12.9363 10.475L14.9253 12.464C15.1081 12.6468 15.1081 12.9443 14.9253 13.127Z" fill="white"/>
</svg>
