<svg width="16" height="14" viewBox="0 0 16 14" fill="none" xmlns="http://www.w3.org/2000/svg">
<path fill-rule="evenodd" clip-rule="evenodd" d="M14.5938 0.90625H1.40625C0.631813 0.90625 0 1.53737 0 2.3125V11.6875C0 12.46 0.629 13.0938 1.40625 13.0938H14.5938C15.3663 13.0938 16 12.4648 16 11.6875V2.3125C16 1.54 15.371 0.90625 14.5938 0.90625ZM14.3996 1.84375L8.02981 8.21353L1.60496 1.84375H14.3996ZM0.9375 11.4934V2.50216L5.45247 6.97841L0.9375 11.4934ZM1.6004 12.1563L6.11821 7.63844L7.70124 9.20788C7.88449 9.38957 8.18021 9.38897 8.36271 9.20644L9.90624 7.66291L14.3996 12.1563H1.6004ZM15.0625 11.4933L10.5691 7L15.0625 2.50662V11.4933Z" fill="white"/>
</svg>
