<svg width="77" height="77" viewBox="0 0 77 77" fill="none" xmlns="http://www.w3.org/2000/svg">
<path d="M75.378 1.62195C76.3256 1.75527 77 2.0981 77 2.5C77 2.9019 76.3256 3.24473 75.378 3.37805C75.2447 4.32561 74.9019 5 74.5 5C74.0981 5 73.7553 4.32561 73.622 3.37805C72.6744 3.24473 72 2.9019 72 2.5C72 2.0981 72.6744 1.75527 73.622 1.62195C73.7553 0.674387 74.0981 0 74.5 0C74.9019 0 75.2447 0.674387 75.378 1.62195Z" fill="#BBC6CB"/>
<path d="M53.378 73.622C54.3256 73.7553 55 74.0981 55 74.5C55 74.9019 54.3256 75.2447 53.378 75.378C53.2447 76.3256 52.9019 77 52.5 77C52.0981 77 51.7553 76.3256 51.622 75.378C50.6744 75.2447 50 74.9019 50 74.5C50 74.0981 50.6744 73.7553 51.622 73.622C51.7553 72.6744 52.0981 72 52.5 72C52.9019 72 53.2447 72.6744 53.378 73.622Z" fill="#BBC6CB"/>
<path d="M20.378 9.62195C21.3256 9.75527 22 10.0981 22 10.5C22 10.9019 21.3256 11.2447 20.378 11.378C20.2447 12.3256 19.9019 13 19.5 13C19.0981 13 18.7553 12.3256 18.622 11.378C17.6744 11.2447 17 10.9019 17 10.5C17 10.0981 17.6744 9.75527 18.622 9.62195C18.7553 8.67439 19.0981 8 19.5 8C19.9019 8 20.2447 8.67439 20.378 9.62195Z" fill="#BBC6CB"/>
<path d="M3.37805 53.622C4.32561 53.7553 5 54.0981 5 54.5C5 54.9019 4.32561 55.2447 3.37805 55.378C3.24473 56.3256 2.9019 57 2.5 57C2.0981 57 1.75527 56.3256 1.62195 55.378C0.674387 55.2447 0 54.9019 0 54.5C0 54.0981 0.674387 53.7553 1.62195 53.622C1.75527 52.6744 2.0981 52 2.5 52C2.9019 52 3.24473 52.6744 3.37805 53.622Z" fill="#BBC6CB"/>
<path d="M51.0999 45.5V21.6189C51.0999 19.0679 48.9844 17 46.3749 17H30.6249C28.0154 17 25.8999 19.0679 25.8999 21.6189V49" stroke="#6465FF" stroke-width="2" stroke-linecap="round" stroke-linejoin="round"/>
<path d="M30.5 17.0754H32.266C32.5037 17.0754 32.7316 17.1682 32.8997 17.3333C33.0677 17.4985 33.1621 17.7224 33.1621 17.9559C33.1621 18.423 33.3509 18.8709 33.6871 19.2012C34.0232 19.5314 34.479 19.7169 34.9544 19.7169H42.1233C42.5987 19.7169 43.0545 19.5314 43.3906 19.2012C43.7267 18.8709 43.9156 18.423 43.9156 17.9559C43.9156 17.7224 44.01 17.4985 44.178 17.3333C44.3461 17.1682 44.574 17.0754 44.8117 17.0754H46.5" stroke="#6465FF" stroke-width="2" stroke-linecap="round" stroke-linejoin="round"/>
<path d="M44 37.5991C45.2412 36.2609 46 34.4691 46 32.5C46 28.3579 42.6421 25 38.5 25C34.3579 25 31 28.3579 31 32.5C31 36.6421 34.3579 40 38.5 40C39.5667 40 40.5813 39.7773 41.5 39.3759" stroke="#6465FF" stroke-width="2"/>
<path d="M39.6641 34.2025C39.6641 33.9254 39.5598 33.6971 39.3514 33.5178C39.1429 33.3352 38.7954 33.1722 38.3089 33.0287C37.8224 32.882 37.444 32.7467 37.1737 32.6228C36.2741 32.2152 35.8243 31.612 35.8243 30.8132C35.8243 30.2719 36.0193 29.8269 36.4093 29.478C36.7992 29.1291 37.3282 28.9221 37.9961 28.8568V27.7906H38.9228V28.8666C39.5946 28.9481 40.1139 29.1894 40.4807 29.5905C40.8475 29.9883 41.0309 30.5067 41.0309 31.1457H39.6293C39.6293 30.7349 39.5193 30.4121 39.2992 30.1774C39.083 29.9393 38.7876 29.8203 38.4131 29.8203C38.0425 29.8203 37.7529 29.9051 37.5444 30.0747C37.3359 30.2442 37.2317 30.4871 37.2317 30.8034C37.2317 31.0871 37.334 31.3153 37.5386 31.4881C37.7471 31.6577 38.0985 31.819 38.5927 31.9723C39.0869 32.1255 39.4749 32.2674 39.7568 32.3978C40.0386 32.5282 40.2761 32.6782 40.4691 32.8477C40.6622 33.014 40.8108 33.2064 40.9151 33.4249C41.0193 33.6433 41.0714 33.8993 41.0714 34.1927C41.0714 34.7438 40.8707 35.1904 40.4691 35.5328C40.0714 35.8752 39.5154 36.0773 38.8012 36.1393V37.093H37.8803V36.1442C37.1158 36.0724 36.527 35.8409 36.1139 35.4497C35.7046 35.0584 35.5 34.54 35.5 33.8944H36.9073C36.9073 34.3052 37.029 34.6231 37.2722 34.8481C37.5193 35.0731 37.8668 35.1856 38.3147 35.1856C38.7548 35.1856 39.0888 35.0959 39.3166 34.9166C39.5483 34.7372 39.6641 34.4992 39.6641 34.2025Z" fill="#6465FF" stroke="#6465FF" stroke-width="0.5"/>
<path d="M26.4709 35.6744V35.6744C25.7957 36.1254 25.2551 36.7507 24.9065 37.484L23.5473 40.3435C22.5286 42.4867 22 44.8298 22 47.2028V56.1396" stroke="#6465FF" stroke-width="2" stroke-linecap="round"/>
<path d="M26.021 48.9428L29.8629 42.5966C30.4008 41.708 31.5506 41.4153 32.4477 41.9385V41.9385C33.3542 42.4671 33.6635 43.63 33.1395 44.5393L30.1869 49.6635C30.0193 49.9544 30.0444 50.318 30.2504 50.5833L30.8434 51.3471C31.7986 52.5774 32.3172 54.0912 32.3173 55.6491L32.3173 56.1395" stroke="#6465FF" stroke-width="2" stroke-linecap="round"/>
<path d="M45 50.025V40C45 38.8954 44.1046 38 43 38V38C41.8954 38 41 38.8954 41 40V51" stroke="#6465FF" stroke-width="2" stroke-linecap="round"/>
<path d="M49 50V47C49 45.8954 48.1046 45 47 45V45C45.8954 45 45 45.8954 45 47V50" stroke="#6465FF" stroke-width="2" stroke-linecap="round"/>
<path d="M40.9999 51L39.3429 48.6095C38.7731 47.7875 37.668 47.5422 36.804 48.0461V48.0461C35.8625 48.5951 35.5658 49.8181 36.151 50.7377L39.4997 56" stroke="#6465FF" stroke-width="2" stroke-linecap="round"/>
<path d="M53 50V48C53 46.8954 52.1046 46 51 46V46C49.8954 46 49 46.8954 49 48V50" stroke="#6465FF" stroke-width="2" stroke-linecap="round"/>
<path d="M57 56V49C57 47.8954 56.1046 47 55 47V47C53.8954 47 53 47.8954 53 49V50.6" stroke="#6465FF" stroke-width="2" stroke-linecap="round"/>
<path d="M58.5 18L58.5 34.5" stroke="#6465FF" stroke-width="2" stroke-linecap="round"/>
<path d="M53.7856 30.0233L58.4284 34.6744L63.0713 30.0233" stroke="#6465FF" stroke-width="2" stroke-linecap="round" stroke-linejoin="round"/>
<path d="M12.9286 32.6512L17.5715 28L22.2144 32.6512" stroke="#6465FF" stroke-width="2" stroke-linecap="round" stroke-linejoin="round"/>
<path d="M17.5 28.4767L17.5 44.9767" stroke="#6465FF" stroke-width="2" stroke-linecap="round"/>
</svg>
