<svg width="106" height="106" viewBox="0 0 106 106" fill="none" xmlns="http://www.w3.org/2000/svg">
<circle cx="36" cy="101" r="4" fill="white" stroke="#6465FF" stroke-width="2"/>
<circle cx="4.5" cy="13.5" r="3.5" fill="white" stroke="#6465FF" stroke-width="2"/>
<rect x="60" y="26" width="6" height="34" fill="white"/>
<path d="M101.252 3.32237C101.252 5.15726 100.695 6.64474 100.007 6.64474C99.3185 6.64474 98.7607 5.15726 98.7607 3.32237C98.7607 1.48748 99.3185 0 100.007 0C100.695 0 101.252 1.48748 101.252 3.32237Z" fill="#C4C4C4"/>
<path d="M100.007 4.56831C98.1718 4.56831 96.6843 4.01051 96.6843 3.32243C96.6843 2.63434 98.1718 2.07654 100.007 2.07654C101.842 2.07654 103.329 2.63434 103.329 3.32243C103.329 4.01051 101.842 4.56831 100.007 4.56831Z" fill="#C4C4C4"/>
<path d="M72.0155 93.704C72.0155 95.5389 71.4577 97.0263 70.7697 97.0263C70.0816 97.0263 69.5238 95.5389 69.5238 93.704C69.5238 91.8691 70.0816 90.3816 70.7697 90.3816C71.4577 90.3816 72.0155 91.8691 72.0155 93.704Z" fill="#C4C4C4"/>
<path d="M70.7696 94.9498C68.9347 94.9498 67.4473 94.392 67.4473 93.7039C67.4473 93.0158 68.9347 92.458 70.7696 92.458C72.6045 92.458 74.092 93.0158 74.092 93.7039C74.092 94.392 72.6045 94.9498 70.7696 94.9498Z" fill="#C4C4C4"/>
<path d="M103.568 50.3224C103.568 52.1573 103.01 53.6447 102.322 53.6447C101.634 53.6447 101.076 52.1573 101.076 50.3224C101.076 48.4875 101.634 47 102.322 47C103.01 47 103.568 48.4875 103.568 50.3224Z" fill="#C4C4C4"/>
<path d="M102.322 51.5682C100.487 51.5682 99 51.0104 99 50.3223C99 49.6342 100.487 49.0764 102.322 49.0764C104.157 49.0764 105.645 49.6342 105.645 50.3223C105.645 51.0104 104.157 51.5682 102.322 51.5682Z" fill="#C4C4C4"/>
<path d="M5.56815 76.4276C5.56815 78.2625 5.01035 79.75 4.32227 79.75C3.63418 79.75 3.07638 78.2625 3.07638 76.4276C3.07638 74.5927 3.63418 73.1052 4.32227 73.1052C5.01035 73.1052 5.56815 74.5927 5.56815 76.4276Z" fill="#C4C4C4"/>
<path d="M4.32237 77.6735C2.48748 77.6735 1 77.1157 1 76.4277C1 75.7396 2.48748 75.1818 4.32237 75.1818C6.15726 75.1818 7.64474 75.7396 7.64474 76.4277C7.64474 77.1157 6.15726 77.6735 4.32237 77.6735Z" fill="#C4C4C4"/>
<path d="M92.1384 62.8125V29.9759C92.1384 26.4684 89.2093 23.625 85.5961 23.625H63.7884C60.1752 23.625 57.2461 26.4684 57.2461 29.9759V67.625" stroke="#6465FF" stroke-width="2.5" stroke-linecap="round" stroke-linejoin="round"/>
<path d="M63.6155 23.7288H66.0607C66.3898 23.7288 66.7054 23.8563 66.9381 24.0834C67.1708 24.3104 67.3015 24.6184 67.3015 24.9395C67.3015 25.5816 67.5629 26.1975 68.0283 26.6516C68.4937 27.1057 69.1249 27.3608 69.7831 27.3608H79.7093C80.3675 27.3608 80.9987 27.1057 81.464 26.6516C81.9294 26.1975 82.1909 25.5816 82.1909 24.9395C82.1909 24.6184 82.3216 24.3104 82.5543 24.0834C82.787 23.8563 83.1026 23.7288 83.4317 23.7288H85.7693" stroke="#6465FF" stroke-width="2.5" stroke-linecap="round" stroke-linejoin="round"/>
<path d="M82.3076 51.9487C84.0262 50.1088 85.0768 47.645 85.0768 44.9375C85.0768 39.2421 80.4275 34.625 74.6922 34.625C68.957 34.625 64.3076 39.2421 64.3076 44.9375C64.3076 50.6329 68.957 55.25 74.6922 55.25C76.1691 55.25 77.574 54.9438 78.8461 54.3919" stroke="#6465FF" stroke-width="2.5"/>
<path d="M76.3042 47.2785C76.3042 46.8974 76.1599 46.5836 75.8712 46.337C75.5825 46.0859 75.1014 45.8618 74.4278 45.6645C73.7542 45.4627 73.2303 45.2767 72.8561 45.1063C71.6104 44.5459 70.9876 43.7165 70.9876 42.6181C70.9876 41.8739 71.2576 41.2619 71.7976 40.7822C72.3375 40.3025 73.0699 40.0178 73.9948 39.9282V38.4622H75.2778V39.9416C76.208 40.0537 76.9271 40.3855 77.4349 40.9369C77.9428 41.4839 78.1967 42.1967 78.1967 43.0754H76.2561C76.2561 42.5105 76.1038 42.0667 75.799 41.7439C75.4997 41.4166 75.0907 41.253 74.5721 41.253C74.0589 41.253 73.658 41.3695 73.3693 41.6027C73.0806 41.8358 72.9363 42.1698 72.9363 42.6047C72.9363 42.9947 73.0779 43.3085 73.3613 43.5462C73.6499 43.7793 74.1364 44.0012 74.8207 44.2119C75.505 44.4226 76.0423 44.6177 76.4325 44.797C76.8228 44.9763 77.1516 45.1825 77.4189 45.4157C77.6862 45.6443 77.892 45.9088 78.0363 46.2092C78.1807 46.5096 78.2529 46.8615 78.2529 47.265C78.2529 48.0227 77.9749 48.6369 77.4189 49.1076C76.8682 49.5784 76.0984 49.8563 75.1094 49.9415V51.2529H73.8344V49.9482C72.7759 49.8496 71.9606 49.5313 71.3886 48.9933C70.8219 48.4553 70.5386 47.7425 70.5386 46.8548H72.4872C72.4872 47.4197 72.6556 47.8568 72.9924 48.1661C73.3345 48.4755 73.8157 48.6302 74.4358 48.6302C75.0453 48.6302 75.5077 48.5069 75.8231 48.2603C76.1439 48.0137 76.3042 47.6864 76.3042 47.2785Z" fill="#6465FF" stroke="#6465FF"/>
<path d="M57.5 49.5V49.5C56.9122 49.9942 56.4366 50.6081 56.105 51.3008L53.7083 56.3079C52.4825 58.8688 51.8462 61.6719 51.8462 64.5111V77.4419" stroke="#6465FF" stroke-width="2.5" stroke-linecap="round"/>
<path d="M57.4137 67.5463L62.7291 58.8271C63.4762 57.6017 65.0704 57.1962 66.3128 57.9157V57.9157C67.5677 58.6424 67.9942 60.2437 67.2668 61.4974L63.1823 68.5367C62.95 68.937 62.9843 69.437 63.269 69.8011L64.6552 71.5741C65.612 72.798 66.1315 74.3051 66.1316 75.8575L66.1317 77.4418" stroke="#6465FF" stroke-width="2.5" stroke-linecap="round"/>
<path d="M83.6923 69.0344V55.2692C83.6923 53.7398 82.4524 52.5 80.923 52.5V52.5C79.3936 52.5 78.1538 53.7398 78.1538 55.2692V70.375" stroke="#6465FF" stroke-width="2.5" stroke-linecap="round"/>
<path d="M89.2308 69V64.8942C89.2308 63.3648 87.991 62.125 86.4616 62.125V62.125C84.9322 62.125 83.6924 63.3648 83.6924 64.8942V69" stroke="#6465FF" stroke-width="2.5" stroke-linecap="round"/>
<path d="M78.1538 70.3749L75.8635 67.0939C75.0723 65.9603 73.5402 65.6206 72.3438 66.3134V66.3134C71.0403 67.0683 70.6314 68.7527 71.4439 70.0207L76.0766 77.2499" stroke="#6465FF" stroke-width="2.5" stroke-linecap="round"/>
<path d="M94.7692 69V66.2692C94.7692 64.7398 93.5294 63.5 91.9999 63.5V63.5C90.4705 63.5 89.2307 64.7398 89.2307 66.2692V69" stroke="#6465FF" stroke-width="2.5" stroke-linecap="round"/>
<path d="M100.308 77.25V67.6442C100.308 66.1148 99.0679 64.875 97.5385 64.875V64.875C96.0091 64.875 94.7693 66.1148 94.7693 67.6442V69.825" stroke="#6465FF" stroke-width="2.5" stroke-linecap="round"/>
<path d="M51.5 65.6554C47.8229 67.7826 43.5536 69 39 69C25.1929 69 14 57.8071 14 44C14 30.1929 25.1929 19 39 19C46.6039 19 53.4148 22.3947 58 27.7512" stroke="#6465FF" stroke-width="2.5"/>
<path d="M48.7692 34.84H27.2308C25.4465 34.84 24 36.3443 24 38.2V51.64C24 53.4956 25.4465 55 27.2308 55H48.7692C50.5535 55 52 53.4956 52 51.64V38.2C52 36.3443 50.5535 34.84 48.7692 34.84Z" stroke="#6465FF" stroke-width="2.3" stroke-linejoin="round"/>
<path d="M47.52 35.3373V33.4704C47.5198 33.0126 47.4146 32.5604 47.2117 32.1461C47.0088 31.7318 46.7134 31.3657 46.3464 31.0739C45.9794 30.782 45.5499 30.5717 45.0886 30.4578C44.6273 30.3439 44.1455 30.3293 43.6777 30.415L26.6306 33.2122C25.8903 33.3478 25.2224 33.7276 24.7422 34.2859C24.262 34.8443 23.9995 35.5462 24 36.2708V39.32" stroke="#6465FF" stroke-width="2.3" stroke-linejoin="round"/>
<path d="M46.3999 47.1599C45.9569 47.1599 45.5238 47.0286 45.1554 46.7824C44.7871 46.5363 44.5 46.1864 44.3304 45.7771C44.1609 45.3678 44.1165 44.9174 44.203 44.4829C44.2894 44.0484 44.5027 43.6493 44.816 43.336C45.1293 43.0227 45.5284 42.8094 45.9629 42.723C46.3974 42.6365 46.8478 42.6809 47.2571 42.8504C47.6664 43.02 48.0163 43.3071 48.2624 43.6754C48.5085 44.0438 48.6399 44.4769 48.6399 44.9199C48.6399 45.514 48.4039 46.0838 47.9838 46.5038C47.5637 46.9239 46.994 47.1599 46.3999 47.1599Z" fill="#6465FF"/>
</svg>
