<svg width="117" height="106" viewBox="0 0 117 106" fill="none" xmlns="http://www.w3.org/2000/svg">
<path d="M47.3749 19.9056H31.6249C29.0154 19.9056 26.8999 21.9736 26.8999 24.5245V61.4755C26.8999 64.0264 29.0154 66.0943 31.6249 66.0943H47.3749C49.9844 66.0943 52.0999 64.0264 52.0999 61.4755V24.5245C52.0999 21.9736 49.9844 19.9056 47.3749 19.9056Z" stroke="#6465FF" stroke-width="2.3" stroke-linecap="round" stroke-linejoin="round"/>
<path d="M30.5777 19.9811H33.266C33.5037 19.9811 33.7316 20.0738 33.8997 20.239C34.0677 20.4041 34.1621 20.6281 34.1621 20.8616C34.1621 21.3286 34.351 21.7765 34.6871 22.1068C35.0232 22.4371 35.4791 22.6226 35.9544 22.6226H43.1233C43.5987 22.6226 44.0545 22.4371 44.3907 22.1068C44.7268 21.7765 44.9156 21.3286 44.9156 20.8616C44.9156 20.6281 45.01 20.4041 45.1781 20.239C45.3461 20.0738 45.574 19.9811 45.8117 19.9811H48.5001" stroke="#6465FF" stroke-width="2.3" stroke-linecap="round" stroke-linejoin="round"/>
<path d="M34.5 44L34.5 60.5" stroke="#6465FF" stroke-width="2" stroke-linecap="round"/>
<path d="M43.5 37L43.5 53.5" stroke="#6465FF" stroke-width="2" stroke-linecap="round"/>
<path d="M31 57L34.5 61L38 57" stroke="#6465FF" stroke-width="2" stroke-linecap="round" stroke-linejoin="round"/>
<path d="M40 50L43.5 54L47 50" stroke="#6465FF" stroke-width="2" stroke-linecap="round" stroke-linejoin="round"/>
<path d="M35.5 40.0306C35.5 40.5829 35.0523 41.0306 34.5 41.0306C33.9477 41.0306 33.5 40.5829 33.5 40.0306C33.5 39.4784 33.9477 39.0306 34.5 39.0306C35.0523 39.0306 35.5 39.4784 35.5 40.0306Z" fill="#6465FF"/>
<path d="M44.5 33.0306C44.5 33.5829 44.0523 34.0306 43.5 34.0306C42.9477 34.0306 42.5 33.5829 42.5 33.0306C42.5 32.4784 42.9477 32.0306 43.5 32.0306C44.0523 32.0306 44.5 32.4784 44.5 33.0306Z" fill="#6465FF"/>
<path d="M35.5 36C35.5 36.5523 35.0523 37 34.5 37C33.9477 37 33.5 36.5523 33.5 36C33.5 35.4477 33.9477 35 34.5 35C35.0523 35 35.5 35.4477 35.5 36Z" fill="#6465FF"/>
<path d="M44.5 29C44.5 29.5523 44.0523 30 43.5 30C42.9477 30 42.5 29.5523 42.5 29C42.5 28.4477 42.9477 28 43.5 28C44.0523 28 44.5 28.4477 44.5 29Z" fill="#6465FF"/>
<circle cx="50" cy="35" r="10" fill="white" stroke="#6465FF" stroke-width="2"/>
<path d="M51.4844 37.2713C51.4844 36.9138 51.3721 36.6193 51.1476 36.388C50.9231 36.1525 50.5489 35.9422 50.0249 35.7571C49.501 35.5678 49.0936 35.3933 48.8025 35.2334C47.8337 34.7077 47.3493 33.9295 47.3493 32.8991C47.3493 32.2008 47.5593 31.6267 47.9792 31.1767C48.3992 30.7266 48.9688 30.4595 49.6881 30.3754V29H50.6861V30.388C51.4096 30.4932 51.9688 30.8044 52.3638 31.3218C52.7588 31.8349 52.9563 32.5037 52.9563 33.3281H51.447C51.447 32.7981 51.3285 32.3817 51.0915 32.0789C50.8586 31.7718 50.5405 31.6183 50.1372 31.6183C49.738 31.6183 49.4262 31.7277 49.2017 31.9464C48.9771 32.1651 48.8649 32.4784 48.8649 32.8864C48.8649 33.2524 48.9751 33.5468 49.1954 33.7697C49.42 33.9884 49.7983 34.1966 50.3306 34.3943C50.8628 34.592 51.2807 34.775 51.5842 34.9432C51.8877 35.1115 52.1435 35.3049 52.3514 35.5237C52.5593 35.7382 52.7193 35.9863 52.8316 36.2681C52.9439 36.5499 53 36.8801 53 37.2587C53 37.9695 52.7838 38.5457 52.3514 38.9874C51.9231 39.429 51.3243 39.6898 50.5551 39.7697V41H49.5634V39.776C48.7401 39.6835 48.106 39.3849 47.6611 38.8801C47.2204 38.3754 47 37.7066 47 36.8738H48.5156C48.5156 37.4038 48.6466 37.8139 48.9085 38.1041C49.1746 38.3943 49.5489 38.5394 50.0312 38.5394C50.5052 38.5394 50.8649 38.4238 51.1102 38.1924C51.3597 37.9611 51.4844 37.654 51.4844 37.2713Z" fill="#6465FF" stroke="#6465FF" stroke-width="0.5"/>
<path d="M40.5001 66C42.8164 77.4112 52.9052 86 65 86C78.8071 86 90 74.8071 90 61C90 47.1929 78.8071 36 65 36C63.2877 36 61.6156 36.1721 60 36.5001" stroke="#6465FF" stroke-width="2.5"/>
<path d="M71.1219 61H68.9036C68.6465 61 68.4106 61.1327 68.2872 61.3467C67.6283 62.4917 66.3378 63.2314 65 63.2314C63.6622 63.2314 62.3717 62.4917 61.7128 61.3467C61.5894 61.1327 61.3535 61 61.0964 61H58.8781C56.4638 61 54.5 62.8638 54.5 65.1544V71.3338C54.5 71.7021 54.814 72 55.2021 72H59.5131H70.4869H74.7979C75.186 72 75.5 71.7021 75.5 71.3338V65.1544C75.5 62.8638 73.5362 61 71.1219 61ZM74.0957 70.6677H71.1891V68.0109C71.1891 67.6427 70.875 67.3447 70.4869 67.3447C70.0988 67.3447 69.7848 67.6427 69.7848 68.0109V70.6677H60.2152V68.0109C60.2152 67.6427 59.9012 67.3447 59.5131 67.3447C59.125 67.3447 58.8109 67.6427 58.8109 68.0109V70.6677H55.9043V65.1544C55.9043 63.5983 57.2387 62.3323 58.8781 62.3323H60.7C61.6511 63.6991 63.2961 64.5637 65 64.5637C66.7039 64.5637 68.3489 63.6991 69.3 62.3323H71.1219C72.7613 62.3323 74.0957 63.5983 74.0957 65.1544V70.6677Z" fill="#6465FF" stroke="#6465FF" stroke-width="0.9"/>
<path d="M65.0003 60C68.3083 60 71 57.3083 71 53.9997C71 50.6917 68.3083 48 65.0003 48C61.6917 48 59 50.6917 59 53.9997C59 57.3083 61.6917 60 65.0003 60ZM65.0003 49.4117C67.5301 49.4117 69.5883 51.4699 69.5883 53.9997C69.5883 56.5301 67.5301 58.5883 65.0003 58.5883C62.4699 58.5883 60.4117 56.5301 60.4117 53.9997C60.4117 51.4699 62.4699 49.4117 65.0003 49.4117Z" fill="#6465FF" stroke="#6465FF" stroke-width="0.9"/>
<circle cx="36" cy="101" r="4" fill="white" stroke="#6465FF" stroke-width="2"/>
<circle cx="4.5" cy="13.5" r="3.5" fill="white" stroke="#6465FF" stroke-width="2"/>
<path d="M101.252 3.32237C101.252 5.15726 100.695 6.64474 100.007 6.64474C99.3185 6.64474 98.7607 5.15726 98.7607 3.32237C98.7607 1.48748 99.3185 0 100.007 0C100.695 0 101.252 1.48748 101.252 3.32237Z" fill="#C4C4C4"/>
<path d="M100.007 4.56831C98.1718 4.56831 96.6843 4.01051 96.6843 3.32243C96.6843 2.63434 98.1718 2.07654 100.007 2.07654C101.842 2.07654 103.329 2.63434 103.329 3.32243C103.329 4.01051 101.842 4.56831 100.007 4.56831Z" fill="#C4C4C4"/>
<path d="M72.0155 93.704C72.0155 95.5389 71.4577 97.0263 70.7697 97.0263C70.0816 97.0263 69.5238 95.5389 69.5238 93.704C69.5238 91.8691 70.0816 90.3816 70.7697 90.3816C71.4577 90.3816 72.0155 91.8691 72.0155 93.704Z" fill="#C4C4C4"/>
<path d="M70.7696 94.9498C68.9347 94.9498 67.4473 94.392 67.4473 93.7039C67.4473 93.0158 68.9347 92.458 70.7696 92.458C72.6045 92.458 74.092 93.0158 74.092 93.7039C74.092 94.392 72.6045 94.9498 70.7696 94.9498Z" fill="#C4C4C4"/>
<path d="M114.568 74.3224C114.568 76.1573 114.01 77.6447 113.322 77.6447C112.634 77.6447 112.076 76.1573 112.076 74.3224C112.076 72.4875 112.634 71 113.322 71C114.01 71 114.568 72.4875 114.568 74.3224Z" fill="#C4C4C4"/>
<path d="M113.322 75.5682C111.487 75.5682 110 75.0104 110 74.3223C110 73.6342 111.487 73.0764 113.322 73.0764C115.157 73.0764 116.645 73.6342 116.645 74.3223C116.645 75.0104 115.157 75.5682 113.322 75.5682Z" fill="#C4C4C4"/>
<path d="M5.56815 76.4276C5.56815 78.2625 5.01035 79.75 4.32227 79.75C3.63418 79.75 3.07638 78.2625 3.07638 76.4276C3.07638 74.5927 3.63418 73.1052 4.32227 73.1052C5.01035 73.1052 5.56815 74.5927 5.56815 76.4276Z" fill="#C4C4C4"/>
<path d="M4.32237 77.6735C2.48748 77.6735 1 77.1157 1 76.4277C1 75.7396 2.48748 75.1818 4.32237 75.1818C6.15726 75.1818 7.64474 75.7396 7.64474 76.4277C7.64474 77.1157 6.15726 77.6735 4.32237 77.6735Z" fill="#C4C4C4"/>
</svg>
