<svg width="79" height="77" viewBox="0 0 79 77" fill="none" xmlns="http://www.w3.org/2000/svg">
<circle cx="75" cy="49" r="3" fill="white" stroke="#6465FF" stroke-width="2"/>
<circle cx="3.5" cy="7.5" r="2.5" fill="white" stroke="#6465FF" stroke-width="2"/>
<path d="M76.378 1.62195C77.3256 1.75527 78 2.0981 78 2.5C78 2.9019 77.3256 3.24473 76.378 3.37805C76.2447 4.32561 75.9019 5 75.5 5C75.0981 5 74.7553 4.32561 74.622 3.37805C73.6744 3.24473 73 2.9019 73 2.5C73 2.0981 73.6744 1.75527 74.622 1.62195C74.7553 0.674387 75.0981 0 75.5 0C75.9019 0 76.2447 0.674387 76.378 1.62195Z" fill="#BBC6CB"/>
<path d="M54.378 73.622C55.3256 73.7553 56 74.0981 56 74.5C56 74.9019 55.3256 75.2447 54.378 75.378C54.2447 76.3256 53.9019 77 53.5 77C53.0981 77 52.7553 76.3256 52.622 75.378C51.6744 75.2447 51 74.9019 51 74.5C51 74.0981 51.6744 73.7553 52.622 73.622C52.7553 72.6744 53.0981 72 53.5 72C53.9019 72 54.2447 72.6744 54.378 73.622Z" fill="#BBC6CB"/>
<path d="M21.378 9.62195C22.3256 9.75527 23 10.0981 23 10.5C23 10.9019 22.3256 11.2447 21.378 11.378C21.2447 12.3256 20.9019 13 20.5 13C20.0981 13 19.7553 12.3256 19.622 11.378C18.6744 11.2447 18 10.9019 18 10.5C18 10.0981 18.6744 9.75527 19.622 9.62195C19.7553 8.67439 20.0981 8 20.5 8C20.9019 8 21.2447 8.67439 21.378 9.62195Z" fill="#BBC6CB"/>
<path d="M4.37805 53.622C5.32561 53.7553 6 54.0981 6 54.5C6 54.9019 5.32561 55.2447 4.37805 55.378C4.24473 56.3256 3.9019 57 3.5 57C3.0981 57 2.75527 56.3256 2.62195 55.378C1.67439 55.2447 1 54.9019 1 54.5C1 54.0981 1.67439 53.7553 2.62195 53.622C2.75527 52.6744 3.0981 52 3.5 52C3.9019 52 4.24473 52.6744 4.37805 53.622Z" fill="#BBC6CB"/>
<circle cx="39" cy="37" r="10" stroke="#6465FF" stroke-width="2"/>
<circle cx="53" cy="21" r="3" stroke="#6465FF" stroke-width="2"/>
<circle cx="25" cy="54" r="3" transform="rotate(-180 25 54)" stroke="#6465FF" stroke-width="2"/>
<circle cx="25" cy="21" r="2" stroke="#6465FF" stroke-width="2"/>
<circle cx="53" cy="54" r="2" transform="rotate(-180 53 54)" stroke="#6465FF" stroke-width="2"/>
<circle cx="21" cy="38" r="2" stroke="#6465FF" stroke-width="2"/>
<circle r="2" transform="matrix(-1 0 0 1 57 38)" stroke="#6465FF" stroke-width="2"/>
<path d="M50 21H38.0003C32.8569 21 29.4403 26.3243 31.5833 31V31" stroke="#6465FF" stroke-width="2"/>
<path d="M28 54H39.9001C44.5222 54 47.5141 49.1187 45.4167 45V45" stroke="#6465FF" stroke-width="2"/>
<line x1="26" y1="21" x2="39" y2="21" stroke="#6465FF" stroke-width="2"/>
<line x1="23" y1="38" x2="30" y2="38" stroke="#6465FF" stroke-width="2"/>
<line y1="-1" x2="6" y2="-1" transform="matrix(-1 0 0 1 55 39)" stroke="#6465FF" stroke-width="2"/>
<path d="M51 54L40 54" stroke="#6465FF" stroke-width="2"/>
<path d="M33.7031 33.6562C33.7031 32.9531 33.9323 32.3854 34.3906 31.9531C34.849 31.5208 35.4635 31.3047 36.2344 31.3047C37.0156 31.3047 37.6328 31.5208 38.0859 31.9531C38.5391 32.3802 38.7656 32.9609 38.7656 33.6953V34.2578C38.7656 34.9609 38.5391 35.526 38.0859 35.9531C37.6328 36.3802 37.0208 36.5938 36.25 36.5938C35.4844 36.5938 34.8672 36.3828 34.3984 35.9609C33.9349 35.5339 33.7031 34.9505 33.7031 34.2109V33.6562ZM35.3984 34.2578C35.3984 34.5286 35.474 34.75 35.625 34.9219C35.776 35.0885 35.9844 35.1719 36.25 35.1719C36.7969 35.1719 37.0703 34.8229 37.0703 34.125V33.6562C37.0703 33.3854 36.9974 33.1641 36.8516 32.9922C36.7057 32.8151 36.5 32.7266 36.2344 32.7266C35.9792 32.7266 35.776 32.8125 35.625 32.9844C35.474 33.151 35.3984 33.3802 35.3984 33.6719V34.2578ZM39.1094 40.0547C39.1094 39.3464 39.3385 38.7786 39.7969 38.3516C40.2604 37.9245 40.875 37.7109 41.6406 37.7109C42.4167 37.7109 43.0339 37.9219 43.4922 38.3438C43.9505 38.7656 44.1797 39.3542 44.1797 40.1094V40.6562C44.1797 41.3646 43.9531 41.9323 43.5 42.3594C43.0469 42.7865 42.4323 43 41.6562 43C40.8906 43 40.2734 42.7891 39.8047 42.3672C39.3411 41.9401 39.1094 41.3568 39.1094 40.6172V40.0547ZM40.7969 40.6562C40.7969 40.901 40.8802 41.1172 41.0469 41.3047C41.2135 41.487 41.4167 41.5781 41.6562 41.5781C42.1615 41.5781 42.4349 41.3385 42.4766 40.8594L42.4844 40.0547C42.4844 39.7786 42.4089 39.5573 42.2578 39.3906C42.1068 39.2188 41.901 39.1328 41.6406 39.1328C41.3906 39.1328 41.1901 39.2135 41.0391 39.375C40.888 39.5312 40.8073 39.7448 40.7969 40.0156V40.6562ZM36.75 41.9922L35.5234 41.375L41.0781 32.4844L42.3047 33.1016L36.75 41.9922Z" fill="#6465FF"/>
</svg>
