<svg width="117" height="106" viewBox="0 0 117 106" fill="none" xmlns="http://www.w3.org/2000/svg">
<path d="M104.474 53.4069C104.474 52.8707 104.287 52.429 103.913 52.082C103.538 51.7287 102.915 51.4133 102.042 51.1356C101.168 50.8517 100.489 50.5899 100.004 50.3502C98.3895 49.5615 97.5821 48.3943 97.5821 46.8486C97.5821 45.8013 97.9321 44.9401 98.632 44.265C99.3319 43.5899 100.281 43.1893 101.48 43.0631V41H103.143V43.082C104.349 43.2397 105.281 43.7066 105.94 44.4827C106.598 45.2524 106.927 46.2555 106.927 47.4921H104.412C104.412 46.6972 104.214 46.0726 103.819 45.6183C103.431 45.1577 102.901 44.9274 102.229 44.9274C101.563 44.9274 101.044 45.0915 100.669 45.4196C100.295 45.7476 100.108 46.2177 100.108 46.8297C100.108 47.3785 100.292 47.8202 100.659 48.1546C101.033 48.4827 101.664 48.795 102.551 49.0915C103.438 49.388 104.134 49.6625 104.64 49.9148C105.146 50.1672 105.572 50.4574 105.919 50.7855C106.265 51.1073 106.532 51.4795 106.719 51.9022C106.906 52.3249 107 52.8202 107 53.388C107 54.4543 106.64 55.3186 105.919 55.9811C105.205 56.6435 104.207 57.0347 102.925 57.1546V59H101.272V57.164C99.9002 57.0252 98.8434 56.5773 98.1019 55.8202C97.3673 55.0631 97 54.0599 97 52.8107H99.526C99.526 53.6057 99.7443 54.2208 100.181 54.6562C100.624 55.0915 101.248 55.3091 102.052 55.3091C102.842 55.3091 103.441 55.1356 103.85 54.7886C104.266 54.4416 104.474 53.9811 104.474 53.4069Z" fill="#6465FF" stroke="#6465FF" stroke-width="0.5"/>
<path d="M15.474 53.4069C15.474 52.8707 15.2869 52.429 14.9127 52.082C14.5385 51.7287 13.9148 51.4133 13.0416 51.1356C12.1684 50.8517 11.4893 50.5899 11.0042 50.3502C9.38947 49.5615 8.58212 48.3943 8.58212 46.8486C8.58212 45.8013 8.93209 44.9401 9.63202 44.265C10.3319 43.5899 11.2814 43.1893 12.4802 43.0631V41H14.1435V43.082C15.3493 43.2397 16.2814 43.7066 16.9397 44.4827C17.5981 45.2524 17.9272 46.2555 17.9272 47.4921H15.4116C15.4116 46.6972 15.2141 46.0726 14.8191 45.6183C14.431 45.1577 13.9009 44.9274 13.2287 44.9274C12.5634 44.9274 12.0437 45.0915 11.6694 45.4196C11.2952 45.7476 11.1081 46.2177 11.1081 46.8297C11.1081 47.3785 11.2918 47.8202 11.659 48.1546C12.0333 48.4827 12.6639 48.795 13.5509 49.0915C14.438 49.388 15.1344 49.6625 15.6403 49.9148C16.1462 50.1672 16.5724 50.4574 16.9189 50.7855C17.2654 51.1073 17.5322 51.4795 17.7193 51.9022C17.9064 52.3249 18 52.8202 18 53.388C18 54.4543 17.6396 55.3186 16.9189 55.9811C16.2051 56.6435 15.2072 57.0347 13.9252 57.1546V59H12.2723V57.164C10.9002 57.0252 9.84338 56.5773 9.10187 55.8202C8.36729 55.0631 8 54.0599 8 52.8107H10.526C10.526 53.6057 10.7443 54.2208 11.1809 54.6562C11.6244 55.0915 12.2481 55.3091 13.052 55.3091C13.842 55.3091 14.4414 55.1356 14.8503 54.7886C15.2661 54.4416 15.474 53.9811 15.474 53.4069Z" fill="#6465FF" stroke="#6465FF" stroke-width="0.5"/>
<circle cx="83" cy="50" r="2" fill="#6465FF"/>
<circle cx="91" cy="50" r="2" fill="#6465FF"/>
<circle cx="32" cy="50" r="2" fill="#6465FF"/>
<circle cx="24" cy="50" r="2" fill="#6465FF"/>
<path d="M57.4994 78C56.9063 78 56.312 77.8454 55.7829 77.5363C46.427 72.2684 38 66.3915 38 52.7388V36.851C38 35.7167 38.8363 34.7475 39.9775 34.5593L42.3986 34.1595C46.2764 33.5366 50.0439 32.3454 53.6097 30.6185L56.446 29.2414C57.0996 28.9253 57.8624 28.9195 58.5208 29.2251L62.1246 30.9067C65.7272 32.6011 69.5848 33.7516 73.5967 34.3315L74.9632 34.5232C76.1317 34.6871 77 35.6679 77 36.8242V52.7109C77 66.3845 68.5789 72.2626 59.1945 77.5479C58.6702 77.8501 58.0854 78 57.4994 78ZM42.7438 38.8161V52.7388C42.7438 62.7331 47.7117 67.542 57.4982 73.1388C67.2871 67.542 72.2539 62.7285 72.2539 52.7109V38.8312C67.9964 38.1537 63.9063 36.9009 60.0759 35.1008L57.5196 33.9073L55.7153 34.7835C51.7248 36.7162 47.5065 38.0491 43.1767 38.7441L42.7438 38.8161Z" fill="#6465FF"/>
<path d="M58.1447 73.5061C58.1566 73.5119 58.1684 73.5188 58.1791 73.5258M57.4994 78C56.9063 78 56.312 77.8454 55.7829 77.5363C46.427 72.2684 38 66.3915 38 52.7388V36.851C38 35.7167 38.8363 34.7475 39.9775 34.5593L42.3986 34.1595C46.2764 33.5366 50.0439 32.3454 53.6097 30.6185L56.446 29.2414C57.0996 28.9253 57.8624 28.9195 58.5208 29.2251L62.1246 30.9067C65.7272 32.6011 69.5848 33.7516 73.5967 34.3315L74.9632 34.5232C76.1317 34.6871 77 35.6679 77 36.8242V52.7109C77 66.3845 68.5789 72.2626 59.1945 77.5479C58.6702 77.8501 58.0854 78 57.4994 78ZM42.7438 38.8161V52.7388C42.7438 62.7331 47.7117 67.542 57.4982 73.1388C67.2871 67.542 72.2539 62.7285 72.2539 52.7109V38.8312C67.9964 38.1537 63.9063 36.9009 60.0759 35.1008L57.5196 33.9073L55.7153 34.7835C51.7248 36.7162 47.5065 38.0491 43.1767 38.7441L42.7438 38.8161Z" stroke="white" stroke-width="2"/>
<circle cx="4.5" cy="13.5" r="3.5" fill="white" stroke="#6465FF" stroke-width="2"/>
<path d="M53.5682 10.3224C53.5682 12.1573 53.0104 13.6447 52.3223 13.6447C51.6342 13.6447 51.0764 12.1573 51.0764 10.3224C51.0764 8.48748 51.6342 7 52.3223 7C53.0104 7 53.5682 8.48748 53.5682 10.3224Z" fill="#C4C4C4"/>
<path d="M52.3224 11.5683C50.4875 11.5683 49 11.0105 49 10.3224C49 9.63434 50.4875 9.07654 52.3224 9.07654C54.1573 9.07654 55.6447 9.63434 55.6447 10.3224C55.6447 11.0105 54.1573 11.5683 52.3224 11.5683Z" fill="#C4C4C4"/>
<path d="M72.0155 93.704C72.0155 95.5389 71.4577 97.0263 70.7697 97.0263C70.0816 97.0263 69.5238 95.5389 69.5238 93.704C69.5238 91.8691 70.0816 90.3816 70.7697 90.3816C71.4577 90.3816 72.0155 91.8691 72.0155 93.704Z" fill="#C4C4C4"/>
<path d="M70.7696 94.9498C68.9347 94.9498 67.4473 94.392 67.4473 93.7039C67.4473 93.0158 68.9347 92.458 70.7696 92.458C72.6045 92.458 74.092 93.0158 74.092 93.7039C74.092 94.392 72.6045 94.9498 70.7696 94.9498Z" fill="#C4C4C4"/>
<path d="M87.5683 27.3224C87.5683 29.1573 87.0105 30.6447 86.3224 30.6447C85.6343 30.6447 85.0765 29.1573 85.0765 27.3224C85.0765 25.4875 85.6343 24 86.3224 24C87.0105 24 87.5683 25.4875 87.5683 27.3224Z" fill="#C4C4C4"/>
<path d="M86.3224 28.5682C84.4875 28.5682 83 28.0104 83 27.3223C83 26.6342 84.4875 26.0764 86.3224 26.0764C88.1573 26.0764 89.6447 26.6342 89.6447 27.3223C89.6447 28.0104 88.1573 28.5682 86.3224 28.5682Z" fill="#C4C4C4"/>
<path d="M22.5682 77.3224C22.5682 79.1573 22.0104 80.6447 21.3223 80.6447C20.6342 80.6447 20.0764 79.1573 20.0764 77.3224C20.0764 75.4875 20.6342 74 21.3223 74C22.0104 74 22.5682 75.4875 22.5682 77.3224Z" fill="#C4C4C4"/>
<path d="M21.3224 78.5683C19.4875 78.5683 18 78.0105 18 77.3224C18 76.6343 19.4875 76.0765 21.3224 76.0765C23.1573 76.0765 24.6447 76.6343 24.6447 77.3224C24.6447 78.0105 23.1573 78.5683 21.3224 78.5683Z" fill="#C4C4C4"/>
<path fill-rule="evenodd" clip-rule="evenodd" d="M63.3384 46.4349C63.6298 46.1573 64.0233 46.0011 64.4337 46C64.8441 45.9989 65.2385 46.1531 65.5315 46.4291C65.8246 46.7051 65.9928 47.0809 65.9998 47.4751C66.0068 47.8693 65.852 48.2504 65.5689 48.5358L57.255 58.5204C57.1121 58.6682 56.9396 58.7869 56.7479 58.8693C56.5562 58.9516 56.3492 58.996 56.1392 58.9997C55.9292 59.0035 55.7206 58.9665 55.5259 58.891C55.3311 58.8155 55.1542 58.7031 55.0057 58.5604L49.4971 53.266C49.3437 53.1286 49.2206 52.9629 49.1352 52.7788C49.0498 52.5948 49.0039 52.396 49.0002 52.1946C48.9965 51.9931 49.0351 51.7929 49.1137 51.606C49.1922 51.4192 49.3092 51.2494 49.4575 51.1069C49.6058 50.9644 49.7825 50.8521 49.977 50.7766C50.1715 50.7011 50.3798 50.6641 50.5895 50.6676C50.7993 50.6712 51.0061 50.7153 51.1977 50.7973C51.3893 50.8793 51.5617 50.9976 51.7047 51.145L56.0658 55.3329L63.2988 46.4789C63.3117 46.4634 63.3256 46.4487 63.3405 46.4349H63.3384Z" fill="#6465FF"/>
<circle cx="36" cy="101" r="4" fill="white" stroke="#6465FF" stroke-width="2"/>
</svg>
