<svg width="117" height="106" viewBox="0 0 117 106" fill="none" xmlns="http://www.w3.org/2000/svg">
<circle cx="36" cy="101" r="4" fill="white" stroke="#6465FF" stroke-width="2"/>
<circle cx="4.5" cy="13.5" r="3.5" fill="white" stroke="#6465FF" stroke-width="2"/>
<path d="M101.252 3.32237C101.252 5.15726 100.695 6.64474 100.007 6.64474C99.3185 6.64474 98.7607 5.15726 98.7607 3.32237C98.7607 1.48748 99.3185 0 100.007 0C100.695 0 101.252 1.48748 101.252 3.32237Z" fill="#C4C4C4"/>
<path d="M100.007 4.56831C98.1718 4.56831 96.6843 4.01051 96.6843 3.32243C96.6843 2.63434 98.1718 2.07654 100.007 2.07654C101.842 2.07654 103.329 2.63434 103.329 3.32243C103.329 4.01051 101.842 4.56831 100.007 4.56831Z" fill="#C4C4C4"/>
<path d="M72.0155 93.704C72.0155 95.5389 71.4577 97.0263 70.7697 97.0263C70.0816 97.0263 69.5238 95.5389 69.5238 93.704C69.5238 91.8691 70.0816 90.3816 70.7697 90.3816C71.4577 90.3816 72.0155 91.8691 72.0155 93.704Z" fill="#C4C4C4"/>
<path d="M70.7696 94.9498C68.9347 94.9498 67.4473 94.392 67.4473 93.7039C67.4473 93.0158 68.9347 92.458 70.7696 92.458C72.6045 92.458 74.092 93.0158 74.092 93.7039C74.092 94.392 72.6045 94.9498 70.7696 94.9498Z" fill="#C4C4C4"/>
<path d="M110.568 56.3224C110.568 58.1573 110.01 59.6447 109.322 59.6447C108.634 59.6447 108.076 58.1573 108.076 56.3224C108.076 54.4875 108.634 53 109.322 53C110.01 53 110.568 54.4875 110.568 56.3224Z" fill="#C4C4C4"/>
<path d="M109.322 57.5682C107.487 57.5682 106 57.0104 106 56.3223C106 55.6342 107.487 55.0764 109.322 55.0764C111.157 55.0764 112.645 55.6342 112.645 56.3223C112.645 57.0104 111.157 57.5682 109.322 57.5682Z" fill="#C4C4C4"/>
<path d="M5.56815 76.4276C5.56815 78.2625 5.01035 79.75 4.32227 79.75C3.63418 79.75 3.07638 78.2625 3.07638 76.4276C3.07638 74.5927 3.63418 73.1052 4.32227 73.1052C5.01035 73.1052 5.56815 74.5927 5.56815 76.4276Z" fill="#C4C4C4"/>
<path d="M4.32237 77.6735C2.48748 77.6735 1 77.1157 1 76.4277C1 75.7396 2.48748 75.1818 4.32237 75.1818C6.15726 75.1818 7.64474 75.7396 7.64474 76.4277C7.64474 77.1157 6.15726 77.6735 4.32237 77.6735Z" fill="#C4C4C4"/>
<path d="M56.6274 53.4231C52.0794 59.8223 44.5862 64 36.1128 64C22.2434 64 11 52.8071 11 39C11 25.1929 22.2434 14 36.1128 14C48.8358 14 59.3489 23.419 61 35.6346" stroke="#6465FF" stroke-width="2.5"/>
<path d="M95.5745 62.2724C93.4533 62.2724 83.0065 62.2724 81.1835 62.2724C86.1738 59.6084 89.8271 54.7652 90.8556 49.025H92.2553C96.5257 49.025 100 45.5584 100 41.2974C100 37.0364 96.5257 33.5698 92.2553 33.5698C91.0276 33.5698 56.4502 33.5698 54.6383 33.5698C54.0272 33.5698 53.5319 34.064 53.5319 34.6737V45.7132C53.5319 52.8736 57.5724 59.1095 63.4973 62.2724C61.6626 62.2724 51.2199 62.2724 49.1064 62.2724C48.4953 62.2724 48 62.7667 48 63.3763C48 63.9859 48.4953 64.4803 49.1064 64.4803H50.3067C50.8352 67.6087 53.5678 70 56.8511 70H87.8298C91.1131 70 93.8456 67.6087 94.374 64.4803H95.5745C96.1854 64.4803 96.6808 63.9859 96.6808 63.3763C96.6808 62.7667 96.1854 62.2724 95.5745 62.2724ZM97.7872 41.2973C97.7872 44.341 95.3056 46.817 92.2553 46.817H91.1489C91.1489 45.9409 91.1489 37.3154 91.1489 35.7776H92.2553C95.3056 35.7776 97.7872 38.2537 97.7872 41.2973ZM55.7447 45.7132V42.4013H59.0638V46.8171C59.0638 52.9044 64.0271 57.8566 70.1277 57.8566C70.7387 57.8566 71.234 57.3622 71.234 56.7526C71.234 56.143 70.7387 55.6487 70.1277 55.6487C65.2472 55.6487 61.2766 51.6869 61.2766 46.8171V42.4013H83.4043C84.0152 42.4013 84.5106 41.9071 84.5106 41.2974C84.5106 40.6877 84.0152 40.1935 83.4043 40.1935H55.7447V35.7777H88.9362V45.7132C88.9362 54.8439 81.4913 62.2724 72.3404 62.2724C63.1895 62.2724 55.7447 54.8439 55.7447 45.7132ZM87.8298 67.7921H56.8511C54.7927 67.7921 53.0581 66.3827 52.5656 64.4803H92.1154C91.6228 66.3827 89.8881 67.7921 87.8298 67.7921Z" fill="#6465FF"/>
<path d="M61.7702 31.7929C61.9139 32.2712 62.3535 32.5799 62.8295 32.5799C63.5682 32.5799 64.103 31.8683 63.8896 31.1585C63.4562 29.717 63.9938 28.1666 65.2273 27.3005L68.3823 25.0854C70.3959 23.6714 71.2735 21.1404 70.566 18.7871C70.3904 18.2031 69.7737 17.8715 69.1883 18.0469C68.603 18.2221 68.2709 18.8376 68.4465 19.4216C68.8798 20.8631 68.3424 22.4136 67.1089 23.2796L63.9539 25.4948C61.9403 26.9087 61.0627 29.4397 61.7702 31.7929Z" fill="#6465FF"/>
<path d="M69.1751 31.7929C69.3188 32.2712 69.7585 32.5799 70.2344 32.5799C70.973 32.5799 71.508 31.8683 71.2945 31.1585C70.8611 29.717 71.3986 28.1666 72.6321 27.3005L75.7871 25.0854C77.8007 23.6714 78.6783 21.1404 77.9708 18.7872C77.7953 18.2032 77.1787 17.8716 76.5932 18.047C76.0079 18.2221 75.6758 18.8376 75.8514 19.4216C76.2847 20.8632 75.7471 22.4136 74.5136 23.2797L71.3587 25.4949C69.3451 26.9087 68.4676 29.4398 69.1751 31.7929Z" fill="#6465FF"/>
<path d="M76.5799 31.7928C76.7236 32.2711 77.1632 32.5798 77.6391 32.5798C78.3765 32.5798 78.9131 31.8698 78.6993 31.1585C78.2659 29.717 78.8035 28.1665 80.037 27.3004L83.192 25.0852C85.2056 23.6713 86.0832 21.1403 85.3756 18.7871C85.2002 18.2031 84.5835 17.8715 83.9981 18.0469C83.4128 18.222 83.0807 18.8375 83.2562 19.4215C83.6896 20.8631 83.152 22.4135 81.9185 23.2796L78.7636 25.4949C76.7499 26.9087 75.8725 29.4397 76.5799 31.7928Z" fill="#6465FF"/>
<path fill-rule="evenodd" clip-rule="evenodd" d="M47.25 29.8333H24.75C24.2527 29.8333 23.7758 30.0265 23.4242 30.3703C23.0725 30.7141 22.875 31.1804 22.875 31.6667V46.3333C22.875 46.8196 23.0725 47.2859 23.4242 47.6297C23.7758 47.9735 24.2527 48.1667 24.75 48.1667H47.25C47.7473 48.1667 48.2242 47.9735 48.5758 47.6297C48.9275 47.2859 49.125 46.8196 49.125 46.3333V31.6667C49.125 31.1804 48.9275 30.7141 48.5758 30.3703C48.2242 30.0265 47.7473 29.8333 47.25 29.8333ZM24.75 28C23.7554 28 22.8016 28.3863 22.0983 29.0739C21.3951 29.7616 21 30.6942 21 31.6667V46.3333C21 47.3058 21.3951 48.2384 22.0983 48.9261C22.8016 49.6137 23.7554 50 24.75 50H47.25C48.2446 50 49.1984 49.6137 49.9016 48.9261C50.6049 48.2384 51 47.3058 51 46.3333V31.6667C51 30.6942 50.6049 29.7616 49.9016 29.0739C49.1984 28.3863 48.2446 28 47.25 28H24.75Z" fill="#6465FF" stroke="#6465FF" stroke-width="0.5"/>
<path d="M41.5714 33.8333C41.5714 33.6123 41.6693 33.4004 41.8434 33.2441C42.0175 33.0878 42.2537 33 42.5 33H46.2143C46.4606 33 46.6967 33.0878 46.8709 33.2441C47.045 33.4004 47.1429 33.6123 47.1429 33.8333V35.5C47.1429 35.721 47.045 35.933 46.8709 36.0893C46.6967 36.2455 46.4606 36.3333 46.2143 36.3333H42.5C42.2537 36.3333 42.0175 36.2455 41.8434 36.0893C41.6693 35.933 41.5714 35.721 41.5714 35.5V33.8333ZM23 39.6667H49V43H23V39.6667Z" fill="#6465FF"/>
</svg>
