<svg width="77" height="49" viewBox="0 0 77 49" fill="none" xmlns="http://www.w3.org/2000/svg">
<path fill-rule="evenodd" clip-rule="evenodd" d="M69.0005 40.102V40.102H70.0603L70.0693 40.102C71.3014 40.1069 72.2998 41.1018 72.3098 42.3321C72.3097 42.3382 72.3097 42.3444 72.3097 42.3506V43.4104H72.3098H73.1037H73.1038V42.3506C73.1038 42.3444 73.1038 42.3382 73.1037 42.3321C73.1137 41.1016 74.1124 40.1066 75.3447 40.102C75.3475 40.102 75.3504 40.102 75.3532 40.102H76.413V40.102V39.3084V39.3084H75.3532C75.3503 39.3084 75.3473 39.3084 75.3444 39.3084C74.1123 39.3037 73.1137 38.3088 73.1037 37.0784L73.1038 37.0598V36H73.1037H72.3098H72.3097V37.0598L72.3098 37.0784C72.2998 38.3086 71.3015 39.3035 70.0695 39.3084L70.0603 39.3084H69.0005V39.3084V40.102ZM73.8492 39.7052C73.3734 39.4343 72.9778 39.0389 72.7068 38.5633C72.4358 39.0389 72.0401 39.4343 71.5643 39.7052C72.0401 39.9761 72.4357 40.3715 72.7068 40.8471C72.9778 40.3715 73.3734 39.9761 73.8492 39.7052Z" fill="#BBC6CB"/>
<path fill-rule="evenodd" clip-rule="evenodd" d="M0 25.102V25.102H1.05981L1.06886 25.102C2.30091 25.1069 3.29935 26.1018 3.30928 27.3321C3.30924 27.3382 3.30922 27.3444 3.30922 27.3506V28.4104H3.30935H4.10318H4.10331V27.3506C4.10331 27.3444 4.10329 27.3382 4.10325 27.3321C4.11319 26.1016 5.1119 25.1066 6.34417 25.102C6.34702 25.102 6.34987 25.102 6.35273 25.102H7.41253V25.102V24.3084V24.3084H6.35273C6.34979 24.3084 6.34685 24.3084 6.34392 24.3084C5.11176 24.3037 4.11319 23.3088 4.10325 22.0784L4.10331 22.0598V21H4.10318H3.30935H3.30922V22.0598L3.30928 22.0784C3.29935 23.3086 2.301 24.3035 1.06903 24.3084L1.05981 24.3084H0V24.3084V25.102ZM4.8487 24.7052C4.37289 24.4343 3.97727 24.0389 3.70627 23.5633C3.43526 24.0389 3.03965 24.4343 2.56384 24.7052C3.03965 24.9761 3.43526 25.3715 3.70627 25.8471C3.97727 25.3715 4.37289 24.9761 4.8487 24.7052Z" fill="#BBC6CB"/>
<path d="M31.2946 34.833H29.7209V36.4066H31.2946V34.833Z" fill="#6465FF" stroke="#6465FF" stroke-width="0.5"/>
<path d="M34.4418 34.833H32.8682V36.4066H34.4418V34.833Z" fill="#6465FF" stroke="#6465FF" stroke-width="0.5"/>
<path d="M37.589 34.833H36.0154V36.4066H37.589V34.833Z" fill="#6465FF" stroke="#6465FF" stroke-width="0.5"/>
<path d="M32.8682 44.2743C32.8682 44.4829 32.9511 44.6831 33.0986 44.8306C33.2462 44.9782 33.4463 45.0611 33.655 45.0611H43.0967C43.3053 45.0611 43.5055 44.9782 43.653 44.8306C43.8006 44.6831 43.8835 44.4829 43.8835 44.2743C43.8835 44.0656 43.8006 43.8654 43.653 43.7179C43.5055 43.5703 43.3053 43.4874 43.0967 43.4874H33.655C33.4463 43.4874 33.2462 43.5703 33.0986 43.7179C32.9511 43.8654 32.8682 44.0656 32.8682 44.2743Z" fill="#6465FF" stroke="#6465FF" stroke-width="0.5"/>
<path d="M59.6196 1.00001C56.6877 0.996824 53.8476 2.02231 51.5941 3.89782C51.3684 3.06811 50.8767 2.33535 50.1945 1.81191C49.5124 1.28847 48.6773 1.00325 47.8174 1.00001H28.934C27.8911 1.00126 26.8911 1.41614 26.1536 2.15364C25.4161 2.89115 25.0012 3.89106 25 4.93405V44.2744C25.0012 45.3174 25.4161 46.3173 26.1536 47.0549C26.8911 47.7924 27.8911 48.2072 28.934 48.2085H47.8174C48.8604 48.2072 49.8603 47.7924 50.5978 47.0549C51.3353 46.3173 51.7502 45.3174 51.7515 44.2744V28.3809L59.7502 26.1716C63.0403 26.0829 66.165 24.7092 68.4546 22.3448C70.7443 19.9803 72.0169 16.8132 71.9998 13.5219C71.9828 10.2306 70.6773 7.07681 68.3633 4.73626C66.0492 2.39571 62.9105 1.05452 59.6196 1.00001V1.00001ZM33.6549 28.5383C33.9661 28.5383 34.2704 28.6306 34.5291 28.8035C34.7879 28.9764 34.9896 29.2222 35.1087 29.5097C35.2278 29.7972 35.259 30.1136 35.1983 30.4189C35.1376 30.7242 34.9877 31.0045 34.7676 31.2246C34.5475 31.4447 34.2671 31.5946 33.9619 31.6553C33.6566 31.716 33.3402 31.6848 33.0527 31.5657C32.7652 31.4466 32.5194 31.2449 32.3465 30.9862C32.1736 30.7274 32.0813 30.4231 32.0813 30.1119C32.0813 29.6946 32.2471 29.2943 32.5422 28.9992C32.8373 28.7041 33.2375 28.5383 33.6549 28.5383ZM34.1805 27.0182L47.2549 11.2616C46.6735 14.2948 47.2315 17.4359 48.8221 20.0833C50.4127 22.7306 52.9241 24.6981 55.8751 25.609L36.6872 30.9097C36.76 30.6499 36.7986 30.3817 36.8021 30.1119C36.7999 29.3699 36.5357 28.6526 36.056 28.0865C35.5763 27.5205 34.912 27.1421 34.1805 27.0182V27.0182ZM44.184 2.57362L43.6143 3.71213C43.5495 3.84321 43.4493 3.95348 43.3249 4.0304C43.2006 4.10732 43.0571 4.1478 42.9109 4.14724H33.8406C33.6944 4.1478 33.5509 4.10732 33.4266 4.0304C33.3022 3.95348 33.202 3.84321 33.1372 3.71213L32.5675 2.57362H44.184ZM50.1779 44.2744C50.1779 44.9005 49.9292 45.5009 49.4865 45.9435C49.0438 46.3862 48.4435 46.6349 47.8174 46.6349H28.934C28.308 46.6349 27.7076 46.3862 27.265 45.9435C26.8223 45.5009 26.5736 44.9005 26.5736 44.2744V4.93405C26.5736 4.30802 26.8223 3.70764 27.265 3.26498C27.7076 2.82231 28.308 2.57362 28.934 2.57362H30.8082L31.7296 4.41633C31.9245 4.80919 32.2256 5.13961 32.5987 5.37016C32.9718 5.60072 33.402 5.7222 33.8406 5.72086H42.9109C43.3495 5.7222 43.7797 5.60072 44.1528 5.37016C44.5259 5.13961 44.8269 4.80919 45.0219 4.41633L45.9433 2.57362H47.8174C48.4435 2.57362 49.0438 2.82231 49.4865 3.26498C49.9292 3.70764 50.1779 4.30802 50.1779 4.93405V5.29047C49.9717 5.52494 49.7745 5.76702 49.5862 6.0167L49.572 6.00489L31.2575 28.0764L31.2669 28.0859C30.7801 28.6489 30.5107 29.3676 30.5077 30.1119C30.5077 30.9466 30.8392 31.7471 31.4295 32.3373C32.0197 32.9276 32.8202 33.2591 33.6549 33.2591C33.9012 33.2567 34.1463 33.225 34.385 33.1647C34.4165 33.1625 34.4478 33.1583 34.4787 33.1521L50.1779 28.8152V44.2744ZM59.6196 24.6042C57.4409 24.6042 55.3112 23.9582 53.4998 22.7478C51.6883 21.5375 50.2765 19.8171 49.4427 17.8043C48.609 15.7915 48.3909 13.5767 48.8159 11.44C49.2409 9.30319 50.29 7.34045 51.8306 5.79993C53.3711 4.25941 55.3338 3.21031 57.4706 2.78528C59.6073 2.36025 61.8221 2.57839 63.8349 3.41211C65.8477 4.24584 67.5681 5.6577 68.7785 7.46916C69.9888 9.28061 70.6349 11.4103 70.6349 13.5889C70.6317 16.5094 69.4702 19.3094 67.4051 21.3745C65.34 23.4396 62.54 24.6011 59.6196 24.6042V24.6042Z" fill="#6465FF" stroke="#6465FF" stroke-width="0.5"/>
<line x1="54" y1="9" x2="65" y2="9" stroke="#6465FF" stroke-width="2" stroke-linecap="round"/>
<line x1="57" y1="13" x2="65" y2="13" stroke="#6465FF" stroke-width="2" stroke-linecap="round"/>
<line x1="54" y1="17" x2="65" y2="17" stroke="#6465FF" stroke-width="2" stroke-linecap="round"/>
</svg>
