<svg width="77" height="40" viewBox="0 0 77 40" fill="none" xmlns="http://www.w3.org/2000/svg">
<path fill-rule="evenodd" clip-rule="evenodd" d="M69.0005 19.1021L70.0603 19.1022L70.0693 19.1021C71.3014 19.107 72.2998 20.1019 72.3098 21.3322C72.3097 21.3384 72.3097 21.3445 72.3097 21.3507V22.4106H73.1037L73.1038 21.3507C73.1038 21.3445 73.1038 21.3384 73.1037 21.3322C73.1137 20.1017 74.1124 19.1067 75.3447 19.1021C75.3475 19.1022 75.3504 19.1022 75.3532 19.1022H76.413V18.3085L75.3532 18.3085C75.3503 18.3085 75.3473 18.3085 75.3444 18.3085C74.1123 18.3038 73.1137 17.3089 73.1037 16.0785L73.1038 16.06V15.0001H72.3098L72.3097 16.06L72.3098 16.0785C72.2998 17.3087 71.3015 18.3036 70.0695 18.3085L70.0603 18.3085H69.0005V19.1021ZM73.8492 18.7053C73.3734 18.4345 72.9778 18.039 72.7068 17.5634C72.4358 18.039 72.0401 18.4345 71.5643 18.7053C72.0401 18.9762 72.4357 19.3716 72.7068 19.8472C72.9778 19.3716 73.3734 18.9762 73.8492 18.7053Z" fill="#BBC6CB"/>
<path fill-rule="evenodd" clip-rule="evenodd" d="M0 19.1021L1.05981 19.1022L1.06886 19.1021C2.30091 19.107 3.29935 20.1019 3.30928 21.3322C3.30924 21.3384 3.30922 21.3445 3.30922 21.3507V22.4106H4.10318L4.10331 21.3507C4.10331 21.3445 4.10329 21.3384 4.10325 21.3322C4.11319 20.1017 5.1119 19.1067 6.34417 19.1021C6.34702 19.1022 6.34987 19.1022 6.35273 19.1022H7.41253V18.3085L6.35273 18.3085C6.34979 18.3085 6.34685 18.3085 6.34392 18.3085C5.11176 18.3038 4.11319 17.3089 4.10325 16.0785L4.10331 16.06V15.0001H3.30935L3.30922 16.06L3.30928 16.0785C3.29935 17.3087 2.301 18.3036 1.06903 18.3085L1.05981 18.3085H0V19.1021ZM4.8487 18.7053C4.37289 18.4345 3.97727 18.039 3.70627 17.5634C3.43526 18.039 3.03965 18.4345 2.56384 18.7053C3.03965 18.9762 3.43526 19.3716 3.70627 19.8472C3.97727 19.3716 4.37289 18.9762 4.8487 18.7053Z" fill="#BBC6CB"/>
<path d="M60.8192 4.00235C60.8192 4.39787 60.8192 4.78832 60.8192 5.18384C60.8192 6.23349 60.8192 7.28313 60.8192 8.33278C60.8192 9.83372 60.8192 11.3296 60.8192 12.8305C60.8192 14.5952 60.8192 16.3649 60.8192 18.1295C60.8192 19.96 60.8192 21.7906 60.8192 23.6211C60.8192 25.3198 60.8192 27.0185 60.8192 28.7172C60.8192 30.0812 60.8192 31.4402 60.8192 32.8042C60.8192 33.646 60.8192 34.4877 60.8192 35.3346C60.8192 35.4968 60.8192 35.6591 60.8192 35.8213C60.8192 35.8315 60.8192 35.8416 60.8192 35.8518C60.8192 35.9329 60.809 36.0191 60.809 36.1002C60.809 36.2118 60.8244 36.009 60.8244 36.0039C60.809 36.0445 60.809 36.0952 60.7987 36.1408C60.7833 36.2169 60.7628 36.298 60.7422 36.3741C60.7371 36.3842 60.6806 36.5972 60.6652 36.5972C60.6498 36.5972 60.7628 36.4095 60.7012 36.511C60.6858 36.5363 60.6704 36.5718 60.655 36.6022C60.619 36.6732 60.5831 36.7392 60.542 36.8051C60.5163 36.8456 60.3675 37.0789 60.4496 36.9471C60.5266 36.8203 60.4085 36.9876 60.3829 37.0231C60.3315 37.0789 60.2751 37.1347 60.2186 37.1854C60.2032 37.2006 60.08 37.3223 60.0697 37.3172C60.0594 37.3121 60.2442 37.2006 60.1467 37.2564C60.1005 37.2817 60.0543 37.3172 60.0081 37.3476C59.9516 37.3831 59.8951 37.4186 59.8335 37.4491C59.7925 37.4693 59.7514 37.4896 59.7155 37.5099C59.6641 37.5353 59.6076 37.5251 59.7155 37.5099C59.8284 37.4998 59.7617 37.4947 59.7103 37.5099C59.6795 37.52 59.6436 37.5302 59.6128 37.5403C59.5255 37.5657 59.4382 37.591 59.3458 37.6113C59.3099 37.6164 59.2791 37.6265 59.2431 37.6316C59.1302 37.6519 59.1764 37.591 59.3099 37.6215C59.2534 37.6063 59.161 37.6316 59.0994 37.6367C59.0737 37.6367 59.048 37.6367 59.0224 37.6367C58.9916 37.6367 58.9608 37.6367 58.93 37.6367C58.7451 37.6367 58.5655 37.6367 58.3806 37.6367C57.5951 37.6367 56.8045 37.6367 56.019 37.6367C54.7663 37.6367 53.5137 37.6367 52.261 37.6367C50.6746 37.6367 49.0934 37.6367 47.507 37.6367C45.7204 37.6367 43.9338 37.6367 42.1471 37.6367C40.2938 37.6367 38.4456 37.6367 36.5922 37.6367C34.7902 37.6367 32.9831 37.6367 31.1811 37.6367C29.5639 37.6367 27.9467 37.6367 26.3244 37.6367C25.0204 37.6367 23.7163 37.6367 22.4123 37.6367C21.555 37.6367 20.6976 37.6367 19.8454 37.6367C19.6195 37.6367 19.3987 37.6367 19.1728 37.6367C19.1215 37.6367 19.065 37.6367 19.0137 37.6367C19.0034 37.6367 18.9931 37.6367 18.9829 37.6367H18.9777C18.9161 37.6367 18.8596 37.6367 18.798 37.6316C18.5413 37.6164 18.9675 37.6722 18.721 37.6265C18.5721 37.6012 18.4335 37.5555 18.2898 37.5099C18.1204 37.4592 18.4746 37.6113 18.2538 37.4947C18.182 37.4592 18.1152 37.4237 18.0485 37.3831C17.9817 37.3426 17.9201 37.2919 17.8534 37.2564C17.7507 37.2057 17.9407 37.3071 17.9304 37.3172C17.9253 37.3223 17.8585 37.2614 17.8534 37.2513C17.8175 37.2209 17.4838 36.942 17.5043 36.8963C17.5094 36.8862 17.6224 37.0687 17.5659 36.9724C17.5505 36.942 17.5248 36.9166 17.5094 36.8913C17.4735 36.8355 17.4375 36.7797 17.4067 36.7239C17.3657 36.658 17.34 36.582 17.2989 36.516C17.2425 36.4146 17.3451 36.6022 17.3349 36.6022C17.3195 36.6022 17.2835 36.4552 17.2784 36.445C17.263 36.3893 17.1398 36.0445 17.1757 36.014C17.186 36.009 17.1911 36.2321 17.1911 36.1104C17.1911 36.0749 17.186 36.0394 17.186 36.0039C17.186 35.9583 17.1809 35.9075 17.1809 35.8619C17.1809 35.7504 17.1809 35.6439 17.1809 35.5323C17.1809 34.7818 17.1809 34.0263 17.1809 33.2758C17.1809 31.9676 17.1809 30.6593 17.1809 29.3511C17.1809 27.6879 17.1809 26.0196 17.1809 24.3564C17.1809 22.5309 17.1809 20.7054 17.1809 18.8799C17.1809 17.095 17.1809 15.3051 17.1809 13.5202C17.1809 11.9736 17.1809 10.4321 17.1809 8.88549C17.1809 7.76485 17.1809 6.64422 17.1809 5.52358C17.1809 5.03172 17.1757 4.53985 17.1809 4.04799C17.1809 4.04292 17.1809 4.03278 17.1809 4.02771C17.1809 3.98207 17.1809 3.93136 17.186 3.88573C17.186 3.89587 17.1911 3.74882 17.1963 3.74375C17.2014 3.74375 17.1603 3.95672 17.1809 3.84009C17.2117 3.6829 17.2527 3.53077 17.2989 3.37865C17.3657 3.16061 17.2271 3.49528 17.3092 3.34316C17.34 3.28231 17.3708 3.22653 17.4016 3.16568C17.4427 3.09976 17.4838 3.03384 17.5248 2.96792C17.53 2.96285 17.5762 2.88679 17.5813 2.88679C17.5813 2.88679 17.4324 3.05412 17.5454 2.9375C17.6532 2.82087 17.761 2.71438 17.8739 2.61297C18.0125 2.49127 17.7199 2.70931 17.8791 2.61297C17.9561 2.56733 18.028 2.51662 18.105 2.47099C18.1614 2.44056 18.223 2.41014 18.2846 2.37971C18.4438 2.29858 18.0793 2.44056 18.3206 2.36957C18.4746 2.32393 18.6286 2.28337 18.7878 2.25294C18.9007 2.23266 18.6902 2.26816 18.6902 2.26816C18.7159 2.27323 18.7672 2.26309 18.798 2.25801C18.8596 2.25294 18.9161 2.25294 18.9777 2.25294H18.9829C19.0137 2.25294 19.0496 2.25294 19.0804 2.25294C19.6041 2.25294 20.1226 2.25294 20.6463 2.25294C21.6936 2.25294 22.7358 2.25294 23.7831 2.25294C25.2257 2.25294 26.6632 2.25294 28.1059 2.25294C29.8103 2.25294 31.5148 2.25294 33.2192 2.25294C35.0521 2.25294 36.8849 2.25294 38.7177 2.25294C40.5659 2.25294 42.409 2.25294 44.2572 2.25294C45.9822 2.25294 47.7072 2.25294 49.4271 2.25294C50.8902 2.25294 52.3585 2.25294 53.8217 2.25294C54.9152 2.25294 56.0036 2.25294 57.0971 2.25294C57.6773 2.25294 58.2574 2.25294 58.8376 2.25294C58.8838 2.25294 58.9351 2.25294 58.9813 2.25294C58.9916 2.25294 59.0018 2.25294 59.0121 2.25294H59.0172C59.0891 2.25294 59.161 2.25801 59.2329 2.26308C59.428 2.26816 59.048 2.22252 59.238 2.26308C59.3971 2.29351 59.546 2.33915 59.7001 2.38478C59.8797 2.44056 59.5358 2.29858 59.7052 2.38478C59.7771 2.42028 59.8438 2.45577 59.9157 2.49127C59.9721 2.52676 60.0286 2.56226 60.0851 2.59775C60.2802 2.71945 59.9875 2.50141 60.1159 2.61804C60.2237 2.71438 60.3264 2.8158 60.4239 2.91721C60.4291 2.92228 60.4907 2.9882 60.4907 2.99327C60.4855 3.00849 60.3777 2.8158 60.4291 2.91721C60.465 2.98313 60.5163 3.04398 60.5574 3.1099C60.5934 3.16568 60.6242 3.22653 60.655 3.28231C60.6652 3.29752 60.7166 3.39893 60.7114 3.404C60.7012 3.41415 60.6447 3.20117 60.6704 3.3178C60.7063 3.45978 60.7628 3.59669 60.7936 3.73867C60.7987 3.77417 60.8038 3.80459 60.8141 3.84009C60.8346 3.95165 60.7987 3.74375 60.7987 3.74375C60.7833 3.78938 60.8192 3.93136 60.8192 4.00235C60.8244 4.53478 61.2864 5.04186 61.846 5.0165C62.3954 4.99115 62.878 4.57028 62.8728 4.00235C62.8523 2.37971 61.8358 1.00047 60.3161 0.422401C59.8643 0.249995 59.3715 0.199287 58.894 0.199287C58.3447 0.199287 57.7902 0.199287 57.2409 0.199287C56.1628 0.199287 55.0846 0.199287 54.0065 0.199287C52.5331 0.199287 51.0597 0.199287 49.5862 0.199287C47.8458 0.199287 46.1003 0.199287 44.3599 0.199287C42.4963 0.199287 40.6326 0.199287 38.769 0.199287C36.9105 0.199287 35.0521 0.199287 33.1987 0.199287C31.4788 0.199287 29.759 0.199287 28.0442 0.199287C26.5965 0.199287 25.1487 0.199287 23.7009 0.199287C22.6588 0.199287 21.6166 0.199287 20.5744 0.199287C20.0713 0.199287 19.563 0.199287 19.0599 0.199287C18.336 0.199287 17.6121 0.371693 16.9858 0.746929C15.8358 1.44162 15.1375 2.68396 15.1273 4.0125C15.1221 4.47393 15.1273 4.9303 15.1273 5.39174C15.1273 6.50224 15.1273 7.60766 15.1273 8.71816C15.1273 10.2799 15.1273 11.8468 15.1273 13.4086C15.1273 15.2087 15.1273 17.0088 15.1273 18.814C15.1273 20.6547 15.1273 22.4954 15.1273 24.3412C15.1273 26.0196 15.1273 27.698 15.1273 29.3815C15.1273 30.6948 15.1273 32.0081 15.1273 33.3265C15.1273 34.0719 15.1273 34.8173 15.1273 35.5678C15.1273 35.7098 15.1221 35.8568 15.1324 35.9988C15.2146 37.6012 16.2721 38.9754 17.8123 39.4824C18.4387 39.6903 19.0958 39.6599 19.7427 39.6599C20.5846 39.6599 21.4266 39.6599 22.2634 39.6599C23.5623 39.6599 24.8612 39.6599 26.1601 39.6599C27.7875 39.6599 29.4099 39.6599 31.0373 39.6599C32.8547 39.6599 34.6721 39.6599 36.4896 39.6599C38.3686 39.6599 40.2425 39.6599 42.1215 39.6599C43.9338 39.6599 45.7409 39.6599 47.5532 39.6599C49.1498 39.6599 50.7413 39.6599 52.338 39.6599C53.5907 39.6599 54.8485 39.6599 56.1012 39.6599C56.8815 39.6599 57.6619 39.6599 58.4422 39.6599C59.3869 39.6599 60.311 39.5889 61.1273 39.0413C62.2105 38.3162 62.8625 37.1448 62.8728 35.8467C62.8728 35.7047 62.8728 35.5627 62.8728 35.4157C62.8728 34.5942 62.8728 33.7728 62.8728 32.9513C62.8728 31.5873 62.8728 30.2182 62.8728 28.8541C62.8728 27.1453 62.8728 25.4364 62.8728 23.7276C62.8728 21.8818 62.8728 20.031 62.8728 18.1853C62.8728 16.3953 62.8728 14.6002 62.8728 12.8103C62.8728 11.2941 62.8728 9.77794 62.8728 8.26179C62.8728 7.21721 62.8728 6.17264 62.8728 5.12806C62.8728 4.75283 62.8728 4.38266 62.8728 4.00742C62.8728 3.475 62.4005 2.96792 61.846 2.99327C61.2916 3.01356 60.8192 3.43443 60.8192 4.00235Z" fill="#6465FF"/>
<path d="M60.8192 4.00235C60.8192 5.93938 60.8192 7.87641 60.8192 9.81851C60.8192 10.0923 60.8192 10.3712 60.8192 10.645C61.1632 10.3053 61.5021 9.97063 61.846 9.63089C61.4353 9.63089 61.0297 9.63089 60.619 9.63089C59.5101 9.63089 58.396 9.63089 57.2871 9.63089C55.6494 9.63089 54.0168 9.63089 52.3791 9.63089C50.3768 9.63089 48.3746 9.63089 46.3724 9.63089C44.1802 9.63089 41.988 9.63089 39.7907 9.63089C37.5831 9.63089 35.3806 9.63089 33.173 9.63089C31.1143 9.63089 29.0608 9.63089 27.0021 9.63089C25.2565 9.63089 23.511 9.63089 21.7655 9.63089C20.5128 9.63089 19.255 9.63089 18.0023 9.63089C17.4119 9.63089 16.8163 9.61568 16.2259 9.63089C16.2003 9.63089 16.1746 9.63089 16.1489 9.63089C16.4929 9.97063 16.8317 10.3053 17.1757 10.645C17.1757 8.8145 17.1757 6.97889 17.1757 5.14834C17.1757 4.80353 17.1757 4.46379 17.1757 4.11898C17.1757 4.02264 17.1757 3.92122 17.1809 3.82488C17.1963 3.62205 17.1449 3.82488 17.1706 3.85023C17.1655 3.84516 17.1963 3.70825 17.1963 3.71332C17.2168 3.62205 17.2373 3.53585 17.263 3.44964C17.2784 3.39893 17.3092 3.34316 17.3195 3.29245C17.3451 3.16568 17.2271 3.45978 17.2938 3.34823C17.3605 3.24681 17.4016 3.13018 17.4684 3.02877C17.494 2.99327 17.5197 2.95778 17.5402 2.91721C17.6224 2.78537 17.5043 2.96792 17.4992 2.96285C17.4889 2.94257 17.6583 2.78537 17.6788 2.76509C17.6994 2.74481 17.8996 2.53183 17.9253 2.54198C17.9304 2.54705 17.7096 2.68903 17.8791 2.58254C17.9355 2.54705 17.992 2.50648 18.0485 2.47606C18.1255 2.43042 18.2076 2.38985 18.2846 2.34929C18.4592 2.25801 18.2282 2.37971 18.2282 2.37464C18.2282 2.3645 18.3719 2.32393 18.3873 2.31886C18.4849 2.28844 18.5875 2.26309 18.6851 2.2428C18.7313 2.23266 18.7775 2.23266 18.8237 2.21745C18.5824 2.28844 18.7416 2.23266 18.8288 2.22759C18.911 2.22252 18.988 2.22252 19.0701 2.22252C19.8762 2.22252 20.6873 2.22252 21.4934 2.22252C23.1567 2.22252 24.8201 2.22252 26.4784 2.22252C28.6911 2.22252 30.8987 2.22252 33.1114 2.22252C35.5654 2.22252 38.0195 2.22252 40.4786 2.22252C42.871 2.22252 45.2686 2.22252 47.661 2.22252C49.6889 2.22252 51.7168 2.22252 53.7447 2.22252C55.1 2.22252 56.4605 2.22252 57.8159 2.22252C58.1445 2.22252 58.4782 2.22252 58.8067 2.22252C58.8683 2.22252 58.9351 2.22252 58.9967 2.22252C59.0018 2.22252 59.007 2.22252 59.007 2.22252C59.0172 2.22252 59.0326 2.22252 59.0429 2.22252C59.1045 2.22252 59.161 2.22759 59.2226 2.22759C59.4177 2.23266 59.0686 2.19716 59.1918 2.22252C59.2483 2.23266 59.7514 2.31379 59.7565 2.37464C59.7565 2.3645 59.546 2.26816 59.7257 2.3645C59.7771 2.38985 59.8233 2.41521 59.8746 2.44056C59.9054 2.45577 60.1621 2.59268 60.157 2.61804C60.157 2.62311 59.9619 2.4507 60.1056 2.58254C60.1364 2.61297 60.1724 2.63832 60.2032 2.66875C60.275 2.73467 60.3418 2.81073 60.4137 2.88172C60.4445 2.91214 60.5163 3.02877 60.4393 2.90707C60.3469 2.76002 60.465 2.94764 60.4753 2.96285C60.5266 3.03891 60.5728 3.11497 60.6139 3.19103C60.6344 3.2316 60.655 3.27217 60.6755 3.30766C60.7782 3.50035 60.6293 3.1454 60.6652 3.28231C60.6909 3.37865 60.732 3.475 60.7576 3.57134C60.7679 3.61191 60.8398 3.81474 60.8141 3.84009C60.809 3.84516 60.7987 3.61191 60.7987 3.77924C60.8141 3.86037 60.8192 3.93136 60.8192 4.00235C60.8244 4.53478 61.2864 5.04186 61.846 5.01651C62.3954 4.99115 62.8779 4.57028 62.8728 4.00235C62.8471 1.91827 61.1375 0.21957 59.0224 0.199287C58.8581 0.199287 58.6938 0.199287 58.5295 0.199287C57.4103 0.199287 56.2962 0.199287 55.1771 0.199287C53.2826 0.199287 51.3882 0.199287 49.4938 0.199287C47.1271 0.199287 44.7603 0.199287 42.3987 0.199287C39.8882 0.199287 37.3777 0.199287 34.8672 0.199287C32.5416 0.199287 30.2159 0.199287 27.8851 0.199287C26.0523 0.199287 24.2143 0.199287 22.3815 0.199287C21.3547 0.199287 20.3331 0.199287 19.3063 0.199287C18.8699 0.199287 18.4387 0.2145 18.0074 0.320986C16.267 0.757071 15.1273 2.35943 15.1273 4.0987C15.1221 6.08643 15.1273 8.07417 15.1273 10.0619C15.1273 10.2546 15.1273 10.4524 15.1273 10.645C15.1273 11.1927 15.5996 11.6592 16.1541 11.6592C16.5648 11.6592 16.9704 11.6592 17.3811 11.6592C18.49 11.6592 19.6041 11.6592 20.713 11.6592C22.3507 11.6592 23.9833 11.6592 25.621 11.6592C27.6233 11.6592 29.6255 11.6592 31.6277 11.6592C33.8199 11.6592 36.0121 11.6592 38.2094 11.6592C40.417 11.6592 42.6195 11.6592 44.8271 11.6592C46.8858 11.6592 48.9393 11.6592 50.998 11.6592C52.7436 11.6592 54.4891 11.6592 56.2346 11.6592C57.4873 11.6592 58.7451 11.6592 59.9978 11.6592C60.5882 11.6592 61.1837 11.6693 61.7742 11.6592C61.7998 11.6592 61.8255 11.6592 61.8512 11.6592C62.4056 11.6592 62.8779 11.1927 62.8779 10.645C62.8779 8.70802 62.8779 6.77099 62.8779 4.82889C62.8779 4.55507 62.8779 4.27618 62.8779 4.00235C62.8779 3.46992 62.4056 2.96285 61.8512 2.9882C61.2916 3.01356 60.8192 3.43443 60.8192 4.00235Z" fill="#6465FF"/>
<path d="M21.0878 5.99516C21.1186 5.84811 21.1237 5.81262 21.1032 5.89375C21.0826 5.96981 21.098 5.93938 21.1494 5.80247C21.0621 5.95967 21.2623 5.69092 21.175 5.77712C21.0878 5.86332 21.3599 5.66556 21.2007 5.75177C21.3393 5.70106 21.365 5.68585 21.2931 5.70613C21.2161 5.72641 21.252 5.71627 21.3958 5.69092C21.5447 5.72134 21.5806 5.72641 21.4985 5.70613C21.4215 5.68585 21.4523 5.70106 21.5909 5.75177C21.4317 5.66556 21.7038 5.86332 21.6166 5.77712C21.5293 5.69092 21.7295 5.95967 21.6422 5.80247C21.6936 5.93938 21.709 5.96474 21.6884 5.89375C21.6679 5.81769 21.6782 5.85318 21.7038 5.99516C21.6936 6.0408 21.6884 6.08644 21.6782 6.13207C21.7038 6.04587 21.6987 6.04587 21.6679 6.127C21.632 6.20813 21.632 6.20813 21.673 6.13207C21.6474 6.16757 21.6166 6.20306 21.5909 6.23856C21.7295 6.08644 21.4061 6.33997 21.5858 6.24363C21.5447 6.26391 21.5036 6.27913 21.4625 6.29941C21.5703 6.27405 21.5498 6.27912 21.3907 6.30955C21.3445 6.29941 21.2983 6.29434 21.252 6.2842C21.3393 6.30955 21.3393 6.30448 21.2572 6.27405C21.175 6.23856 21.175 6.23856 21.252 6.27912C21.2161 6.25377 21.1802 6.22335 21.1442 6.19799C21.2983 6.3349 21.0416 6.01545 21.1391 6.19292C21.1186 6.15236 21.1032 6.11179 21.0826 6.07122C21.1186 6.17264 21.1186 6.15236 21.0878 5.99516C21.1134 6.52252 21.5395 7.03467 22.1145 7.00931C22.6485 6.98396 23.167 6.56309 23.1413 5.99516C23.0951 5.06214 22.3815 4.27618 21.4009 4.27618C20.4409 4.27618 19.6811 5.06214 19.6605 5.99516C19.64 6.92818 20.4717 7.71415 21.4009 7.71415C22.3764 7.71415 23.0951 6.92818 23.1413 5.99516C23.167 5.46273 22.6485 4.95566 22.1145 4.98101C21.5344 5.00637 21.1134 5.42724 21.0878 5.99516Z" fill="#6465FF"/>
<path d="M26.0316 5.98503C26.0624 5.83797 26.0675 5.80248 26.047 5.88361C26.0265 5.95967 26.0419 5.92925 26.0932 5.79234C26.0059 5.94953 26.2062 5.68078 26.1189 5.76698C26.0316 5.85319 26.3037 5.65543 26.1446 5.74163C26.2832 5.69092 26.3088 5.67571 26.237 5.69599C26.16 5.71628 26.1959 5.70613 26.3396 5.68078C26.4885 5.71121 26.5245 5.71628 26.4423 5.69599C26.3653 5.67571 26.3961 5.69092 26.5347 5.74163C26.3756 5.65543 26.6477 5.85319 26.5604 5.76698C26.4731 5.68078 26.6734 5.94953 26.5861 5.79234C26.6374 5.92925 26.6528 5.9546 26.6323 5.88361C26.6117 5.80755 26.622 5.84304 26.6477 5.98503C26.6374 6.03066 26.6323 6.0763 26.622 6.12194C26.6477 6.03573 26.6425 6.03573 26.6117 6.11686C26.5758 6.198 26.5758 6.198 26.6169 6.12194C26.5912 6.15743 26.5604 6.19293 26.5347 6.22842C26.6734 6.0763 26.3499 6.32984 26.5296 6.23349C26.4885 6.25378 26.4475 6.26899 26.4064 6.28927C26.5142 6.26392 26.4937 6.26899 26.3345 6.29941C26.2883 6.28927 26.2421 6.2842 26.1959 6.27406C26.2832 6.29941 26.2832 6.29434 26.201 6.26392C26.1189 6.22842 26.1189 6.22842 26.1959 6.26899C26.16 6.24363 26.124 6.21321 26.0881 6.18786C26.2421 6.32477 25.9854 6.00531 26.0829 6.18278C26.0624 6.14222 26.047 6.10165 26.0265 6.06109C26.0624 6.1625 26.0624 6.14222 26.0316 5.98503C26.0573 6.51238 26.4834 7.02453 27.0584 6.99918C27.5923 6.97382 28.1108 6.55295 28.0852 5.98503C28.039 5.05201 27.3254 4.26604 26.3448 4.26604C25.3847 4.26604 24.6249 5.05201 24.6044 5.98503C24.5838 6.91804 25.4155 7.70401 26.3448 7.70401C27.3202 7.70401 28.039 6.91804 28.0852 5.98503C28.1108 5.4526 27.5923 4.94552 27.0584 4.97088C26.4783 4.99623 26.0573 5.4171 26.0316 5.98503Z" fill="#6465FF"/>
<path d="M30.9757 5.99516C31.0065 5.84811 31.0116 5.81262 30.9911 5.89375C30.9706 5.96981 30.986 5.93938 31.0373 5.80247C30.95 5.95967 31.1503 5.69092 31.063 5.77712C30.9757 5.86332 31.2478 5.66556 31.0886 5.75177C31.2273 5.70106 31.2529 5.68585 31.1811 5.70613C31.1041 5.72641 31.14 5.71627 31.2837 5.69092C31.4326 5.72134 31.4686 5.72641 31.3864 5.70613C31.3094 5.68585 31.3402 5.70106 31.4788 5.75177C31.3197 5.66556 31.5918 5.86332 31.5045 5.77712C31.4172 5.69092 31.6174 5.95967 31.5302 5.80247C31.5815 5.93938 31.5969 5.96474 31.5764 5.89375C31.5558 5.81769 31.5661 5.85318 31.5918 5.99516C31.5815 6.0408 31.5764 6.08644 31.5661 6.13207C31.5918 6.04587 31.5866 6.04587 31.5558 6.127C31.5199 6.20813 31.5199 6.20813 31.561 6.13207C31.5353 6.16757 31.5045 6.20306 31.4788 6.23856C31.6174 6.08644 31.294 6.33997 31.4737 6.24363C31.4326 6.26391 31.3916 6.27913 31.3505 6.29941C31.4583 6.27405 31.4378 6.27912 31.2786 6.30955C31.2324 6.29941 31.1862 6.29434 31.14 6.2842C31.2273 6.30955 31.2273 6.30448 31.1451 6.27405C31.063 6.23856 31.063 6.23856 31.14 6.27912C31.1041 6.25377 31.0681 6.22335 31.0322 6.19799C31.1862 6.3349 30.9295 6.01545 31.027 6.19292C31.0065 6.15236 30.9911 6.11179 30.9706 6.07122C31.0065 6.17264 31.0065 6.15236 30.9757 5.99516C31.0014 6.52252 31.4275 7.03467 32.0025 7.00931C32.5364 6.98396 33.0549 6.56309 33.0293 5.99516C32.9831 5.06214 32.2695 4.27618 31.2889 4.27618C30.3288 4.27618 29.569 5.06214 29.5485 5.99516C29.5279 6.92818 30.3596 7.71415 31.2889 7.71415C32.2643 7.71415 32.9831 6.92818 33.0293 5.99516C33.0549 5.46273 32.5364 4.95566 32.0025 4.98101C31.4224 5.00637 31.0014 5.42724 30.9757 5.99516Z" fill="#6465FF"/>
<path d="M26.6632 28.5144C26.6632 26.1768 26.6632 23.8341 26.6632 21.4965C26.6632 21.1669 26.6632 20.8373 26.6632 20.5077C26.6632 19.9752 26.1909 19.4682 25.6364 19.4935C25.0819 19.5189 24.6096 19.9397 24.6096 20.5077C24.6096 22.8453 24.6096 25.188 24.6096 27.5256C24.6096 27.8552 24.6096 28.1848 24.6096 28.5144C24.6096 29.0468 25.0819 29.5539 25.6364 29.5285C26.1909 29.5032 26.6632 29.0823 26.6632 28.5144Z" fill="#6465FF"/>
<path d="M29.6614 25.6393C27.6078 24.4679 25.5594 23.3016 23.5058 22.1303C23.2183 21.968 22.9308 21.8007 22.6382 21.6384C22.171 21.3748 21.4933 21.5167 21.2315 22.0035C20.9748 22.4852 21.1031 23.109 21.6011 23.3929C23.6547 24.5643 25.7031 25.7305 27.7567 26.9019C28.0442 27.0641 28.3317 27.2315 28.6243 27.3937C29.0915 27.6574 29.7692 27.5154 30.031 27.0286C30.2928 26.5419 30.1594 25.9232 29.6614 25.6393Z" fill="#6465FF"/>
<path d="M22.6433 27.3887C24.6969 26.2173 26.7454 25.0511 28.7989 23.8797C29.0864 23.7174 29.3739 23.5501 29.6666 23.3879C30.1337 23.1242 30.334 22.4599 30.0362 21.9985C29.7333 21.537 29.1275 21.3494 28.6295 21.6334C26.5759 22.8047 24.5275 23.971 22.4739 25.1423C22.1864 25.3046 21.8989 25.4719 21.6063 25.6342C21.1391 25.8979 20.9389 26.5621 21.2366 27.0236C21.5447 27.4901 22.1454 27.6726 22.6433 27.3887Z" fill="#6465FF"/>
<path d="M40.0267 28.5144C40.0267 26.1768 40.0267 23.8341 40.0267 21.4965C40.0267 21.1669 40.0267 20.8373 40.0267 20.5077C40.0267 19.9752 39.5544 19.4682 38.9999 19.4935C38.4455 19.5189 37.9731 19.9397 37.9731 20.5077C37.9731 22.8453 37.9731 25.188 37.9731 27.5256C37.9731 27.8552 37.9731 28.1848 37.9731 28.5144C37.9731 29.0468 38.4455 29.5539 38.9999 29.5285C39.5544 29.5032 40.0267 29.0823 40.0267 28.5144Z" fill="#6465FF"/>
<path d="M43.03 25.6393C40.9765 24.4679 38.928 23.3016 36.8744 22.1303C36.5869 21.968 36.2994 21.8007 36.0068 21.6384C35.5396 21.3748 34.8619 21.5167 34.6001 22.0035C34.3434 22.4852 34.4718 23.109 34.9698 23.3929C37.0233 24.5643 39.0718 25.7305 41.1253 26.9019C41.4128 27.0641 41.7003 27.2315 41.993 27.3937C42.4602 27.6574 43.1378 27.5154 43.3997 27.0286C43.6564 26.5419 43.5229 25.9232 43.03 25.6393Z" fill="#6465FF"/>
<path d="M36.0069 27.3887C38.0604 26.2173 40.1089 25.0511 42.1625 23.8797C42.45 23.7174 42.7375 23.5501 43.0301 23.3879C43.4973 23.1242 43.6975 22.4599 43.3997 21.9985C43.0968 21.537 42.491 21.3494 41.993 21.6334C39.9395 22.8047 37.891 23.971 35.8375 25.1423C35.55 25.3046 35.2625 25.4719 34.9698 25.6342C34.5026 25.8979 34.3024 26.5621 34.6002 27.0236C34.9082 27.4901 35.5089 27.6726 36.0069 27.3887Z" fill="#6465FF"/>
<path d="M53.3905 28.5144C53.3905 26.1768 53.3905 23.8341 53.3905 21.4965C53.3905 21.1669 53.3905 20.8373 53.3905 20.5077C53.3905 19.9752 52.9182 19.4682 52.3637 19.4935C51.8092 19.5189 51.3369 19.9397 51.3369 20.5077C51.3369 22.8453 51.3369 25.188 51.3369 27.5256C51.3369 27.8552 51.3369 28.1848 51.3369 28.5144C51.3369 29.0468 51.8092 29.5539 52.3637 29.5285C52.9233 29.5032 53.3905 29.0823 53.3905 28.5144Z" fill="#6465FF"/>
<path d="M56.3938 25.6393C54.3402 24.4679 52.2918 23.3016 50.2382 22.1303C49.9507 21.968 49.6632 21.8007 49.3706 21.6384C48.9034 21.3748 48.2257 21.5167 47.9639 22.0035C47.7072 22.4852 47.8355 23.109 48.3335 23.3929C50.3871 24.5643 52.4355 25.7305 54.4891 26.9019C54.7766 27.0641 55.0641 27.2315 55.3567 27.3937C55.8239 27.6574 56.5016 27.5154 56.7634 27.0286C57.0201 26.5419 56.8867 25.9232 56.3938 25.6393Z" fill="#6465FF"/>
<path d="M49.3758 27.3887C51.4293 26.2173 53.4778 25.0511 55.5314 23.8797C55.8189 23.7174 56.1064 23.5501 56.399 23.3879C56.8662 23.1242 57.0664 22.4599 56.7686 21.9985C56.4657 21.537 55.8599 21.3494 55.3619 21.6334C53.3084 22.8047 51.2599 23.971 49.2063 25.1423C48.9188 25.3046 48.6313 25.4719 48.3387 25.6342C47.8715 25.8979 47.6713 26.5621 47.9691 27.0236C48.272 27.4901 48.8778 27.6726 49.3758 27.3887Z" fill="#6465FF"/>
</svg>
