<svg width="77" height="50" viewBox="0 0 77 50" fill="none" xmlns="http://www.w3.org/2000/svg">
<path fill-rule="evenodd" clip-rule="evenodd" d="M65 37.102L66.0598 37.102L66.0689 37.102C67.3009 37.1069 68.2993 38.1018 68.3093 39.3321C68.3092 39.3382 68.3092 39.3444 68.3092 39.3506V40.4104H69.1032L69.1033 39.3506C69.1033 39.3444 69.1033 39.3382 69.1033 39.3321C69.1132 38.1016 70.1119 37.1066 71.3442 37.102C71.347 37.102 71.3499 37.102 71.3527 37.102H72.4125V36.3084L71.3527 36.3084C71.3498 36.3084 71.3469 36.3084 71.3439 36.3084C70.1118 36.3037 69.1132 35.3088 69.1033 34.0784L69.1033 34.0598V33H68.3094L68.3092 34.0598L68.3093 34.0784C68.2993 35.3086 67.301 36.3035 66.069 36.3084L66.0598 36.3084H65V37.102ZM69.8487 36.7052C69.3729 36.4343 68.9773 36.0389 68.7063 35.5633C68.4353 36.0389 68.0396 36.4343 67.5638 36.7052C68.0396 36.9761 68.4353 37.3715 68.7063 37.8471C68.9773 37.3715 69.3729 36.9761 69.8487 36.7052Z" fill="#BBC6CB"/>
<path fill-rule="evenodd" clip-rule="evenodd" d="M6 17.102L7.05981 17.102L7.06886 17.102C8.30091 17.1069 9.29935 18.1018 9.30928 19.3321C9.30924 19.3382 9.30922 19.3444 9.30922 19.3506V20.4104H10.1032L10.1033 19.3506C10.1033 19.3444 10.1033 19.3382 10.1033 19.3321C10.1132 18.1016 11.1119 17.1066 12.3442 17.102C12.347 17.102 12.3499 17.102 12.3527 17.102H13.4125V16.3084L12.3527 16.3084C12.3498 16.3084 12.3469 16.3084 12.3439 16.3084C11.1118 16.3037 10.1132 15.3088 10.1033 14.0784L10.1033 14.0598V13H9.30935L9.30922 14.0598L9.30928 14.0784C9.29935 15.3086 8.301 16.3035 7.06903 16.3084L7.05981 16.3084H6V17.102ZM10.8487 16.7052C10.3729 16.4343 9.97727 16.0389 9.70627 15.5633C9.43526 16.0389 9.03965 16.4343 8.56384 16.7052C9.03965 16.9761 9.43526 17.3715 9.70627 17.8471C9.97727 17.3715 10.3729 16.9761 10.8487 16.7052Z" fill="#BBC6CB"/>
<path d="M45.3749 1.90566H29.6249C27.0154 1.90566 24.8999 3.9736 24.8999 6.52453V43.4755C24.8999 46.0264 27.0154 48.0943 29.6249 48.0943H45.3749C47.9844 48.0943 50.0999 46.0264 50.0999 43.4755V6.52453C50.0999 3.9736 47.9844 1.90566 45.3749 1.90566Z" stroke="#6465FF" stroke-width="2" stroke-linecap="round" stroke-linejoin="round"/>
<path d="M28.5777 1.98113H31.266C31.5037 1.98113 31.7316 2.0739 31.8997 2.23903C32.0677 2.40415 32.1621 2.62811 32.1621 2.86164C32.1621 3.32868 32.351 3.7766 32.6871 4.10686C33.0232 4.43711 33.4791 4.62264 33.9544 4.62264H41.1233C41.5987 4.62264 42.0545 4.43711 42.3907 4.10686C42.7268 3.7766 42.9156 3.32868 42.9156 2.86164C42.9156 2.62811 43.01 2.40415 43.1781 2.23903C43.3461 2.0739 43.574 1.98113 43.8117 1.98113H46.5001" stroke="#6465FF" stroke-width="2" stroke-linecap="round" stroke-linejoin="round"/>
<path d="M37.9999 16.7105C33.4234 16.7105 29.7104 20.4235 29.7104 25C29.7104 29.5765 33.4234 33.2895 37.9999 33.2895C42.5764 33.2895 46.2894 29.5765 46.2894 25C46.2894 20.4235 42.5764 16.7105 37.9999 16.7105Z" stroke="#6465FF" stroke-width="2" stroke-miterlimit="10"/>
<path d="M38 19.4737V25.6908H42.1447" stroke="#6465FF" stroke-width="2" stroke-linecap="round" stroke-linejoin="round"/>
</svg>
