<svg width="117" height="106" viewBox="0 0 117 106" fill="none" xmlns="http://www.w3.org/2000/svg">
<path d="M38.2516 73C34.3741 73 31.1428 69.7742 31.1428 65.9032C31.1428 62.0323 34.3741 58.8065 38.2516 58.8065C42.1291 58.8065 45.3604 62.0323 45.3604 65.9032C45.3604 69.7742 42.1291 73 38.2516 73ZM38.2516 61.3871C35.7958 61.3871 33.7278 63.4516 33.7278 65.9032C33.7278 68.3548 35.7958 70.4194 38.2516 70.4194C40.7074 70.4194 42.7754 68.3548 42.7754 65.9032C42.7754 63.4516 40.7074 61.3871 38.2516 61.3871Z" fill="#6465FF"/>
<path d="M38.2516 67.8387C37.2176 67.8387 36.3128 66.9355 36.3128 65.9032C36.3128 64.871 37.2176 63.9678 38.2516 63.9678C39.2856 63.9678 40.1904 64.871 40.1904 65.9032C40.1904 66.9355 39.2856 67.8387 38.2516 67.8387ZM38.2516 65.2581C37.8638 65.2581 37.6053 65.5161 37.6053 65.9032C37.6053 66.2903 37.8638 66.5484 38.2516 66.5484C38.6394 66.5484 38.8979 66.2903 38.8979 65.9032C38.8979 65.5161 38.6394 65.2581 38.2516 65.2581Z" fill="#6465FF"/>
<path d="M86.5915 66.5483H82.8432V63.9677H86.5915C87.367 63.8386 89.0472 60.9999 89.3057 59.8386C89.8227 57.7741 89.1765 56.2257 88.6595 55.4515C87.884 54.2903 86.9792 53.7741 86.4622 53.7741C84.9112 53.5161 82.4554 52.9999 79.9996 52.6128C76.8976 51.9677 72.8908 51.3225 72.3738 51.1935V48.6128C72.7616 48.6128 74.0541 48.8709 80.3874 50.0322C82.8432 50.5483 85.2989 50.9354 86.85 51.1935C88.2717 51.4515 89.6935 52.6128 90.7275 54.0322C91.6323 55.3225 92.4078 57.5161 91.7615 60.4838C91.6323 61.387 89.435 66.5483 86.5915 66.5483Z" fill="#6465FF"/>
<path d="M32.4352 66.5483H28.5577C24.9387 66.5483 22.0951 63.7096 22.0951 60.0967V54.9354C22.0951 51.3225 24.9387 48.4838 28.5577 48.4838H34.2448L36.8298 43.1935C38.3808 40.0967 41.6121 38.1612 45.1019 38.1612H61.7753C64.8773 38.1612 67.7208 39.7096 69.4011 42.4193L73.5371 49.129L71.3399 50.5483L67.2038 43.8387C66.0406 41.9032 63.9725 40.7419 61.7753 40.7419H45.1019C42.5168 40.7419 40.3196 42.1612 39.1563 44.3548L35.7958 51.0645H28.5577C26.3604 51.0645 24.6802 52.7419 24.6802 54.9354V60.0967C24.6802 62.2902 26.3604 63.9677 28.5577 63.9677H32.4352V66.5483Z" fill="#6465FF"/>
<path d="M77.0269 73C73.1494 73 69.9181 69.7742 69.9181 65.9032C69.9181 62.0323 73.1494 58.8065 77.0269 58.8065C80.9045 58.8065 84.1357 62.0323 84.1357 65.9032C84.1357 69.7742 80.9045 73 77.0269 73ZM77.0269 61.3871C74.5712 61.3871 72.5031 63.4516 72.5031 65.9032C72.5031 68.3548 74.5712 70.4194 77.0269 70.4194C79.4827 70.4194 81.5507 68.3548 81.5507 65.9032C81.5507 63.4516 79.4827 61.3871 77.0269 61.3871Z" fill="#6465FF"/>
<path d="M77.0269 67.8387C75.9929 67.8387 75.0882 66.9355 75.0882 65.9032C75.0882 64.871 75.9929 63.9678 77.0269 63.9678C78.0609 63.9678 78.9657 64.871 78.9657 65.9032C78.9657 66.9355 78.0609 67.8387 77.0269 67.8387ZM77.0269 65.2581C76.6392 65.2581 76.3807 65.5161 76.3807 65.9032C76.3807 66.2903 76.6392 66.5484 77.0269 66.5484C77.4147 66.5484 77.6732 66.2903 77.6732 65.9032C77.6732 65.5161 77.4147 65.2581 77.0269 65.2581Z" fill="#6465FF"/>
<path d="M72.5032 51.0645H54.408V42.0322H68.1924V44.6129H56.993V48.4838H72.5032V51.0645Z" fill="#6465FF"/>
<path d="M55.7005 51.0645H43.9387C42.9047 51.0645 42.1292 50.5484 41.6122 49.6451C41.0952 48.7419 41.0952 47.7097 41.6122 46.9355L43.5509 43.7097C44.1972 42.6774 45.3604 42.0322 46.5237 42.0322H55.7005V44.6129H46.5237C46.2652 44.6129 45.8775 44.7419 45.7482 45L43.8094 48.2258L43.9387 48.3548H55.7005V51.0645Z" fill="#6465FF"/>
<path d="M69.9181 63.9677H44.0679V66.5484H69.9181V63.9677Z" fill="#6465FF"/>
<path d="M27.2652 53.6451H23.3877V56.2257H27.2652V53.6451Z" fill="#6465FF"/>
<path d="M53.1155 54.9355H50.5304V57.5161H53.1155V54.9355Z" fill="#6465FF"/>
<path d="M55.7005 57.5161L53.1155 57.5161L53.1155 60.0967H55.7005V57.5161Z" fill="#6465FF"/>
<path d="M58.2855 54.9355H55.7005L55.7005 57.5161L58.2855 57.5161V54.9355Z" fill="#6465FF"/>
<path d="M63.4556 54.9355H60.8706V57.5161H63.4556V54.9355Z" fill="#6465FF"/>
<path d="M60.8706 57.5161H58.2855L58.2856 60.0967H60.8706L60.8706 57.5161Z" fill="#6465FF"/>
<path d="M62.163 39.4516H59.578V36.871C59.578 36.2258 58.9318 35.5806 58.027 35.5806H50.7889C50.0134 35.5806 49.2379 36.0968 49.2379 36.871V39.4516H46.6529V36.871C46.6529 34.8064 48.4624 33 50.7889 33H58.027C60.3535 33 62.163 34.6774 62.163 36.871V39.4516Z" fill="#6465FF"/>
<path d="M18.2177 56.2257H10.4626V58.8064H18.2177V56.2257Z" fill="#6465FF"/>
<path d="M15.6326 49.7742H4V52.3549H15.6326V49.7742Z" fill="#6465FF"/>
<path d="M28.5578 43.3226H10.4626V45.9033H28.5578V43.3226Z" fill="#6465FF"/>
<circle cx="36" cy="101" r="4" fill="white" stroke="#6465FF" stroke-width="2"/>
<circle cx="4.5" cy="13.5" r="3.5" fill="white" stroke="#6465FF" stroke-width="2"/>
<path d="M101.252 3.32237C101.252 5.15726 100.695 6.64474 100.007 6.64474C99.3185 6.64474 98.7607 5.15726 98.7607 3.32237C98.7607 1.48748 99.3185 0 100.007 0C100.695 0 101.252 1.48748 101.252 3.32237Z" fill="#C4C4C4"/>
<path d="M100.007 4.56831C98.1718 4.56831 96.6843 4.01051 96.6843 3.32243C96.6843 2.63434 98.1718 2.07654 100.007 2.07654C101.842 2.07654 103.329 2.63434 103.329 3.32243C103.329 4.01051 101.842 4.56831 100.007 4.56831Z" fill="#C4C4C4"/>
<path d="M72.0155 93.704C72.0155 95.5389 71.4577 97.0263 70.7697 97.0263C70.0816 97.0263 69.5238 95.5389 69.5238 93.704C69.5238 91.8691 70.0816 90.3816 70.7697 90.3816C71.4577 90.3816 72.0155 91.8691 72.0155 93.704Z" fill="#C4C4C4"/>
<path d="M70.7696 94.9498C68.9347 94.9498 67.4473 94.392 67.4473 93.7039C67.4473 93.0158 68.9347 92.458 70.7696 92.458C72.6045 92.458 74.092 93.0158 74.092 93.7039C74.092 94.392 72.6045 94.9498 70.7696 94.9498Z" fill="#C4C4C4"/>
<path d="M28.1603 17.954C28.1603 19.7889 27.6025 21.2763 26.9144 21.2763C26.2263 21.2763 25.6685 19.7889 25.6685 17.954C25.6685 16.1191 26.2263 14.6316 26.9144 14.6316C27.6025 14.6316 28.1603 16.1191 28.1603 17.954Z" fill="#C4C4C4"/>
<path d="M26.9144 19.1998C25.0795 19.1998 23.592 18.642 23.592 17.9539C23.592 17.2658 25.0795 16.708 26.9144 16.708C28.7493 16.708 30.2368 17.2658 30.2368 17.9539C30.2368 18.642 28.7493 19.1998 26.9144 19.1998Z" fill="#C4C4C4"/>
<path d="M5.56815 76.4276C5.56815 78.2625 5.01035 79.75 4.32227 79.75C3.63418 79.75 3.07638 78.2625 3.07638 76.4276C3.07638 74.5927 3.63418 73.1052 4.32227 73.1052C5.01035 73.1052 5.56815 74.5927 5.56815 76.4276Z" fill="#C4C4C4"/>
<path d="M4.32237 77.6735C2.48748 77.6735 1 77.1157 1 76.4277C1 75.7396 2.48748 75.1818 4.32237 75.1818C6.15726 75.1818 7.64474 75.7396 7.64474 76.4277C7.64474 77.1157 6.15726 77.6735 4.32237 77.6735Z" fill="#C4C4C4"/>
<path d="M63.4039 40.573C63.1386 39.1096 63 37.602 63 36.0619C63 22.2206 74.1929 11 88 11C101.807 11 113 22.2206 113 36.0619C113 49.0573 103.133 59.7426 90.5 61" stroke="#6465FF" stroke-width="2.5"/>
<path fill-rule="evenodd" clip-rule="evenodd" d="M99.25 26.8333H76.75C76.2527 26.8333 75.7758 27.0265 75.4242 27.3703C75.0725 27.7141 74.875 28.1804 74.875 28.6667V43.3333C74.875 43.8196 75.0725 44.2859 75.4242 44.6297C75.7758 44.9735 76.2527 45.1667 76.75 45.1667H99.25C99.7473 45.1667 100.224 44.9735 100.576 44.6297C100.927 44.2859 101.125 43.8196 101.125 43.3333V28.6667C101.125 28.1804 100.927 27.7141 100.576 27.3703C100.224 27.0265 99.7473 26.8333 99.25 26.8333ZM76.75 25C75.7554 25 74.8016 25.3863 74.0983 26.0739C73.3951 26.7616 73 27.6942 73 28.6667V43.3333C73 44.3058 73.3951 45.2384 74.0983 45.9261C74.8016 46.6137 75.7554 47 76.75 47H99.25C100.245 47 101.198 46.6137 101.902 45.9261C102.605 45.2384 103 44.3058 103 43.3333V28.6667C103 27.6942 102.605 26.7616 101.902 26.0739C101.198 25.3863 100.245 25 99.25 25H76.75Z" fill="#6465FF" stroke="#6465FF" stroke-width="0.5"/>
<path d="M93.5714 29.9167C93.5714 29.6736 93.6693 29.4404 93.8434 29.2685C94.0175 29.0966 94.2537 29 94.5 29H98.2143C98.4606 29 98.6967 29.0966 98.8709 29.2685C99.045 29.4404 99.1429 29.6736 99.1429 29.9167V31.75C99.1429 31.9931 99.045 32.2263 98.8709 32.3982C98.6967 32.5701 98.4606 32.6667 98.2143 32.6667H94.5C94.2537 32.6667 94.0175 32.5701 93.8434 32.3982C93.6693 32.2263 93.5714 31.9931 93.5714 31.75V29.9167ZM75 36.3333H101V40H75V36.3333Z" fill="#6465FF"/>
</svg>
