<svg width="119" height="106" viewBox="0 0 119 106" fill="none" xmlns="http://www.w3.org/2000/svg">
<path d="M56 25.6416C59.7879 23.3312 64.2385 22 69 22C82.8071 22 94 33.1929 94 47C94 60.8071 82.8071 72 69 72C59.4946 72 51.2282 66.6951 47 58.8845" stroke="#6465FF" stroke-width="2.5"/>
<circle cx="36" cy="101" r="4" fill="white" stroke="#6465FF" stroke-width="2"/>
<circle cx="4.5" cy="13.5" r="3.5" fill="white" stroke="#6465FF" stroke-width="2"/>
<path d="M101.252 3.32237C101.252 5.15726 100.695 6.64474 100.007 6.64474C99.3185 6.64474 98.7607 5.15726 98.7607 3.32237C98.7607 1.48748 99.3185 0 100.007 0C100.695 0 101.252 1.48748 101.252 3.32237Z" fill="#C4C4C4"/>
<path d="M100.007 4.56831C98.1718 4.56831 96.6843 4.01051 96.6843 3.32243C96.6843 2.63434 98.1718 2.07654 100.007 2.07654C101.842 2.07654 103.329 2.63434 103.329 3.32243C103.329 4.01051 101.842 4.56831 100.007 4.56831Z" fill="#C4C4C4"/>
<path d="M72.0155 93.704C72.0155 95.5389 71.4577 97.0263 70.7697 97.0263C70.0816 97.0263 69.5238 95.5389 69.5238 93.704C69.5238 91.8691 70.0816 90.3816 70.7697 90.3816C71.4577 90.3816 72.0155 91.8691 72.0155 93.704Z" fill="#C4C4C4"/>
<path d="M70.7696 94.9498C68.9347 94.9498 67.4473 94.392 67.4473 93.7039C67.4473 93.0158 68.9347 92.458 70.7696 92.458C72.6045 92.458 74.092 93.0158 74.092 93.7039C74.092 94.392 72.6045 94.9498 70.7696 94.9498Z" fill="#C4C4C4"/>
<path d="M116.568 66.3224C116.568 68.1573 116.01 69.6447 115.322 69.6447C114.634 69.6447 114.076 68.1573 114.076 66.3224C114.076 64.4875 114.634 63 115.322 63C116.01 63 116.568 64.4875 116.568 66.3224Z" fill="#C4C4C4"/>
<path d="M115.322 67.5682C113.487 67.5682 112 67.0104 112 66.3223C112 65.6342 113.487 65.0764 115.322 65.0764C117.157 65.0764 118.645 65.6342 118.645 66.3223C118.645 67.0104 117.157 67.5682 115.322 67.5682Z" fill="#C4C4C4"/>
<path d="M5.56815 76.4276C5.56815 78.2625 5.01035 79.75 4.32227 79.75C3.63418 79.75 3.07638 78.2625 3.07638 76.4276C3.07638 74.5927 3.63418 73.1052 4.32227 73.1052C5.01035 73.1052 5.56815 74.5927 5.56815 76.4276Z" fill="#C4C4C4"/>
<path d="M4.32237 77.6735C2.48748 77.6735 1 77.1157 1 76.4277C1 75.7396 2.48748 75.1818 4.32237 75.1818C6.15726 75.1818 7.64474 75.7396 7.64474 76.4277C7.64474 77.1157 6.15726 77.6735 4.32237 77.6735Z" fill="#C4C4C4"/>
<path fill-rule="evenodd" clip-rule="evenodd" d="M81.25 37.8333H58.75C58.2527 37.8333 57.7758 38.0265 57.4242 38.3703C57.0725 38.7141 56.875 39.1804 56.875 39.6667V54.3333C56.875 54.8196 57.0725 55.2859 57.4242 55.6297C57.7758 55.9735 58.2527 56.1667 58.75 56.1667H81.25C81.7473 56.1667 82.2242 55.9735 82.5758 55.6297C82.9275 55.2859 83.125 54.8196 83.125 54.3333V39.6667C83.125 39.1804 82.9275 38.7141 82.5758 38.3703C82.2242 38.0265 81.7473 37.8333 81.25 37.8333ZM58.75 36C57.7554 36 56.8016 36.3863 56.0983 37.0739C55.3951 37.7616 55 38.6942 55 39.6667V54.3333C55 55.3058 55.3951 56.2384 56.0983 56.9261C56.8016 57.6137 57.7554 58 58.75 58H81.25C82.2446 58 83.1984 57.6137 83.9017 56.9261C84.6049 56.2384 85 55.3058 85 54.3333V39.6667C85 38.6942 84.6049 37.7616 83.9017 37.0739C83.1984 36.3863 82.2446 36 81.25 36H58.75Z" fill="#6465FF" stroke="#6465FF" stroke-width="0.5"/>
<path d="M76.2857 41.9167C76.2857 41.6736 76.3873 41.4404 76.5681 41.2685C76.749 41.0966 76.9943 41 77.25 41H81.1071C81.3629 41 81.6082 41.0966 81.789 41.2685C81.9698 41.4404 82.0714 41.6736 82.0714 41.9167V43.75C82.0714 43.9931 81.9698 44.2263 81.789 44.3982C81.6082 44.5701 81.3629 44.6667 81.1071 44.6667H77.25C76.9943 44.6667 76.749 44.5701 76.5681 44.3982C76.3873 44.2263 76.2857 43.9931 76.2857 43.75V41.9167ZM57 48.3333H84V52H57V48.3333Z" fill="#6465FF"/>
<path fill-rule="evenodd" clip-rule="evenodd" d="M39.6552 11C30.1263 11 23.2428 18.036 22.1513 25.5936C21.4706 30.632 23.1144 35.5432 26.5305 39.2584C29.5355 42.4392 31.1793 46.6888 31.1793 51.0656L31.1665 57.9616C31.1665 60.748 33.4909 63 36.3676 63H43.0712C45.9479 63 48.2723 60.748 48.2723 57.9616L48.2852 51.0656C48.2852 46.5615 49.7877 42.4392 52.6644 39.5256C55.8107 36.3448 57.4545 32.2351 57.4545 27.9856C57.4417 18.5576 49.3639 11 39.6552 11ZM45.6655 57.9615C45.6655 59.2847 44.5739 60.3535 43.1997 60.3535H36.4961C35.122 60.3535 34.0304 59.2974 34.0304 57.9615V54.9079H45.6526V57.9615H45.6655ZM50.7509 37.6679C47.3349 41.1159 45.5498 45.8871 45.5498 51.0655V52.2615H33.9276V51.0655C33.9276 46.1543 31.8729 41.2559 28.4568 37.5407C25.4517 34.3598 24.2189 30.2502 24.7583 26.0007C25.7214 19.639 31.6931 13.6591 39.6681 13.6591C48.0155 13.6591 54.7192 20.1607 54.7192 27.9855C54.7192 31.5607 53.3451 35.0087 50.7509 37.6679Z" fill="#6465FF"/>
<path fill-rule="evenodd" clip-rule="evenodd" d="M45.9696 29.6721C45.6673 29.2309 45.1504 28.9639 44.5951 28.9621H41.3019V21.5984C41.3037 20.8535 40.7552 20.2088 39.9863 20.0521C39.8766 20.0311 39.7649 20.0205 39.653 20.0205C38.9916 20.0231 38.396 20.4 38.1403 20.9778L33.201 32.0232C32.9832 32.5104 33.0352 33.0683 33.3398 33.5117C33.6421 33.9529 34.159 34.2199 34.7143 34.2218H38.0075V41.5854C38.0056 42.3302 38.5539 42.9749 39.3226 43.1318C39.4323 43.1527 39.5439 43.1633 39.6558 43.1634C40.3172 43.161 40.9128 42.7839 41.168 42.2061L46.1106 31.1606C46.3278 30.6731 46.2749 30.1152 45.9696 29.6721ZM39.6554 41.5853V32.6437H34.7161L39.6554 21.5983V30.5398H44.5952L39.6554 41.5853Z" fill="#6465FF"/>
<path d="M44.5951 28.9621L44.5959 28.7121H44.5951V28.9621ZM41.3019 28.9621H41.0519V29.2121H41.3019V28.9621ZM41.3019 21.5984L41.0519 21.5978V21.5984H41.3019ZM39.9863 20.0521L40.0362 19.8071L40.0332 19.8065L39.9863 20.0521ZM39.653 20.0205V19.7705L39.6521 19.7705L39.653 20.0205ZM38.1403 20.9778L38.3685 21.0798L38.3689 21.079L38.1403 20.9778ZM33.201 32.0232L32.9728 31.9212L32.9728 31.9212L33.201 32.0232ZM33.3398 33.5117L33.5461 33.3704L33.5459 33.3702L33.3398 33.5117ZM34.7143 34.2218L34.7135 34.4718H34.7143V34.2218ZM38.0075 34.2218H38.2575V33.9718H38.0075V34.2218ZM38.0075 41.5854L38.2575 41.5861V41.5854H38.0075ZM39.3226 43.1318L39.2726 43.3768L39.2758 43.3774L39.3226 43.1318ZM39.6558 43.1634L39.6557 43.4134L39.6567 43.4134L39.6558 43.1634ZM41.168 42.2061L40.9398 42.104L40.9394 42.1051L41.168 42.2061ZM46.1106 31.1606L46.3388 31.2627L46.339 31.2624L46.1106 31.1606ZM39.6554 41.5853H39.4054L39.8836 41.6874L39.6554 41.5853ZM39.6554 32.6437H39.9054V32.3937H39.6554V32.6437ZM34.7161 32.6437L34.4879 32.5417L34.3304 32.8937H34.7161V32.6437ZM39.6554 21.5983H39.9054L39.4271 21.4962L39.6554 21.5983ZM39.6554 30.5398H39.4054V30.7898H39.6554V30.5398ZM44.5952 30.5398L44.8234 30.6419L44.9808 30.2898H44.5952V30.5398ZM46.1758 29.5308C45.825 29.0188 45.2297 28.7142 44.5959 28.7121L44.5943 29.2121C45.0712 29.2137 45.5096 29.4431 45.7633 29.8134L46.1758 29.5308ZM44.5951 28.7121H41.3019V29.2121H44.5951V28.7121ZM41.5519 28.9621V21.5984H41.0519V28.9621H41.5519ZM41.5519 21.5991C41.5541 20.726 40.9127 19.9857 40.0362 19.8071L39.9363 20.297C40.5978 20.4318 41.0534 20.981 41.0519 21.5978L41.5519 21.5991ZM40.0332 19.8065C39.908 19.7826 39.7807 19.7705 39.653 19.7705V20.2705C39.7492 20.2705 39.8451 20.2796 39.9393 20.2976L40.0332 19.8065ZM39.6521 19.7705C38.898 19.7735 38.2096 20.2034 37.9117 20.8766L38.3689 21.079C38.5823 20.5967 39.0852 20.2727 39.654 20.2705L39.6521 19.7705ZM37.9121 20.8757L32.9728 31.9212L33.4292 32.1253L38.3685 21.0798L37.9121 20.8757ZM32.9728 31.9212C32.7191 32.4887 32.7803 33.1387 33.1338 33.6533L33.5459 33.3702C33.2901 32.9978 33.2473 32.5322 33.4292 32.1253L32.9728 31.9212ZM33.1336 33.6531C33.4844 34.1651 34.0798 34.4697 34.7135 34.4718L34.7152 33.9718C34.2383 33.9702 33.7999 33.7408 33.5461 33.3704L33.1336 33.6531ZM34.7143 34.4718H38.0075V33.9718H34.7143V34.4718ZM37.7575 34.2218V41.5854H38.2575V34.2218H37.7575ZM37.7575 41.5848C37.7553 42.4577 38.3963 43.1979 39.2726 43.3768L39.3726 42.8869C38.7114 42.7519 38.256 42.2028 38.2575 41.5861L37.7575 41.5848ZM39.2758 43.3774C39.4009 43.4012 39.5281 43.4133 39.6557 43.4134L39.656 42.9134C39.5597 42.9133 39.4637 42.9042 39.3695 42.8862L39.2758 43.3774ZM39.6567 43.4134C40.4108 43.4106 41.0992 42.9806 41.3967 42.3071L40.9394 42.1051C40.7263 42.5873 40.2236 42.9113 39.6549 42.9134L39.6567 43.4134ZM41.3962 42.3082L46.3388 31.2627L45.8824 31.0585L40.9398 42.104L41.3962 42.3082ZM46.339 31.2624C46.592 30.6945 46.5297 30.0444 46.1754 29.5303L45.7637 29.814C46.0201 30.1861 46.0636 30.6518 45.8823 31.0589L46.339 31.2624ZM39.9054 41.5853V32.6437H39.4054V41.5853H39.9054ZM39.6554 32.3937H34.7161V32.8937H39.6554V32.3937ZM34.9443 32.7458L39.8836 21.7003L39.4271 21.4962L34.4879 32.5417L34.9443 32.7458ZM39.4054 21.5983V30.5398H39.9054V21.5983H39.4054ZM39.6554 30.7898H44.5952V30.2898H39.6554V30.7898ZM44.367 30.4378L39.4271 41.4832L39.8836 41.6874L44.8234 30.6419L44.367 30.4378Z" fill="#6465FF"/>
</svg>
