<svg width="78" height="77" viewBox="0 0 78 77" fill="none" xmlns="http://www.w3.org/2000/svg">
<circle cx="27" cy="73" r="3" fill="white" stroke="#6465FF" stroke-width="2"/>
<circle cx="3.5" cy="7.5" r="2.5" fill="white" stroke="#6465FF" stroke-width="2"/>
<path d="M76.378 1.62195C77.3256 1.75527 78 2.0981 78 2.5C78 2.9019 77.3256 3.24473 76.378 3.37805C76.2447 4.32561 75.9019 5 75.5 5C75.0981 5 74.7553 4.32561 74.622 3.37805C73.6744 3.24473 73 2.9019 73 2.5C73 2.0981 73.6744 1.75527 74.622 1.62195C74.7553 0.674387 75.0981 0 75.5 0C75.9019 0 76.2447 0.674387 76.378 1.62195Z" fill="#BBC6CB"/>
<path d="M54.378 66.622C55.3256 66.7553 56 67.0981 56 67.5C56 67.9019 55.3256 68.2447 54.378 68.378C54.2447 69.3256 53.9019 70 53.5 70C53.0981 70 52.7553 69.3256 52.622 68.378C51.6744 68.2447 51 67.9019 51 67.5C51 67.0981 51.6744 66.7553 52.622 66.622C52.7553 65.6744 53.0981 65 53.5 65C53.9019 65 54.2447 65.6744 54.378 66.622Z" fill="#BBC6CB"/>
<path d="M21.378 9.62195C22.3256 9.75527 23 10.0981 23 10.5C23 10.9019 22.3256 11.2447 21.378 11.378C21.2447 12.3256 20.9019 13 20.5 13C20.0981 13 19.7553 12.3256 19.622 11.378C18.6744 11.2447 18 10.9019 18 10.5C18 10.0981 18.6744 9.75527 19.622 9.62195C19.7553 8.67439 20.0981 8 20.5 8C20.9019 8 21.2447 8.67439 21.378 9.62195Z" fill="#BBC6CB"/>
<path d="M4.37805 53.622C5.32561 53.7553 6 54.0981 6 54.5C6 54.9019 5.32561 55.2447 4.37805 55.378C4.24473 56.3256 3.9019 57 3.5 57C3.0981 57 2.75527 56.3256 2.62195 55.378C1.67439 55.2447 1 54.9019 1 54.5C1 54.0981 1.67439 53.7553 2.62195 53.622C2.75527 52.6744 3.0981 52 3.5 52C3.9019 52 4.24473 52.6744 4.37805 53.622Z" fill="#BBC6CB"/>
<path d="M55.5957 53.0557C53.9641 53.0557 45.9281 53.0557 44.5258 53.0557C48.3644 51.0065 51.1747 47.2809 51.9659 42.8654H53.0426C56.3275 42.8654 59 40.1988 59 36.9211C59 33.6434 56.3275 30.9767 53.0426 30.9767C52.0981 30.9767 25.5002 30.9767 24.1064 30.9767C23.6363 30.9767 23.2553 31.3569 23.2553 31.8259V40.3178C23.2553 45.8258 26.3634 50.6227 30.921 53.0557C29.5097 53.0557 21.4769 53.0557 19.8511 53.0557C19.381 53.0557 19 53.4359 19 53.9049C19 54.3738 19.381 54.7541 19.8511 54.7541H20.7744C21.1809 57.1606 23.2829 59 25.8085 59H49.6383C52.1639 59 54.2659 57.1606 54.6723 54.7541H55.5957C56.0657 54.7541 56.4468 54.3738 56.4468 53.9049C56.4468 53.4359 56.0657 53.0557 55.5957 53.0557ZM57.2979 36.921C57.2979 39.2623 55.3889 41.1669 53.0426 41.1669H52.1915C52.1915 40.493 52.1915 33.858 52.1915 32.675H53.0426C55.3889 32.675 57.2979 34.5798 57.2979 36.921ZM24.9574 40.3178V37.7703H27.5106V41.167C27.5106 45.8495 31.3285 49.6589 36.0213 49.6589C36.4913 49.6589 36.8723 49.2786 36.8723 48.8097C36.8723 48.3408 36.4913 47.9605 36.0213 47.9605C32.2671 47.9605 29.2128 44.913 29.2128 41.167V37.7703H46.234C46.704 37.7703 47.0851 37.3901 47.0851 36.9211C47.0851 36.4521 46.704 36.0719 46.234 36.0719H24.9574V32.6751H50.4894V40.3178C50.4894 47.3415 44.7626 53.0557 37.7234 53.0557C30.6843 53.0557 24.9574 47.3415 24.9574 40.3178ZM49.6383 57.3016H25.8085C24.2252 57.3016 22.8908 56.2175 22.512 54.7541H52.9349C52.556 56.2175 51.2216 57.3016 49.6383 57.3016Z" fill="#6465FF"/>
<path d="M29.5925 29.6099C29.703 29.9778 30.0412 30.2153 30.4073 30.2153C30.9755 30.2153 31.387 29.6679 31.2228 29.1219C30.8894 28.013 31.3029 26.8204 32.2518 26.1543L34.6787 24.4503C36.2276 23.3626 36.9027 21.4157 36.3584 19.6055C36.2234 19.1563 35.749 18.9012 35.2987 19.0361C34.8485 19.1709 34.593 19.6443 34.7281 20.0935C35.0614 21.2024 34.648 22.3951 33.6991 23.0613L31.2722 24.7652C29.7233 25.8529 29.0482 27.7997 29.5925 29.6099Z" fill="#6465FF"/>
<path d="M35.2886 29.6099C35.3991 29.9778 35.7373 30.2153 36.1034 30.2153C36.6715 30.2153 37.0831 29.6679 36.9189 29.1219C36.5855 28.013 36.9989 26.8204 37.9478 26.1543L40.3747 24.4503C41.9236 23.3626 42.5987 21.4157 42.0544 19.6056C41.9195 19.1563 41.4452 18.9012 40.9948 19.0362C40.5446 19.1709 40.2891 19.6443 40.4241 20.0935C40.7575 21.2025 40.344 22.3951 39.3951 23.0613L36.9682 24.7653C35.4193 25.8529 34.7443 27.7998 35.2886 29.6099Z" fill="#6465FF"/>
<path d="M40.9845 29.6099C41.0951 29.9777 41.4332 30.2153 41.7993 30.2153C42.3666 30.2153 42.7793 29.6691 42.6148 29.1219C42.2815 28.0131 42.695 26.8204 43.6438 26.1542L46.0707 24.4502C47.6197 23.3625 48.2947 21.4156 47.7505 19.6055C47.6155 19.1563 47.1411 18.9012 46.6908 19.0361C46.2406 19.1708 45.9851 19.6442 46.1202 20.0934C46.4536 21.2024 46.04 22.395 45.0912 23.0613L42.6643 24.7653C41.1153 25.8529 40.4404 27.7997 40.9845 29.6099Z" fill="#6465FF"/>
</svg>
