<?xml version="1.0" encoding="UTF-8"?>
<svg width="617px" height="428px" viewBox="0 0 617 428" version="1.1" xmlns="http://www.w3.org/2000/svg" xmlns:xlink="http://www.w3.org/1999/xlink">
    <!-- Generator: Sketch 52.5 (67469) - http://www.bohemiancoding.com/sketch -->
    <title>Group</title>
    <desc>Created with Sketch.</desc>
    <defs>
        <linearGradient x1="0%" y1="27.7760255%" x2="50%" y2="100%" id="linearGradient-1">
            <stop stop-color="#C39A6B" offset="0%"></stop>
            <stop stop-color="#A87544" offset="48.540435%"></stop>
            <stop stop-color="#824F25" offset="100%"></stop>
        </linearGradient>
        <linearGradient x1="79.0354391%" y1="2.89337819%" x2="50%" y2="76.9388423%" id="linearGradient-2">
            <stop stop-color="#BF9464" offset="0%"></stop>
            <stop stop-color="#824F25" offset="100%"></stop>
        </linearGradient>
        <linearGradient x1="0%" y1="16.0200475%" x2="100%" y2="70.9313622%" id="linearGradient-3">
            <stop stop-color="#AD7B4B" offset="0%"></stop>
            <stop stop-color="#784419" offset="100%"></stop>
        </linearGradient>
        <linearGradient x1="3.52476115%" y1="6.69503111%" x2="39.2987658%" y2="94.476757%" id="linearGradient-4">
            <stop stop-color="#C39A6B" offset="0%"></stop>
            <stop stop-color="#824F25" offset="100%"></stop>
        </linearGradient>
        <linearGradient x1="100%" y1="20.424643%" x2="0.337837838%" y2="62.128628%" id="linearGradient-5">
            <stop stop-color="#9E6F39" offset="0%"></stop>
            <stop stop-color="#824F25" offset="100%"></stop>
        </linearGradient>
        <linearGradient x1="100%" y1="20.424643%" x2="0%" y2="62.2699975%" id="linearGradient-6">
            <stop stop-color="#9E6F39" offset="0%"></stop>
            <stop stop-color="#824F25" offset="99.6621622%"></stop>
        </linearGradient>
        <linearGradient x1="8.84569405%" y1="36.6044973%" x2="50%" y2="100%" id="linearGradient-7">
            <stop stop-color="#C39A6B" offset="0%"></stop>
            <stop stop-color="#A87544" offset="48.540435%"></stop>
            <stop stop-color="#824F25" offset="100%"></stop>
        </linearGradient>
    </defs>
    <g id="Symbols" stroke="none" stroke-width="1" fill="none" fill-rule="evenodd">
        <g id="Img/Statuses/Silver" transform="translate(0.000000, -49.000000)">
            <g id="Group" transform="translate(-40.000000, 49.000000)">
                <path d="M139.374616,238.46825 C107.554304,253.930939 76.3241131,263.289761 45.6840424,266.544716 C37.3518579,286.174113 20.9567577,324.798548 13.7657418,341.74008 C64.5239089,340.105142 118.279958,325.935732 175.03389,299.231849 L139.374616,238.46825 Z" id="Path-3-Copy" fill="#EF6100" transform="translate(94.399816, 290.104165) rotate(-23.000000) translate(-94.399816, -290.104165) "></path>
                <path d="M488.74394,288.829123 C481.920278,315.959903 474.431328,336.221979 466.502937,349.436625 C459.781177,360.640119 453.603931,365.590755 448.295346,365.959765 C428.305789,367.349277 404.193325,367.349277 375.998167,365.944574 C368.827359,365.58732 362.724658,371.110796 362.367404,378.281604 C362.010149,385.452412 367.533625,391.555112 374.704433,391.912367 C403.863179,393.365076 428.981066,393.365076 450.098305,391.897177 C478.651364,389.9124 498.415384,356.970719 513.958661,295.170877 C515.709888,288.208024 511.48503,281.143866 504.522177,279.392639 C497.559324,277.641413 490.495167,281.86627 488.74394,288.829123 Z" id="Path-2-Copy" fill="#C0C0C2" fill-rule="nonzero"></path>
                <path d="M285.3513,392 L482.3513,392 L482.3513,399 C482.3513,401.761424 480.112724,404 477.3513,404 L290.3513,404 C287.589876,404 285.3513,401.761424 285.3513,399 L285.3513,392 Z" id="Rectangle-Copy-2" fill="#4A4A4A"></path>
                <path d="M496.81505,404 C493.601953,367.169165 480.746251,292.969637 491.671974,280.056979 C502.597697,267.144321 523.915892,264 544.95316,264 C565.781958,264 586.778674,271.528805 594.214197,280.056979 C601.649719,288.585153 600.245815,317.741176 600.245815,339.737511 C600.245815,355.395227 598.658556,388.934462 597.085643,404 C576.96467,404 518.786058,404 496.81505,404 Z" id="Path-Copy-10" fill="#D3D3D8" transform="translate(543.851300, 334.000000) scale(-1, 1) translate(-543.851300, -334.000000) "></path>
                <path d="M523.914616,240 C523.559123,255.55513 522.725203,266.888372 521.412857,273.999727 C519.444337,284.666758 565.357853,284.666758 563.283018,273.999727 C561.899794,266.888372 561.092177,257.231613 560.860167,245.029448 L523.914616,240 Z" id="Path-7-Copy-17" fill="#8D5A2E" transform="translate(542.351300, 261.000000) scale(-1, 1) translate(-542.351300, -261.000000) "></path>
                <ellipse id="Oval-Copy-2" fill="#A5A5A5" transform="translate(499.351300, 185.500000) scale(-1, 1) translate(-499.351300, -185.500000) " cx="499.3513" cy="185.5" rx="16" ry="22.5"></ellipse>
                <path d="M523.3513,254.636436 C528.242428,262.878812 534.71587,267 542.771625,267 C550.82738,267 556.687272,263.014982 560.3513,255.044946 L559.991139,248.466698 C554.702302,249.132062 548.962464,249.464744 542.771625,249.464744 C536.580786,249.464744 530.107344,245.976496 523.3513,239 L523.3513,254.636436 Z" id="Path-10-Copy-7" fill="#68401C" transform="translate(541.851300, 253.000000) scale(-1, 1) translate(-541.851300, -253.000000) "></path>
                <path d="M492.401927,143.586709 C487.117442,188.073578 497.368746,250.323785 527.570764,254.707771 C547.705443,257.630428 567.209336,241.32859 586.082444,205.802254 C596.522048,202.641293 602.098358,196.997082 602.811372,188.869623 C603.524386,180.742163 600.025247,176.689847 592.313954,176.712675 C594.944781,137.072183 586.364475,113.256576 566.573038,105.265855 C536.885882,93.2797727 497.686412,99.0998398 492.401927,143.586709 Z" id="Path-2-Copy-3" fill="url(#linearGradient-1)" transform="translate(546.988327, 177.439975) rotate(1.000000) translate(-546.988327, -177.439975) "></path>
                <ellipse id="Oval-Copy-65" fill="#1E1E1E" cx="544.8513" cy="177" rx="6.5" ry="9"></ellipse>
                <ellipse id="Oval-Copy-66" fill="#1E1E1E" cx="508.3513" cy="177.5" rx="5" ry="7.5"></ellipse>
                <path d="M511.3513,221.312657 C520.42681,224.920797 529.760143,224.816578 539.3513,221 C537.041963,229.312154 532.547072,234.688425 523.582239,233.928667 C517.605683,233.422162 513.528703,229.216826 511.3513,221.312657 Z" id="Path-14-Copy-9" fill="#DAC0A5"></path>
                <path d="M521.921763,179 C511.897749,196.026672 508.386927,206.197784 511.389296,209.513336 C514.391666,212.828888 520.045667,212.828888 528.3513,209.513336 C522.700924,210.460772 518.67121,209.032708 516.262156,205.229144 C513.853102,201.42558 515.739638,192.682532 521.921763,179 Z" id="Path-17-Copy-10" fill="#68401C"></path>
                <path d="M536.737672,158.441518 C541.931148,153.44672 547.309839,152.684288 553.380356,156.055246 L555.322244,152.558237 C547.699568,148.325365 540.411592,149.358439 533.964928,155.558482 L536.737672,158.441518 Z" id="Path-16-Copy-15" fill="#1E1E1E" fill-rule="nonzero" transform="translate(544.643586, 154.220721) scale(-1, 1) rotate(4.000000) translate(-544.643586, -154.220721) "></path>
                <path d="M501.806298,161.372217 C504.947748,158.041256 508.804162,157.179402 513.735939,158.774178 L514.966662,154.968219 C508.609075,152.912383 503.132155,154.136397 498.896302,158.627783 L501.806298,161.372217 Z" id="Path-16-Copy-16" fill="#1E1E1E" fill-rule="nonzero"></path>
                <path d="M571.732477,285.875051 C563.411696,319.475104 551.566553,334.909935 537.552684,335.862332 C519.774279,337.07057 500.279894,330.306084 478.928225,314.991268 C473.094095,310.806648 464.972294,312.14384 460.787674,317.97797 C456.603053,323.8121 457.940245,331.933901 463.774375,336.118521 C489.689806,354.706767 514.917317,363.460627 539.315604,361.802496 C567.478427,359.888522 586.244721,335.435078 596.970123,292.124949 C598.695985,285.155766 594.445433,278.107039 587.476249,276.381177 C580.507066,274.655315 573.458339,278.905867 571.732477,285.875051 Z" id="Path-2" fill="#E1E1E5" fill-rule="nonzero"></path>
                <path d="M591.3513,208 C584.969577,226.666667 572.969577,236 555.3513,236" id="Path-3" stroke="#C4C4C4" stroke-width="4"></path>
                <rect id="Rectangle" fill="#D8D8D8" x="541.3513" y="230" width="17" height="11" rx="4"></rect>
                <path d="M268.17188,269 L412.292855,269 C414.763116,269 416.863152,270.803975 417.235675,273.245985 L434.47354,386.245985 C434.88997,388.975829 433.014579,391.526388 430.284735,391.942819 C430.035201,391.980885 429.783142,392 429.53072,392 L285.409745,392 C282.939484,392 280.839448,390.196025 280.466925,387.754015 L263.22906,274.754015 C262.81263,272.024171 264.688021,269.473612 267.417865,269.057181 C267.6674,269.019115 267.919458,269 268.17188,269 Z" id="Rectangle-Copy" fill="#5F5F5F"></path>
                <g id="manrest-thumbup-copy-2" transform="translate(459.851300, 312.763157) rotate(-8.000000) translate(-459.851300, -312.763157) translate(423.351300, 269.763157)">
                    <g id="Group-50" transform="translate(36.298320, 42.893331) rotate(10.000000) translate(-36.298320, -42.893331) translate(6.298320, 5.393331)">
                        <path d="M33.6543969,26.2831827 C44.9669505,16.3779518 36.8549056,-1.66193631 45.8769171,2.96552963 C51.8915914,6.05050692 51.5488748,16.2739112 44.8487672,33.6357423 C48.8734237,38.3224436 50.5299305,43.5732698 49.8182877,49.3882208 C49.1066449,55.2031717 46.6173394,60.1855937 42.3503712,64.3354868 C34.8744638,61.5286044 29.7457896,57.2514699 26.9643486,51.5040831 C22.792187,42.8830029 25.799184,33.1611786 33.6543969,26.2831827 Z" id="Path-15-Copy-2" fill="url(#linearGradient-2)" transform="translate(37.614470, 33.277887) scale(-1, 1) rotate(-8.000000) translate(-37.614470, -33.277887) "></path>
                        <path d="M27.4712397,24.3459751 C20.5746652,25.646183 12.5388968,32.6460014 9.28138495,39.0361423 C6.65830042,44.1817505 8.17878184,50.0216482 14.0350456,57.6470934 C19.8913093,65.2725385 23.7549034,66.6486657 30.7175447,64.9425912 C35.5308158,63.7631825 46.3712261,60.141252 49.9038082,54.2045065 C53.0535229,48.9111961 50.3663376,42.0418036 44.2651084,32.7655586 C38.1638792,23.4893137 33.0728018,23.2899153 27.4712397,24.3459751 Z" id="Path-7-Copy-24" fill="url(#linearGradient-3)" transform="translate(29.636328, 44.752817) rotate(-326.000000) translate(-29.636328, -44.752817) "></path>
                    </g>
                </g>
                <path d="M249.3513,404 L656.3513,404 L656.3513,412 C656.3513,420.836556 649.187856,428 640.3513,428 L241.3513,428 L241.3513,412 C241.3513,407.581722 244.933022,404 249.3513,404 Z" id="Rectangle" fill="#BAAA8B"></path>
                <path d="M492.586311,161.099285 C491.379184,150.207185 488.837688,138.114528 489.443126,123.074848 C490.048564,108.035167 506.177527,86.0947776 545.514543,86.7787701 C584.851559,87.4627626 600.596697,110.675753 601.284682,132.480422 C601.743339,147.016867 599.833653,159.813013 595.555626,170.868859 C593.109774,170.611569 590.487622,171.041926 587.689168,172.15993 C583.454531,173.851702 580.910748,176.944735 578.684296,180.763157 C579.14475,165.077341 581.204197,129.456778 555.404989,125.277283 C539.236666,122.658 534.678112,130.999424 520.007645,131.566422 C509.801904,131.960864 505.787702,125.902242 499.996697,129.090915 C493.752329,132.529222 492.680124,151.552427 492.586311,161.099285 Z" id="Path-3-Copy-2" fill="#1E1E1E" transform="translate(545.351300, 133.763157) rotate(2.000000) translate(-545.351300, -133.763157) "></path>
                <path d="M537.398113,169.721862 C535.91103,120.90186 544.376238,83.1782937 599.3513,87.6182693 C598.840808,85.8140607 594.294707,84 586.485765,84 C537.917308,84 526.749994,111.660628 528.527042,170 L537.398113,169.721862 Z" id="Path" fill="#C4C4C4" fill-rule="nonzero" transform="translate(563.851300, 127.000000) scale(-1, 1) translate(-563.851300, -127.000000) "></path>
                <path d="M587.8513,212 C596.411714,212 603.3513,201.926407 603.3513,189.5 C603.3513,177.073593 596.411714,167 587.8513,167 C587.254443,167 582.292311,167 581.709312,167 C579.108563,167 572.3513,177.939999 572.3513,189.5 C572.3513,196.859308 577.37656,212 582.0388,212 C582.853856,212 584.360632,212 587.8513,212 Z" id="Oval" fill="#A5A5A5" transform="translate(587.851300, 189.500000) scale(-1, 1) translate(-587.851300, -189.500000) "></path>
                <ellipse id="Oval-Copy" fill="#C4C4C4" transform="translate(595.351300, 189.500000) scale(-1, 1) translate(-595.351300, -189.500000) " cx="595.3513" cy="189.5" rx="16" ry="22.5"></ellipse>
                <g id="Group-Copy-2" transform="translate(109.351300, 0.000000)">
                    <path d="M13.6837006,180.0262 C16.0377809,155.131408 12.9226989,135.921356 4.80094723,122.089725 C0.764029991,115.214712 -1.1566378,107.575962 4.55816904,103.014414 C10.2729759,98.4528655 25.1036615,106.191849 29.1405787,113.066862 C38.4228683,128.87493 41.702079,145.214066 40.9394359,165.515076 C68.2654071,166.39839 102.994615,193.35764 109.127788,206.645128 C117.659673,225.129413 113.208377,238.993236 104.310534,252.091425 C95.4126916,265.189614 54.454311,286.538484 25.0658213,266.775799 C-3.99116072,247.236041 -7.7856921,215.159273 13.6837006,180.0262 Z" id="Combined-Shape-Copy-57" fill="url(#linearGradient-4)"></path>
                    <path d="M41.5223881,0 L143.751244,0 C152.5878,6.22518934e-15 159.751244,7.163444 159.751244,16 L159.751244,230.05 C159.751244,238.886556 152.5878,246.05 143.751244,246.05 L41.5223881,246.05 C32.6858321,246.05 25.5223881,238.886556 25.5223881,230.05 L25.5223881,16 C25.5223881,7.163444 32.6858321,1.58341037e-14 41.5223881,0 Z" id="Rectangle" fill="#434D66"></path>
                    <polygon id="Rectangle-Copy-6" fill="#FFFFFF" points="33.0202956 15.011805 153.049481 15.0002747 153.029456 230.638195 33.0002707 230.649725"></polygon>
                    <rect id="Rectangle" fill="#EF6100" x="33.0845771" y="15" width="120.049751" height="24.7"></rect>
                    <path d="M83.6732922,26.87219 C84.3482599,27.0859298 84.8769767,27.4430949 85.2594584,27.943696 C85.6419402,28.444297 85.8331781,29.0601959 85.8331781,29.7914109 C85.8331781,30.8263615 85.4310159,31.622249 84.6266793,32.1790974 C83.8223428,32.7359458 82.6496039,33.0143658 81.1084276,33.0143658 L75,33.0143658 L75,21.2024893 L80.7709454,21.2024893 C82.2108766,21.2024893 83.3161197,21.478097 84.0867078,22.0293207 C84.857296,22.5805443 85.2425843,23.3286224 85.2425843,24.2735772 C85.2425843,24.8472998 85.1047805,25.3591426 84.8291686,25.8091211 C84.5535568,26.2590996 84.1682685,26.6134524 83.6732922,26.87219 Z M77.7167316,23.2611306 L77.7167316,26.0453587 L80.4334632,26.0453587 C81.1084309,26.0453587 81.6202738,25.9272411 81.9690071,25.6910024 C82.3177405,25.4547637 82.4921045,25.1060356 82.4921045,24.6448076 C82.4921045,24.1835796 82.3177405,23.8376639 81.9690071,23.6070499 C81.6202738,23.3764359 81.1084309,23.2611306 80.4334632,23.2611306 L77.7167316,23.2611306 Z M80.9059382,30.9557245 C81.6259038,30.9557245 82.1686823,30.8376069 82.5342898,30.6013682 C82.8998973,30.3651295 83.0826983,29.9995274 83.0826983,29.5045511 C83.0826983,28.5258478 82.3571189,28.0365036 80.9059382,28.0365036 L77.7167316,28.0365036 L77.7167316,30.9557245 L80.9059382,30.9557245 Z M91.7222423,21.2024893 L91.7222423,33.0143658 L88.9886366,33.0143658 L88.9886366,23.3961235 L86.6262613,23.3961235 L86.6262613,21.2024893 L91.7222423,21.2024893 Z M98.3368931,21.2024893 L98.3368931,33.0143658 L95.6032874,33.0143658 L95.6032874,23.3961235 L93.2409121,23.3961235 L93.2409121,21.2024893 L98.3368931,21.2024893 Z M105.457767,33.2168551 C104.479064,33.2168551 103.607244,32.9749953 102.84228,32.4912684 C102.077317,32.0075415 101.478292,31.307273 101.045188,30.3904418 C100.612083,29.4736106 100.395534,28.3796168 100.395534,27.1084276 C100.395534,25.8372383 100.612083,24.7432445 101.045188,23.8264133 C101.478292,22.9095821 102.077317,22.2093136 102.84228,21.7255867 C103.607244,21.2418598 104.479064,21 105.457767,21 C106.43647,21 107.308291,21.2418598 108.073254,21.7255867 C108.838218,22.2093136 109.437242,22.9095821 109.870347,23.8264133 C110.303451,24.7432445 110.52,25.8372383 110.52,27.1084276 C110.52,28.3796168 110.303451,29.4736106 109.870347,30.3904418 C109.437242,31.307273 108.838218,32.0075415 108.073254,32.4912684 C107.308291,32.9749953 106.43647,33.2168551 105.457767,33.2168551 Z M105.457767,30.9051021 C106.177733,30.9051021 106.74301,30.5957466 107.153615,29.9770261 C107.564221,29.3583057 107.76952,28.4021157 107.76952,27.1084276 C107.76952,25.8147394 107.564221,24.8585494 107.153615,24.239829 C106.74301,23.6211085 106.177733,23.311753 105.457767,23.311753 C104.749051,23.311753 104.189399,23.6211085 103.778793,24.239829 C103.368188,24.8585494 103.162888,25.8147394 103.162888,27.1084276 C103.162888,28.4021157 103.368188,29.3583057 103.778793,29.9770261 C104.189399,30.5957466 104.749051,30.9051021 105.457767,30.9051021 Z" id="B110" fill="#FFFFFF" fill-rule="nonzero"></path>
                    <g id="Group-2-Copy-9" transform="translate(134.228856, 103.550000)" fill-rule="nonzero">
                        <path d="M13.0145817,109.032533 C13.0122714,109.003469 13.011284,108.992813 13.0124901,109.003933 C13.0194134,109.067766 13.0302617,109.152698 13.0474429,109.265908 C13.0800639,109.480855 13.1240106,109.72155 13.1875586,110.005845 C13.2974928,110.497658 13.4418295,111.017131 13.6542264,111.610254 C13.3876438,110.866216 13.182316,110.115121 13.0359026,109.362842 C13.0289044,109.233069 13.0217413,109.122603 13.0145817,109.032533 Z M13.7939627,111.271113 C13.7792677,111.229569 13.7647136,111.188009 13.7503002,111.146434 C13.76441,111.187136 13.7790605,111.228983 13.7939627,111.271113 Z M21.994403,91.4096535 C29.2780767,88.5344263 37.2714189,92.792483 39.8480326,100.920289 C40.4595645,102.849338 40.6465065,104.269741 40.7846232,106.273348 C40.8538589,107.277724 40.897442,108.442178 40.9229497,109.823188 C41.082156,118.442736 34.9493999,125.574279 27.2250557,125.751937 C19.5007115,125.929594 13.1098311,119.086089 12.9506248,110.466541 C12.9391968,109.847818 12.9237308,109.350634 12.9071997,108.997147 C11.6523031,101.562201 15.4036408,94.0113543 21.994403,91.4096535 Z" id="Path-21-Copy-4" fill="url(#linearGradient-5)" transform="translate(26.796405, 108.133513) rotate(-96.000000) translate(-26.796405, -108.133513) "></path>
                        <path d="M13.6140233,83.433393 C13.6093829,83.4132101 13.6047739,83.3930273 13.6001961,83.3728447 C13.6046673,83.3925523 13.6093098,83.4128918 13.6140233,83.433393 Z M25.2223257,65.1319573 C33.4365446,63.2611342 41.6266332,68.3402095 43.5154005,76.4763895 C44.0263119,78.6772254 44.14073,80.9438468 44.2043562,85.6479676 C44.3172648,93.9957156 37.5767003,100.853563 29.1488841,100.965399 C20.7210678,101.077235 13.7974424,94.4007092 13.6845338,86.0529612 C13.6643896,84.5636269 13.6327085,83.4077214 13.5930114,82.6213217 C13.5855158,82.4728342 13.5782598,82.3482577 13.5719188,82.2512917 C12.3058729,74.4605078 17.3448043,66.9260961 25.2223257,65.1319573 Z" id="Path-21-Copy-3" fill="url(#linearGradient-6)" transform="translate(28.791672, 82.855484) rotate(-96.000000) translate(-28.791672, -82.855484) "></path>
                        <path d="M27.6395924,35.2477946 C36.5096741,34.0666361 44.7023582,39.9800992 45.9384646,48.4558841 C46.2470883,50.5720677 46.3590886,54.1037787 46.4142393,60.5942436 C46.4869533,69.1516519 39.2860306,76.145128 30.3305284,76.2146096 C21.3750262,76.2840913 14.0562108,69.4032672 13.9834969,60.845859 C13.9605575,58.1462162 13.9237249,56.0070881 13.8743784,54.4510408 C13.8517861,53.7386361 13.8272073,53.1706194 13.8026009,52.7642194 C13.7957715,52.6514258 13.7895542,52.5613366 13.7845642,52.4974857 C12.6960209,44.1127538 18.8518103,36.4179939 27.6395924,35.2477946 Z" id="Path-21-Copy-2" fill="url(#linearGradient-6)" transform="translate(30.037323, 55.656358) rotate(-111.000000) translate(-30.037323, -55.656358) "></path>
                        <path d="M23.6953207,5.70554835 C32.5404887,4.32400509 40.8479891,10.2665541 42.2506422,18.9786031 C42.6003059,21.1504074 42.7138549,24.3937682 42.7711761,30.5043967 C42.8539178,39.3249305 35.6612797,46.541452 26.7059692,46.6229484 C17.7506587,46.7044449 10.4238697,39.6200553 10.341128,30.7995215 C10.3184518,28.3821696 10.2821626,26.4730725 10.2340452,25.0986679 C10.2126781,24.4883488 10.1898311,24.0100753 10.1680337,23.6839709 C10.1656656,23.6485424 10.1635029,23.6177661 10.1616262,23.5920598 C8.99745272,15.0269279 14.9821148,7.06648019 23.6953207,5.70554835 Z" id="Path-21-Copy" fill="url(#linearGradient-6)" transform="translate(26.394420, 26.064871) rotate(-124.000000) translate(-26.394420, -26.064871) "></path>
                    </g>
                    <rect id="Rectangle" fill="#DBE5E6" x="52" y="162" width="81.2935323" height="7.6" rx="3.8"></rect>
                    <rect id="Rectangle-Copy-5" fill="#DBE5E6" x="56" y="177" width="73.7313433" height="7.6" rx="3.8"></rect>
                    <ellipse id="Oval" fill="#DBE5E6" cx="93.0043285" cy="95.4" rx="30.2487562" ry="30.4"></ellipse>
                    <g id="Group-2" transform="translate(74.676617, 69.750000)">
                        <path d="M13.7416376,46.5375852 C13.6524848,49.725327 13.4433487,52.2480971 13.1142294,54.1058954 C12.6205504,56.8925928 24.1350578,56.8925928 23.6147165,54.1058954 C23.2678222,52.2480971 23.0652825,49.725327 23.0070972,46.5375852 L13.7416376,46.5375852 Z" id="Path-7-Copy-6" fill="#8D5A2E"></path>
                        <path d="M13.0987918,48.9500763 C14.3840765,51.0977674 16.0851595,52.1716129 18.2020409,52.1716129 C20.3189223,52.1716129 21.8587774,51.1332488 22.8216063,49.0565206 L22.7269637,47.3424463 C21.3371696,47.5158182 19.828862,47.6025041 18.2020409,47.6025041 C16.5752198,47.6025041 14.9065902,47.6025041 13.196152,47.6025041 L13.0987918,48.9500763 Z" id="Path-10-Copy-2" fill="#68401C"></path>
                        <path d="M30.5928096,34.4149546 C28.1773746,43.1637462 24.0264754,49.7570296 18.3847667,49.7570296 C12.7286846,49.7570296 7.69549117,43.2259574 5.26477545,34.4196626 C2.67833492,34.0228643 1.24039291,32.7232823 0.950949407,30.5209165 C0.653743533,28.2594872 1.62410071,26.8786481 3.86202094,26.3783994 C3.82736162,25.941505 3.79905323,25.502499 3.77727324,25.0617629 C3.12924226,11.9483211 9.93092986,7.09939071 18.3847667,7.09939071 C26.8386034,7.09939071 34.0625049,12.1182942 32.4270626,25.0617629 C32.3685601,25.5247728 32.3059124,25.9862577 32.2391462,26.4457344 C34.2820143,26.9956051 35.161056,28.3539992 34.8762712,30.5209165 C34.5879624,32.7146488 33.1601418,34.0126614 30.5928096,34.4149546 Z" id="Combined-Shape-Copy-2" fill="url(#linearGradient-7)"></path>
                        <ellipse id="Oval-Copy-14" fill="#1E1E1E" transform="translate(13.098792, 29.014583) scale(-1, 1) translate(-13.098792, -29.014583) " cx="13.0987918" cy="29.0145833" rx="1.62046908" ry="2.41458333"></ellipse>
                        <ellipse id="Oval-Copy-15" fill="#1E1E1E" transform="translate(24.442075, 29.014583) scale(-1, 1) translate(-24.442075, -29.014583) " cx="24.4420753" cy="29.0145833" rx="1.62046908" ry="2.41458333"></ellipse>
                        <path d="M13.9090263,38.605118 C17.060437,39.9454495 20.3013752,39.9067349 23.6318408,38.488974 C22.8299388,41.5767263 21.2691178,43.5738728 18.1561387,43.2916424 C16.0808192,43.1034889 14.6651151,41.541314 13.9090263,38.605118 Z" id="Path-14-Copy-3" fill="#DAC0A5" transform="translate(18.770434, 40.903557) scale(-1, 1) translate(-18.770434, -40.903557) "></path>
                        <path d="M19.4646595,27.2209185 C16.757392,31.7889538 15.8091955,34.5177313 16.62007,35.4072509 C17.4309445,36.2967706 18.9579669,36.2967706 21.2011372,35.4072509 C19.675094,35.6614358 18.5867559,35.2783048 17.9361231,34.2578578 C17.2854902,33.2374108 17.7950023,30.8917644 19.4646595,27.2209185 Z" id="Path-17-Copy-3" fill="#68401C" transform="translate(18.770434, 31.647655) scale(-1, 1) translate(-18.770434, -31.647655) "></path>
                        <path d="M32.4933731,9.85391262 C34.0077286,11.5744245 34.7488944,14.0940966 34.9471269,16.3200188 C35.1502908,18.6013151 34.2477564,22.283328 32.2395238,27.3660574 C31.9965172,21.84018 30.8199868,18.4179694 28.7099327,17.0994255 C25.5448514,15.1216096 21.6737839,17.3290174 18.2915703,16.999742 C18.0080158,16.9721365 17.787324,16.9144493 17.6235324,16.8303687 C14.3646564,16.2682204 10.4060595,15.4516151 7.4097403,17.3126392 C5.28490508,18.6323816 4.08916452,21.9638313 3.82251863,27.306988 C1.9043553,23.0583865 0.945273632,19.3867565 0.945273632,16.2920979 C0.945273632,12.5745171 1.86486358,9.95473076 4.14925173,8.6276605 C4.14882247,8.60181483 4.14860715,8.57592763 4.14860715,8.55 C4.14860715,5.40197693 7.32270781,2.85 11.2381594,2.85 C11.3950977,2.85 11.5508449,2.85409988 11.7052445,2.86217368 C12.9288918,1.15172862 15.2246944,-1.24344979e-14 17.8550748,-1.24344979e-14 C20.961085,-1.24344979e-14 23.60058,1.60590108 24.5591631,3.84132847 C24.8404554,3.81404227 25.12682,3.8 25.4172639,3.8 C29.3327155,3.8 32.5068161,6.35197693 32.5068161,9.5 C32.5068161,9.61885562 32.5022915,9.73686158 32.4933731,9.85391262 Z" id="Combined-Shape-Copy-3" fill="#1E1E1E"></path>
                        <path d="M10.165544,23.8623992 C11.7256507,23.053285 13.4152591,22.9241315 15.2767428,23.4815516 L15.7070387,22.0445946 C13.481002,21.3780093 11.3895159,21.5378823 9.47495392,22.5308267 L10.165544,23.8623992 Z" id="Path-16-Copy-6" fill="#1E1E1E" fill-rule="nonzero"></path>
                        <path d="M22.3316897,23.8093966 C23.6162037,23.2026739 25.3622918,23.0486546 27.5741939,23.3730181 L27.7918331,21.888891 C25.3107805,21.525058 23.275774,21.7045623 21.6910537,22.4530834 L22.3316897,23.8093966 Z" id="Path-16-Copy-7" fill="#1E1E1E" fill-rule="nonzero" transform="translate(24.741443, 22.758258) scale(-1, 1) translate(-24.741443, -22.758258) "></path>
                    </g>
                </g>
                <g id="Group-8-Copy-4" transform="translate(204.351300, 110.000000)">
                    <circle id="Oval-Copy" fill="#09B222" cx="18" cy="18" r="18"></circle>
                    <polygon id="Path-26" fill="#FFFFFF" fill-rule="nonzero" points="9.28004463 15.7215941 7.17709822 17.8611305 15.2138127 25.7604021 28.8229018 12.384054 26.7199554 10.2445175 15.2138127 21.5538836"></polygon>
                </g>
            </g>
        </g>
    </g>
</svg>