<svg xmlns="http://www.w3.org/2000/svg" width="616" height="477" viewBox="0 0 616 477">
    <defs>
        <linearGradient id="a" x1="29.76%" x2="45.34%" y1="6.695%" y2="94.477%">
            <stop offset="0%" stop-color="#C39A6B"/>
            <stop offset="100%" stop-color="#824F25"/>
        </linearGradient>
        <linearGradient id="b" x1="82.468%" x2="17.751%" y1="20.425%" y2="62.129%">
            <stop offset="0%" stop-color="#9E6F39"/>
            <stop offset="100%" stop-color="#824F25"/>
        </linearGradient>
        <linearGradient id="c" x1="86.58%" x2="13.42%" y1="20.425%" y2="62.27%">
            <stop offset="0%" stop-color="#9E6F39"/>
            <stop offset="99.662%" stop-color="#824F25"/>
        </linearGradient>
        <linearGradient id="d" x1="82.048%" x2="17.952%" y1="20.425%" y2="62.27%">
            <stop offset="0%" stop-color="#9E6F39"/>
            <stop offset="99.662%" stop-color="#824F25"/>
        </linearGradient>
        <linearGradient id="e" x1="23.547%" x2="50%" y1="36.604%" y2="100%">
            <stop offset="0%" stop-color="#C39A6B"/>
            <stop offset="48.54%" stop-color="#A87544"/>
            <stop offset="100%" stop-color="#824F25"/>
        </linearGradient>
    </defs>
    <g fill="none" fill-rule="evenodd">
        <path fill="#EF6100" d="M356.76 357.816C336.089 405.182 315.427 444.91 294.775 477h93.26c9.47-16.326 22.614-46.193 39.43-89.6l-70.705-29.584z"/>
        <g transform="translate(353 106)">
            <path fill="url(#a)" d="M30.849 119.013c9.813 16.64 13.274 33.84 12.457 55.215 28.908.925 65.651 29.306 72.14 43.293 9.026 19.457 4.317 34.05-5.096 47.838-9.413 13.788-52.743 36.26-83.833 15.458-30.734-20.565-34.752-54.322-12.052-91.297 2.505-26.214-.781-46.439-9.368-60.998-4.267-7.235-6.296-15.275-.248-20.08 6.047-4.804 21.732 3.336 26 10.571z"/>
            <path fill="#434D66" d="M43 0h110c8.837 0 16 7.163 16 16v227c0 8.837-7.163 16-16 16H43c-8.837 0-16-7.163-16-16V16c0-8.837 7.163-16 16-16z"/>
            <path fill="#FFF" d="M35.021 16.012L162 16l-.021 226.988L35 243z"/>
            <path fill="#EF6100" d="M35 16h127v26H35z"/>
            <path fill="#FFF" fill-rule="nonzero" d="M88.372 28.368c.732.232 1.305.62 1.72 1.162.414.543.622 1.211.622 2.004 0 1.122-.436 1.985-1.309 2.59-.872.603-2.144.905-3.815.905h-6.624V22.22h6.258c1.562 0 2.76.3 3.596.897.836.598 1.253 1.41 1.253 2.434 0 .622-.149 1.177-.448 1.665a3.14 3.14 0 0 1-1.253 1.153zm-6.46-3.916v3.02h2.946c.732 0 1.287-.129 1.665-.385.379-.256.568-.634.568-1.134 0-.5-.19-.876-.568-1.126-.378-.25-.933-.375-1.665-.375h-2.946zm3.458 8.345c.781 0 1.37-.129 1.766-.385.397-.256.595-.652.595-1.19 0-1.06-.787-1.591-2.36-1.591h-3.46v3.166h3.46zM97.1 22.22v12.81h-2.964V24.597h-2.562V22.22H97.1zm7.174 0v12.81h-2.965V24.597h-2.562V22.22h5.527zm7.722 13.029c-1.061 0-2.007-.263-2.836-.787-.83-.525-1.48-1.284-1.95-2.278-.469-.995-.704-2.181-.704-3.56 0-1.378.235-2.565.705-3.559.47-.994 1.119-1.754 1.949-2.278.83-.525 1.775-.787 2.836-.787s2.007.262 2.836.787c.83.524 1.48 1.284 1.95 2.278.469.994.704 2.18.704 3.56 0 1.378-.235 2.564-.705 3.559-.47.994-1.12 1.753-1.949 2.278-.83.524-1.775.787-2.836.787zm0-2.507c.78 0 1.394-.336 1.839-1.007.445-.67.668-1.708.668-3.11 0-1.404-.223-2.44-.668-3.112-.445-.67-1.058-1.006-1.84-1.006-.768 0-1.375.335-1.82 1.006-.445.671-.668 1.708-.668 3.111 0 1.403.223 2.44.668 3.111.445.671 1.052 1.007 1.82 1.007z"/>
            <g fill-rule="nonzero">
                <path fill="url(#b)" d="M13.768 114.771l-.002-.03a11.273 11.273 0 0 0 .185 1.055c.116.517.269 1.064.494 1.688-.282-.783-.5-1.573-.654-2.365a13.958 13.958 0 0 0-.023-.348zm.825 2.356zm8.675-20.906c7.705-3.027 16.161 1.455 18.887 10.01.647 2.031.845 3.527.99 5.636.074 1.057.12 2.283.147 3.736.169 9.074-6.32 16.58-14.49 16.767-8.172.187-14.933-7.016-15.102-16.09a57.262 57.262 0 0 0-.046-1.546c-1.327-7.826 2.641-15.775 9.614-18.513z" transform="rotate(-96 148.42 104.396)"/>
                <path fill="url(#c)" d="M14.402 87.825zm12.28-19.265c8.69-1.97 17.355 3.377 19.353 11.941.54 2.317.661 4.703.729 9.655.119 8.787-7.012 16.006-15.928 16.123-8.915.118-16.24-6.91-16.36-15.697a104.942 104.942 0 0 0-.096-3.612 26.66 26.66 0 0 0-.022-.39c-1.34-8.2 3.991-16.131 12.325-18.02z" transform="rotate(-96 150.53 77.788)"/>
                <path fill="url(#d)" d="M29.24 37.103c9.383-1.243 18.05 4.981 19.358 13.903.327 2.228.445 5.945.503 12.777.077 9.008-7.54 16.37-17.014 16.443-9.474.073-17.217-7.17-17.294-16.178a305.469 305.469 0 0 0-.115-6.731c-.024-.75-.05-1.348-.076-1.776a16.69 16.69 0 0 0-.02-.28c-1.15-8.827 5.361-16.926 14.658-18.158z" transform="rotate(-111 140.233 64.289)"/>
                <path fill="url(#d)" d="M25.067 6.006c9.357-1.454 18.146 4.8 19.63 13.971.37 2.287.49 5.7.55 12.133.088 9.285-7.521 16.881-16.995 16.967-9.474.086-17.225-7.372-17.312-16.656a247.376 247.376 0 0 0-.113-6.001 50.046 50.046 0 0 0-.077-1.586c-1.232-9.016 5.1-17.396 14.317-18.828z" transform="rotate(-124 127.9 44.185)"/>
            </g>
            <rect width="86" height="8" x="55.389" y="135" fill="#DBE5E6" rx="4"/>
            <rect width="86" height="8" x="55.389" y="167" fill="#DBE5E6" rx="4"/>
            <rect width="78" height="8" x="55.389" y="151" fill="#DBE5E6" rx="4"/>
            <rect width="73" height="8" x="55.389" y="183" fill="#DBE5E6" rx="4"/>
            <rect width="92" height="20" x="53.5" y="207" fill="#EF6100" rx="10"/>
            <circle cx="98.389" cy="89" r="32" fill="#DBE5E6"/>
            <g transform="translate(79 62)">
                <path fill="#8D5A2E" d="M14.537 48.987c-.094 3.355-.315 6.011-.664 7.967-.522 2.933 11.66 2.933 11.109 0-.367-1.956-.581-4.612-.643-7.967h-9.802z"/>
                <path fill="#68401C" d="M13.857 51.526c1.36 2.261 3.16 3.391 5.399 3.391 2.24 0 3.868-1.093 4.887-3.279l-.1-1.804c-1.47.183-3.066.274-4.787.274H13.96l-.103 1.418z"/>
                <path fill="url(#e)" d="M19.45 7.473c8.942 0 16.585 5.283 14.854 18.908a78.63 78.63 0 0 1-.198 1.457c2.16.578 3.09 2.008 2.79 4.29-.306 2.308-1.816 3.674-4.53 4.098-2.557 9.21-6.948 16.15-12.917 16.15-5.983 0-11.308-6.875-13.88-16.145-2.736-.418-4.257-1.786-4.563-4.104-.314-2.38.712-3.834 3.08-4.36-.037-.46-.067-.922-.09-1.386-.686-13.804 6.51-18.908 15.453-18.908z"/>
                <ellipse cx="13.857" cy="30.542" fill="#1E1E1E" rx="1.714" ry="2.542" transform="matrix(-1 0 0 1 27.714 0)"/>
                <ellipse cx="25.857" cy="30.542" fill="#1E1E1E" rx="1.714" ry="2.542" transform="matrix(-1 0 0 1 51.714 0)"/>
                <path fill="#DAC0A5" d="M25 40.637c-3.334 1.41-6.762 1.37-10.286-.122.849 3.25 2.5 5.352 5.793 5.055 2.195-.198 3.693-1.842 4.493-4.933z"/>
                <path fill="#68401C" d="M19.123 28.654c2.864 4.808 3.867 7.68 3.009 8.617-.858.936-2.473.936-4.846 0 1.614.267 2.765-.136 3.454-1.21.688-1.074.149-3.543-1.617-7.407z"/>
                <path fill="#1E1E1E" d="M18.889 0c3.286 0 6.079 1.69 7.092 4.045.297-.03.6-.045.908-.045 4.142 0 7.5 2.686 7.5 6 0 .125-.005.25-.015.374 1.603 1.81 2.387 4.462 2.596 6.805.215 2.401-.74 6.277-2.864 11.627-.257-5.816-1.502-9.419-3.734-10.807-3.348-2.082-7.443.242-11.021-.105-.3-.028-.532-.089-.705-.177-3.447-.592-7.636-1.453-10.807.507-2.248 1.389-3.513 4.896-3.795 10.52C2.014 24.272 1 20.407 1 17.15c0-3.914.973-6.672 3.39-8.069L4.39 9c0-3.314 3.358-6 7.5-6 .166 0 .33.004.494.013C13.677 1.213 16.106 0 18.89 0z"/>
                <path stroke="#1E1E1E" stroke-width="1.5" d="M10.389 24.417c1.838-.948 3.838-1.1 6-.456M29.286 24.349c-1.518-.714-3.518-.89-6-.527"/>
            </g>
        </g>
        <path fill="#434D66" d="M116 106h110c8.837 0 16 7.163 16 16v227c0 8.837-7.163 16-16 16H116c-8.837 0-16-7.163-16-16V122c0-8.837 7.163-16 16-16z"/>
        <path fill="#FFF" d="M108.021 122.012L234 122l-.021 226.988L108 349z"/>
        <path fill="#58C94F" d="M171 186l39-38h-78z"/>
        <path fill="#58C94F" d="M154 73h34v94h-34z"/>
        <path fill="#EF6100" d="M148 196h46c8.837 0 16 7.163 16 16v46c0 8.837-7.163 16-16 16h-46c-8.837 0-16-7.163-16-16v-46c0-8.837 7.163-16 16-16z"/>
        <path fill="#FFF" fill-rule="nonzero" d="M158.453 234.171c.97.298 1.728.795 2.278 1.491.549.697.823 1.554.823 2.571 0 1.44-.577 2.548-1.732 3.323-1.155.775-2.839 1.162-5.051 1.162H146v-16.436h8.286c2.067 0 3.654.383 4.76 1.15 1.107.767 1.66 1.808 1.66 3.123 0 .799-.197 1.51-.593 2.137-.396.626-.95 1.12-1.66 1.48zm-8.552-5.025v3.875h3.9c.97 0 1.704-.165 2.205-.493.5-.33.751-.814.751-1.456s-.25-1.123-.75-1.444c-.502-.321-1.236-.482-2.206-.482h-3.9zm4.579 10.708c1.034 0 1.813-.165 2.338-.494.525-.328.787-.837.787-1.526 0-1.362-1.042-2.043-3.125-2.043h-4.58v4.063h4.58zm15.53-13.572v16.436h-3.925v-13.384h-3.392v-3.052h7.317zm9.497 0v16.436h-3.925v-13.384h-3.392v-3.052h7.317zM189.732 243c-1.406 0-2.657-.337-3.756-1.01-1.098-.673-1.958-1.647-2.58-2.923-.622-1.276-.933-2.798-.933-4.567 0-1.769.311-3.291.933-4.567.622-1.276 1.482-2.25 2.58-2.923 1.099-.673 2.35-1.01 3.756-1.01 1.405 0 2.657.337 3.755 1.01 1.098.673 1.958 1.647 2.58 2.923.622 1.276.933 2.798.933 4.567 0 1.769-.31 3.291-.933 4.567-.622 1.276-1.482 2.25-2.58 2.923s-2.35 1.01-3.755 1.01zm0-3.217c1.033 0 1.845-.43 2.435-1.291.59-.861.884-2.192.884-3.992 0-1.8-.295-3.13-.884-3.992-.59-.86-1.402-1.291-2.435-1.291-1.018 0-1.822.43-2.411 1.291-.59.861-.884 2.192-.884 3.992 0 1.8.294 3.13.884 3.992.59.86 1.393 1.291 2.41 1.291z"/>
    </g>
</svg>
