<svg width="22" height="36" viewBox="0 0 22 36" fill="none" xmlns="http://www.w3.org/2000/svg">
<path fill-rule="evenodd" clip-rule="evenodd" d="M0.984015 20.892C0.334009 20.8565 -0.0858074 20.1738 0.166418 19.5624L7.67486 1.36343C7.8212 1.00872 8.16184 0.778413 8.53948 0.778858L17.9318 0.789921C18.6062 0.790716 19.0615 1.49464 18.7963 2.12636L13.7323 14.1877L20.7426 14.196C21.5602 14.1969 21.9884 15.1892 21.4359 15.8025L3.56019 35.6468C2.87507 36.4073 1.65572 35.6717 1.97749 34.6919L6.41217 21.1885L0.984015 20.892ZM9.16679 2.69385L2.4175 19.0517L7.7451 19.3427C8.36568 19.3766 8.78484 20.0047 8.58762 20.6052L5.16172 31.0362L18.6097 16.1083L12.3119 16.1009C11.6375 16.1001 11.1821 15.3961 11.4474 14.7644L16.512 2.7025L9.16679 2.69385Z" fill="white"/>
</svg>
