<?xml version="1.0" encoding="UTF-8"?>
<svg width="296px" height="261px" viewBox="0 0 296 261" version="1.1" xmlns="http://www.w3.org/2000/svg" xmlns:xlink="http://www.w3.org/1999/xlink">
    <!-- Generator: Sketch 52.5 (67469) - http://www.bohemiancoding.com/sketch -->
    <title>Group 5</title>
    <desc>Created with Sketch.</desc>
    <defs>
        <linearGradient x1="3.52476115%" y1="6.69503111%" x2="39.2987658%" y2="94.476757%" id="linearGradient-1">
            <stop stop-color="#C39A6B" offset="0%"></stop>
            <stop stop-color="#824F25" offset="100%"></stop>
        </linearGradient>
        <linearGradient x1="100%" y1="20.424643%" x2="0.337837838%" y2="62.128628%" id="linearGradient-2">
            <stop stop-color="#9E6F39" offset="0%"></stop>
            <stop stop-color="#824F25" offset="100%"></stop>
        </linearGradient>
        <linearGradient x1="100%" y1="20.424643%" x2="0%" y2="62.2699975%" id="linearGradient-3">
            <stop stop-color="#9E6F39" offset="0%"></stop>
            <stop stop-color="#824F25" offset="99.6621622%"></stop>
        </linearGradient>
        <linearGradient x1="8.84569405%" y1="36.6044973%" x2="50%" y2="100%" id="linearGradient-4">
            <stop stop-color="#C39A6B" offset="0%"></stop>
            <stop stop-color="#A87544" offset="48.540435%"></stop>
            <stop stop-color="#824F25" offset="100%"></stop>
        </linearGradient>
        <path d="M0,187 L65,187 C88.7482442,187 108,206.251756 108,230 L0,230 L0,187 Z" id="path-5"></path>
        <filter x="-3.7%" y="-27.9%" width="114.8%" height="137.2%" filterUnits="objectBoundingBox" id="filter-6">
            <feOffset dx="4" dy="-4" in="SourceAlpha" result="shadowOffsetOuter1"></feOffset>
            <feGaussianBlur stdDeviation="2" in="shadowOffsetOuter1" result="shadowBlurOuter1"></feGaussianBlur>
            <feColorMatrix values="0 0 0 0 0   0 0 0 0 0   0 0 0 0 0  0 0 0 0.0376966783 0" type="matrix" in="shadowBlurOuter1"></feColorMatrix>
        </filter>
        <linearGradient x1="0%" y1="100%" x2="100%" y2="-6.3906342%" id="linearGradient-7">
            <stop stop-color="#F7D189" offset="0%"></stop>
            <stop stop-color="#E8AA52" offset="37.8201275%"></stop>
            <stop stop-color="#FBE7A9" offset="100%"></stop>
        </linearGradient>
    </defs>
    <g id="User---User-statuses" stroke="none" stroke-width="1" fill="none" fill-rule="evenodd">
        <g id="Promo---User---Statuses---320" transform="translate(-12.000000, -410.000000)">
            <g id="Group-5" transform="translate(12.000000, 410.000000)">
                <rect id="Rectangle-Copy-8" fill="#F1F6F9" x="0" y="0" width="296" height="229" rx="8"></rect>
                <g id="Img/Statuses/Bronze-Copy-3" transform="translate(48.000000, 35.000000)">
                    <g id="Group-4" transform="translate(0.051948, 0.046122)">
                        <path d="M135.771012,139.10716 C117.742668,156.158095 101.151255,169.835333 85.9967726,180.138873 C101.686098,186.798596 114.940315,192.424677 127.247386,197.648719 C134.499378,192.212035 145.915572,181.481272 161.495968,165.456428 L135.771012,139.10716 Z" id="Path-3" fill="#EF6100" transform="translate(123.746370, 168.377939) rotate(-23.000000) translate(-123.746370, -168.377939) "></path>
                        <g id="Group" transform="translate(121.571429, 15.842767)">
                            <path d="M6.95036548,90.985599 C8.15453957,78.4008271 6.5762328,68.6913538 2.45073171,61.7021773 C0.400484083,58.2287707 -0.573841271,54.3688424 2.33227164,52.0620716 C5.23838456,49.7553008 12.7750569,53.6625355 14.8253045,57.1359421 C19.5402116,65.1236551 21.2026527,73.3813896 20.8090843,83.643215 C34.7002517,84.0883377 52.356031,97.7132326 55.4739138,104.428411 C59.811004,113.769471 57.5482364,120.775573 53.0251157,127.394762 C48.5019951,134.01395 27.6812516,144.802632 12.7419352,134.815531 C-2.02633878,124.942774 -3.95711158,108.736586 6.95036548,90.985599 Z" id="Combined-Shape-Copy-57" fill="url(#linearGradient-1)"></path>
                            <path d="M20.6623377,0 L73.5194805,0 C77.7656178,-7.79295643e-16 81.2077922,3.43905383 81.2077922,7.68134172 L81.2077922,116.660377 C81.2077922,120.902665 77.7656178,124.341719 73.5194805,124.341719 L20.6623377,124.341719 C16.4162004,124.341719 12.974026,120.902665 12.974026,116.660377 L12.974026,7.68134172 C12.974026,3.43905383 16.4162004,7.79295643e-16 20.6623377,0 Z" id="Rectangle" fill="#434D66"></path>
                            <polygon id="Rectangle-Copy-6" fill="#FFFFFF" points="16.8284988 7.6873074 77.8440183 7.68148055 77.8338388 116.654412 16.8183194 116.660239"></polygon>
                            <rect id="Rectangle" fill="#EF6100" x="16.8181818" y="7.68134172" width="61.025974" height="12.4821803"></rect>
                            <path d="M42.4642591,13.6190918 C42.8159874,13.7303715 43.0915038,13.9163229 43.2908165,14.1769516 C43.4901292,14.4375803 43.5897841,14.7582366 43.5897841,15.1389302 C43.5897841,15.677758 43.3802157,16.0921221 42.9610728,16.3820349 C42.5419299,16.6719477 41.9308111,16.8169019 41.1276981,16.8169019 L37.9445727,16.8169019 L37.9445727,10.6672672 L40.9518348,10.6672672 C41.7021886,10.6672672 42.2781351,10.8107572 42.6796916,11.0977416 C43.0812481,11.384726 43.2820233,11.774199 43.2820233,12.2661722 C43.2820233,12.5648702 43.2102132,12.8313518 43.0665908,13.0656247 C42.9229684,13.2998977 42.7221932,13.4843849 42.4642591,13.6190918 Z M39.3602721,11.7390607 L39.3602721,13.1886174 L40.7759716,13.1886174 C41.1276999,13.1886174 41.3944232,13.1271217 41.5761495,13.0041284 C41.7578758,12.8811351 41.8487376,12.6995762 41.8487376,12.4594464 C41.8487376,12.2193166 41.7578758,12.039222 41.5761495,11.9191571 C41.3944232,11.7990922 41.1276999,11.7390607 40.7759716,11.7390607 L39.3602721,11.7390607 Z M41.0221802,15.7451084 C41.397357,15.7451084 41.680201,15.6836127 41.8707205,15.5606194 C42.06124,15.4376261 42.1564983,15.2472821 42.1564983,14.9895819 C42.1564983,14.4800382 41.778396,14.2252701 41.0221802,14.2252701 L39.3602721,14.2252701 L39.3602721,15.7451084 L41.0221802,15.7451084 Z M46.6585983,10.6672672 L46.6585983,16.8169019 L45.2341057,16.8169019 L45.2341057,11.8093422 L44.0030628,11.8093422 L44.0030628,10.6672672 L46.6585983,10.6672672 Z M50.1055186,10.6672672 L50.1055186,16.8169019 L48.6810261,16.8169019 L48.6810261,11.8093422 L47.4499831,11.8093422 L47.4499831,10.6672672 L50.1055186,10.6672672 Z M53.8162339,16.9223242 C53.3062278,16.9223242 52.8519189,16.7964044 52.4532935,16.5445609 C52.054668,16.2927175 51.7425138,15.9281357 51.5168215,15.4508045 C51.2911291,14.9734733 51.1782847,14.4039057 51.1782847,13.7420845 C51.1782847,13.0802634 51.2911291,12.5106958 51.5168215,12.0333646 C51.7425138,11.5560334 52.054668,11.1914516 52.4532935,10.9396081 C52.8519189,10.6877647 53.3062278,10.5618449 53.8162339,10.5618449 C54.32624,10.5618449 54.7805489,10.6877647 55.1791743,10.9396081 C55.5777998,11.1914516 55.889954,11.5560334 56.1156463,12.0333646 C56.3413386,12.5106958 56.4541831,13.0802634 56.4541831,13.7420845 C56.4541831,14.4039057 56.3413386,14.9734733 56.1156463,15.4508045 C55.889954,15.9281357 55.5777998,16.2927175 55.1791743,16.5445609 C54.7805489,16.7964044 54.32624,16.9223242 53.8162339,16.9223242 Z M53.8162339,15.7187529 C54.1914108,15.7187529 54.4859788,15.5576926 54.6999469,15.2355673 C54.9139149,14.9134419 55.0208974,14.4156193 55.0208974,13.7420845 C55.0208974,13.0685498 54.9139149,12.5707272 54.6999469,12.2486018 C54.4859788,11.9264765 54.1914108,11.7654162 53.8162339,11.7654162 C53.4469191,11.7654162 53.1552821,11.9264765 52.9413141,12.2486018 C52.727346,12.5707272 52.6203636,13.0685498 52.6203636,13.7420845 C52.6203636,14.4156193 52.727346,14.9134419 52.9413141,15.2355673 C53.1552821,15.5576926 53.4469191,15.7187529 53.8162339,15.7187529 Z" id="B110" fill="#FFFFFF" fill-rule="nonzero"></path>
                            <g id="Group-2-Copy-9" transform="translate(68.233766, 52.329140)" fill-rule="nonzero">
                                <path d="M6.61581981,55.0997461 C6.61464543,55.0850588 6.61414347,55.0796739 6.61475657,55.0852935 C6.61827598,55.1175516 6.62379057,55.160472 6.63252444,55.217683 C6.64910698,55.3263064 6.6714468,55.4479422 6.70375075,55.591611 C6.75963461,55.8401492 6.83300655,56.1026658 6.94097619,56.4024016 C6.80546184,56.0264006 6.70108573,55.6468335 6.62665805,55.2666687 C6.62310062,55.2010878 6.61945931,55.1452634 6.61581981,55.0997461 Z M7.01200961,56.2310161 C7.00453959,56.2100215 6.99714117,56.1890191 6.98981423,56.168009 C6.99698681,56.1885779 7.00443422,56.2097254 7.01200961,56.2310161 Z M11.1806135,46.193999 C14.8831891,44.7409988 18.9465169,46.8928139 20.2563102,51.0002125 C20.5671758,51.97506 20.6622057,52.6928629 20.7324158,53.7053885 C20.767611,54.2129509 20.789766,54.8014097 20.8027325,55.4993047 C20.8836633,59.8552056 17.766144,63.4591416 13.8395584,63.5489209 C9.91297274,63.6387003 6.6642388,60.1803255 6.58330805,55.8244246 C6.57749873,55.511752 6.56963675,55.2604992 6.56123337,55.0818638 C5.92332046,51.3246034 7.83027182,47.5087722 11.1806135,46.193999 Z" id="Path-21-Copy-4" fill="url(#linearGradient-2)" transform="translate(13.621659, 54.645425) rotate(-96.000000) translate(-13.621659, -54.645425) "></path>
                                <path d="M6.92053939,42.1631844 C6.91818051,42.1529849 6.91583754,42.1427855 6.91351047,42.1325862 C6.91578338,42.1425455 6.91814331,42.1528241 6.92053939,42.1631844 Z M12.8214926,32.9145277 C16.9971007,31.9691045 21.1604423,34.5358225 22.1205765,38.6474527 C22.3802927,39.7596483 22.4384559,40.9050886 22.4707995,43.2823228 C22.5281954,47.5008692 19.1017034,50.9664924 14.8175154,51.0230088 C10.5333275,51.0795252 7.01377846,47.7055333 6.95638262,43.4869869 C6.94614255,42.7343497 6.93003782,42.1502112 6.90985823,41.752803 C6.90604793,41.6777646 6.90235941,41.6148097 6.89913601,41.5658078 C6.2555555,37.628724 8.81704097,33.8211983 12.8214926,32.9145277 Z" id="Path-21-Copy-3" fill="url(#linearGradient-3)" transform="translate(14.635930, 41.871137) rotate(-96.000000) translate(-14.635930, -41.871137) "></path>
                                <path d="M14.0502836,17.8125234 C18.5592923,17.2156233 22.7239534,20.2040003 23.3523145,24.4872502 C23.5092,25.5566667 23.5661341,27.3414219 23.5941694,30.6213876 C23.6311327,34.9458861 19.9706227,38.4800492 15.4181914,38.5151619 C10.86576,38.5502745 7.14532058,35.0730403 7.10835723,30.7485418 C7.09669624,29.3842734 7.07797279,28.303262 7.05288803,27.5169113 C7.04140348,27.1568965 7.02890916,26.8698485 7.01640075,26.6644737 C7.01292912,26.6074733 7.00976862,26.5619465 7.00723198,26.5296794 C6.45388295,22.2924432 9.58311096,18.4038852 14.0502836,17.8125234 Z" id="Path-21-Copy-2" fill="url(#linearGradient-3)" transform="translate(15.269143, 28.126020) rotate(-111.000000) translate(-15.269143, -28.126020) "></path>
                                <path d="M12.0452563,2.88330701 C16.5416004,2.18514215 20.7646271,5.18821779 21.4776504,9.59086418 C21.6553982,10.6883886 21.7131195,12.3274256 21.7422581,15.4154405 C21.784319,19.8729098 18.1280203,23.5197892 13.5756864,23.5609736 C9.02335259,23.602158 5.2988598,20.0220516 5.25679895,15.5645822 C5.24527178,14.34297 5.22682455,13.378205 5.20236459,12.6836477 C5.19150288,12.3752221 5.17988887,12.1335259 5.16880838,11.9687286 C5.16760457,11.9508247 5.16650521,11.9352719 5.16555122,11.9222811 C4.57375638,7.59387949 7.61599372,3.57105586 12.0452563,2.88330701 Z" id="Path-21-Copy" fill="url(#linearGradient-3)" transform="translate(13.417314, 13.171920) rotate(-124.000000) translate(-13.417314, -13.171920) "></path>
                            </g>
                            <rect id="Rectangle" fill="#DBE5E6" x="26.6153924" y="64.8113208" width="41.3246753" height="3.84067086" rx="1.92033543"></rect>
                            <rect id="Rectangle-Copy-7" fill="#DBE5E6" x="26.6153924" y="80.1740042" width="41.3246753" height="3.84067086" rx="1.92033543"></rect>
                            <rect id="Rectangle-Copy-5" fill="#DBE5E6" x="26.6153924" y="72.4926625" width="37.4805195" height="3.84067086" rx="1.92033543"></rect>
                            <rect id="Rectangle-Copy-8" fill="#DBE5E6" x="26.6153924" y="87.8553459" width="35.0779221" height="3.84067086" rx="1.92033543"></rect>
                            <rect id="Rectangle-Copy-9" fill="#EF6100" x="25.7077922" y="99.3773585" width="44.2077922" height="9.60167715" rx="4.80083857"></rect>
                            <ellipse id="Oval" fill="#DBE5E6" cx="47.2777301" cy="42.7274633" rx="15.3766234" ry="15.3626834"></ellipse>
                            <g id="Group-2" transform="translate(37.961039, 29.765199)">
                                <path d="M6.98541074,23.5178352 C6.94009087,25.1287651 6.83377883,26.4036505 6.66647463,27.3424915 C6.41551832,28.7507531 12.2687919,28.7507531 12.004282,27.3424915 C11.8279422,26.4036505 11.7249833,25.1287651 11.6954055,23.5178352 L6.98541074,23.5178352 Z" id="Path-7-Copy-6" fill="#8D5A2E"></path>
                                <path d="M6.65862709,24.736991 C7.31198747,25.8223298 8.17671438,26.3649991 9.25280781,26.3649991 C10.3289012,26.3649991 11.1116697,25.8402604 11.6011132,24.7907828 L11.5530026,23.9245729 C10.8465161,24.0121866 10.0797845,24.0559935 9.25280781,24.0559935 C8.42583114,24.0559935 7.57760158,24.0559935 6.70811912,24.0559935 L6.65862709,24.736991 Z" id="Path-10-Copy-2" fill="#68401C"></path>
                                <path d="M15.5515191,17.3916465 C14.3236593,21.8128608 12.2135952,25.144786 9.34569444,25.144786 C6.47048719,25.144786 3.91191851,21.8442993 2.67629084,17.3940257 C1.36150217,17.1935031 0.630540126,16.5367574 0.483404699,15.4237888 C0.332323353,14.2809722 0.825593779,13.5831632 1.96321598,13.3303618 C1.94559729,13.1095766 1.93120703,12.8877243 1.92013541,12.6649977 C1.59071597,6.03810116 5.04827925,3.58768724 9.34569444,3.58768724 C13.6431096,3.58768724 17.3153007,6.12399728 16.4839415,12.6649977 C16.4542024,12.8989804 16.4223561,13.1321925 16.3884163,13.3643897 C17.4268859,13.6422676 17.8737371,14.328734 17.7289699,15.4237888 C17.5824112,16.5323945 16.8565943,17.1883471 15.5515191,17.3916465 Z" id="Combined-Shape-Copy-2" fill="url(#linearGradient-4)"></path>
                                <ellipse id="Oval-Copy-14" fill="#1E1E1E" transform="translate(6.658627, 14.662561) scale(-1, 1) translate(-6.658627, -14.662561) " cx="6.65862709" cy="14.6625611" rx="1" ry="1.22021314"></ellipse>
                                <ellipse id="Oval-Copy-15" fill="#1E1E1E" transform="translate(12.424861, 14.662561) scale(-1, 1) translate(-12.424861, -14.662561) " cx="12.4248609" cy="14.6625611" rx="1" ry="1.22021314"></ellipse>
                                <path d="M7.07050093,19.5091515 C8.672486,20.18649 10.3199814,20.1669255 12.012987,19.450458 C11.6053489,21.010858 10.8119227,22.0201189 9.2294739,21.8774934 C8.17450803,21.7824097 7.45485037,20.9929624 7.07050093,19.5091515 Z" id="Path-14-Copy-3" fill="#DAC0A5" transform="translate(9.541744, 20.670671) scale(-1, 1) translate(-9.541744, -20.670671) "></path>
                                <path d="M9.8946461,13.7561301 C8.51843638,16.0645932 8.0364311,17.4435848 8.44863025,17.8931049 C8.8608294,18.3426249 9.63707448,18.3426249 10.7773655,17.8931049 C10.0016182,18.0215575 9.44837347,17.8279417 9.11763139,17.3122574 C8.78688931,16.796573 9.04589422,15.6111973 9.8946461,13.7561301 Z" id="Path-17-Copy-3" fill="#68401C" transform="translate(9.541744, 15.993187) scale(-1, 1) translate(-9.541744, -15.993187) "></path>
                                <path d="M16.5176497,4.97968882 C17.2874557,5.84915194 17.6642193,7.12247187 17.7649886,8.24734484 C17.8682647,9.40020118 17.4094713,11.2609116 16.3886082,13.8294762 C16.2650785,11.0369662 15.6670022,9.30754715 14.5943793,8.64121909 C12.985445,7.64172701 11.0176303,8.75724368 9.29831907,8.5908439 C9.15417728,8.57689345 9.04199102,8.54774112 8.95872937,8.50525088 C7.30211548,8.22116842 5.28980617,7.80849576 3.76666019,8.74896695 C2.68652352,9.41590068 2.07868192,11.0994535 1.94313541,13.7996254 C0.968058123,11.6525886 0.480519481,9.79712508 0.480519481,8.23323494 C0.480519481,6.35455018 0.947982942,5.03063741 2.1092266,4.36000056 C2.10900839,4.34693941 2.10889893,4.33385728 2.10889893,4.32075472 C2.10889893,2.72989676 3.72241818,1.44025157 5.71279504,1.44025157 C5.79257289,1.44025157 5.8717453,1.44232345 5.95023265,1.44640356 C6.57226033,0.582027701 7.73930636,-1.24344979e-14 9.0764314,-1.24344979e-14 C10.6553376,-1.24344979e-14 11.9970959,0.811544406 12.4843812,1.94122083 C12.627373,1.92743171 12.7729433,1.92033543 12.9205872,1.92033543 C14.9109641,1.92033543 16.5244833,3.20998062 16.5244833,4.80083857 C16.5244833,4.86090243 16.5221833,4.92053691 16.5176497,4.97968882 Z" id="Combined-Shape-Copy-3" fill="#1E1E1E"></path>
                                <path d="M4.99201582,11.7224415 C5.87517068,11.2671051 6.83620964,11.1940751 7.8751327,11.5033515" id="Path-16-Copy-6" stroke="#1E1E1E" stroke-width="1.5"></path>
                                <path d="M11.1892393,11.6894052 C11.9185112,11.346968 12.8795502,11.2626947 14.0723562,11.4365852" id="Path-16-Copy-7" stroke="#1E1E1E" stroke-width="1.5" transform="translate(12.630798, 11.519073) scale(-1, 1) translate(-12.630798, -11.519073) "></path>
                            </g>
                        </g>
                        <path d="M7.68831169,15.8427673 L60.5454545,15.8427673 C64.7915918,15.8427673 68.2337662,19.2818211 68.2337662,23.524109 L68.2337662,132.503145 C68.2337662,136.745433 64.7915918,140.184486 60.5454545,140.184486 L7.68831169,140.184486 C3.44217439,140.184486 0,136.745433 0,132.503145 L0,23.524109 C0,19.2818211 3.44217439,15.8427673 7.68831169,15.8427673 Z" id="Rectangle" fill="#434D66"></path>
                        <polygon id="Rectangle-Copy-6" fill="#FFFFFF" points="3.85439164 23.5300747 64.3894739 23.5242478 64.3793746 132.497179 3.84429235 132.503006"></polygon>
                        <polygon id="Triangle-Copy-4" fill="#58C94F" transform="translate(34.116883, 45.127883) scale(1, -1) translate(-34.116883, -45.127883) " points="34.1168831 36.0062893 52.8571429 54.2494759 15.3766234 54.2494759"></polygon>
                        <rect id="Rectangle" fill="#58C94F" x="25.9480519" y="0" width="16.3376623" height="45.1278826"></rect>
                        <g id="Group-3" transform="translate(15.376623, 59.050314)"></g>
                        <path d="M23.0649351,59.0503145 L45.1688312,59.0503145 C49.4149685,59.0503145 52.8571429,62.4893683 52.8571429,66.7316562 L52.8571429,88.8155136 C52.8571429,93.0578015 49.4149685,96.4968553 45.1688312,96.4968553 L23.0649351,96.4968553 C18.8187978,96.4968553 15.3766234,93.0578015 15.3766234,88.8155136 L15.3766234,66.7316562 C15.3766234,62.4893683 18.8187978,59.0503145 23.0649351,59.0503145 Z" id="Rectangle" fill="#EF6100"></path>
                        <path d="M28.0879045,77.3757254 C28.5535884,77.5185134 28.9183687,77.7571163 29.1822562,78.091541 C29.4461438,78.4259657 29.5780856,78.8374147 29.5780856,79.3259003 C29.5780856,80.0172952 29.3006197,80.548985 28.7456797,80.9209855 C28.1907397,81.292986 27.3816261,81.4789835 26.3183145,81.4789835 L22.1038961,81.4789835 L22.1038961,73.5881024 L26.0854737,73.5881024 C27.0789327,73.5881024 27.8414787,73.7722212 28.3731345,74.1404641 C28.9047903,74.5087071 29.1706142,75.0084579 29.1706142,75.6397315 C29.1706142,76.0230048 29.0755385,76.3649396 28.8853842,76.6655461 C28.6952299,76.9661526 28.429406,77.2028766 28.0879045,77.3757254 Z M23.9782645,74.9633703 L23.9782645,76.8233637 L25.8526329,76.8233637 C26.3183168,76.8233637 26.6714551,76.7444557 26.9120585,76.5866372 C27.1526618,76.4288188 27.2729617,76.1958523 27.2729617,75.8877306 C27.2729617,75.579609 27.1526618,75.3485212 26.9120585,75.1944604 C26.6714551,75.0403995 26.3183168,74.9633703 25.8526329,74.9633703 L23.9782645,74.9633703 Z M26.17861,80.1037157 C26.6753395,80.1037157 27.0498214,80.0248077 27.3020668,79.8669892 C27.5543123,79.7091708 27.6804331,79.4649317 27.6804331,79.1342646 C27.6804331,78.4804454 27.1798304,78.1535408 26.17861,78.1535408 L23.9782645,78.1535408 L23.9782645,80.1037157 L26.17861,80.1037157 Z M33.6411574,73.5881024 L33.6411574,81.4789835 L31.755147,81.4789835 L31.755147,75.0535518 L30.1252614,75.0535518 L30.1252614,73.5881024 L33.6411574,73.5881024 Z M38.204837,73.5881024 L38.204837,81.4789835 L36.3188265,81.4789835 L36.3188265,75.0535518 L34.688941,75.0535518 L34.688941,73.5881024 L38.204837,73.5881024 Z M43.1177777,81.6142558 C42.442536,81.6142558 41.8410367,81.4526822 41.3132616,81.1295302 C40.7854865,80.8063782 40.3721982,80.3385664 40.0733843,79.7260806 C39.7745705,79.1135949 39.6251658,78.3827563 39.6251658,77.533543 C39.6251658,76.6843296 39.7745705,75.953491 40.0733843,75.3410053 C40.3721982,74.7285196 40.7854865,74.2607077 41.3132616,73.9375557 C41.8410367,73.6144038 42.442536,73.4528302 43.1177777,73.4528302 C43.7930194,73.4528302 44.3945188,73.6144038 44.9222939,73.9375557 C45.450069,74.2607077 45.8633572,74.7285196 46.1621711,75.3410053 C46.4609849,75.953491 46.6103896,76.6843296 46.6103896,77.533543 C46.6103896,78.3827563 46.4609849,79.1135949 46.1621711,79.7260806 C45.8633572,80.3385664 45.450069,80.8063782 44.9222939,81.1295302 C44.3945188,81.4526822 43.7930194,81.6142558 43.1177777,81.6142558 Z M43.1177777,80.0698976 C43.6145072,80.0698976 44.0045116,79.8632337 44.2878027,79.4498998 C44.5710937,79.0365659 44.7127371,78.3977867 44.7127371,77.533543 C44.7127371,76.6692993 44.5710937,76.0305201 44.2878027,75.6171861 C44.0045116,75.2038522 43.6145072,74.9971883 43.1177777,74.9971883 C42.6288096,74.9971883 42.2426858,75.2038522 41.9593948,75.6171861 C41.6761037,76.0305201 41.5344603,76.6692993 41.5344603,77.533543 C41.5344603,78.3977867 41.6761037,79.0365659 41.9593948,79.4498998 C42.2426858,79.8632337 42.6288096,80.0698976 43.1177777,80.0698976 Z" id="B110" fill="#FFFFFF" fill-rule="nonzero"></path>
                    </g>
                </g>
                <g id="Rectangle">
                    <use fill="black" fill-opacity="1" filter="url(#filter-6)" xlink:href="#path-5"></use>
                    <use fill="#FFFFFF" fill-rule="evenodd" xlink:href="#path-5"></use>
                </g>
                <g id="Status/Bronze" transform="translate(0.000000, 199.000000)">
                    <g id="Group-2" transform="translate(20.719424, 15.155556)">
                        <path d="M5.52517986,0 L49.0359712,0 C52.0874438,-5.59119101e-16 54.5611511,2.46740849 54.5611511,5.51111111 L54.5611511,33.4111111 C54.5611511,36.4548137 52.0874438,38.9222222 49.0359712,38.9222222 L5.52517986,38.9222222 C2.47370728,38.9222222 3.73697612e-16,36.4548137 0,33.4111111 L0,5.51111111 C-3.73697612e-16,2.46740849 2.47370728,5.59119101e-16 5.52517986,0 Z" id="Rectangle-Copy-17" fill="url(#linearGradient-7)" fill-rule="nonzero"></path>
                        <rect id="Rectangle-Copy-4" fill="#D5881B" x="0" y="5.51111111" width="54.5611511" height="6.54444444"></rect>
                        <rect id="Rectangle-Copy-5" fill="#DB9023" x="6.21582734" y="15.1555556" width="8.28776978" height="8.61111111" rx="4"></rect>
                        <rect id="Rectangle" fill="#DB9023" x="6.21582734" y="29.9666667" width="8.28776978" height="3.44444444" rx="1.72222222"></rect>
                        <rect id="Rectangle-Copy" fill="#DB9023" x="17.2661871" y="29.9666667" width="8.63309353" height="3.44444444" rx="1.72222222"></rect>
                        <rect id="Rectangle-Copy-2" fill="#DB9023" x="28.6618705" y="29.9666667" width="8.28776978" height="3.44444444" rx="1.72222222"></rect>
                        <rect id="Rectangle-Copy-3" fill="#DB9023" x="39.7122302" y="29.9666667" width="8.28776978" height="3.44444444" rx="1.72222222"></rect>
                    </g>
                    <path d="M6.58033867,11.1851379 C6.58033867,11.1851379 3.38633009,9.61117788 2.61000855,6.52244002 C1.83368702,3.43370217 3.76606178,-2.38176145e-12 3.76606178,-2.38165043e-12 C3.76606178,-2.38176145e-12 6.96017105,1.57482054 7.7363919,4.66269783 C8.51261275,7.75057511 6.58033867,11.1851379 6.58033867,11.1851379 Z M10.3679526,17.5206136 C10.3679526,17.5206136 8.00662379,14.4967448 8.36757962,11.3002537 C8.72833409,8.10204153 11.673217,5.94188174 11.673217,5.94188174 C11.673217,5.94188174 14.0345458,8.9657506 13.6751235,12.1628603 C13.3128355,15.3604538 10.3679526,17.5206136 10.3679526,17.5206136 Z M12.6390455,17.6751481 C13.901208,14.8258483 17.2860066,14.0280002 17.2860066,14.0280002 C17.2860066,14.0280002 18.6278458,17.8479348 17.3655827,20.696374 C16.1055694,23.545311 12.7186216,24.343522 12.7186216,24.343522 C12.7186216,24.343522 11.3767824,20.5235874 12.6390455,17.6751481 Z M14.9264587,25.6495749 C16.8569943,23.4052888 20.283445,23.900088 20.283445,23.900088 C20.283445,23.900088 20.5797021,28.0308101 18.6489651,30.273375 C16.7183288,32.5168005 13.2919788,32.0228618 13.2919788,32.0228618 C13.2919788,32.0228618 12.9958223,27.8930004 14.9264587,25.6495749 Z M15.1979875,34.2021525 C17.4052236,32.3622231 20.7194245,33.5148428 20.7194245,33.5148428 C20.7194245,33.5148428 20.456449,37.6487096 18.2491122,39.4877785 C16.0434096,41.3283266 12.7275746,40.1742276 12.7275746,40.1742276 C12.7275746,40.1742276 12.9906507,36.0412214 15.1979875,34.2021525 Z M13.3602367,42.6220216 C15.9122235,41.6119895 18.815444,43.8475844 18.815444,43.8475844 C18.815444,43.8475844 17.5877657,47.7222057 15.0364953,48.7321169 C12.4852249,49.742028 9.57975456,47.5059354 9.57975456,47.5059354 C9.57975456,47.5059354 10.8091677,43.6336539 13.3602367,42.6220216 Z M10.5343857,50.0081917 C13.221563,50.0600111 15.3520411,53.3211837 15.3520411,53.3211837 C15.3520411,53.3211837 13.1303186,56.4921978 10.4445741,56.4401365 C7.75852749,56.3854935 5.62681798,53.126284 5.62681798,53.126284 C5.62681798,53.126284 7.8485405,49.9552698 10.5343857,50.0081917 Z M5.1774541,56.4006288 C7.60210195,57.0365848 8.65396382,59.2715645 9.19735816,60.5061024 C7.97134145,61.2622617 5.67654219,62.1179862 3.05945014,61.3618269 C0.442358091,60.6056675 1.80689941e-05,57.2982005 1.80689943e-05,57.2982005 C1.80689943e-05,57.2982005 2.37798097,55.6663607 5.1774541,56.4006288 Z" id="Combined-Shape-Copy-5" fill="#F9DF9E" fill-rule="nonzero" transform="translate(10.359712, 30.827778) scale(-1, 1) translate(-10.359712, -30.827778) "></path>
                    <path d="M81.5155905,11.1851379 C81.5155905,11.1851379 78.3215819,9.61117788 77.5452604,6.52244002 C76.7689388,3.43370217 78.7013136,-2.25930386e-12 78.7013136,-2.25930386e-12 C78.7013136,-2.25930386e-12 81.8954228,1.57482054 82.6716437,4.66269783 C83.4478645,7.75057511 81.5155905,11.1851379 81.5155905,11.1851379 Z M85.3032044,17.5206136 C85.3032044,17.5206136 82.9418756,14.4967448 83.3028314,11.3002537 C83.6635859,8.10204153 86.6084688,5.94188174 86.6084688,5.94188174 C86.6084688,5.94188174 88.9697976,8.9657506 88.6103753,12.1628603 C88.2480873,15.3604538 85.3032044,17.5206136 85.3032044,17.5206136 Z M87.5742973,17.6751481 C88.8364598,14.8258483 92.2212584,14.0280002 92.2212584,14.0280002 C92.2212584,14.0280002 93.5630976,17.8479348 92.3008344,20.696374 C91.0408212,23.545311 87.6538734,24.343522 87.6538734,24.343522 C87.6538734,24.343522 86.3120342,20.5235874 87.5742973,17.6751481 Z M89.8617105,25.6495749 C91.7922461,23.4052888 95.2186968,23.900088 95.2186968,23.900088 C95.2186968,23.900088 95.5149539,28.0308101 93.5842169,30.273375 C91.6535806,32.5168005 88.2272306,32.0228618 88.2272306,32.0228618 C88.2272306,32.0228618 87.9310741,27.8930004 89.8617105,25.6495749 Z M90.1332393,34.2021525 C92.3404754,32.3622231 95.6546763,33.5148428 95.6546763,33.5148428 C95.6546763,33.5148428 95.3917008,37.6487096 93.184364,39.4877785 C90.9786614,41.3283266 87.6628264,40.1742276 87.6628264,40.1742276 C87.6628264,40.1742276 87.9259025,36.0412214 90.1332393,34.2021525 Z M88.2954885,42.6220216 C90.8474753,41.6119895 93.7506958,43.8475844 93.7506958,43.8475844 C93.7506958,43.8475844 92.5230175,47.7222057 89.9717471,48.7321169 C87.4204767,49.742028 84.5150064,47.5059354 84.5150064,47.5059354 C84.5150064,47.5059354 85.7444195,43.6336539 88.2954885,42.6220216 Z M85.4696375,50.0081917 C88.1568148,50.0600111 90.2872929,53.3211837 90.2872929,53.3211837 C90.2872929,53.3211837 88.0655704,56.4921978 85.3798259,56.4401365 C82.6937793,56.3854935 80.5620698,53.126284 80.5620698,53.126284 C80.5620698,53.126284 82.7837923,49.9552698 85.4696375,50.0081917 Z M80.1127059,56.4006288 C82.5373537,57.0365848 83.5892156,59.2715645 84.13261,60.5061024 C82.9065932,61.2622617 80.611794,62.1179862 77.9947019,61.3618269 C75.3776099,60.6056675 74.9352699,57.2982005 74.9352699,57.2982005 C74.9352699,57.2982005 77.3132328,55.6663607 80.1127059,56.4006288 Z" id="Combined-Shape-Copy-6" fill="#F9DF9E" fill-rule="nonzero"></path>
                </g>
            </g>
        </g>
    </g>
</svg>