<svg width="69" height="48" viewBox="0 0 69 48" fill="none" xmlns="http://www.w3.org/2000/svg">
<path d="M45.3725 4.57158L45.4017 4.6H45.4424H52.0024C53.692 4.6 54.9774 5.85754 54.9774 7.5V45C54.9774 46.6425 53.692 47.9 52.0024 47.9H26.2749C24.5852 47.9 23.2999 46.6425 23.2999 45V41.6V41.5H23.1999H18.9974C17.3077 41.5 16.0224 40.2425 16.0224 38.6V3C16.0224 1.35754 17.3077 0.1 18.9974 0.1H40.4199C40.6009 0.1 40.8827 0.191228 41.0675 0.371578L45.3725 4.57158ZM25.2499 41.5H25.1499V41.6V45C25.1499 45.3235 25.2609 45.6005 25.4619 45.7966C25.6627 45.9925 25.9454 46.1 26.2749 46.1H52.0024C52.3318 46.1 52.6145 45.9925 52.8153 45.7966C53.0163 45.6005 53.1274 45.3235 53.1274 45V7.5C53.1274 7.17652 53.0163 6.89954 52.8153 6.70342C52.6145 6.50752 52.3318 6.4 52.0024 6.4H47.4924H47.2467L47.4225 6.57158L49.4725 8.57158C49.5251 8.62289 49.5708 8.66771 49.604 8.71095C49.6382 8.75538 49.6474 8.78342 49.6474 8.8V8.9V8.94215L49.6775 8.97158C49.7481 9.04048 49.7499 9.10186 49.7499 9.2V38.6C49.7499 40.2425 48.4645 41.5 46.7749 41.5H25.2499ZM41.5147 3.32842L41.3449 3.16273V3.4V8.2V8.3H41.4449H46.3649H46.6106L46.4347 8.12842L41.5147 3.32842ZM39.4949 2V1.9H39.3949H18.9974C18.6679 1.9 18.3852 2.00752 18.1844 2.20342C17.9834 2.39954 17.8724 2.67652 17.8724 3V38.6C17.8724 38.8834 18.0165 39.1578 18.2228 39.3591C18.4293 39.5605 18.7095 39.7 18.9974 39.7H46.7749C47.1044 39.7 47.387 39.5925 47.5878 39.3966C47.7888 39.2005 47.8999 38.9235 47.8999 38.6V10.2V10.1H47.7999H40.4199C40.1344 10.1 39.9045 10.0075 39.7466 9.85342C39.5888 9.69954 39.4949 9.47652 39.4949 9.2V2Z" fill="#6465FF" stroke="white" stroke-width="0.2"/>
<path d="M30.8874 14.1H22.1749C21.7086 14.1 21.2499 13.7361 21.2499 13.2C21.2499 12.9234 21.3439 12.7004 21.5016 12.5465C21.6596 12.3924 21.8894 12.3 22.1749 12.3H30.8874C31.1729 12.3 31.4027 12.3924 31.5607 12.5465C31.7184 12.7004 31.8124 12.9234 31.8124 13.2C31.8124 13.4765 31.7184 13.6995 31.5607 13.8534C31.4027 14.0075 31.1729 14.1 30.8874 14.1Z" fill="#6465FF" stroke="white" stroke-width="0.2"/>
<path d="M43.5974 17.1C43.8829 17.1 44.1127 17.1925 44.2707 17.3466C44.4284 17.5005 44.5224 17.7235 44.5224 18C44.5224 18.449 44.153 18.9 43.5974 18.9H22.1749C21.8894 18.9 21.6596 18.8075 21.5016 18.6534C21.3439 18.4995 21.2499 18.2765 21.2499 18C21.2499 17.7235 21.3439 17.5005 21.5016 17.3466C21.6596 17.1925 21.8894 17.1 22.1749 17.1H43.5974Z" fill="#6465FF" stroke="white" stroke-width="0.2"/>
<path d="M39.1568 24.072L39.1573 24.0716C39.5161 23.7215 40.0678 23.7962 40.4526 24.1716C40.8223 24.5323 40.8224 25.0675 40.4527 25.4283C40.4527 25.4283 40.4526 25.4284 40.4526 25.4284L31.228 34.328L31.2276 34.3284C31.0389 34.5125 30.8582 34.6 30.5799 34.6C30.399 34.6 30.1175 34.5089 29.9327 34.3288C29.9325 34.3287 29.9324 34.3286 29.9323 34.3284L25.4231 29.8292L25.4231 29.8292L25.4223 29.8284C25.0525 29.4677 25.0525 28.9323 25.4223 28.5716C25.7934 28.2095 26.3464 28.2095 26.7176 28.5716L30.5101 32.2716L30.5795 32.3393L30.6493 32.272L39.1568 24.072Z" fill="#6465FF" stroke="white" stroke-width="0.2"/>
<path fill-rule="evenodd" clip-rule="evenodd" d="M62.0691 14.3084L62.0598 14.3084H61V15.102H62.0598L62.0687 15.102C63.301 15.1068 64.2997 16.1021 64.3093 17.3328C64.3093 17.3387 64.3093 17.3447 64.3093 17.3506V18.4104H65.1033V17.3506C65.1033 17.3447 65.1033 17.3388 65.1033 17.3329C65.1127 16.102 66.1117 15.1065 67.3442 15.102C67.347 15.102 67.3499 15.102 67.3527 15.102H68.4125V14.3084H67.3527C67.3498 14.3084 67.3469 14.3084 67.344 14.3084C66.1116 14.3037 65.1127 13.3083 65.1033 12.0776L65.1033 12.0598V11H64.3093V12.0598L64.3093 12.0776C64.2997 13.3082 63.3013 14.3034 62.0691 14.3084ZM65.8487 14.7052C65.3729 14.4343 64.9773 14.0389 64.7063 13.5633C64.4353 14.0389 64.0397 14.4343 63.5638 14.7052C64.0397 14.9761 64.4353 15.3715 64.7063 15.8471C64.9773 15.3715 65.3729 14.9761 65.8487 14.7052Z" fill="#BBC6CB"/>
<path fill-rule="evenodd" clip-rule="evenodd" d="M0 39.102V39.102H1.05981L1.06886 39.102C2.30091 39.1069 3.29935 40.1018 3.30928 41.3321C3.30924 41.3382 3.30922 41.3444 3.30922 41.3506V42.4104H3.30935H4.10318H4.10331V41.3506C4.10331 41.3444 4.10329 41.3382 4.10325 41.3321C4.11319 40.1016 5.1119 39.1066 6.34417 39.102C6.34702 39.102 6.34987 39.102 6.35273 39.102H7.41253V39.102V38.3084V38.3084H6.35273C6.34979 38.3084 6.34685 38.3084 6.34392 38.3084C5.11176 38.3037 4.11319 37.3088 4.10325 36.0784L4.10331 36.0598V35H4.10318H3.30935H3.30922V36.0598L3.30928 36.0784C3.29935 37.3086 2.301 38.3035 1.06903 38.3084L1.05981 38.3084H0V38.3084V39.102ZM4.8487 38.7052C4.37289 38.4343 3.97727 38.0389 3.70627 37.5633C3.43526 38.0389 3.03965 38.4343 2.56384 38.7052C3.03965 38.9761 3.43526 39.3715 3.70627 39.8471C3.97727 39.3715 4.37289 38.9761 4.8487 38.7052Z" fill="#BBC6CB"/>
</svg>
