<svg width="125" height="128" viewBox="0 0 125 128" fill="none" xmlns="http://www.w3.org/2000/svg">
<mask id="mask0" mask-type="alpha" maskUnits="userSpaceOnUse" x="0" y="3" width="125" height="125">
<circle cx="62.5" cy="65.5" r="62.5" fill="#6465FF"/>
</mask>
<g mask="url(#mask0)">
<path d="M71.758 25.6121L69 23.9428L68 5H70L80.3221 10.5V15.5L79.3076 15.9593L71.758 11.1691V25.6121Z" fill="#BBC7D3"/>
<path d="M107.176 92.1661L93.8218 82.2229V77.0699L103.765 84.3276V68.3605L107.176 70.683V92.1661Z" fill="#BBC7D3"/>
<path d="M107.176 46.5L106.204 47.0226L103.765 44.9178V28.9507L93.8219 23.4348L92.8306 18.2818L94.5001 18.2818L107.176 25V46.5Z" fill="#BBC7D3"/>
<path d="M80.3221 72.1345L69 63.7155V44.7727L71.758 46.6597V61.0301L80.3221 67.2718V72.1345Z" fill="#BBC7D3"/>
<path d="M100.426 76.7069L85.4028 65.9654V47.3129L74.5161 40.2729V35.4827L88.4511 44.2646V63.1349L100.426 71.4813V76.7069Z" fill="#BBC7D3"/>
<path d="M100.426 66.3283L97.0879 64.151V54.9336L93.967 52.9014V61.9736L90.8462 59.8689V45.7888L100.426 51.8853V66.3283Z" fill="#BBC7D3"/>
<path d="M83.0803 37.0794L74.5161 31.7813V17.556L83.0803 22.4187V37.0794ZM77.3467 28.6604L80.1772 30.3297V25.5396L77.3467 23.8703V28.6604Z" fill="#BBC7D3"/>
<path d="M100.426 47L99.4271 47.821L90.8461 41.8696L89.8374 26.7734H91.8031L100.426 31.5V47ZM93.967 38.113L97.0878 40V35.5553L93.967 33.7409V38.113Z" fill="#BBC7D3"/>
<path d="M83.0803 64.3687L74.5161 58.2722V44.0469L83.0803 49.708V64.3687ZM77.3467 55.4416L80.1772 57.4012V52.6111L77.3467 50.7241V55.4416Z" fill="#BBC7D3"/>
<path d="M85.5 23.5L88.4506 25V40.418L85.4023 38.5309L84.5 23.5H85.5Z" fill="#BBC7D3"/>
<path d="M70.758 25.6121L68 23.9428V5L79.3221 11.024V15.9593L70.758 11.1691V25.6121Z" fill="#DDE2E8"/>
<path d="M106.176 92.1661L92.8218 82.2229V77.0699L102.765 84.3276V68.3605L106.176 70.683V92.1661Z" fill="#DDE2E8"/>
<path d="M106.176 47.0226L102.765 44.9179V28.9507L92.8218 23.4348V18.2818L106.176 25.467V47.0226Z" fill="#DDE2E8"/>
<path d="M79.3221 72.1345L68 63.7155V44.7727L70.758 46.6597V61.0301L79.3221 67.2718V72.1345Z" fill="#DDE2E8"/>
<path d="M99.4264 76.7069L84.4028 65.9654V47.3129L73.5161 40.2729V35.4827L87.4511 44.2646V63.1349L99.4264 71.4813V76.7069Z" fill="#DDE2E8"/>
<path d="M99.4265 66.3283L96.0879 64.151V54.9336L92.967 52.9014V61.9736L89.8462 59.8689V45.7888L99.4265 51.8853V66.3283Z" fill="#DDE2E8"/>
<path d="M82.0803 37.0794L73.5161 31.7813V17.556L82.0803 22.4187V37.0794ZM76.3467 28.6604L79.1772 30.3297V25.5396L76.3467 23.8703V28.6604Z" fill="#DDE2E8"/>
<path d="M99.4265 47.821L89.8462 41.8696V26.7734L99.4265 32.2167V47.821ZM92.967 38.7487L96.0879 40.6358V35.5553L92.967 33.7409V38.7487Z" fill="#DDE2E8"/>
<path d="M82.0803 64.3687L73.5161 58.2722V44.0469L82.0803 49.708V64.3687ZM76.3467 55.4416L79.1772 57.4012V52.6111L76.3467 50.7241V55.4416Z" fill="#DDE2E8"/>
<path d="M84.4023 23.7251L87.4506 25.4669V40.418L84.4023 38.5309V23.7251Z" fill="#DDE2E8"/>
<path d="M43.5513 16.062C43.5513 15.083 44.0289 14.1657 44.8309 13.6043L46.4742 12.454C47.7423 11.5663 49.4087 11.4899 50.7526 12.2579L73.5281 25.2725C75.3976 26.3407 76.5513 28.3288 76.5513 30.4819V95.3305C76.5513 98.5401 73.0971 100.564 70.2974 98.9941L46.3106 85.5469C44.6065 84.5916 43.5513 82.7903 43.5513 80.8366V16.062Z" fill="#C1CCD9"/>
<path d="M43.5513 16.1386C43.5513 13.842 46.0262 12.3971 48.0261 13.5261L71.5008 26.778C73.3856 27.842 74.5513 29.8386 74.5513 32.0029V96.2757C74.5513 98.7358 71.8909 100.276 69.7576 99.0506L46.262 85.5568C44.5852 84.5938 43.5513 82.8077 43.5513 80.8741V16.1386Z" fill="#F2F6FA"/>
<path d="M44.0513 16.8325C44.0513 14.688 46.3632 13.3396 48.2297 14.3953L71.0051 27.2771C72.8875 28.3418 74.0513 30.337 74.0513 32.4996V96.1577C74.0513 98.3115 71.7212 99.6588 69.8545 98.5844L46.7575 85.2902C45.0832 84.3265 44.0513 82.5419 44.0513 80.6101V16.8325Z" fill="#383839"/>
<path d="M45.0513 17.4159C45.0513 15.8871 46.6969 14.9235 48.0301 15.6717L69.9877 27.9946C71.8798 29.0565 73.0513 31.0572 73.0513 33.2269V95.5536C73.0513 97.0893 71.3923 98.052 70.059 97.2901L47.5706 84.4396C46.0127 83.5494 45.0513 81.8927 45.0513 80.0984V17.4159Z" fill="url(#paint0_linear)"/>
<path d="M49.5224 45.8235L47.9404 44.8659V34L54.435 37.4554V40.2864L49.5224 37.5387V45.8235Z" fill="white"/>
<path d="M69.839 84L62.1787 78.2964V75.3405L67.8823 79.5037V70.3447L69.839 71.6769V84Z" fill="white"/>
<path d="M69.839 58.1049L67.8823 56.8976V47.7386L62.1787 44.5745V41.6187L69.839 45.7402V58.1049Z" fill="white"/>
<path d="M54.435 72.5096L47.9404 67.6803V56.8143L49.5224 57.8967V66.1399L54.435 69.7202V72.5096Z" fill="white"/>
<path d="M65.9671 75.1324L57.3493 68.9709V58.2714L51.1045 54.2331V51.4854L59.0978 56.5229V67.3472L65.9671 72.1349V75.1324Z" fill="white"/>
<path d="M65.9671 69.179L64.052 67.9301V62.6428L62.2619 61.4771V66.6811L60.4717 65.4738V57.3972L65.9671 60.8943V69.179Z" fill="white"/>
<path d="M56.0171 52.4013L51.1045 49.3622V41.2023L56.0171 43.9917V52.4013ZM52.7281 47.572L54.3518 48.5296V45.7818L52.7281 44.8243V47.572Z" fill="white"/>
<path d="M65.9671 58.5629L60.4717 55.1491V46.4896L65.9671 49.612V58.5629ZM62.2619 53.3589L64.052 54.4413V51.5271L62.2619 50.4863V53.3589Z" fill="white"/>
<path d="M56.0171 68.0549L51.1045 64.5579V56.398L56.0171 59.6453V68.0549ZM52.7281 62.9342L54.3518 64.0583V61.3106L52.7281 60.2281V62.9342Z" fill="white"/>
<path d="M57.3491 44.741L59.0977 45.7402V54.3164L57.3491 53.2339V44.741Z" fill="white"/>
<path d="M52.0513 19.4197V17.5L66.0513 25.5V27.3107C66.0513 27.6179 65.7195 27.8104 65.4528 27.658L52.5551 20.2879C52.2436 20.1099 52.0513 19.7785 52.0513 19.4197Z" fill="#383839"/>
<path d="M57.0516 21.4206C57.0516 21.2335 57.254 21.1163 57.4164 21.2095L60.8069 23.1571C60.9581 23.2439 61.0513 23.405 61.0513 23.5794C61.0513 23.7665 60.8489 23.8837 60.6866 23.7905L57.296 21.8429C57.1448 21.7561 57.0516 21.595 57.0516 21.4206Z" fill="#202023"/>
<path d="M54.0512 84.2348C54.0513 83.912 54.4039 83.713 54.6802 83.88L61.6511 88.0916C61.8996 88.2418 62.0515 88.5109 62.0515 88.8013C62.0515 89.1241 61.6988 89.323 61.4226 89.1561L54.4516 84.9444C54.2031 84.7943 54.0512 84.5251 54.0512 84.2348Z" fill="#A4BEFF"/>
<path d="M43.5074 94.5355C44.4324 94.0175 45.5622 94.0262 46.4792 94.5584L67.9851 107.04C69.0392 107.652 68.9623 109.199 67.8529 109.703L66.8778 110.146C65.6996 110.682 64.3352 110.614 63.2157 109.965L41.5173 97.3802C40.8471 96.9916 40.8544 96.0213 41.5304 95.6427L43.5074 94.5355Z" fill="#E0E5EC"/>
</g>
<path d="M34.9275 1.00002C27 -0.499999 23.7324 4.81684 23.3136 17.2818C22.8948 29.7468 28.8022 41 34.9274 48.5C43 55.5 52.393 50.5935 52.8695 36.4111C53.2886 22.2823 46.503 2.5 34.9275 1.00002ZM37.8463 5.18012C45.2173 9.25469 51.2682 22.8245 50.855 35.1233C50.4399 47.4775 44.2975 51.906 36.9156 46.5C30.0243 41.3878 24.6296 29.0246 25 18C25.3704 6.9754 30.8566 1.34022 37.8463 5.18012ZM37.7551 7.89472C31.6968 4.47434 26.7407 9.63222 26.4168 19.2718C26.0929 28.9114 30.4734 39.6378 36.5 44C43 47 48.1426 43.6368 48.5 33C48.8018 22.3613 44.141 11.4925 37.7551 7.89472ZM37.649 11.0525L39.7746 22.2719L46.503 27.2677L41.099 30.8576L42.5 41L37 31L32.5 33L34 25L30 16L34.9274 19.225L37.649 11.0525Z" fill="#F4AD44"/>
<path d="M36.5234 1.74003C28.8811 -2.40752 22.7133 4.24817 22.3052 16.3932C21.8972 28.5382 27.365 42.7179 34.9528 48.4848C43.1217 54.6494 50.5578 48.8469 51.0221 35.0286C51.4306 21.2625 44.6945 6.22958 36.5234 1.74003ZM36.4272 4.60086C43.5891 8.57016 49.4674 21.791 49.0648 33.774C48.6604 45.8111 42.2194 50.9445 35.0471 45.6779C28.3515 40.6975 23.477 28.1589 23.8379 17.4174C24.1988 6.67579 29.636 0.860176 36.4272 4.60086ZM36.3384 7.24577C30.452 3.91376 25.6358 8.93964 25.3203 18.3318C25.0047 27.7239 29.2823 38.7294 35.1378 42.979C41.3081 47.5094 46.9195 42.9426 47.2677 32.5788C47.5619 22.2133 42.5431 10.7506 36.3384 7.24577ZM36.235 10.3225L38.2995 21.2536L44.8368 26.1206L39.5855 29.6188L40.7773 40.7908L35.5205 31.5897L30.1654 33.3552L31.9184 24.6058L27.6386 15.2754L33.5898 18.2854L36.235 10.3225Z" fill="#F9D17B"/>
<defs>
<linearGradient id="paint0_linear" x1="59.0513" y1="13.5" x2="59.0513" y2="99.5" gradientUnits="userSpaceOnUse">
<stop stop-color="#58B0FF"/>
<stop offset="1" stop-color="#497BFF"/>
</linearGradient>
</defs>
</svg>
