<svg width="125" height="125" viewBox="0 0 125 125" fill="none" xmlns="http://www.w3.org/2000/svg">
<mask id="mask0" mask-type="alpha" maskUnits="userSpaceOnUse" x="0" y="0" width="125" height="125">
<circle cx="62.5" cy="62.5" r="62.5" fill="#6465FF"/>
</mask>
<g mask="url(#mask0)">
<path d="M102.006 59.9101C102.006 63.5 96.8571 67 90.5059 67C84.1546 67 79.0059 63.5 79.0059 59.9101C79.0059 58.6215 78.8615 56.0103 80.0059 55C82.0494 53.1958 86.4345 54 90.5059 54C94.5772 54 98.9623 53.1958 101.006 55C102.15 56.0103 102.006 58.6215 102.006 59.9101Z" fill="#F6BD48"/>
<path d="M102.006 57.5C102.006 61.6421 96.8571 65 90.5059 65C84.1546 65 79.0059 61.6421 79.0059 57.5C79.0059 53.3579 84.1546 50 90.5059 50C96.8571 50 102.006 53.3579 102.006 57.5Z" fill="#F9D17B"/>
<path d="M99.0059 57.5577C99.0059 60.5634 95.2003 63 90.5059 63C85.8114 63 82.0059 60.5634 82.0059 57.5577C82.0059 54.552 85.8114 52 90.5059 52C95.2003 52 99.0059 54.552 99.0059 57.5577Z" stroke="#FCE7BD" stroke-width="0.5"/>
<path d="M99.5 53C99.5 56.5899 96.3513 62 90 62C83.6487 62 78.5 58.5899 78.5 55C78.5 53.7114 79.8615 51.1889 81.0059 50.1786C83.0494 48.3745 87.4345 44.5 91.5059 44.5C95.5772 44.5 95.4941 47.5001 98 50.1786C100.006 52.3228 99.5 51.7114 99.5 53Z" fill="#EFB02F"/>
<path d="M101.006 53.9101C101.006 57.5 95.8571 61 89.5059 61C83.1546 61 78.0059 57.5 78.0059 53.9101C78.0059 52.6215 77.8615 50.0103 79.0059 49C81.0494 47.1958 85.4345 48 89.5059 48C93.5772 48 97.9623 47.1958 100.006 49C101.15 50.0103 101.006 52.6215 101.006 53.9101Z" fill="#F6BD48"/>
<path d="M101.006 51.5C101.006 55.6421 95.8571 59 89.5059 59C83.1546 59 78.0059 55.6421 78.0059 51.5C78.0059 47.3579 83.1546 44 89.5059 44C95.8571 44 101.006 47.3579 101.006 51.5Z" fill="#F9D17B"/>
<path d="M98.0059 51.5577C98.0059 54.5634 94.2003 57 89.5059 57C84.8114 57 81.0059 54.5634 81.0059 51.5577C81.0059 48.552 84.8114 46 89.5059 46C94.2003 46 98.0059 48.552 98.0059 51.5577Z" stroke="#FCE7BD" stroke-width="0.5"/>
<path d="M57 17.062C57 16.083 57.4776 15.1657 58.2796 14.6043L59.9229 13.454C61.191 12.5663 62.8574 12.4899 64.2013 13.2579L86.9768 26.2725C88.8463 27.3407 90 29.3288 90 31.4819V96.3305C90 99.5401 86.5458 101.564 83.7462 99.9941L59.7594 86.5469C58.0552 85.5916 57 83.7903 57 81.8366V17.062Z" fill="#C1CCD9"/>
<path d="M57 17.1386C57 14.842 59.4749 13.3971 61.4748 14.5261L84.9496 27.778C86.8343 28.842 88 30.8386 88 33.0029V97.2757C88 99.7358 85.3397 101.276 83.2063 100.051L59.7107 86.5568C58.0339 85.5938 57 83.8077 57 81.8741V17.1386Z" fill="#F2F6FA"/>
<path d="M57.5 17.8325C57.5 15.688 59.8119 14.3396 61.6785 15.3953L84.4539 28.2771C86.3362 29.3418 87.5 31.337 87.5 33.4996V97.1577C87.5 99.3115 85.1699 100.659 83.3032 99.5844L60.2062 86.2902C58.5319 85.3265 57.5 83.5419 57.5 81.6101V17.8325Z" fill="#383839"/>
<path d="M58.5 18.4159C58.5 16.8871 60.1456 15.9235 61.4788 16.6717L83.4364 28.9946C85.3286 30.0565 86.5 32.0572 86.5 34.2269V96.5536C86.5 98.0893 84.841 99.052 83.5077 98.2901L61.0193 85.4396C59.4614 84.5494 58.5 82.8927 58.5 81.0984V18.4159Z" fill="url(#paint0_linear)"/>
<path d="M65.5 20.4197V18.5L79.5 26.5V28.3107C79.5 28.6179 79.1682 28.8104 78.9015 28.658L66.0039 21.2879C65.6923 21.1099 65.5 20.7785 65.5 20.4197Z" fill="#383839"/>
<path d="M58.5078 96.5427C59.4329 96.0246 60.5627 96.0333 61.4797 96.5655L82.9856 109.048C84.0397 109.659 83.9628 111.206 82.8534 111.71L81.8783 112.154C80.7001 112.689 79.3357 112.622 78.2162 111.972L56.5178 99.3874C55.8476 98.9987 55.8549 98.0285 56.5309 97.6499L58.5078 96.5427Z" fill="#E0E5EC"/>
<path d="M70.5003 22.4206C70.5003 22.2335 70.7028 22.1163 70.8651 22.2095L74.2556 24.1571C74.4068 24.2439 74.5001 24.405 74.5001 24.5794C74.5001 24.7665 74.2976 24.8837 74.1353 24.7905L70.7447 22.8429C70.5935 22.7561 70.5003 22.595 70.5003 22.4206Z" fill="#202023"/>
<path d="M67.5 85.2348C67.5 84.912 67.8526 84.713 68.1289 84.88L75.0999 89.0916C75.3484 89.2418 75.5002 89.5109 75.5002 89.8013C75.5002 90.1241 75.1476 90.323 74.8713 90.1561L67.9003 85.9444C67.6518 85.7943 67.5 85.5251 67.5 85.2348Z" fill="#A4BEFF"/>
<g clip-path="url(#clip0)">
<path d="M80.4995 44.6678V44.3026L78.0316 43.9139V44.2892V44.393C78.0316 48.454 75.3518 51.2317 72.1657 50.5984C69.0808 49.9853 66.6415 46.38 66.6288 42.5569C66.6161 38.7338 69.0587 35.9327 72.1404 36.2979L72.3808 36.328V33.5638L72.1404 33.5369C67.8311 33.0846 64.4868 36.9848 64.4868 42.2118C64.4868 47.4388 67.8406 52.4212 72.1404 53.3527C76.6458 54.3176 80.4742 50.4912 80.4742 44.7884C80.4891 44.75 80.4976 44.7092 80.4995 44.6678Z" fill="white"/>
<path d="M73.7576 36.3782V39.5278C73.2945 39.2115 72.7719 39.0057 72.2262 38.9247C70.2076 38.6466 68.6035 40.3822 68.6035 42.7914C68.6035 45.2005 70.1507 47.365 72.106 47.7972L73.7576 48.1021V45.5087L73.2197 45.4149L72.3338 45.2641L72.1408 45.2306C71.7138 45.0961 71.34 44.8173 71.0767 44.4367C70.8133 44.0562 70.6748 43.5948 70.6822 43.1231C70.6822 42.1179 71.372 41.3673 72.2262 41.4947C72.6169 41.5833 72.9727 41.796 73.2463 42.1042C73.5199 42.4125 73.6982 42.8018 73.7576 43.2202V45.5087L75.9913 45.8874V36.663L73.7576 36.3782Z" fill="white"/>
</g>
<path fill-rule="evenodd" clip-rule="evenodd" d="M58.5 53.8166C60.6812 52.4758 62.8288 50.5496 64 48.5C64.3064 47.9639 64.5 47 64.5 47L58.653 43.6401L58.5 43.7527V53.8166Z" fill="#5092D2"/>
</g>
<path d="M23.5306 86.8697C22.8559 86.4863 22.856 85.5139 23.5308 85.1307L61.5121 63.561C62.1247 63.2131 62.8752 63.2132 63.4878 63.5612L82.9694 74.6303C83.6441 75.0137 83.644 75.9861 82.9692 76.3693L44.9879 97.939C44.3753 98.2869 43.6248 98.2868 43.0122 97.9388L23.5306 86.8697Z" fill="#ACE1DF"/>
<path d="M28.5 82.5L61.548 63.7113L79.5 73.9225L46.452 92.7113L28.5 82.5Z" fill="#92D6D2"/>
<path d="M83 75.75L76.5 72C76.5 72 75 73 75 75.75C75 78 76.5 79.5 76.5 79.5L83 75.75Z" fill="#62D1C6"/>
<path d="M44 97.5L38 94.5C38 94.5 40.5 93 44.25 93C48 93 50.5 94.5 50.5 94.5L44 97.5Z" fill="#62D1C6"/>
<path d="M30 82L23.5 85.75L30.5 90C30.5 90 32 87.5 32 85.75C32 83.5 30 82 30 82Z" fill="#62D1C6"/>
<ellipse cx="55" cy="80" rx="7" ry="4" fill="#62D1C6"/>
<path d="M62.5 64L55.5 67.5C55.5 67.5 58.5 69 62.5 69C66 69 69 67.5 69 67.5L62.5 64Z" fill="#62D1C6"/>
<path d="M23.5306 77.8697C22.8559 77.4863 22.856 76.5139 23.5308 76.1307L61.5121 54.561C62.1247 54.2131 62.8752 54.2132 63.4878 54.5612L82.9694 65.6303C83.6441 66.0137 83.644 66.9861 82.9692 67.3693L44.9879 88.939C44.3753 89.2869 43.6248 89.2868 43.0122 88.9388L23.5306 77.8697Z" fill="#C7F0EE"/>
<path d="M83 66.5L76.5 63C76.5 63 75 64 75 66.75C75 69 76.5 70.5 76.5 70.5L83 66.5Z" fill="#62D1C6"/>
<path d="M44 88.5L38 85.5C38 85.5 40.5 84 44.25 84C48 84 50.5 85.5 50.5 85.5L44 88.5Z" fill="#62D1C6"/>
<path d="M30 73L23.5 76.75L30.5 81C30.5 81 32 78.5 32 76.75C32 74.5 30 73 30 73Z" fill="#62D1C6"/>
<ellipse cx="55" cy="71" rx="7" ry="4" fill="#62D1C6"/>
<path d="M62.5 55L55.5 58.5C55.5 58.5 58.5 60 62.5 60C66 60 69 58.5 69 58.5L62.5 55Z" fill="#62D1C6"/>
<path d="M31.3086 58.9799C31.3086 58.9799 43.4953 52.0839 48.8084 50.2099C55.6055 47.8124 59.3085 42.4799 59.3085 42.4799L65.3085 45.9799L65.3085 47.4799C65.3085 47.4799 61.6253 52.1625 54.8083 54.4599C49.512 56.2447 37.3083 62.9799 37.3083 62.9799L31.3086 58.9799Z" fill="#F4AD44"/>
<path d="M31.3086 57.9799C31.3086 57.9799 43.4953 51.0839 48.8084 49.2099C55.6055 46.8124 59.3085 41.4799 59.3085 41.4799L65.3085 45.9799C65.3085 45.9799 61.6253 51.1625 54.8083 53.4599C49.512 55.2447 37.3083 61.9799 37.3083 61.9799L31.3086 57.9799Z" fill="#F9D17B"/>
<path d="M42.8082 64.4799L22.8082 64.4799L22.3082 63.4799L31.3085 53.9686L43.3084 63.4799L42.8082 64.4799Z" fill="#F4AD44"/>
<path d="M22.3081 63.4799L43.3083 63.4799L31.3083 52.9686L22.3081 63.4799Z" fill="#F9D17B"/>
<defs>
<linearGradient id="paint0_linear" x1="72.5" y1="14.5" x2="72.5" y2="100.5" gradientUnits="userSpaceOnUse">
<stop stop-color="#58B0FF"/>
<stop offset="1" stop-color="#497BFF"/>
</linearGradient>
<clipPath id="clip0">
<rect width="16" height="20" fill="white" transform="translate(64.5 33.5)"/>
</clipPath>
</defs>
</svg>
