<svg width="37" height="36" viewBox="0 0 37 36" fill="none" xmlns="http://www.w3.org/2000/svg">
<path fill-rule="evenodd" clip-rule="evenodd" d="M36.31 11.7554C36.31 9.58235 34.5924 7.82072 32.4737 7.82072H32.0375V4.6014C32.0375 2.42832 30.32 0.666687 28.2012 0.666687H5.15887C2.65488 0.666687 0.625 2.74862 0.625 5.31681L0.625026 5.33629L0.625 5.37517V31.7872C0.625 33.9603 2.34259 35.7219 4.46135 35.7219H32.4737C34.5924 35.7219 36.31 33.9603 36.31 31.7872V11.7554ZM4.46135 33.5757C3.49827 33.5757 2.71755 32.775 2.71755 31.7872V9.23592C3.42225 9.69866 4.26001 9.96693 5.15886 9.96693H32.4736C33.4367 9.96693 34.2174 10.7677 34.2174 11.7554V31.7872C34.2174 32.775 33.4367 33.5757 32.4736 33.5757H4.46135ZM29.945 4.6014C29.945 3.61364 29.1643 2.8129 28.2012 2.8129H5.15886C3.81056 2.8129 2.71755 3.93394 2.71755 5.31681C2.71755 6.69968 3.81056 7.82072 5.15886 7.82072H29.945V4.6014ZM29.0141 19.6249C28.1857 19.6249 27.5141 20.2964 27.5141 21.1249V22.4173C27.5141 23.2457 28.1857 23.9173 29.0141 23.9173H30.1992C31.0276 23.9173 31.6992 23.2457 31.6992 22.4173V21.1249C31.6992 20.2964 31.0276 19.6249 30.1992 19.6249H29.0141Z" fill="white"/>
</svg>
