<svg width="117" height="106" viewBox="0 0 117 106" fill="none" xmlns="http://www.w3.org/2000/svg">
<circle cx="36" cy="101" r="4" fill="white" stroke="#6465FF" stroke-width="2"/>
<circle cx="4.5" cy="13.5" r="3.5" fill="white" stroke="#6465FF" stroke-width="2"/>
<path d="M101.252 3.32237C101.252 5.15726 100.695 6.64474 100.007 6.64474C99.3185 6.64474 98.7607 5.15726 98.7607 3.32237C98.7607 1.48748 99.3185 0 100.007 0C100.695 0 101.252 1.48748 101.252 3.32237Z" fill="#C4C4C4"/>
<path d="M100.007 4.56831C98.1718 4.56831 96.6843 4.01051 96.6843 3.32243C96.6843 2.63434 98.1718 2.07654 100.007 2.07654C101.842 2.07654 103.329 2.63434 103.329 3.32243C103.329 4.01051 101.842 4.56831 100.007 4.56831Z" fill="#C4C4C4"/>
<path d="M72.0155 93.704C72.0155 95.5389 71.4577 97.0263 70.7697 97.0263C70.0816 97.0263 69.5238 95.5389 69.5238 93.704C69.5238 91.8691 70.0816 90.3816 70.7697 90.3816C71.4577 90.3816 72.0155 91.8691 72.0155 93.704Z" fill="#C4C4C4"/>
<path d="M70.7696 94.9498C68.9347 94.9498 67.4473 94.392 67.4473 93.7039C67.4473 93.0158 68.9347 92.458 70.7696 92.458C72.6045 92.458 74.092 93.0158 74.092 93.7039C74.092 94.392 72.6045 94.9498 70.7696 94.9498Z" fill="#C4C4C4"/>
<path d="M110.568 56.3224C110.568 58.1573 110.01 59.6447 109.322 59.6447C108.634 59.6447 108.076 58.1573 108.076 56.3224C108.076 54.4875 108.634 53 109.322 53C110.01 53 110.568 54.4875 110.568 56.3224Z" fill="#C4C4C4"/>
<path d="M109.322 57.5682C107.487 57.5682 106 57.0104 106 56.3223C106 55.6342 107.487 55.0764 109.322 55.0764C111.157 55.0764 112.645 55.6342 112.645 56.3223C112.645 57.0104 111.157 57.5682 109.322 57.5682Z" fill="#C4C4C4"/>
<path d="M5.56815 76.4276C5.56815 78.2625 5.01035 79.75 4.32227 79.75C3.63418 79.75 3.07638 78.2625 3.07638 76.4276C3.07638 74.5927 3.63418 73.1052 4.32227 73.1052C5.01035 73.1052 5.56815 74.5927 5.56815 76.4276Z" fill="#C4C4C4"/>
<path d="M4.32237 77.6735C2.48748 77.6735 1 77.1157 1 76.4277C1 75.7396 2.48748 75.1818 4.32237 75.1818C6.15726 75.1818 7.64474 75.7396 7.64474 76.4277C7.64474 77.1157 6.15726 77.6735 4.32237 77.6735Z" fill="#C4C4C4"/>
<path d="M75.0068 51C75.6533 48.7788 76 46.4299 76 44C76 30.1929 64.8071 19 51 19C37.1929 19 26 30.1929 26 44C26 57.8071 37.1929 69 51 69C55.3487 69 59.438 67.8897 63 65.9371" stroke="#6465FF" stroke-width="2.5"/>
<circle cx="75.5" cy="63.5" r="12.5" stroke="#6465FF" stroke-width="2.2"/>
<path d="M70.6602 62.2473L70.6611 62.2481C71.1752 62.7379 71.8496 62.9791 72.6741 62.9791C73.5042 62.9791 74.1742 62.7349 74.6724 62.2378C75.1701 61.7412 75.4154 61.086 75.4154 60.2826V59.6573C75.4154 58.8207 75.171 58.1476 74.6726 57.6502C74.1742 57.1469 73.4985 56.9 72.6577 56.9C71.8273 56.9 71.1547 57.1473 70.6512 57.65C70.1483 58.1521 69.9 58.8101 69.9 59.6139V60.2305C69.9 61.0735 70.1503 61.7499 70.6602 62.2473ZM73.2268 58.9372L73.2268 58.9372L73.2277 58.9383C73.3636 59.1078 73.4354 59.3302 73.4354 59.6139V60.1349C73.4354 60.5134 73.3649 60.7791 73.2397 60.9482C73.1187 61.1116 72.9363 61.1986 72.6741 61.1986C72.4201 61.1986 72.2311 61.1156 72.0944 60.9562C71.954 60.7868 71.88 60.5651 71.88 60.2826V59.6313C71.88 59.323 71.9553 59.094 72.0939 58.9321L72.0939 58.9321L72.0948 58.9309C72.2328 58.7648 72.4168 58.6805 72.6577 58.6805C72.9099 58.6805 73.0951 58.7678 73.2268 58.9372ZM76.3284 64.7614L76.328 64.7618C75.8246 65.2584 75.5764 65.9168 75.5764 66.7261V67.3514C75.5764 68.1944 75.8267 68.8708 76.3366 69.3682L76.3374 69.369C76.8515 69.8588 77.5259 70.1 78.3505 70.1C79.1858 70.1 79.8586 69.856 80.357 69.3587C80.8548 68.862 81.1 68.2038 81.1 67.3948V66.7869C81.1 65.9276 80.8531 65.2449 80.3479 64.7527C79.8442 64.2618 79.1691 64.0209 78.3341 64.0209C77.5092 64.0209 76.8371 64.2652 76.3284 64.7614ZM78.9052 66.0518L78.9051 66.0519L78.9061 66.053C79.0455 66.2158 79.1199 66.4366 79.12 66.7257C79.12 66.7259 79.12 66.726 79.12 66.7261L79.1118 67.616C79.0908 67.8646 79.0145 68.0362 78.8956 68.1465C78.7763 68.2571 78.5996 68.3195 78.3505 68.3195C78.1303 68.3195 77.9441 68.2326 77.7868 68.0507C77.6272 67.8604 77.5482 67.6431 77.5482 67.3948V66.6845C77.5588 66.4013 77.6381 66.1895 77.7763 66.038L77.7763 66.038L77.7774 66.0368C77.915 65.881 78.0972 65.8014 78.3341 65.8014C78.5812 65.8014 78.7676 65.8862 78.9052 66.0518ZM73.1521 68.968L73.2366 69.013L73.2852 68.9306L79.1174 59.0482L79.1705 58.9582L79.0783 58.9091L77.7905 58.223L77.706 58.178L77.6574 58.2605L71.8251 68.1429L71.772 68.2329L71.8642 68.282L73.1521 68.968Z" fill="#6465FF" stroke="#6465FF" stroke-width="0.2"/>
<circle cx="93" cy="75" r="3" transform="rotate(90 93 75)" stroke="#6465FF" stroke-width="2"/>
<circle cx="93" cy="47" r="2" transform="rotate(90 93 47)" stroke="#6465FF" stroke-width="2"/>
<path d="M93 72L93 61.9673C93 58.888 89.6518 56.9764 87 58.5417V58.5417" stroke="#6465FF" stroke-width="2"/>
<path d="M57.1219 44H54.9036C54.6465 44 54.4106 44.1327 54.2872 44.3467C53.6283 45.4917 52.3378 46.2314 51 46.2314C49.6622 46.2314 48.3717 45.4917 47.7128 44.3467C47.5894 44.1327 47.3535 44 47.0964 44H44.8781C42.4638 44 40.5 45.8638 40.5 48.1544V54.3338C40.5 54.7021 40.814 55 41.2021 55H45.5131H56.4869H60.7979C61.186 55 61.5 54.7021 61.5 54.3338V48.1544C61.5 45.8638 59.5362 44 57.1219 44ZM60.0957 53.6677H57.1891V51.0109C57.1891 50.6427 56.875 50.3447 56.4869 50.3447C56.0988 50.3447 55.7848 50.6427 55.7848 51.0109V53.6677H46.2152V51.0109C46.2152 50.6427 45.9012 50.3447 45.5131 50.3447C45.125 50.3447 44.8109 50.6427 44.8109 51.0109V53.6677H41.9043V48.1544C41.9043 46.5983 43.2387 45.3323 44.8781 45.3323H46.7C47.6511 46.6991 49.2961 47.5637 51 47.5637C52.7039 47.5637 54.3489 46.6991 55.3 45.3323H57.1219C58.7613 45.3323 60.0957 46.5983 60.0957 48.1544V53.6677Z" fill="#6465FF" stroke="#6465FF" stroke-width="0.9"/>
<path d="M51.0003 43C54.3083 43 57 40.3083 57 36.9997C57 33.6917 54.3083 31 51.0003 31C47.6917 31 45 33.6917 45 36.9997C45 40.3083 47.6917 43 51.0003 43ZM51.0003 32.4117C53.5301 32.4117 55.5883 34.4699 55.5883 36.9997C55.5883 39.5301 53.5301 41.5883 51.0003 41.5883C48.4699 41.5883 46.4117 39.5301 46.4117 36.9997C46.4117 34.4699 48.4699 32.4117 51.0003 32.4117Z" fill="#6465FF" stroke="#6465FF" stroke-width="0.9"/>
<line x1="93" y1="49" x2="93" y2="62" stroke="#6465FF" stroke-width="2"/>
</svg>
