<?xml version="1.0" encoding="UTF-8"?>
<svg width="296px" height="261px" viewBox="0 0 296 261" version="1.1" xmlns="http://www.w3.org/2000/svg" xmlns:xlink="http://www.w3.org/1999/xlink">
    <!-- Generator: Sketch 52.5 (67469) - http://www.bohemiancoding.com/sketch -->
    <title>Group 7</title>
    <desc>Created with Sketch.</desc>
    <defs>
        <path d="M0,187 L65,187 C88.7482442,187 108,206.251756 108,230 L0,230 L0,187 Z" id="path-1"></path>
        <filter x="-3.7%" y="-27.9%" width="114.8%" height="137.2%" filterUnits="objectBoundingBox" id="filter-2">
            <feOffset dx="4" dy="-4" in="SourceAlpha" result="shadowOffsetOuter1"></feOffset>
            <feGaussianBlur stdDeviation="2" in="shadowOffsetOuter1" result="shadowBlurOuter1"></feGaussianBlur>
            <feColorMatrix values="0 0 0 0 0   0 0 0 0 0   0 0 0 0 0  0 0 0 0.0376966783 0" type="matrix" in="shadowBlurOuter1"></feColorMatrix>
        </filter>
        <linearGradient x1="0%" y1="27.7760255%" x2="50%" y2="100%" id="linearGradient-3">
            <stop stop-color="#C39A6B" offset="0%"></stop>
            <stop stop-color="#A87544" offset="48.540435%"></stop>
            <stop stop-color="#824F25" offset="100%"></stop>
        </linearGradient>
        <linearGradient x1="79.0354391%" y1="2.89337819%" x2="50%" y2="76.9388423%" id="linearGradient-4">
            <stop stop-color="#BF9464" offset="0%"></stop>
            <stop stop-color="#824F25" offset="100%"></stop>
        </linearGradient>
        <linearGradient x1="0%" y1="16.0200475%" x2="100%" y2="70.9313622%" id="linearGradient-5">
            <stop stop-color="#AD7B4B" offset="0%"></stop>
            <stop stop-color="#784419" offset="100%"></stop>
        </linearGradient>
        <linearGradient x1="3.52476115%" y1="6.69503111%" x2="39.2987658%" y2="94.476757%" id="linearGradient-6">
            <stop stop-color="#C39A6B" offset="0%"></stop>
            <stop stop-color="#824F25" offset="100%"></stop>
        </linearGradient>
        <linearGradient x1="79.2702936%" y1="2.29445787%" x2="29.8130211%" y2="50%" id="linearGradient-7">
            <stop stop-color="#9E6F39" offset="0%"></stop>
            <stop stop-color="#824F25" offset="100%"></stop>
        </linearGradient>
        <linearGradient x1="-12.1891911%" y1="34.1744815%" x2="128.639491%" y2="105.997821%" id="linearGradient-8">
            <stop stop-color="#824F25" offset="0%"></stop>
            <stop stop-color="#9E6F39" offset="100%"></stop>
        </linearGradient>
        <linearGradient x1="-15.2946104%" y1="57.2745591%" x2="148.047553%" y2="104.070482%" id="linearGradient-9">
            <stop stop-color="#824F25" offset="0%"></stop>
            <stop stop-color="#9E6F39" offset="100%"></stop>
        </linearGradient>
        <linearGradient x1="-16.5181096%" y1="35.1849791%" x2="126.838717%" y2="103.735619%" id="linearGradient-10">
            <stop stop-color="#824F25" offset="0%"></stop>
            <stop stop-color="#9E6F39" offset="100%"></stop>
        </linearGradient>
        <linearGradient x1="-17.2536348%" y1="37.8405494%" x2="129.725043%" y2="96.3602008%" id="linearGradient-11">
            <stop stop-color="#824F25" offset="0%"></stop>
            <stop stop-color="#9E6F39" offset="100%"></stop>
        </linearGradient>
        <linearGradient x1="100%" y1="20.424643%" x2="0.337837838%" y2="62.128628%" id="linearGradient-12">
            <stop stop-color="#9E6F39" offset="0%"></stop>
            <stop stop-color="#824F25" offset="100%"></stop>
        </linearGradient>
        <linearGradient x1="100%" y1="20.424643%" x2="0%" y2="62.2699975%" id="linearGradient-13">
            <stop stop-color="#9E6F39" offset="0%"></stop>
            <stop stop-color="#824F25" offset="99.6621622%"></stop>
        </linearGradient>
        <linearGradient x1="8.84569405%" y1="36.6044973%" x2="50%" y2="100%" id="linearGradient-14">
            <stop stop-color="#C39A6B" offset="0%"></stop>
            <stop stop-color="#A87544" offset="48.540435%"></stop>
            <stop stop-color="#824F25" offset="100%"></stop>
        </linearGradient>
        <linearGradient x1="0%" y1="100%" x2="100%" y2="-4.79098769%" id="linearGradient-15">
            <stop stop-color="#FFF703" offset="0%"></stop>
            <stop stop-color="#FEB400" offset="29.3907309%"></stop>
            <stop stop-color="#F1FF32" offset="100%"></stop>
        </linearGradient>
    </defs>
    <g id="User---User-statuses" stroke="none" stroke-width="1" fill="none" fill-rule="evenodd">
        <g id="Promo---User---Statuses---320" transform="translate(-12.000000, -1644.000000)">
            <g id="Group-7" transform="translate(12.000000, 1644.000000)">
                <rect id="Rectangle-Copy-10" fill="#F1F6F9" x="0" y="0" width="296" height="229" rx="8"></rect>
                <g id="Rectangle-Copy-2">
                    <use fill="black" fill-opacity="1" filter="url(#filter-2)" xlink:href="#path-1"></use>
                    <use fill="#FFFFFF" fill-rule="evenodd" xlink:href="#path-1"></use>
                </g>
                <g id="Img/Statuses/Bronze-Copy-5" transform="translate(20.000000, 32.000000)">
                    <g id="Group" transform="translate(0.181818, 0.165618)">
                        <path d="M202.653763,103.544303 C199.615693,112.158418 196.109176,116.876152 192.663878,118.176844 C189.569531,119.345043 185.218521,118.032 179.308371,113.275387 C176.621675,111.113077 172.689188,111.536202 170.524917,114.220462 C168.360645,116.904723 168.784154,120.833644 171.47085,122.995953 C180.485208,130.250898 189.122426,132.85743 197.080027,129.853222 C204.686677,126.981507 210.295828,119.434851 214.437147,107.692594 C215.583705,104.441653 213.875374,100.877617 210.621482,99.7320979 C207.367591,98.5865788 203.800321,100.293361 202.653763,103.544303 Z" id="Path-2-Copy" fill="#C0C0C2" fill-rule="nonzero"></path>
                        <path d="M205.427412,185.312369 C205.427412,173.669195 198.247711,106.017178 202.914032,97.3079195 C206.289849,91.0072701 221.674904,88.3354298 229.94703,88.3354298 C240.157966,88.3354298 249.057698,93.2778309 251.05619,96.4743117 C253.054682,99.6707925 255.12029,116.144374 255.12029,126.727272 C255.12029,134.260527 255.505918,178.564686 253.737159,185.312369 C246.738563,185.312369 212.334004,185.312369 205.427412,185.312369 Z" id="Path-Copy-10" fill="#685747" transform="translate(228.246753, 136.823899) scale(-1, 1) translate(-228.246753, -136.823899) "></path>
                        <path d="M218.907048,76.3333333 C218.736227,83.8011003 218.335512,89.2420069 217.704904,92.6560532 C216.758992,97.7771227 238.82133,97.7771227 237.824332,92.6560532 C237.159666,89.2420069 236.77159,84.6059525 236.660105,78.7478901 L218.907048,76.3333333 Z" id="Path-7-Copy-17" fill="#8D5A2E" transform="translate(227.766234, 86.415094) scale(-1, 1) translate(-227.766234, -86.415094) "></path>
                        <path d="M218.636364,83.3600501 C220.986646,87.3170817 224.097261,89.2955975 227.968208,89.2955975 C231.839155,89.2955975 234.654947,87.3824547 236.415584,83.5561693 L236.24252,80.3980585 C233.701131,80.717489 230.943027,80.8772043 227.968208,80.8772043 C224.993389,80.8772043 221.882774,79.2025527 218.636364,75.8532495 L218.636364,83.3600501 Z" id="Path-10-Copy-7" fill="#68401C" transform="translate(227.525974, 82.574423) scale(-1, 1) translate(-227.525974, -82.574423) "></path>
                        <path d="M203.354039,30.1253327 C200.814403,51.4828065 205.73988,81.3680562 220.252501,83.4725082 C229.927581,84.8754763 239.299703,77.0490762 248.368867,59.993308 C253.385323,58.4757014 256.06489,55.7659639 256.407569,51.8640953 C256.750248,47.9622268 255.068875,46.0168013 251.363449,46.027819 C252.627914,26.9970334 248.505092,15.5636072 238.994984,11.7275403 C224.729823,5.97343992 205.893674,8.7678589 203.354039,30.1253327 Z" id="Path-2-Copy-3" fill="url(#linearGradient-3)" transform="translate(229.583607, 46.377414) rotate(1.000000) translate(-229.583607, -46.377414) "></path>
                        <ellipse id="Oval-Copy-65" fill="#1E1E1E" cx="228.487013" cy="47.048218" rx="3.12337662" ry="4.32075472"></ellipse>
                        <ellipse id="Oval-Copy-66" fill="#1E1E1E" cx="211.428571" cy="47.28826" rx="2.4025974" ry="3.60062893"></ellipse>
                        <path d="M212.87013,67.3618415 C217.231089,69.0940513 221.715938,69.0440175 226.324675,67.21174 C225.214994,71.2022712 223.055111,73.7833317 218.747334,73.4185845 C215.875483,73.1754197 213.916414,71.1565053 212.87013,67.3618415 Z" id="Path-14-Copy-9" fill="#DAC0A5"></path>
                        <path d="M217.949443,47.048218 C213.132709,55.2224482 211.445691,60.1054349 212.888388,61.697178 C214.331085,63.2889211 217.047942,63.2889211 221.038961,61.697178 C218.323845,62.1520269 216.387489,61.4664364 215.229892,59.6404066 C214.072294,57.8143768 214.978812,53.6169806 217.949443,47.048218 Z" id="Path-17-Copy-10" fill="#68401C"></path>
                        <path d="M225.17472,39.9749626 C227.420092,37.5020821 229.823537,37.0463954 232.653639,38.5406721 L233.551709,36.8428444 C229.935693,34.933609 226.579309,35.5699702 223.751141,38.6846975 L225.17472,39.9749626 Z" id="Path-16-Copy-15" fill="#1E1E1E" fill-rule="nonzero" transform="translate(228.651425, 37.870134) scale(-1, 1) rotate(9.000000) translate(-228.651425, -37.870134) "></path>
                        <path d="M207.872759,39.9900051 C209.382287,38.3908642 211.235369,37.9771021 213.605184,38.7427282 L214.19657,36.9155489 C211.141626,35.9285751 208.50986,36.5162044 206.47445,38.6724462 L207.872759,39.9900051 Z" id="Path-16-Copy-16" fill="#1E1E1E" fill-rule="nonzero" transform="translate(210.335510, 38.220694) rotate(5.000000) translate(-210.335510, -38.220694) "></path>
                        <path d="M242.639109,100.8923 C242.993685,130.491572 239.286612,154.30595 231.62762,172.3092 C230.27809,175.481408 231.757997,179.14601 234.933084,180.494316 C238.108171,181.842622 241.776097,180.364057 243.125627,177.191848 C251.539968,157.413071 255.505423,131.938839 255.131721,100.74292 C255.090433,97.2963079 252.260397,94.5357166 248.810657,94.5769669 C245.360918,94.6182171 242.597822,97.4456881 242.639109,100.8923 Z" id="Path-2" fill="#E1E1E5" fill-rule="nonzero"></path>
                        <g id="manrest-thumbup-copy-3" transform="translate(170.103896, 112.339623) rotate(-8.000000) translate(-170.103896, -112.339623) translate(152.805195, 92.176101)">
                            <g id="Group-50" transform="translate(17.247161, 20.314318) rotate(10.000000) translate(-17.247161, -20.314318) translate(3.071836, 2.551215)">
                                <path d="M14.5413883,12.4962679 C19.9766006,7.7415221 16.2556799,-0.899723985 20.5911338,1.32242841 C23.4814364,2.80386334 23.3173711,7.71202037 20.0989378,16.0468995 C19.7667041,19.9737568 18.5710543,21.9185883 16.5119886,21.8813941 C13.42339,21.8256028 10.7672847,15.7978692 14.5413883,12.4962679 Z" id="Path-15-Copy-2" fill="url(#linearGradient-4)" transform="translate(17.663470, 11.422868) scale(-1, 1) rotate(-8.000000) translate(-17.663470, -11.422868) "></path>
                                <path d="M13.2678047,11.530178 C9.9545431,12.1559567 6.09288083,15.5190329 4.52673617,18.5883647 C3.2656111,21.0599188 3.99484556,23.8640479 6.80655667,27.524757 C9.61826779,31.1854662 11.4739958,31.8455298 14.8190767,31.0248325 C17.1315297,30.4574847 21.9048461,28.6061179 23.6030383,25.7544601 C25.1171775,23.2118701 22.996448,19.7216202 20.067393,15.2682133 C17.1383379,10.8148064 15.9589146,11.0219057 13.2678047,11.530178 Z" id="Path-7-Copy-24" fill="url(#linearGradient-5)" transform="translate(14.017840, 21.304405) rotate(-326.000000) translate(-14.017840, -21.304405) "></path>
                            </g>
                        </g>
                        <path d="M203.483922,41.4137475 C202.90404,36.1846388 201.682987,30.3791815 201.97414,23.1588567 C202.265292,15.9385318 210.015898,5.40504813 228.918069,5.73282456 C247.820241,6.06060098 255.385725,17.2045561 255.715984,27.6726266 C255.936156,34.6513403 255.018322,40.7945991 252.96248,46.1024032 C251.787206,45.9789191 250.527206,46.1855667 249.182479,46.7223459 C247.14763,47.5346033 245.925247,49.0195587 244.855337,50.8527577 C245.076831,43.3222352 246.066976,26.2213276 233.670031,24.2152093 C225.900886,22.9579782 223.710287,26.9626347 216.660841,27.2350648 C211.756783,27.424585 209.827975,24.5159961 207.045239,26.0469165 C204.04465,27.6976888 203.529146,36.8304486 203.483922,41.4137475 Z" id="Path-3-Copy" fill="#1E1E1E" transform="translate(228.838939, 28.289057) rotate(2.000000) translate(-228.838939, -28.289057) "></path>
                        <g id="Group-4" transform="translate(228.006494, 96.496855) scale(-1, 1) translate(-228.006494, -96.496855) translate(213.831169, 87.375262)">
                            <path d="M15.2632851,11.7376359 C17.7417711,12.543319 20.398126,12.3805534 23.2323496,11.249339 C22.1550254,8.57714489 21.8960308,7.52075028 19.4669807,7.52075028 C17.847614,7.52075028 16.4463821,8.92637882 15.2632851,11.7376359 Z" id="Path-59-Copy-4" fill="#E1D6D6"></path>
                            <path d="M19.3497755,7.46117338 C9.22698164,8.43133799 4.43141271,6.09965677 4.96306873,0.466129708 C3.20696634,1.03944621 1.62387978,1.93089212 0.213809033,3.14046745 C1.65146673,10.3745039 6.66795875,15.2570133 15.2632851,17.7879956 C15.2632851,13.0497244 16.6254486,9.60745031 19.3497755,7.46117338 Z" id="Path-57-Copy-6" fill="#FFFFFF"></path>
                            <path d="M28.1909734,7.46607303 C26.5885766,7.2906498 25.3634421,6.83672247 24.5155699,6.10429104 C23.2437615,5.0056439 23.3716642,2.88749131 23.6504591,0.968294261 C22.2726055,1.35420254 20.8244762,2.4939346 19.3060713,4.38749042 C19.3239907,10.0646841 20.813376,14.5315192 23.774227,17.7879956 C23.8924579,12.6822266 25.3647067,9.24158576 28.1909734,7.46607303 Z" id="Path-57-Copy-7" fill="#FFFFFF" transform="translate(23.748514, 9.378145) scale(-1, 1) translate(-23.748514, -9.378145) "></path>
                        </g>
                        <path d="M49.6083268,112.666552 C61.1107375,127.183902 72.1724789,134.591517 83.3545946,133.900492 C94.8722267,133.188734 104.015584,124.157985 111.314671,108.118943 C112.962293,104.498453 111.360304,100.229016 107.736529,98.5828886 C104.112755,96.9367607 99.8394437,98.5372971 98.1918222,102.157787 C92.8639082,113.865364 87.4448464,119.217686 82.4646429,119.525449 C77.1489231,119.853946 69.7774122,114.917534 60.9111538,103.727308 C58.4404097,100.608948 53.9072518,100.082136 50.7860624,102.55064 C47.6648729,105.019144 47.1375827,109.548192 49.6083268,112.666552 Z" id="Path-9-Copy-7" fill="#DD5B02" fill-rule="nonzero"></path>
                        <path d="M18.3127993,196.834382 C17.0052726,180.153629 14.281987,147.14011 13.1759972,127.365211 C12.8059513,120.748858 10.7769222,105.7182 16.1442758,101.591011 C20.1611811,98.5022396 30.8086884,96.3054321 38.3679829,96.0397638 C47.45328,95.7204649 56.4377361,98.7578687 60.5385168,103.214172 C64.4088142,107.42001 62.4547953,119.777897 62.4547953,129.400302 C62.4547953,147.519594 59.2177566,184.110858 57.8888018,196.834382 C51.2752039,196.834382 23.9553766,196.834382 18.3127993,196.834382 Z" id="Path-Copy-3" fill="#EF6100"></path>
                        <path d="M12.9156322,104.286278 C2.94859162,120.715988 -1.15360144,135.164348 1.06436666,147.72163 C3.37508876,160.80405 12.3574093,170.927743 27.204432,177.906128 C30.8064903,179.599164 35.100258,178.054243 36.7948307,174.455451 C38.4894033,170.856658 36.9430808,166.566783 33.3410225,164.873746 C22.4387582,159.749473 16.6809174,153.259991 15.2606037,145.218721 C13.747536,136.652314 16.9234328,125.466468 25.2436077,111.751458 C27.3069308,108.350268 26.2198733,103.921921 22.8155969,101.860468 C19.4113204,99.7990157 14.9789553,100.885088 12.9156322,104.286278 Z" id="Path-9-Copy-8" fill="#FF6E0B" fill-rule="nonzero"></path>
                        <path d="M98.5981922,100.028028 C97.4729261,95.8877165 95.5496926,92.0611957 93.8611554,90.4527106 C92.94775,89.5826089 92.322554,88.5041597 92.9917794,87.5613354 C93.6610048,86.6185111 96.252109,87.1499975 97.1655144,88.0200992 C98.6957597,89.4777969 100.015578,91.6345499 101.061805,94.1915557 C104.827954,89.3762652 114.414454,96.1833429 115.7261,99.0288615 C116.625105,100.979186 116.382633,103.585378 114.998685,106.847437 C109.722684,110.064805 105.536351,110.630884 102.439686,108.545672 C99.3383092,106.457288 98.0577873,103.464045 98.5981922,100.028028 Z" id="Combined-Shape-Copy-57" fill="url(#linearGradient-6)" transform="translate(104.482742, 98.419074) rotate(-45.000000) translate(-104.482742, -98.419074) "></path>
                        <g id="Group-5" transform="translate(38.922078, 51.609015) scale(-1, 1) translate(-38.922078, -51.609015) translate(7.207792, 0.000000)">
                            <path d="M20.9330217,83.0545073 C20.7622007,90.5222743 20.361486,95.9631809 19.7308779,99.3772272 C18.7849656,104.498297 40.8473044,104.498297 39.8503059,99.3772272 C39.1856401,95.9631809 38.7975645,91.3271265 38.6860788,85.4690641 L20.9330217,83.0545073 Z" id="Path-7-Copy-18" fill="#8D5A2E" transform="translate(29.792208, 93.136268) scale(-1, 1) translate(-29.792208, -93.136268) "></path>
                            <path d="M20.6623377,90.0812241 C23.0126201,94.0382557 26.123235,96.0167715 29.9941822,96.0167715 C33.8651294,96.0167715 36.6809215,94.1036287 38.4415584,90.2773433 L38.2684942,87.1192325 C35.7271051,87.438663 32.9690011,87.5983783 29.9941822,87.5983783 C27.0193633,87.5983783 23.9087485,85.9237267 20.6623377,82.5744235 L20.6623377,90.0812241 Z" id="Path-10-Copy-8" fill="#68401C" transform="translate(29.551948, 89.295597) scale(-1, 1) translate(-29.551948, -89.295597) "></path>
                            <ellipse id="Oval-Copy-67" fill="#1E1E1E" transform="translate(12.493506, 30.005241) scale(-1, 1) translate(-12.493506, -30.005241) " cx="12.4935065" cy="30.0052411" rx="12.4935065" ry="10.8018868"></ellipse>
                            <path d="M5.79082388,36.8821574 C3.25118841,58.2396312 8.17666559,88.1248809 22.6892861,90.2293329 C32.3643665,91.632301 41.7364885,83.8059009 50.8056521,66.7501327 C55.822108,65.2325261 58.5016754,62.5227886 58.8443543,58.62092 C59.1870332,54.7190515 57.5056598,52.773626 53.8002343,52.7846437 C55.0646988,33.7538581 50.9418772,22.3204319 41.4317694,18.484365 C27.1666077,12.7302646 8.33045935,15.5246836 5.79082388,36.8821574 Z" id="Path-2-Copy-4" fill="url(#linearGradient-3)" transform="translate(32.020392, 53.134238) rotate(1.000000) translate(-32.020392, -53.134238) "></path>
                            <ellipse id="Oval-Copy-68" fill="#1E1E1E" cx="30.512987" cy="53.7476672" rx="3.12337662" ry="4.32075472"></ellipse>
                            <ellipse id="Oval-Copy-69" fill="#1E1E1E" cx="12.1522307" cy="53.7476672" rx="2.64285714" ry="4.32075472"></ellipse>
                            <path d="M14.8961039,74.0830155 C19.2570633,75.8152253 23.7419117,75.7651915 28.3506494,73.932914 C27.2409679,77.9234452 25.0810854,80.5045057 20.7733081,80.1397585 C17.9014566,79.8965937 15.9423885,77.8776793 14.8961039,74.0830155 Z" id="Path-14-Copy-10" fill="#DAC0A5"></path>
                            <path d="M19.9754172,53.769392 C15.1586832,61.9436222 13.4716647,66.8266089 14.9143617,68.418352 C16.3570587,70.0100951 19.0739165,70.0100951 23.0649351,68.418352 C20.3498194,68.8732009 18.413463,68.1876104 17.2558657,66.3615806 C16.0982684,64.5355508 17.0047856,60.3381546 19.9754172,53.769392 Z" id="Path-17-Copy-11" fill="#68401C"></path>
                            <path d="M27.0947501,45.7982071 C29.5903167,43.4002853 32.1748825,43.0342541 35.0918839,44.6525964 L36.0249993,42.9737391 C32.3621545,40.9416054 28.8601402,41.4375675 25.7623928,44.4141084 L27.0947501,45.7982071 Z" id="Path-16-Copy-17" fill="#1E1E1E" fill-rule="nonzero" transform="translate(30.893696, 43.771871) scale(-1, 1) translate(-30.893696, -43.771871) "></path>
                            <path d="M9.24748945,45.2848534 C10.7570174,43.6857125 12.6100994,43.2719504 14.9799141,44.0375765 L15.5713005,42.2103972 C12.5163561,41.2234234 9.88458962,41.8110527 7.84917966,43.9672945 L9.24748945,45.2848534 Z" id="Path-16-Copy-18" fill="#1E1E1E" fill-rule="nonzero" transform="translate(11.710240, 43.515542) rotate(8.000000) translate(-11.710240, -43.515542) "></path>
                            <path d="M22.8855039,58.6306706 C20.9645857,56.6558979 18.4821177,55.6882253 15.4380997,55.7276529 C13.7912617,52.6624426 10.9836484,49.6147905 8.51163251,39.0303933 C5.03453106,24.142535 12.1164679,17.248424 18.671863,15.1040868 C37.0795342,10.3230581 54.0397477,11.3394377 59.6978357,19.1737632 C63.1534421,23.9584795 61.6661709,30.5848717 49.9439707,30.7165739 C43.8042848,30.7855549 33.5200446,28.4821421 28.1269061,32.6484724 C24.9135817,35.1308435 21.3912624,41.3443219 21.4786097,47.5743411 C21.5289853,51.1673689 21.99795,54.8528121 22.8855039,58.6306706 Z" id="Path-3-Copy-6" fill="#1E1E1E" transform="translate(34.463009, 35.422772) scale(-1, 1) rotate(5.000000) translate(-34.463009, -35.422772) "></path>
                            <ellipse id="Oval-Copy-13" fill="#1E1E1E" transform="translate(39.883117, 16.082809) scale(-1, 1) translate(-39.883117, -16.082809) " cx="39.8831169" cy="16.0828092" rx="12.4935065" ry="10.8018868"></ellipse>
                            <ellipse id="Oval-Copy-63" fill="#1E1E1E" transform="translate(15.616883, 18.723270) scale(-1, 1) translate(-15.616883, -18.723270) " cx="15.6168831" cy="18.7232704" rx="12.2532468" ry="13.442348"></ellipse>
                            <ellipse id="Oval-Copy-18" fill="#1E1E1E" transform="translate(25.948052, 10.801887) scale(-1, 1) translate(-25.948052, -10.801887) " cx="25.9480519" cy="10.8018868" rx="12.4935065" ry="10.8018868"></ellipse>
                        </g>
                        <g id="Group-62" transform="translate(42.283153, 174.035376) rotate(-74.000000) translate(-42.283153, -174.035376) translate(21.620815, 155.072063)">
                            <path d="M22.6824529,10.6534617 C25.7867301,8.55185546 27.0679657,4.30840496 28.5351831,5.9079418 C29.513328,6.97429969 28.5560852,9.17604683 25.6634544,12.5131832 C26.8824413,14.2171075 27.3908954,15.8817374 27.1888168,17.5070729 C26.9867382,19.1324085 26.4332785,20.6631213 25.5284377,22.0992113 C23.0765484,21.0356819 21.4523507,19.7002669 20.6558446,18.0929664 C19.4610855,15.6820155 20.3922822,12.2039151 22.6824529,10.6534617 Z" id="Path-15-Copy-2" fill="url(#linearGradient-7)" transform="translate(24.519877, 13.827351) rotate(124.000000) translate(-24.519877, -13.827351) "></path>
                            <path d="M38.2764281,15.4983022 L40.3848954,28.8549297 C40.6327316,30.4249118 39.5609454,31.8987657 37.9898639,32.1484284 L6.34904452,37.1765143 C4.7765103,37.4264078 3.29895687,36.3553514 3.04883656,34.7842428 L3.04824724,34.7805254 L0.939779888,21.4238979 C0.691943675,19.8539158 1.76372989,18.3800619 3.33481139,18.1303992 L34.9756308,13.1023134 C36.548165,12.8524198 38.0257185,13.9234762 38.2758388,15.4945848 C38.276036,15.4958238 38.2762325,15.497063 38.2764281,15.4983022 Z" id="Rectangle-Copy-171" fill="#4C505B"></path>
                            <g id="Group-49-Copy-9" transform="translate(17.939394, 16.552722) scale(-1, 1) rotate(-103.000000) translate(-17.939394, -16.552722) translate(3.683983, 5.142593)">
                                <path d="M19.866622,3.91026112 C16.6992663,6.13669193 14.4028834,8.04541955 12.9774733,9.63644398 C10.8393583,12.0229806 17.1285227,21.7529013 19.845214,20.545725 C20.8209262,20.112162 22.2637256,19.1674438 24.1736121,17.7115702 C24.8399836,15.9695982 24.4478132,13.4080115 22.997101,10.0268102 C21.5463887,6.64560895 20.5028957,4.60675924 19.866622,3.91026112 Z" id="Path-7-Copy-24" fill="#824F25" transform="translate(18.515136, 12.279612) rotate(-143.000000) translate(-18.515136, -12.279612) "></path>
                                <path d="M3.87782927,9.08550934 C3.90072919,12.0321751 5.37219358,15.7201738 8.23342456,20.2648428 C8.78588501,21.1423497 9.94445713,21.4054452 10.8211678,20.852483 C11.6978785,20.2995208 11.9607352,19.1398965 11.4082748,18.2623896 C8.88632208,14.2566172 7.64661115,11.1494728 7.63034407,9.0562938 C7.62228374,8.01912435 6.7757205,7.18487251 5.73949215,7.19294016 C4.7032638,7.20100781 3.86976894,8.0483399 3.87782927,9.08550934 Z" id="Path-33-Copy-4" fill="url(#linearGradient-8)" fill-rule="nonzero" transform="translate(7.787561, 14.167352) scale(-1, 1) rotate(-91.000000) translate(-7.787561, -14.167352) "></path>
                                <path d="M7.62629795,-2.04436879 C8.14042999,2.54532918 9.63932644,7.11762347 12.1113354,11.6648978 C12.6066128,12.5759632 13.7460086,12.9126614 14.6562474,12.4169343 C15.5664861,11.9212072 15.9028788,10.7807765 15.4076015,9.86971111 C13.1606155,5.73636793 11.8138187,1.62804465 11.3555592,-2.46287495 C11.2400968,-3.49361728 10.3116724,-4.23551324 9.28186538,-4.11994595 C8.25205832,-4.00437867 7.51083553,-3.07511112 7.62629795,-2.04436879 Z" id="Path-33-Copy-5" fill="url(#linearGradient-9)" fill-rule="nonzero" transform="translate(11.625293, 4.256936) scale(-1, 1) rotate(-91.000000) translate(-11.625293, -4.256936) "></path>
                                <path d="M4.2377657,4.32731816 C5.1405285,9.85066876 6.94069457,14.5413209 9.65037749,18.379269 C10.2484131,19.2263163 11.4192611,19.4277398 12.2655398,18.8291611 C13.1118185,18.2305824 13.3130593,17.058671 12.7150237,16.2116237 C10.3514342,12.8638764 8.75610998,8.70697604 7.94116467,3.72091698 C7.77386355,2.69732281 6.8092051,2.00328331 5.78653971,2.17073637 C4.76387432,2.33818944 4.07046458,3.30372399 4.2377657,4.32731816 Z" id="Path-33-Copy-6" fill="url(#linearGradient-10)" fill-rule="nonzero" transform="translate(8.636017, 10.659716) scale(-1, 1) rotate(-91.000000) translate(-8.636017, -10.659716) "></path>
                                <path d="M4.67783135,-0.054099326 C5.20048663,4.69935557 7.15378087,9.79696167 10.5105548,15.2490618 C11.0542054,16.1320638 12.2100864,16.4067621 13.0922871,15.8626177 C13.9744878,15.3184732 14.2489369,14.1615426 13.7052862,13.2785406 C10.6208825,8.26882634 8.86415312,3.68420515 8.40793893,-0.464980092 C8.29458029,-1.49595634 7.36767194,-2.23974893 6.33763117,-2.12628733 C5.3075904,-2.01282574 4.56447271,-1.08507557 4.67783135,-0.054099326 Z" id="Path-33-Copy-7" fill="url(#linearGradient-11)" fill-rule="nonzero" transform="translate(9.325453, 7.002180) scale(-1, 1) rotate(-91.000000) translate(-9.325453, -7.002180) "></path>
                            </g>
                            <ellipse id="Oval" fill="#2F323A" cx="33.7965368" cy="22.5681172" rx="1.28138528" ry="1.2856483"></ellipse>
                        </g>
                        <path d="M93.2207792,76.8333333 C92.4352858,76.8333333 91.7987013,77.4693407 91.7987013,78.2536688 L91.7987013,96.0167715 C91.7987013,96.8010995 92.4352858,97.4371069 93.2207792,97.4371069 L125.896104,97.4371069 C126.681597,97.4371069 127.318182,96.8010995 127.318182,96.0167715 L127.318182,78.2536688 C127.318182,77.4693407 126.681597,76.8333333 125.896104,76.8333333 L93.2207792,76.8333333 Z" id="Rectangle" stroke="#BBC2C2" fill="#FFFFFF"></path>
                        <g id="Group-2-Copy-9" transform="translate(109.845059, 76.453615) rotate(-85.000000) translate(-109.845059, -76.453615) translate(105.280124, 66.611896)" fill-rule="nonzero">
                            <path d="M2.23871455,17.2516648 C2.23835317,17.2470806 2.2381987,17.2453999 2.23838737,17.2471539 C2.23947036,17.2572221 2.24116732,17.2706183 2.24385492,17.2884748 C2.24895772,17.3223779 2.25583215,17.3603425 2.26577277,17.4051839 C2.28296942,17.4827567 2.30554753,17.5646924 2.33877208,17.6582449 C2.29707143,17.5408888 2.26495268,17.4224197 2.24204971,17.303764 C2.24095501,17.2832952 2.2398345,17.2658714 2.23871455,17.2516648 Z M2.38057116,17.6279107 C2.37697757,17.6177522 2.37341844,17.6075899 2.36989368,17.5974239 C2.37334417,17.6073765 2.37692688,17.617609 2.38057116,17.6279107 Z M3.6433987,14.4720352 C4.78276001,14.0185301 6.03313245,14.6901468 6.43618372,15.9721332 C6.53184366,16.276399 6.56108639,16.5004371 6.58269154,16.8164629 C6.59352184,16.9748814 6.60033941,17.1585491 6.6043295,17.3763736 C6.62923362,18.7359216 5.6699066,19.860769 4.46161263,19.8887906 C3.25331867,19.9168122 2.2536141,18.8373968 2.22870999,17.4778488 C2.22692233,17.3802586 2.22450304,17.3018384 2.22191714,17.2460834 C2.02561776,16.0733809 2.61242727,14.8823975 3.6433987,14.4720352 Z" id="Path-21-Copy-4" fill="url(#linearGradient-12)" transform="translate(4.394560, 17.109864) rotate(-96.000000) translate(-4.394560, -17.109864) "></path>
                            <path d="M2.3511093,13.2343269 C2.34997452,13.2293918 2.34884739,13.2244567 2.34772791,13.2195216 C2.34882134,13.2243405 2.34995663,13.229314 2.3511093,13.2343269 Z M4.14833211,10.3272947 C5.43325558,10.0322126 6.71440442,10.8333274 7.00985812,12.1166345 C7.08977832,12.4637689 7.10767637,12.8212796 7.11762921,13.5632534 C7.13529113,14.8799308 6.08088662,15.9616086 4.76255083,15.9792483 C3.44421503,15.996888 2.36117489,14.9438098 2.34351297,13.6271324 C2.34036188,13.392222 2.33540612,13.2099028 2.32919642,13.0858652 C2.32802391,13.0624445 2.32688888,13.0427952 2.32589697,13.0275009 C2.12785355,11.7986726 2.91607714,10.6102814 4.14833211,10.3272947 Z" id="Path-21-Copy-3" fill="url(#linearGradient-13)" transform="translate(4.706673, 13.122799) rotate(-96.000000) translate(-4.706673, -13.122799) "></path>
                            <path d="M4.52645726,5.61371175 C5.91397519,5.42740944 7.19553004,6.36013086 7.38889013,7.69700334 C7.43716713,8.03078573 7.45468696,8.58783706 7.46331401,9.6115681 C7.47468842,10.9613149 6.34827159,12.0643851 4.94739159,12.0753444 C3.5465116,12.0863036 2.4016532,11.0010018 2.39027879,9.651255 C2.38669046,9.2254445 2.38092886,8.88804312 2.37320974,8.64261018 C2.3696757,8.53024368 2.36583093,8.44065128 2.36198183,8.37655044 C2.36091353,8.35875968 2.35994098,8.34455005 2.3591604,8.33447895 C2.18888313,7.0119681 3.15181318,5.79828547 4.52645726,5.61371175 Z" id="Path-21-Copy-2" fill="url(#linearGradient-13)" transform="translate(4.901526, 8.832723) rotate(-111.000000) translate(-4.901526, -8.832723) "></path>
                            <path d="M3.9094677,0.954058766 C5.29308847,0.736150076 6.59260365,1.67345918 6.8120161,3.04759723 C6.86671286,3.39015259 6.88447495,3.90172289 6.89344152,4.86554291 C6.90638454,6.25679212 5.78126362,7.39504292 4.38041362,7.40789723 C2.97956362,7.42075154 1.83345793,6.30334169 1.82051491,4.91209248 C1.81696775,4.5308073 1.81129115,4.22968835 1.8037643,4.01290563 C1.80042192,3.91664095 1.79684804,3.8412036 1.79343834,3.78976766 C1.7930679,3.78417957 1.7927296,3.77932527 1.79243604,3.77527066 C1.61032817,2.4243056 2.54648934,1.16871645 3.9094677,0.954058766 Z" id="Path-21-Copy" fill="url(#linearGradient-13)" transform="translate(4.331679, 4.165303) rotate(-124.000000) translate(-4.331679, -4.165303) "></path>
                        </g>
                        <g id="Group-6" transform="translate(102.488805, 87.534473) rotate(-1.000000) translate(-102.488805, -87.534473) translate(95.040753, 80.093173)">
                            <ellipse id="Oval" fill="#DBE5E6" cx="7.31269872" cy="7.27970456" rx="7.20779221" ry="7.20125786"></ellipse>
                            <g id="Group-2" transform="translate(2.975481, 1.514399)">
                                <path d="M3.20951304,10.5000797 C3.1886904,11.2351987 3.13984433,11.8169698 3.06297483,12.2453931 C2.94767058,12.8880281 5.63701248,12.8880281 5.51548094,12.2453931 C5.43445991,11.8169698 5.38715449,11.2351987 5.37356468,10.5000797 L3.20951304,10.5000797 Z" id="Path-7-Copy-6" fill="#8D5A2E"></path>
                                <path d="M3.18955629,11.2932691 C3.46096628,11.7721794 3.83206671,12.0116346 4.30285759,12.0116346 C4.77364847,12.0116346 5.13819109,11.7616881 5.39648547,11.2617953 L5.39648547,10.8617945 C5.02920251,10.9259056 4.66465988,10.9579612 4.30285759,10.9579612 C3.9410553,10.9579612 3.56995486,10.9579612 3.18955629,10.9579612 L3.18955629,11.2932691 Z" id="Path-10-Copy-2" fill="#68401C"></path>
                                <path d="M7.14529257,7.91680582 C6.58114074,9.9343478 5.61165185,11.4548122 4.29396771,11.4548122 C2.97292655,11.4548122 1.79736797,9.94869419 1.22964714,7.91789154 C0.625555053,7.82638664 0.289707626,7.52669253 0.222104862,7.01880922 C0.152689108,6.49730535 0.379326871,6.17887272 0.902018151,6.06351132 C0.89392308,5.96275996 0.887311339,5.86152164 0.882224378,5.75988433 C0.730869501,2.7358188 2.31947965,1.6176163 4.29396771,1.6176163 C6.26845577,1.6176163 7.95567869,2.77501595 7.57370287,5.75988433 C7.56003895,5.86665813 7.54540688,5.97308029 7.52981288,6.07903932 C8.00694756,6.20584395 8.21225757,6.51910058 8.14574291,7.01880922 C8.07840516,7.52470158 7.74492171,7.82403378 7.14529257,7.91680582 Z" id="Combined-Shape-Copy-2" fill="url(#linearGradient-14)"></path>
                                <ellipse id="Oval-Copy-14" fill="#1E1E1E" transform="translate(3.059369, 6.761415) scale(-1, 1) translate(-3.059369, -6.761415) " cx="3.0593692" cy="6.76141495" rx="1" ry="1"></ellipse>
                                <ellipse id="Oval-Copy-15" fill="#1E1E1E" transform="translate(5.708720, 6.761415) scale(-1, 1) translate(-5.708720, -6.761415) " cx="5.70871985" cy="6.76141495" rx="1" ry="1"></ellipse>
                                <path d="M3.24860853,9.09503437 C3.98465573,9.40412565 4.74161306,9.39519774 5.51948052,9.06825064 C5.33218734,9.78031123 4.96764017,10.2408693 4.24056909,10.1757847 C3.75585504,10.132395 3.42520152,9.77214488 3.24860853,9.09503437 Z" id="Path-14-Copy-3" fill="#DAC0A5" transform="translate(4.384045, 9.625073) scale(-1, 1) translate(-4.384045, -9.625073) "></path>
                                <path d="M4.54618875,6.44323072 C3.91387617,7.49665653 3.69241429,8.12593465 3.88180309,8.33106507 C4.07119188,8.53619548 4.42784503,8.53619548 4.95176252,8.33106507 C4.59533808,8.38968215 4.34114457,8.30132904 4.18918199,8.06600573 C4.03721941,7.83068242 4.15622167,7.28975741 4.54618875,6.44323072 Z" id="Path-17-Copy-3" fill="#68401C" transform="translate(4.384045, 7.464072) scale(-1, 1) translate(-4.384045, -7.464072) "></path>
                                <path d="M7.4410805,2.1422305 C7.88222203,2.53352818 8.09128754,3.1907067 8.14282755,3.76352808 C8.19016245,4.28961342 7.97988212,5.13871531 7.51198657,6.31083374 C7.45536877,5.03652181 7.18125046,4.24733242 6.68963164,3.94326554 C5.95220341,3.48716524 5.05028834,3.99621129 4.2622707,3.92027773 C4.19620571,3.91391169 4.14478701,3.90060854 4.10662542,3.88121889 C3.34734405,3.75158294 2.42503562,3.56326717 1.72692705,3.99243435 C1.23186441,4.29677761 0.953270341,5.06503678 0.891144855,6.29721187 C0.444234432,5.31745006 0.220779221,4.47074254 0.220779221,3.75708929 C0.220779221,2.90283577 0.433511221,2.29994403 0.961600341,1.99288643 C0.984007746,1.28443611 1.67437028,0.715914524 2.52272727,0.715914524 C2.61763265,0.715914524 2.71056075,0.723029465 2.80079763,0.736659305 C3.0546192,0.300434982 3.58783627,0 4.20454545,0 C4.92295557,0 5.52806581,0.407694218 5.71019267,0.962811333 C5.76801989,0.957355017 5.82680238,0.954552699 5.88636364,0.954552699 C6.69876388,0.954552699 7.36627871,1.47590316 7.4410805,2.1422305 Z" id="Combined-Shape-Copy-3" fill="#1E1E1E"></path>
                                <path d="M2.45739046,5.98910554 C2.83500064,5.58633665 3.24474187,5.52192171 3.69318387,5.79809803 L3.76136159,5.31865136 C3.25511753,5.00687721 2.78174188,5.08129604 2.34780434,5.54414518 L2.45739046,5.98910554 Z" id="Path-16-Copy-6" fill="#1E1E1E" fill-rule="nonzero"></path>
                                <path d="M5.19181382,5.94544021 C5.50304061,5.64310752 5.92172765,5.5671527 6.44844773,5.72600838 L6.48290663,5.23117768 C5.91353469,5.05945845 5.44910484,5.14371156 5.09018989,5.4923696 L5.19181382,5.94544021 Z" id="Path-16-Copy-7" fill="#1E1E1E" fill-rule="nonzero" transform="translate(5.786548, 5.645095) scale(-1, 1) translate(-5.786548, -5.645095) "></path>
                            </g>
                        </g>
                        <rect id="Rectangle" fill="#CDD3D4" x="112.441558" y="82.5744235" width="12.012987" height="1.92033543" rx="0.960167715"></rect>
                        <rect id="Rectangle-Copy-3" fill="#CDD3D4" x="112.441558" y="86.4150943" width="9.12987013" height="1.92033543" rx="0.960167715"></rect>
                        <rect id="Rectangle-Copy-4" fill="#CDD3D4" x="112.441558" y="90.2557652" width="10.5714286" height="1.92033543" rx="0.960167715"></rect>
                        <g id="Group-60-Copy" transform="translate(235.240136, 181.596308) scale(-1, 1) rotate(-26.000000) translate(-235.240136, -181.596308) translate(219.623253, 164.793373)">
                            <path d="M19.6210353,10.8116447 C22.7722353,8.67826102 24.0720411,4.36947079 25.5620479,5.99409701 C26.5553858,7.07718116 25.5840402,9.31276133 22.6480111,12.7008375 C23.8860201,14.4314074 24.4026337,16.1219074 24.1978518,17.7723376 C23.9930698,19.4227678 23.431517,20.9770287 22.5131932,22.4351202 C20.0235998,21.3545606 18.3742771,19.9981049 17.565225,18.365753 C16.3516469,15.9172253 17.2962474,12.3855418 19.6210353,10.8116447 Z" id="Path-15-Copy-2" fill="url(#linearGradient-7)" transform="translate(21.486688, 14.035579) rotate(124.000000) translate(-21.486688, -14.035579) "></path>
                            <g id="Group-49-Copy-9" transform="translate(14.848880, 16.877463) scale(-1, 1) rotate(-103.000000) translate(-14.848880, -16.877463) translate(0.433296, 5.355450)">
                                <path d="M20.1791808,3.96814353 C16.9623744,6.22941435 14.6300669,8.16790798 13.1822584,9.7836244 C11.0105457,12.207199 17.3944395,22.0844536 20.1533736,20.8581425 C21.1442576,20.4177072 22.6095658,19.4581814 24.5492984,17.9795653 C25.2263851,16.2107774 24.8287859,13.6100932 23.3565006,10.1775129 C21.8842153,6.74493254 20.8251087,4.67514276 20.1791808,3.96814353 Z" id="Path-7-Copy-24" fill="#824F25" transform="translate(18.804500, 12.465614) rotate(-143.000000) translate(-18.804500, -12.465614) "></path>
                                <path d="M3.93842035,9.22284714 C3.96167808,12.2140551 5.4561341,15.9578021 8.36207182,20.571169 C8.92316447,21.4619404 10.0998393,21.7290128 10.9902485,21.167692 C11.8806578,20.6063711 12.1476217,19.4292178 11.586529,18.5384464 C9.02517087,14.4721221 7.76608945,11.3180097 7.7495682,9.19318997 C7.74138192,8.14034252 6.88159113,7.29348002 5.82917171,7.30166962 C4.7767523,7.30985923 3.93023408,8.1699997 3.93842035,9.22284714 Z" id="Path-33-Copy-4" fill="url(#linearGradient-8)" fill-rule="nonzero" transform="translate(7.909242, 14.381508) scale(-1, 1) rotate(-91.000000) translate(-7.909242, -14.381508) "></path>
                                <path d="M7.74545886,-2.07527174 C8.2676242,2.58380473 9.78994092,7.22521443 12.3005751,11.841226 C12.8035911,12.7660632 13.96079,13.107851 14.8852512,12.6046304 C15.8097124,12.1014098 16.1513613,10.9437402 15.6483452,10.018903 C13.3662501,5.82307965 11.9984097,1.65265439 11.5329898,-2.5001041 C11.4157233,-3.54642727 10.4727923,-4.29953783 9.42689453,-4.18222362 C8.38099673,-4.0649094 7.62819234,-3.12159492 7.74545886,-2.07527174 Z" id="Path-33-Copy-5" fill="url(#linearGradient-9)" fill-rule="nonzero" transform="translate(11.806938, 4.321284) scale(-1, 1) rotate(-91.000000) translate(-11.806938, -4.321284) "></path>
                                <path d="M4.30398079,4.39273049 C5.22084926,9.99957281 7.04914292,14.7611295 9.80116464,18.6570925 C10.4085445,19.5169439 11.5976871,19.7214122 12.4571889,19.1137853 C13.3166906,18.5061583 13.5210758,17.3165322 12.9136959,16.4566808 C10.5131753,13.0583285 8.8929242,8.83859187 8.06524537,3.77716286 C7.89533017,2.73809591 6.91559893,2.03356521 5.87695439,2.20354952 C4.83830986,2.37353383 4.13406559,3.35366353 4.30398079,4.39273049 Z" id="Path-33-Copy-6" fill="url(#linearGradient-10)" fill-rule="nonzero" transform="translate(8.770955, 10.820850) scale(-1, 1) rotate(-91.000000) translate(-8.770955, -10.820850) "></path>
                                <path d="M4.75092247,-0.0549170988 C5.28174423,4.77039167 7.26555869,9.94505387 10.6747822,15.4795687 C11.2269274,16.3759182 12.400869,16.6547689 13.2968541,16.1023991 C14.1928392,15.5500294 14.4715765,14.3756104 13.9194313,13.4792608 C10.7868337,8.39381905 9.00265551,3.7398961 8.53931298,-0.472008795 C8.42418311,-1.51856942 7.48279181,-2.27360527 6.43665666,-2.15842858 C5.3905215,-2.04325189 4.6357926,-1.10147772 4.75092247,-0.0549170988 Z" id="Path-33-Copy-7" fill="url(#linearGradient-11)" fill-rule="nonzero" transform="translate(9.471163, 7.108026) scale(-1, 1) rotate(-91.000000) translate(-9.471163, -7.108026) "></path>
                            </g>
                        </g>
                        <path d="M123.974026,179.551363 L207.584416,179.551363 L207.584416,180.312369 C207.584416,183.073793 205.345839,185.312369 202.584416,185.312369 L128.974026,185.312369 C126.212602,185.312369 123.974026,183.073793 123.974026,180.312369 L123.974026,179.551363 Z" id="Rectangle-Copy-12" fill="#4A4A4A"></path>
                        <path d="M120.302982,133.463312 L175.700078,133.463312 C178.132618,133.463312 180.212184,135.213982 180.626884,137.610912 L186.870577,173.698962 C187.341345,176.419962 185.517171,179.007401 182.796172,179.478168 C182.514651,179.526875 182.229474,179.551363 181.943771,179.551363 L126.546675,179.551363 C124.114135,179.551363 122.034569,177.800694 121.619869,175.403763 L115.376176,139.315713 C114.905409,136.594713 116.729582,134.007274 119.450582,133.536507 C119.732102,133.4878 120.017279,133.463312 120.302982,133.463312 Z" id="Rectangle-Copy-13" fill="#5F5F5F"></path>
                        <path d="M122.363636,185.312369 L275.818182,185.312369 L275.818182,185.312369 C275.818182,191.675801 270.659601,196.834382 264.296169,196.834382 L114.363636,196.834382 L114.363636,193.312369 C114.363636,188.894091 117.945358,185.312369 122.363636,185.312369 Z" id="Rectangle-Copy-11" fill="#BAAA8B"></path>
                    </g>
                </g>
                <g id="Status/Gold" transform="translate(0.000000, 199.000000)">
                    <g id="Group-2" stroke-width="1" fill-rule="evenodd" transform="translate(21.064748, 15.155556)">
                        <path d="M5.52517986,0 L49.0359712,0 C52.0874438,-5.59119101e-16 54.5611511,2.46740849 54.5611511,5.51111111 L54.5611511,33.4111111 C54.5611511,36.4548137 52.0874438,38.9222222 49.0359712,38.9222222 L5.52517986,38.9222222 C2.47370728,38.9222222 3.73697612e-16,36.4548137 0,33.4111111 L0,5.51111111 C-3.73697612e-16,2.46740849 2.47370728,5.59119101e-16 5.52517986,0 Z" id="Rectangle-Copy-17" fill="url(#linearGradient-15)" fill-rule="nonzero"></path>
                        <rect id="Rectangle-Copy-4" fill="#ED9508" x="0" y="5.51111111" width="54.5611511" height="6.54444444"></rect>
                        <rect id="Rectangle-Copy-5" fill="#ED9508" x="6.21582734" y="15.1555556" width="8.28776978" height="8.61111111" rx="4"></rect>
                        <rect id="Rectangle" fill="#ED9508" x="6.21582734" y="29.9666667" width="8.28776978" height="3.44444444" rx="1.72222222"></rect>
                        <rect id="Rectangle-Copy" fill="#ED9508" x="17.2661871" y="29.9666667" width="8.63309353" height="3.44444444" rx="1.72222222"></rect>
                        <rect id="Rectangle-Copy-2" fill="#ED9508" x="28.6618705" y="29.9666667" width="8.28776978" height="3.44444444" rx="1.72222222"></rect>
                        <rect id="Rectangle-Copy-3" fill="#ED9508" x="39.7122302" y="29.9666667" width="8.28776978" height="3.44444444" rx="1.72222222"></rect>
                    </g>
                    <path d="M6.92566241,11.1851379 C6.92566241,11.1851379 3.73165383,9.61117788 2.95533229,6.52244002 C2.17901076,3.43370217 4.11138552,-2.5826008e-12 4.11138552,-2.5826008e-12 C4.11138552,-2.5826008e-12 7.30549479,1.57482054 8.08171564,4.66269783 C8.85793649,7.75057511 6.92566241,11.1851379 6.92566241,11.1851379 Z M10.7132764,17.5206136 C10.7132764,17.5206136 8.35194753,14.4967448 8.71290336,11.3002537 C9.07365783,8.10204153 12.0185407,5.94188174 12.0185407,5.94188174 C12.0185407,5.94188174 14.3798696,8.9657506 14.0204472,12.1628603 C13.6581593,15.3604538 10.7132764,17.5206136 10.7132764,17.5206136 Z M12.9843693,17.6751481 C14.2465317,14.8258483 17.6313303,14.0280002 17.6313303,14.0280002 C17.6313303,14.0280002 18.9731695,17.8479348 17.7109064,20.696374 C16.4508931,23.545311 13.0639453,24.343522 13.0639453,24.343522 C13.0639453,24.343522 11.7221061,20.5235874 12.9843693,17.6751481 Z M15.2717824,25.6495749 C17.2023181,23.4052888 20.6287688,23.900088 20.6287688,23.900088 C20.6287688,23.900088 20.9250259,28.0308101 18.9942889,30.273375 C17.0636525,32.5168005 13.6373025,32.0228618 13.6373025,32.0228618 C13.6373025,32.0228618 13.3411461,27.8930004 15.2717824,25.6495749 Z M15.5433113,34.2021525 C17.7505473,32.3622231 21.0647482,33.5148428 21.0647482,33.5148428 C21.0647482,33.5148428 20.8017727,37.6487096 18.5944359,39.4877785 C16.3887333,41.3283266 13.0728983,40.1742276 13.0728983,40.1742276 C13.0728983,40.1742276 13.3359745,36.0412214 15.5433113,34.2021525 Z M13.7055604,42.6220216 C16.2575472,41.6119895 19.1607677,43.8475844 19.1607677,43.8475844 C19.1607677,43.8475844 17.9330895,47.7222057 15.3818191,48.7321169 C12.8305487,49.742028 9.9250783,47.5059354 9.9250783,47.5059354 C9.9250783,47.5059354 11.1544914,43.6336539 13.7055604,42.6220216 Z M10.8797094,50.0081917 C13.5668868,50.0600111 15.6973648,53.3211837 15.6973648,53.3211837 C15.6973648,53.3211837 13.4756423,56.4921978 10.7898978,56.4401365 C8.10385123,56.3854935 5.97214172,53.126284 5.97214172,53.126284 C5.97214172,53.126284 8.19386424,49.9552698 10.8797094,50.0081917 Z M5.52277784,56.4006288 C7.94742569,57.0365848 8.99928756,59.2715645 9.5426819,60.5061024 C8.31666519,61.2622617 6.02186594,62.1179862 3.40477388,61.3618269 C0.787681832,60.6056675 0.34534181,57.2982005 0.34534181,57.2982005 C0.34534181,57.2982005 2.72330471,55.6663607 5.52277784,56.4006288 Z" id="Combined-Shape-Copy-5" fill="#FFEEA3" fill-rule="nonzero" transform="translate(10.705036, 30.827778) scale(-1, 1) translate(-10.705036, -30.827778) "></path>
                    <path d="M81.8609142,11.1851379 C81.8609142,11.1851379 78.6669056,9.61117788 77.8905841,6.52244002 C77.1142626,3.43370217 79.0466373,-2.40907294e-12 79.0466373,-2.40907294e-12 C79.0466373,-2.40907294e-12 82.2407466,1.57482054 83.0169674,4.66269783 C83.7931883,7.75057511 81.8609142,11.1851379 81.8609142,11.1851379 Z M85.6485282,17.5206136 C85.6485282,17.5206136 83.2871993,14.4967448 83.6481552,11.3002537 C84.0089096,8.10204153 86.9537925,5.94188174 86.9537925,5.94188174 C86.9537925,5.94188174 89.3151214,8.9657506 88.955699,12.1628603 C88.5934111,15.3604538 85.6485282,17.5206136 85.6485282,17.5206136 Z M87.9196211,17.6751481 C89.1817835,14.8258483 92.5665821,14.0280002 92.5665821,14.0280002 C92.5665821,14.0280002 93.9084213,17.8479348 92.6461582,20.696374 C91.3861449,23.545311 87.9991971,24.343522 87.9991971,24.343522 C87.9991971,24.343522 86.6573579,20.5235874 87.9196211,17.6751481 Z M90.2070342,25.6495749 C92.1375699,23.4052888 95.5640206,23.900088 95.5640206,23.900088 C95.5640206,23.900088 95.8602777,28.0308101 93.9295407,30.273375 C91.9989043,32.5168005 88.5725543,32.0228618 88.5725543,32.0228618 C88.5725543,32.0228618 88.2763979,27.8930004 90.2070342,25.6495749 Z M90.4785631,34.2021525 C92.6857991,32.3622231 96,33.5148428 96,33.5148428 C96,33.5148428 95.7370245,37.6487096 93.5296877,39.4877785 C91.3239851,41.3283266 88.0081501,40.1742276 88.0081501,40.1742276 C88.0081501,40.1742276 88.2712263,36.0412214 90.4785631,34.2021525 Z M88.6408122,42.6220216 C91.192799,41.6119895 94.0960195,43.8475844 94.0960195,43.8475844 C94.0960195,43.8475844 92.8683413,47.7222057 90.3170709,48.7321169 C87.7658005,49.742028 84.8603301,47.5059354 84.8603301,47.5059354 C84.8603301,47.5059354 86.0897432,43.6336539 88.6408122,42.6220216 Z M85.8149612,50.0081917 C88.5021386,50.0600111 90.6326166,53.3211837 90.6326166,53.3211837 C90.6326166,53.3211837 88.4108941,56.4921978 85.7251496,56.4401365 C83.039103,56.3854935 80.9073935,53.126284 80.9073935,53.126284 C80.9073935,53.126284 83.129116,49.9552698 85.8149612,50.0081917 Z M80.4580296,56.4006288 C82.8826775,57.0365848 83.9345394,59.2715645 84.4779337,60.5061024 C83.251917,61.2622617 80.9571177,62.1179862 78.3400257,61.3618269 C75.7229336,60.6056675 75.2805936,57.2982005 75.2805936,57.2982005 C75.2805936,57.2982005 77.6585565,55.6663607 80.4580296,56.4006288 Z" id="Combined-Shape-Copy-6" fill="#FFEEA3" fill-rule="nonzero"></path>
                </g>
            </g>
        </g>
    </g>
</svg>