<?xml version="1.0" encoding="UTF-8"?>
<svg width="573px" height="410px" viewBox="0 0 573 410" version="1.1" xmlns="http://www.w3.org/2000/svg" xmlns:xlink="http://www.w3.org/1999/xlink">
    <!-- Generator: Sketch 52.5 (67469) - http://www.bohemiancoding.com/sketch -->
    <title>Group</title>
    <desc>Created with Sketch.</desc>
    <defs>
        <linearGradient x1="0%" y1="27.7760255%" x2="50%" y2="100%" id="linearGradient-1">
            <stop stop-color="#C39A6B" offset="0%"></stop>
            <stop stop-color="#A87544" offset="48.540435%"></stop>
            <stop stop-color="#824F25" offset="100%"></stop>
        </linearGradient>
        <linearGradient x1="79.0354391%" y1="2.89337819%" x2="50%" y2="76.9388423%" id="linearGradient-2">
            <stop stop-color="#BF9464" offset="0%"></stop>
            <stop stop-color="#824F25" offset="100%"></stop>
        </linearGradient>
        <linearGradient x1="0%" y1="16.0200475%" x2="100%" y2="70.9313622%" id="linearGradient-3">
            <stop stop-color="#AD7B4B" offset="0%"></stop>
            <stop stop-color="#784419" offset="100%"></stop>
        </linearGradient>
        <linearGradient x1="3.52476115%" y1="6.69503111%" x2="39.2987658%" y2="94.476757%" id="linearGradient-4">
            <stop stop-color="#C39A6B" offset="0%"></stop>
            <stop stop-color="#824F25" offset="100%"></stop>
        </linearGradient>
        <linearGradient x1="79.2702936%" y1="2.29445787%" x2="29.8130211%" y2="50%" id="linearGradient-5">
            <stop stop-color="#9E6F39" offset="0%"></stop>
            <stop stop-color="#824F25" offset="100%"></stop>
        </linearGradient>
        <linearGradient x1="-12.1891911%" y1="34.1744815%" x2="128.639491%" y2="105.997821%" id="linearGradient-6">
            <stop stop-color="#824F25" offset="0%"></stop>
            <stop stop-color="#9E6F39" offset="100%"></stop>
        </linearGradient>
        <linearGradient x1="-15.2946104%" y1="57.2745591%" x2="148.047553%" y2="104.070482%" id="linearGradient-7">
            <stop stop-color="#824F25" offset="0%"></stop>
            <stop stop-color="#9E6F39" offset="100%"></stop>
        </linearGradient>
        <linearGradient x1="-16.5181096%" y1="35.1849791%" x2="126.838717%" y2="103.735619%" id="linearGradient-8">
            <stop stop-color="#824F25" offset="0%"></stop>
            <stop stop-color="#9E6F39" offset="100%"></stop>
        </linearGradient>
        <linearGradient x1="-17.2536348%" y1="37.8405494%" x2="129.725043%" y2="96.3602008%" id="linearGradient-9">
            <stop stop-color="#824F25" offset="0%"></stop>
            <stop stop-color="#9E6F39" offset="100%"></stop>
        </linearGradient>
        <linearGradient x1="100%" y1="20.424643%" x2="0.337837838%" y2="62.128628%" id="linearGradient-10">
            <stop stop-color="#9E6F39" offset="0%"></stop>
            <stop stop-color="#824F25" offset="100%"></stop>
        </linearGradient>
        <linearGradient x1="100%" y1="20.424643%" x2="0%" y2="62.2699975%" id="linearGradient-11">
            <stop stop-color="#9E6F39" offset="0%"></stop>
            <stop stop-color="#824F25" offset="99.6621622%"></stop>
        </linearGradient>
        <linearGradient x1="8.84569405%" y1="36.6044973%" x2="50%" y2="100%" id="linearGradient-12">
            <stop stop-color="#C39A6B" offset="0%"></stop>
            <stop stop-color="#A87544" offset="48.540435%"></stop>
            <stop stop-color="#824F25" offset="100%"></stop>
        </linearGradient>
    </defs>
    <g id="Symbols" stroke="none" stroke-width="1" fill="none" fill-rule="evenodd">
        <g id="Img/Statuses/Gold" transform="translate(-43.000000, -67.000000)">
            <g id="Group" transform="translate(42.000000, 67.000000)">
                <path d="M421.738911,215.679618 C415.416442,233.622556 408.119095,243.449452 400.949151,246.158754 C394.509563,248.592077 385.45476,245.857048 373.155258,235.949168 C367.564026,231.445143 359.380203,232.326499 354.876178,237.917731 C350.372154,243.508964 351.25351,251.692787 356.844742,256.196811 C375.604351,271.308639 393.579103,276.737965 410.139516,270.480292 C425.969572,264.498598 437.642669,248.779144 446.261089,224.320382 C448.64717,217.54877 445.091995,210.124993 438.320382,207.738911 C431.54877,205.35283 424.124993,208.908005 421.738911,215.679618 Z" id="Path-2-Copy" fill="#C0C0C2" fill-rule="nonzero"></path>
                <path d="M427.511101,386 C427.511101,361.747624 412.56956,220.830541 422.280554,202.689422 C429.305901,189.565362 461.323448,184 478.538414,184 C499.788199,184 518.309263,194.29487 522.468287,200.953042 C526.627312,207.611214 530.926008,241.925182 530.926008,263.969033 C530.926008,279.660574 531.728532,371.944783 528.047601,386 C513.482956,386 441.884278,386 427.511101,386 Z" id="Path-Copy-10" fill="#685747" transform="translate(475.000000, 285.000000) scale(-1, 1) translate(-475.000000, -285.000000) "></path>
                <path d="M455.563315,159 C455.207823,174.55513 454.373903,185.888372 453.061557,192.999727 C451.093037,203.666758 497.006552,203.666758 494.931718,192.999727 C493.548494,185.888372 492.740877,176.231613 492.508867,164.029448 L455.563315,159 Z" id="Path-7-Copy-17" fill="#8D5A2E" transform="translate(474.000000, 180.000000) scale(-1, 1) translate(-474.000000, -180.000000) "></path>
                <path d="M455,173.636436 C459.891128,181.878812 466.36457,186 474.420325,186 C482.47608,186 488.335972,182.014982 492,174.044946 L491.639839,167.466698 C486.351002,168.132062 480.611164,168.464744 474.420325,168.464744 C468.229486,168.464744 461.756044,164.976496 455,158 L455,173.636436 Z" id="Path-10-Copy-7" fill="#68401C" transform="translate(473.500000, 172.000000) scale(-1, 1) translate(-473.500000, -172.000000) "></path>
                <path d="M423.195695,62.749292 C417.91121,107.236161 428.162515,169.486368 458.364533,173.870354 C478.499212,176.793012 498.003105,160.491173 516.876213,124.964838 C527.315817,121.803876 532.892126,116.159665 533.605141,108.032206 C534.318155,99.9047464 530.819015,95.8524304 523.107723,95.8752578 C525.738549,56.2347657 517.158244,32.4191591 497.366807,24.4284378 C467.679651,12.4423559 428.48018,18.262423 423.195695,62.749292 Z" id="Path-2-Copy-3" fill="url(#linearGradient-1)" transform="translate(477.782095, 96.602559) rotate(1.000000) translate(-477.782095, -96.602559) "></path>
                <ellipse id="Oval-Copy-65" fill="#1E1E1E" cx="475.5" cy="98" rx="6.5" ry="9"></ellipse>
                <ellipse id="Oval-Copy-66" fill="#1E1E1E" cx="440" cy="98.5" rx="5" ry="7.5"></ellipse>
                <path d="M443,140.312657 C452.07551,143.920797 461.408843,143.816578 471,140 C468.690663,148.312154 464.195772,153.688425 455.230938,152.928667 C449.254383,152.422162 445.177403,148.216826 443,140.312657 Z" id="Path-14-Copy-9" fill="#DAC0A5"></path>
                <path d="M453.570463,98 C443.546449,115.026672 440.035627,125.197784 443.037996,128.513336 C446.040365,131.828888 451.694367,131.828888 460,128.513336 C454.349624,129.460772 450.319909,128.032708 447.910856,124.229144 C445.501802,120.42558 447.388338,111.682532 453.570463,98 Z" id="Path-17-Copy-10" fill="#68401C"></path>
                <path d="M468.606849,83.2666252 C473.279651,78.1156907 478.281416,77.1665092 484.171086,80.2790419 L486.040044,76.7425186 C478.51482,72.7656397 471.529914,74.0911605 465.644266,80.5790425 L468.606849,83.2666252 Z" id="Path-16-Copy-15" fill="#1E1E1E" fill-rule="nonzero" transform="translate(475.842155, 78.882332) scale(-1, 1) rotate(9.000000) translate(-475.842155, -78.882332) "></path>
                <path d="M432.600067,83.2979581 C435.741517,79.9669966 439.597931,79.1051429 444.529707,80.6999187 L445.76043,76.89396 C439.402843,74.8381237 433.925924,76.0621374 429.690071,80.5535232 L432.600067,83.2979581 Z" id="Path-16-Copy-16" fill="#1E1E1E" fill-rule="nonzero" transform="translate(437.725251, 79.612536) rotate(5.000000) translate(-437.725251, -79.612536) "></path>
                <path d="M504.95166,210.155577 C505.68956,271.809956 497.974841,321.414576 482.035858,358.914796 C479.227377,365.52241 482.307183,373.155662 488.914796,375.964142 C495.52241,378.772623 503.155662,375.692817 505.964142,369.085204 C523.475069,327.886615 531.727502,274.824569 530.949798,209.844423 C530.863875,202.665235 524.974339,196.915008 517.795151,197.000931 C510.615964,197.086854 504.865737,202.97639 504.95166,210.155577 Z" id="Path-2" fill="#E1E1E5" fill-rule="nonzero"></path>
                <g id="manrest-thumbup-copy-3" transform="translate(354.000000, 234.000000) rotate(-8.000000) translate(-354.000000, -234.000000) translate(318.000000, 192.000000)">
                    <g id="Group-50" transform="translate(35.892740, 42.314103) rotate(10.000000) translate(-35.892740, -42.314103) translate(6.392740, 5.314103)">
                        <path d="M30.2612929,26.0301089 C41.5738466,16.124878 33.8324216,-1.87328898 42.854433,2.75417695 C48.8691073,5.83915424 48.5263907,16.0625585 41.8262832,33.4243897 C41.1338437,41.6038561 38.6450498,45.6551208 34.3599015,45.5781836 C27.932179,45.4627779 22.40608,32.9081048 30.2612929,26.0301089 Z" id="Path-15-Copy-2" fill="url(#linearGradient-2)" transform="translate(36.759059, 23.793389) scale(-1, 1) rotate(-8.000000) translate(-36.759059, -23.793389) "></path>
                        <path d="M27.6022583,24.0226993 C20.7056837,25.3229071 12.6699153,32.3227256 9.4124035,38.7128664 C6.78931897,43.8584746 8.30980039,49.6983724 14.1660641,57.3238175 C20.0223279,64.9492627 23.885922,66.3253898 30.8485632,64.6193153 C35.6618343,63.4399067 45.5966905,59.588838 49.1292726,53.6520926 C52.2789872,48.3587821 47.8612695,41.0889027 41.7600403,31.8126578 C35.658811,22.5364128 33.2038203,22.9666395 27.6022583,24.0226993 Z" id="Path-7-Copy-24" fill="url(#linearGradient-3)" transform="translate(29.173144, 44.376908) rotate(-326.000000) translate(-29.173144, -44.376908) "></path>
                    </g>
                </g>
                <path d="M423.467328,86.261868 C422.260201,75.3697682 419.718706,63.277111 420.324143,48.2374308 C420.929581,33.1977507 437.058545,11.2573609 476.395561,11.9413533 C515.732576,12.6253458 531.477714,35.8383364 532.165699,57.6430049 C532.624356,72.1794506 530.714671,84.9755964 526.436643,96.0314424 C523.990792,95.7741517 521.368639,96.2045089 518.570185,97.3225137 C514.335549,99.0142851 511.791765,102.107318 509.565314,105.925741 C510.025767,90.2399246 512.085215,54.6193611 486.286006,50.4398662 C470.117684,47.8205835 465.55913,56.1620071 450.888663,56.7290057 C440.682921,57.1234472 436.668719,51.0648251 430.877715,54.2534985 C424.633346,57.6918055 423.561141,76.71501 423.467328,86.261868 Z" id="Path-3-Copy" fill="#1E1E1E" transform="translate(476.232318, 58.925741) rotate(2.000000) translate(-476.232318, -58.925741) "></path>
                <g id="Group-4" transform="translate(474.500000, 201.000000) scale(-1, 1) translate(-474.500000, -201.000000) translate(445.000000, 182.000000)">
                    <path d="M31.7641339,24.4491368 C36.9220643,26.1273501 42.4501541,25.7883143 48.3484032,23.4320293 C46.1064041,17.8659306 45.5674155,15.6654929 40.5123653,15.6654929 C37.1423319,15.6654929 34.2262547,18.5933742 31.7641339,24.4491368 Z" id="Path-59-Copy-4" fill="#E1D6D6"></path>
                    <path d="M40.2684518,15.5413961 C19.2020969,17.5622193 9.22212916,12.7053986 10.3285484,0.970933933 C6.67395698,2.16513468 3.37942548,4.02198927 0.444953934,6.5414977 C3.43683616,21.6097744 13.8765628,31.7798922 31.7641339,37.0518511 C31.7641339,27.182177 34.5989065,20.0120253 40.2684518,15.5413961 Z" id="Path-57-Copy-6" fill="#FFFFFF"></path>
                    <path d="M58.6677014,15.5516019 C55.3329838,15.1862007 52.7833795,14.2406839 51.0188886,12.7150516 C48.3721522,10.4266032 48.6383282,6.01455613 49.218523,2.01692735 C46.3510979,2.82076251 43.3374234,5.19478953 40.1774996,9.13900842 C40.2147915,20.9644293 43.314323,30.2687102 49.4760941,37.0518511 C49.7221422,26.4166904 52.7860113,19.2499406 58.6677014,15.5516019 Z" id="Path-57-Copy-7" fill="#FFFFFF" transform="translate(49.422583, 19.534389) scale(-1, 1) translate(-49.422583, -19.534389) "></path>
                </g>
                <path d="M103.23895,234.680984 C127.1764,264.92018 150.19678,280.350016 173.46767,278.910633 C197.436796,277.428061 216.464863,258.617287 231.654857,225.208453 C235.083691,217.667084 231.749822,208.773977 224.208453,205.345143 C216.667084,201.916309 207.773977,205.250178 204.345143,212.791547 C193.257322,237.178073 181.979815,248.326795 171.615608,248.967856 C160.553164,249.652106 145.212452,239.36971 126.76105,216.060811 C121.619231,209.565363 112.185362,208.468029 105.689914,213.609848 C99.1944651,218.751667 98.0971315,228.185536 103.23895,234.680984 Z" id="Path-9-Copy-7" fill="#DD5B02" fill-rule="nonzero"></path>
                <path d="M38.1104202,410 C35.3893511,375.254502 29.7219729,306.488351 27.4203184,265.297841 C26.6502231,251.516181 22.4276489,220.207778 33.5975468,211.61097 C41.9570526,205.177154 64.1153785,200.601271 79.8468834,200.047892 C98.7541232,199.382802 117.451505,205.709622 125.985562,214.991965 C134.039965,223.752597 129.973493,249.493699 129.973493,269.536874 C129.973493,307.278804 123.236953,383.497289 120.47129,410 C106.707857,410 49.8530811,410 38.1104202,410 Z" id="Path-Copy-3" fill="#EF6100"></path>
                <path d="M26.8784778,217.225129 C6.13625823,251.447714 -2.40073814,281.543205 2.21503332,307.699641 C7.02383336,334.949922 25.7167708,356.037263 56.6146288,370.573026 C64.1108041,374.099569 73.0464829,370.881546 76.573026,363.385371 C80.0995691,355.889196 76.8815465,346.953517 69.3853712,343.426974 C46.6968751,332.753269 34.7143416,319.235877 31.7585536,302.486158 C28.6097371,284.642593 35.2190358,261.342818 52.5339944,232.774871 C56.827937,225.690296 54.5656823,216.466184 47.481107,212.172242 C40.3965317,207.878299 31.1724205,210.140554 26.8784778,217.225129 Z" id="Path-9-Copy-8" fill="#FF6E0B" fill-rule="nonzero"></path>
                <path d="M205.191679,208.349943 C202.846855,199.727776 198.842327,191.759095 195.327514,188.40856 C193.425872,186.595799 192.123956,184.349289 193.516235,182.386066 C194.908514,180.422844 200.301776,181.531422 202.203418,183.344183 C205.389193,186.381058 208.137464,190.873666 210.316591,196.199693 C218.153402,186.166557 238.105614,200.346656 240.835397,206.274091 C242.706299,210.336557 242.201696,215.765175 239.321588,222.559945 C228.341803,229.261625 219.629704,230.440749 213.185293,226.097318 C206.729458,221.746187 204.06487,215.509316 205.191679,208.349943 Z" id="Combined-Shape-Copy-57" fill="url(#linearGradient-4)" transform="translate(217.437058, 205.003923) rotate(-45.000000) translate(-217.437058, -205.003923) "></path>
                <g id="Group-5" transform="translate(81.000000, 107.500000) scale(-1, 1) translate(-81.000000, -107.500000) translate(15.000000, 0.000000)">
                    <path d="M43.5633154,173 C43.207823,188.55513 42.3739034,199.888372 41.0615567,206.999727 C39.0930366,217.666758 85.0065525,217.666758 82.9317176,206.999727 C81.5484944,199.888372 80.7408774,190.231613 80.5088667,178.029448 L43.5633154,173 Z" id="Path-7-Copy-18" fill="#8D5A2E" transform="translate(62.000000, 194.000000) scale(-1, 1) translate(-62.000000, -194.000000) "></path>
                    <path d="M43,187.636436 C47.8911284,195.878812 54.3645701,200 62.4203251,200 C70.4760801,200 76.3359717,196.014982 80,188.044946 L79.6398393,181.466698 C74.3510024,182.132062 68.6111644,182.464744 62.4203251,182.464744 C56.2294859,182.464744 49.7560442,178.976496 43,172 L43,187.636436 Z" id="Path-10-Copy-8" fill="#68401C" transform="translate(61.500000, 186.000000) scale(-1, 1) translate(-61.500000, -186.000000) "></path>
                    <ellipse id="Oval-Copy-67" fill="#1E1E1E" transform="translate(26.000000, 62.500000) scale(-1, 1) translate(-26.000000, -62.500000) " cx="26" cy="62.5" rx="26" ry="22.5"></ellipse>
                    <path d="M12.0506265,76.8235514 C6.76614144,121.31042 17.0174464,183.560627 47.2194642,187.944613 C67.3541427,190.867271 86.8580359,174.565432 105.731144,139.039097 C116.170748,135.878135 121.747058,130.233925 122.460072,122.106465 C123.173086,113.979006 119.673947,109.92669 111.962654,109.949517 C114.593481,70.3090251 106.013175,46.4934184 86.2217382,38.5026972 C56.5345823,26.5166152 17.3351115,32.3366823 12.0506265,76.8235514 Z" id="Path-2-Copy-4" fill="url(#linearGradient-1)" transform="translate(66.637027, 110.676818) rotate(1.000000) translate(-66.637027, -110.676818) "></path>
                    <ellipse id="Oval-Copy-68" fill="#1E1E1E" cx="63.5" cy="111.954748" rx="6.5" ry="9"></ellipse>
                    <ellipse id="Oval-Copy-69" fill="#1E1E1E" cx="25.2897773" cy="111.954748" rx="5.5" ry="9"></ellipse>
                    <path d="M31,154.312657 C40.07551,157.920797 49.4088434,157.816578 59,154 C56.6906629,162.312154 52.1957724,167.688425 43.2309385,166.928667 C37.2543826,166.422162 33.1774031,162.216826 31,154.312657 Z" id="Path-14-Copy-10" fill="#DAC0A5"></path>
                    <path d="M41.5704628,112 C31.5464488,129.026672 28.0356265,139.197784 31.037996,142.513336 C34.0403655,145.828888 39.6943668,145.828888 48,142.513336 C42.3496242,143.460772 38.3199095,142.032708 35.9108557,138.229144 C33.5018019,134.42558 35.3883376,125.682532 41.5704628,112 Z" id="Path-17-Copy-11" fill="#68401C"></path>
                    <path d="M56.3863718,95.3962655 C61.5798484,90.4014677 66.9585393,89.6390358 73.0290556,93.0099935 L74.9709444,89.512985 C67.3482675,85.2801126 60.0602918,86.3131864 53.6136282,92.5132302 L56.3863718,95.3962655 Z" id="Path-16-Copy-17" fill="#1E1E1E" fill-rule="nonzero" transform="translate(64.292286, 91.175469) scale(-1, 1) translate(-64.292286, -91.175469) "></path>
                    <path d="M19.2447753,94.3269653 C22.3862253,90.9960038 26.2426392,90.13415 31.1744158,91.7289258 L32.4051388,87.9229672 C26.0475519,85.8671308 20.5706325,87.0911446 16.3347793,91.5825304 L19.2447753,94.3269653 Z" id="Path-16-Copy-18" fill="#1E1E1E" fill-rule="nonzero" transform="translate(24.369959, 90.641544) rotate(8.000000) translate(-24.369959, -90.641544) "></path>
                    <path d="M47.632701,122.123556 C43.6347633,118.009878 38.4683517,115.993852 32.1334662,116.075479 C28.7057366,109.690514 22.8623259,103.341931 17.7160895,81.2947016 C10.4774687,50.2833914 25.2145247,35.9244289 38.8565759,31.4589456 C77.1639123,21.5032956 112.459902,23.6231493 124.236207,39.9426251 C131.428438,49.9095408 128.334372,63.7117744 103.939376,63.9841821 C91.1621149,64.12686 69.7592521,59.3272683 58.5362993,68.0046631 C51.8494715,73.1748038 44.5202077,86.1166227 44.7030072,99.0934872 C44.8084328,106.577611 45.7849974,114.2543 47.632701,122.123556 Z" id="Path-3-Copy-6" fill="#1E1E1E" transform="translate(71.721526, 73.783895) scale(-1, 1) rotate(5.000000) translate(-71.721526, -73.783895) "></path>
                    <ellipse id="Oval-Copy-13" fill="#1E1E1E" transform="translate(83.000000, 33.500000) scale(-1, 1) translate(-83.000000, -33.500000) " cx="83" cy="33.5" rx="26" ry="22.5"></ellipse>
                    <ellipse id="Oval-Copy-63" fill="#1E1E1E" transform="translate(32.500000, 39.000000) scale(-1, 1) translate(-32.500000, -39.000000) " cx="32.5" cy="39" rx="25.5" ry="28"></ellipse>
                    <ellipse id="Oval-Copy-18" fill="#1E1E1E" transform="translate(54.000000, 22.500000) scale(-1, 1) translate(-54.000000, -22.500000) " cx="54" cy="22.5" rx="26" ry="22.5"></ellipse>
                </g>
                <g id="Group-62" transform="translate(87.994669, 362.510368) rotate(-74.000000) translate(-87.994669, -362.510368) translate(44.994669, 323.010368)">
                    <path d="M47.202601,22.2013431 C53.6687222,17.8237715 56.3404551,8.98917968 59.3943575,12.3176056 C61.4302924,14.5365562 59.4350225,19.1207086 53.4085478,26.0700628 C55.9454486,29.6160064 57.0027855,33.080774 56.5805585,36.4643657 C56.1583315,39.8479573 55.0044786,43.0348831 53.1189998,46.0251431 C48.0141682,43.8133707 44.6331422,41.0348971 42.9759218,37.6897225 C40.4900912,32.6719605 42.4322405,25.4308827 47.202601,22.2013431 Z" id="Path-15-Copy-2" fill="url(#linearGradient-5)" transform="translate(51.028216, 28.804823) rotate(124.000000) translate(-51.028216, -28.804823) "></path>
                    <path d="M79.6563503,32.2824898 L84.0442419,60.1039366 C84.5600091,63.3741613 82.3295351,66.4441539 79.0599871,66.9641937 L13.2128764,77.4375428 C9.94030523,77.9580635 6.86539674,75.7270857 6.34487609,72.4545145 L6.34364966,72.4467712 L1.95575815,44.6253244 C1.43999089,41.3550997 3.67046491,38.2851072 6.9400129,37.7650674 L72.7871236,27.2917182 C76.0596948,26.7711976 79.1346033,29.0021754 79.6551239,32.2747466 C79.6555344,32.2773274 79.6559432,32.2799085 79.6563503,32.2824898 Z" id="Rectangle-Copy-171" fill="#4C505B"></path>
                    <g id="Group-49-Copy-9" transform="translate(37.333333, 34.478814) scale(-1, 1) rotate(-103.000000) translate(-37.333333, -34.478814) translate(7.666667, 10.711864)">
                        <path d="M41.3360984,8.1495019 C34.7444287,12.7826918 29.9656316,16.7551235 26.9997069,20.0667969 C22.5508198,25.034307 35.6522131,45.3004878 41.3066303,42.7892677 C43.3374404,41.8873514 46.3401522,39.9214878 50.3147657,36.8916768 C51.7004135,33.2649985 50.881682,27.9306878 47.8585713,20.8887447 C44.8354606,13.8468016 42.6613029,9.60038732 41.3360984,8.1495019 Z" id="Path-7-Copy-24" fill="#824F25" transform="translate(38.531262, 25.576641) rotate(-143.000000) translate(-38.531262, -25.576641) "></path>
                        <path d="M8.07007712,18.9248382 C8.11773372,25.062653 11.1799704,32.7446416 17.1344241,42.2110482 C18.2841391,44.0388683 20.6952216,44.5868881 22.5197276,43.4350847 C24.3442336,42.2832813 24.8912598,39.8678193 23.7415448,38.0399993 C18.4931568,29.6960978 15.9132178,23.224011 15.8793647,18.8639831 C15.8625905,16.7035909 14.1008237,14.9658698 11.9443485,14.9826745 C9.78787331,14.9994792 8.05330292,16.764446 8.07007712,18.9248382 Z" id="Path-33-Copy-4" fill="url(#linearGradient-6)" fill-rule="nonzero" transform="translate(16.206546, 29.510161) scale(-1, 1) rotate(-91.000000) translate(-16.206546, -29.510161) "></path>
                        <path d="M15.8709444,-4.25835769 C16.9408948,5.30184289 20.0602199,14.8257921 25.204671,24.2976256 C26.2353833,26.195347 28.6065585,26.8966791 30.5008391,25.8640946 C32.3951197,24.8315102 33.0951801,22.4560279 32.0644679,20.5583066 C27.388308,11.9486791 24.5855147,3.39116723 23.6318395,-5.13009323 C23.3915528,-7.277098 21.4594264,-8.82244461 19.3163144,-8.58172149 C17.1732024,-8.34099836 15.6306577,-6.40536246 15.8709444,-4.25835769 Z" id="Path-33-Copy-5" fill="url(#linearGradient-7)" fill-rule="nonzero" transform="translate(24.193177, 8.867067) scale(-1, 1) rotate(-91.000000) translate(-24.193177, -8.867067) "></path>
                        <path d="M8.81913402,9.01367145 C10.6978566,20.5186419 14.4441481,30.289127 20.083218,38.2834555 C21.3277786,40.0478291 23.7644083,40.4673882 25.5255828,39.220567 C27.2867574,37.9737458 27.7055558,35.5326902 26.4609952,33.7683166 C21.5421738,26.7950613 18.2221748,18.1363649 16.5262076,7.75055632 C16.1780404,5.61844096 14.1705079,4.1727779 12.0422583,4.52157751 C9.91400872,4.87037712 8.47096682,6.88155608 8.81913402,9.01367145 Z" id="Path-33-Copy-6" fill="url(#linearGradient-8)" fill-rule="nonzero" transform="translate(17.972251, 22.203862) scale(-1, 1) rotate(-91.000000) translate(-17.972251, -22.203862) "></path>
                        <path d="M9.73494633,-0.112687242 C10.8226343,9.788614 14.887598,20.4067717 21.8733167,31.7633296 C23.0046978,33.6025957 25.4101798,34.1747839 27.246111,33.0413477 C29.0820422,31.9079115 29.653193,29.4980603 28.5218118,27.6587942 C22.1029175,17.2237125 18.4470214,7.67408672 17.4976026,-0.968539319 C17.2616941,-3.11603132 15.3327227,-4.66532855 13.1891243,-4.42899152 C11.045526,-4.1926545 9.49903781,-2.26017925 9.73494633,-0.112687242 Z" id="Path-33-Copy-7" fill="url(#linearGradient-9)" fill-rule="nonzero" transform="translate(19.407023, 14.585328) scale(-1, 1) rotate(-91.000000) translate(-19.407023, -14.585328) "></path>
                    </g>
                    <ellipse id="Oval" fill="#2F323A" cx="70.3333333" cy="47.0086983" rx="2.66666667" ry="2.6779661"></ellipse>
                </g>
                <path d="M194,159.5 C192.067003,159.5 190.5,161.067003 190.5,163 L190.5,200 C190.5,201.932997 192.067003,203.5 194,203.5 L262,203.5 C263.932997,203.5 265.5,201.932997 265.5,200 L265.5,163 C265.5,161.067003 263.932997,159.5 262,159.5 L194,159.5 Z" id="Rectangle" stroke="#BBC2C2" fill="#FFFFFF"></path>
                <g id="Group-2-Copy-9" transform="translate(228.596474, 159.250542) rotate(-85.000000) translate(-228.596474, -159.250542) translate(219.096474, 138.750542)" fill-rule="nonzero">
                    <path d="M4.65894649,35.9346904 C4.65819443,35.9251417 4.65787297,35.9216408 4.6582656,35.9252943 C4.6605194,35.9462662 4.66405091,35.97417 4.66964402,36.0113645 C4.68026336,36.0819837 4.69456962,36.1610627 4.71525684,36.2544659 C4.75104447,36.4160478 4.79803134,36.5867174 4.86717434,36.7815843 C4.7803919,36.5371352 4.71355018,36.2903677 4.66588723,36.0432116 C4.66360907,36.0005755 4.6612772,35.9642824 4.65894649,35.9346904 Z M4.91266364,36.6701617 C4.90787989,36.6565125 4.903142,36.6428582 4.89844988,36.6291989 C4.90304314,36.6425714 4.90781241,36.65632 4.91266364,36.6701617 Z M7.5822081,30.144807 C9.95331136,29.2001696 12.5554378,30.5991267 13.3942202,33.2694652 C13.5932963,33.9032417 13.6541528,34.369906 13.6991148,35.0281782 C13.7216536,35.3581592 13.7358415,35.7407332 13.7441452,36.194455 C13.7959727,39.026352 11.7995354,41.3693748 9.28497764,41.4277429 C6.77041993,41.4861111 4.68995367,39.2377217 4.63812619,36.4058248 C4.63440594,36.2025473 4.62937118,36.0392006 4.62398972,35.9230645 C4.2154748,33.4803611 5.43667298,30.999579 7.5822081,30.144807 Z" id="Path-21-Copy-4" fill="url(#linearGradient-10)" transform="translate(9.145436, 35.639323) rotate(-96.000000) translate(-9.145436, -35.639323) "></path>
                    <path d="M4.85408676,27.524258 C4.85257615,27.517627 4.85107573,27.5109961 4.84958549,27.5043652 C4.85104104,27.51084 4.85255233,27.5175224 4.85408676,27.524258 Z M8.63301548,21.5114391 C11.3070454,20.8967923 13.97322,22.5654897 14.5880831,25.2385793 C14.7544035,25.9616497 14.7916508,26.7063336 14.8123635,28.2518422 C14.8491194,30.994441 12.6548181,33.2475427 9.91125443,33.2842857 C7.16769074,33.3210287 4.9137964,31.1274991 4.87704051,28.3849002 C4.87048284,27.895589 4.86016949,27.5158237 4.84724661,27.2574572 C4.84480652,27.2086726 4.84244443,27.1677437 4.84038018,27.1358862 C4.42823577,24.5762743 6.06859297,22.1008919 8.63301548,21.5114391 Z" id="Path-21-Copy-3" fill="url(#linearGradient-11)" transform="translate(9.794969, 27.334390) rotate(-96.000000) translate(-9.794969, -27.334390) "></path>
                    <path d="M9.41992457,11.69319 C12.3074619,11.305128 14.9744814,13.2479582 15.3768795,16.0326227 C15.4773478,16.7278812 15.513808,17.8882021 15.5317616,20.0206025 C15.5554327,22.8320839 13.2112679,25.1297454 10.295923,25.1525732 C7.38057819,25.1754009 4.99803504,22.9147505 4.97436397,20.1032691 C4.96689636,19.2163189 4.954906,18.5135221 4.93884189,18.0022928 C4.93148727,17.7682368 4.92348599,17.5816186 4.91547569,17.4480985 C4.91325249,17.4110409 4.91122852,17.3814427 4.90960408,17.3604649 C4.55524327,14.6057152 6.55917878,12.0776514 9.41992457,11.69319 Z" id="Path-21-Copy-2" fill="url(#linearGradient-11)" transform="translate(10.200474, 18.398292) rotate(-111.000000) translate(-10.200474, -18.398292) "></path>
                    <path d="M8.13591928,1.98727525 C11.0153463,1.53337811 13.7197427,3.48576431 14.1763578,6.34805188 C14.2901862,7.06158422 14.3271506,8.12716951 14.3458107,10.1347771 C14.3727462,13.0327067 12.0312784,15.4036484 9.11599591,15.4304235 C6.20071347,15.4571986 3.8155746,13.1296681 3.78863913,10.2317385 C3.78125721,9.43753311 3.76944374,8.81031155 3.75377975,8.35875976 C3.74682399,8.15824337 3.73938646,8.00110969 3.73229059,7.89397019 C3.73151968,7.88233037 3.73081566,7.87221902 3.73020473,7.86377339 C3.3512235,5.04975446 5.2994508,2.43440064 8.13591928,1.98727525 Z" id="Path-21-Copy" fill="url(#linearGradient-11)" transform="translate(9.014575, 8.676200) rotate(-124.000000) translate(-9.014575, -8.676200) "></path>
                </g>
                <g id="Group-6" transform="translate(213.287513, 182.331631) rotate(-1.000000) translate(-213.287513, -182.331631) translate(197.787513, 166.831631)">
                    <circle id="Oval" fill="#DBE5E6" cx="15.218319" cy="15.1634021" r="15"></circle>
                    <g id="Group-2" transform="translate(6.192217, 3.154447)">
                        <path d="M6.67925687,21.871345 C6.63592327,23.4025754 6.53427063,24.614387 6.37429897,25.5067796 C6.13434147,26.8453685 11.73108,26.8453685 11.478163,25.5067796 C11.3095517,24.614387 11.2111053,23.4025754 11.1828238,21.871345 L6.67925687,21.871345 Z" id="Path-7-Copy-6" fill="#8D5A2E"></path>
                        <path d="M6.63772525,23.5235344 C7.20255145,24.5210899 7.97484154,25.0198677 8.95459553,25.0198677 C9.93434951,25.0198677 10.6929923,24.4992369 11.2305238,23.4579753 L11.2305238,22.6247859 C10.4661782,22.7583275 9.70753543,22.8250982 8.95459553,22.8250982 C8.20165562,22.8250982 7.42936553,22.8250982 6.63772525,22.8250982 L6.63772525,23.5235344 Z" id="Path-10-Copy-2" fill="#68401C"></path>
                        <path d="M14.8699332,16.4904645 C13.6958875,20.6929428 11.6783025,23.8600236 8.93609497,23.8600236 C6.18690119,23.8600236 3.74046847,20.7228259 2.55899541,16.4927261 C1.30183079,16.3021241 0.602905058,15.6778705 0.462218226,14.6199651 C0.317758414,13.5336884 0.789409975,12.870403 1.87717291,12.6301087 C1.86032641,12.4202467 1.84656684,12.2093704 1.83598046,11.997663 C1.52099869,5.69862693 4.82702523,3.3694453 8.93609497,3.3694453 C13.0451647,3.3694453 16.5564124,5.78027341 15.7614898,11.997663 C15.733054,12.2200696 15.7026035,12.4417437 15.6701511,12.6624531 C16.6631071,12.9265832 17.0903739,13.5790872 16.9519515,14.6199651 C16.8118161,15.6737234 16.11781,16.2972232 14.8699332,16.4904645 Z" id="Combined-Shape-Copy-2" fill="url(#linearGradient-12)"></path>
                        <ellipse id="Oval-Copy-14" fill="#1E1E1E" transform="translate(6.366795, 14.083821) scale(-1, 1) translate(-6.366795, -14.083821) " cx="6.36679537" cy="14.0838207" rx="1" ry="1.15984405"></ellipse>
                        <ellipse id="Oval-Copy-15" fill="#1E1E1E" transform="translate(11.880309, 14.083821) scale(-1, 1) translate(-11.880309, -14.083821) " cx="11.8803089" cy="14.0838207" rx="1" ry="1.15984405"></ellipse>
                        <path d="M6.76061776,18.9446786 C8.29239165,19.5885063 9.86768123,19.5699097 11.4864865,18.8888889 C11.0967142,20.3720893 10.338062,21.3314178 8.82496811,21.1958486 C7.81623887,21.1054691 7.12812208,20.3550791 6.76061776,18.9446786 Z" id="Path-14-Copy-3" fill="#DAC0A5" transform="translate(9.123552, 20.048733) scale(-1, 1) translate(-9.123552, -20.048733) "></path>
                        <path d="M9.46098739,13.4210526 C8.14509366,15.6153064 7.68421352,16.9260735 8.07834696,17.3533539 C8.47248041,17.7806343 9.21470452,17.7806343 10.3050193,17.3533539 C9.56327113,17.4754515 9.03427383,17.2914146 8.71802739,16.8012434 C8.40178094,16.3110721 8.64943428,15.1843419 9.46098739,13.4210526 Z" id="Path-17-Copy-3" fill="#68401C" transform="translate(9.123552, 15.547433) scale(-1, 1) translate(-9.123552, -15.547433) "></path>
                        <path d="M15.4854919,4.46220066 C16.4035431,5.27726175 16.8386254,6.64614452 16.9458844,7.83931396 C17.0443921,8.93513363 16.6067817,10.7037869 15.6330531,13.1452738 C15.5152269,10.490921 14.9447645,8.84706359 13.9216658,8.21370159 C12.3870179,7.26365859 10.5100595,8.32398596 8.87013092,8.16581867 C8.73264432,8.15255841 8.62563783,8.12484836 8.54622047,8.0844603 C6.96609438,7.81443259 5.04669575,7.42217659 3.59387521,8.31611871 C2.56360971,8.95005642 1.98383287,10.5503168 1.8545447,13.1168998 C0.924487872,11.0760859 0.459459459,9.31242004 0.459459459,7.82590214 C0.459459459,6.04651817 0.902172001,4.79071312 2.00116828,4.15112152 C2.0477999,2.67544116 3.48450031,1.49122807 5.25,1.49122807 C5.44750578,1.49122807 5.6408967,1.50604827 5.82868695,1.53443881 C6.35691022,0.625796885 7.46657819,0 8.75,0 C10.2450697,0 11.5043532,0.849214595 11.8833739,2.00550658 C12.0037171,1.99414124 12.1260482,1.98830409 12.25,1.98830409 C13.9406708,1.98830409 15.3298233,3.07426117 15.4854919,4.46220066 Z" id="Combined-Shape-Copy-3" fill="#1E1E1E"></path>
                        <path d="M5.1140288,11.5447674 C5.89986619,11.1419985 6.75257092,11.0775835 7.68581508,11.3537599 L7.82769844,10.8743132 C6.77416351,10.562539 5.78903039,10.6369579 4.8859712,11.099807 L5.1140288,11.5447674 Z" id="Path-16-Copy-6" fill="#1E1E1E" fill-rule="nonzero"></path>
                        <path d="M10.8045855,11.5174206 C11.4522737,11.2150879 12.3235954,11.1391331 13.4197426,11.2979888 L13.4914543,10.8031581 C12.3065452,10.6314389 11.340029,10.715692 10.5930979,11.06435 L10.8045855,11.5174206 Z" id="Path-16-Copy-7" fill="#1E1E1E" fill-rule="nonzero" transform="translate(12.042276, 11.217075) scale(-1, 1) translate(-12.042276, -11.217075) "></path>
                    </g>
                </g>
                <rect id="Rectangle" fill="#CDD3D4" x="234" y="172" width="25" height="4" rx="2"></rect>
                <rect id="Rectangle-Copy-3" fill="#CDD3D4" x="234" y="180" width="19" height="4" rx="2"></rect>
                <rect id="Rectangle-Copy-4" fill="#CDD3D4" x="234" y="188" width="22" height="4" rx="2"></rect>
                <g id="Group-60-Copy" transform="translate(489.553797, 378.259559) scale(-1, 1) rotate(-26.000000) translate(-489.553797, -378.259559) translate(457.053797, 343.259559)">
                    <path d="M40.8315204,22.5309979 C47.3953806,18.0872351 50.1058408,9.1166111 53.2071775,12.4972449 C55.2747353,14.7510008 53.2500685,19.4055948 47.1331772,26.4610269 C49.7096663,30.0624212 50.7839717,33.5810348 50.3560932,37.0168677 C49.9282148,40.4527005 48.7574883,43.6886527 46.8439138,46.7247243 C41.6605828,44.4775336 38.2272553,41.6552822 36.5439313,38.25797 C34.0189453,33.1620018 35.9890532,25.8093699 40.8315204,22.5309979 Z" id="Path-15-Copy-2" fill="url(#linearGradient-5)" transform="translate(44.715908, 29.238599) rotate(124.000000) translate(-44.715908, -29.238599) "></path>
                    <g id="Group-49-Copy-9" transform="translate(30.901723, 35.155240) scale(-1, 1) rotate(-103.000000) translate(-30.901723, -35.155240) translate(0.901723, 11.155240)">
                        <path d="M41.986439,8.27014075 C35.2918562,12.9758327 30.4382995,17.010213 27.4257689,20.3732819 C22.906973,25.4178852 36.2057044,45.9909432 41.9480439,43.4399173 C44.0104317,42.5237046 47.0599882,40.527028 51.0967136,37.4498876 C52.5046438,33.7673806 51.6745752,28.3516528 48.6065078,21.2027043 C45.5384404,14.0537558 43.3317508,9.74290125 41.986439,8.27014075 Z" id="Path-7-Copy-24" fill="#824F25" transform="translate(39.133446, 25.964055) rotate(-143.000000) translate(-39.133446, -25.964055) "></path>
                        <path d="M8.19617208,19.2109087 C8.24457331,25.4415035 11.3546575,33.239614 17.4021495,42.8491162 C18.5698288,44.7045658 21.0185844,45.2608695 22.8715983,44.0916553 C24.7246122,42.9224412 25.2801857,40.4704667 24.1125064,38.6150171 C18.7821123,30.144988 16.1618618,23.5750683 16.1274798,19.1491337 C16.1104435,16.9560846 14.3211491,15.1920959 12.130979,15.2091546 C9.94080883,15.2262133 8.17913578,17.0178596 8.19617208,19.2109087 Z" id="Path-33-Copy-4" fill="url(#linearGradient-6)" fill-rule="nonzero" transform="translate(16.459774, 29.956241) scale(-1, 1) rotate(-91.000000) translate(-16.459774, -29.956241) "></path>
                        <path d="M16.1189279,-4.32272761 C17.2055963,5.38198626 20.3736608,15.0499008 25.598494,24.6649119 C26.6453112,26.5913195 29.053536,27.3032529 30.9774147,26.2550598 C32.9012934,25.2068667 33.6122923,22.7954763 32.5654752,20.8690687 C27.8162503,12.1292969 24.9696634,3.44242858 24.001087,-5.20764042 C23.7570458,-7.38709961 21.79473,-8.95580588 19.6181319,-8.71144396 C17.4415337,-8.46708203 15.8748868,-6.50218679 16.1189279,-4.32272761 Z" id="Path-33-Copy-5" fill="url(#linearGradient-7)" fill-rule="nonzero" transform="translate(24.571196, 9.001103) scale(-1, 1) rotate(-91.000000) translate(-24.571196, -9.001103) "></path>
                        <path d="M8.95693299,9.14992333 C10.8650106,20.8288045 14.669838,30.7469816 20.3970183,38.8621534 C21.6610251,40.6531975 24.1357272,41.0790987 25.9244201,39.8134304 C27.713113,38.5477621 28.1384551,36.0698072 26.8744483,34.2787631 C21.8787703,27.2000991 18.5068963,18.4105167 16.7844296,7.86771479 C16.4308222,5.70337007 14.3919221,4.23585418 12.2304186,4.58992629 C10.0689151,4.94399841 8.60332568,6.98557862 8.95693299,9.14992333 Z" id="Path-33-Copy-6" fill="url(#linearGradient-8)" fill-rule="nonzero" transform="translate(18.253068, 22.539499) scale(-1, 1) rotate(-91.000000) translate(-18.253068, -22.539499) "></path>
                        <path d="M9.88705486,-0.114390638 C10.991738,9.93658003 15.1202167,20.7152432 22.2150873,32.2434685 C23.3641462,34.1105371 25.8072138,34.6913745 27.6718315,33.5408052 C29.5364491,32.3902359 30.1165241,29.9439569 28.9674652,28.0768883 C22.4482756,17.4840685 18.7352561,7.79008926 17.7710027,-0.983179891 C17.5314081,-3.16313368 15.5722965,-4.73585029 13.3952044,-4.49594076 C11.2181123,-4.25603123 9.64746027,-2.29434442 9.88705486,-0.114390638 Z" id="Path-33-Copy-7" fill="url(#linearGradient-9)" fill-rule="nonzero" transform="translate(19.710258, 14.805802) scale(-1, 1) rotate(-91.000000) translate(-19.710258, -14.805802) "></path>
                    </g>
                </g>
                <path d="M258,374 L432,374 L432,381 C432,383.761424 429.761424,386 427,386 L263,386 C260.238576,386 258,383.761424 258,381 L258,374 Z" id="Rectangle-Copy-12" fill="#4A4A4A"></path>
                <path d="M243.938428,278 L370.195964,278 C372.628792,278 374.708516,279.751073 375.122899,282.14835 L389.988508,368.14835 C390.458861,370.869421 388.634294,373.456582 385.913222,373.926935 C385.631945,373.975556 385.347021,374 385.061572,374 L258.804036,374 C256.371208,374 254.291484,372.248927 253.877101,369.85165 L239.011492,283.85165 C238.541139,281.130579 240.365706,278.543418 243.086778,278.073065 C243.368055,278.024444 243.652979,278 243.938428,278 Z" id="Rectangle-Copy-13" fill="#5F5F5F"></path>
                <path d="M246,386 L574,386 L574,394 C574,402.836556 566.836556,410 558,410 L238,410 L238,394 C238,389.581722 241.581722,386 246,386 Z" id="Rectangle-Copy-11" fill="#BAAA8B"></path>
            </g>
        </g>
    </g>
</svg>