<svg width="75" height="51" viewBox="0 0 75 51" fill="none" xmlns="http://www.w3.org/2000/svg">
<circle cx="39" cy="25" r="24" stroke="#6465FF" stroke-width="2"/>
<path d="M39.5 18C35.9158 18 33 20.9158 33 24.5C33 28.084 35.9158 31 39.5 31C43.084 31 46 28.084 46 24.5C46 20.9158 43.084 18 39.5 18ZM39.5 29.5556C36.7125 29.5556 34.4444 27.2875 34.4444 24.5C34.4444 21.7125 36.7125 19.4444 39.5 19.4444C42.2875 19.4444 44.5556 21.7125 44.5556 24.5C44.5556 27.2875 42.2875 29.5556 39.5 29.5556Z" fill="#6465FF" stroke="#6465FF" stroke-width="0.5"/>
<path d="M52.3722 21.5874L49.853 21.2037C49.6691 20.6225 49.4334 20.0535 49.1515 19.5106L50.6554 17.4638C50.9405 17.1622 51.1113 16.7756 51.136 16.3754C51.1644 15.9227 51.0095 15.5031 50.6998 15.1934L48.8067 13.3002C48.2113 12.7054 47.1928 12.7252 46.5496 13.3336L44.4895 14.8491C43.9454 14.5664 43.3767 14.3306 42.7964 14.1473L42.4128 11.6374C42.3875 10.7343 41.6814 10 40.8386 10H38.1614C37.3192 10 36.6131 10.7343 36.589 11.6197L36.2039 14.1473C35.6239 14.3306 35.0552 14.5667 34.5108 14.8491L32.464 13.3452C31.8078 12.7243 30.7887 12.7043 30.1936 13.3005L28.3008 15.1934C27.7051 15.7887 27.7248 16.8072 28.3341 17.4505L29.8497 19.5106C29.5666 20.0556 29.3309 20.6243 29.1476 21.2037L26.6376 21.5871C25.7346 21.6132 25 22.3193 25 23.1615V25.8388C25 26.681 25.7343 27.3868 26.6197 27.4109L29.1473 27.7963C29.3306 28.3766 29.5666 28.9456 29.8491 29.4896L28.3449 31.5359C27.7251 32.1925 27.7054 33.2113 28.3005 33.8066L30.1933 35.6998C30.5045 36.0109 30.9238 36.1678 31.3748 36.1359C31.7756 36.1113 32.1621 35.9405 32.4504 35.6664L34.5105 34.1512C35.0543 34.4339 35.623 34.6694 36.2036 34.8527L36.587 37.3629C36.6131 38.2654 37.3192 39 38.1611 39H40.8384C41.6805 39 42.3864 38.2657 42.4104 37.3803L42.7959 34.8527C43.377 34.6688 43.9457 34.4333 44.4889 34.1512L46.5354 35.6554C47.1922 36.2743 48.211 36.2949 48.8061 35.6995L50.6992 33.8063C51.2946 33.2113 51.2749 32.1928 50.6662 31.5492L49.1509 29.4891C49.4337 28.945 49.6694 28.376 49.8527 27.796L52.3627 27.4124C53.2654 27.3868 54 26.681 54 25.8388V23.1615C54 22.3222 53.2709 21.6178 52.3722 21.5874ZM48.7205 26.5168L48.599 26.9704C48.3923 27.7432 48.0831 28.4894 47.6797 29.1875L47.4457 29.5938L49.5552 32.4593L49.6039 32.5141C49.7115 32.6217 49.7239 32.753 49.6845 32.7922L47.7914 34.685C47.7522 34.7248 47.6212 34.7123 47.4973 34.5905L44.5941 32.4465L44.187 32.6805C43.4875 33.0842 42.7416 33.3937 41.9705 33.5996L41.5172 33.7205L40.9828 37.2365L40.9784 37.3116C40.9784 37.4639 40.8946 37.5651 40.8389 37.5651H38.1616C38.1063 37.5651 38.0225 37.4639 38.021 37.2901L37.4842 33.7202L37.0301 33.5987C36.2584 33.3928 35.5128 33.0837 34.8133 32.6797L34.407 32.4456L31.5415 34.5551L31.4867 34.6038C31.427 34.6636 31.3562 34.699 31.2918 34.7027C31.2509 34.7056 31.222 34.6978 31.2086 34.6845L29.3158 32.7916C29.2766 32.7522 29.2885 32.6208 29.4103 32.497L31.5546 29.5938L31.3203 29.1866C30.9166 28.4877 30.6074 27.7421 30.4012 26.9701L30.28 26.5165L26.7644 25.9821L26.6884 25.9774C26.5918 25.9832 26.5161 25.9478 26.4674 25.8994C26.4555 25.8872 26.4358 25.8637 26.4358 25.8388V23.1615C26.4358 23.1061 26.537 23.0223 26.7107 23.0208L30.2803 22.484L30.4015 22.0299C30.6077 21.2576 30.9169 20.512 31.3205 19.8131L31.5549 19.4068L29.4454 16.541L29.3967 16.4862C29.2888 16.3783 29.2766 16.2475 29.3158 16.2084L31.2092 14.315C31.2266 14.2973 31.2591 14.2897 31.2739 14.2949C31.3281 14.2949 31.4125 14.3213 31.503 14.4101L34.4064 16.5546L34.813 16.32C35.5119 15.9163 36.2578 15.6072 37.0298 15.401L37.4833 15.2795L38.0175 11.7621L38.0219 11.6884C38.0219 11.5359 38.1057 11.4349 38.1611 11.4349H40.8384C40.8934 11.4349 40.9775 11.5361 40.979 11.7099L41.5161 15.2792L41.9702 15.4007C42.7416 15.6069 43.4872 15.9161 44.1864 16.3197L44.593 16.5541L47.4582 14.4446L47.5133 14.3959C47.6206 14.288 47.7514 14.2758 47.7911 14.3152L49.6842 16.2084C49.7034 16.2275 49.7039 16.2652 49.7028 16.2858C49.6984 16.3554 49.6633 16.4265 49.5894 16.5024L47.4451 19.4062L47.6794 19.8128C48.0831 20.512 48.3926 21.2579 48.5985 22.0296L48.72 22.4832L52.2371 23.0174L52.3108 23.0217C52.463 23.0217 52.5642 23.1055 52.5642 23.1609V25.8382C52.5642 25.8936 52.463 25.9777 52.2893 25.9792L48.7205 26.5168Z" fill="#6465FF" stroke="#6465FF" stroke-width="0.5"/>
<path d="M13.5 14L21 16.5V35.5L12.5 38L9 31V20L13.5 14Z" fill="white"/>
<path d="M64.5 14L57 16.5V35.5L65.5 38L69 31V20L64.5 14Z" fill="white"/>
<path d="M11.8167 32.7702H18.35C18.5666 32.7702 18.7743 32.6839 18.9275 32.5302C19.0806 32.3764 19.1667 32.168 19.1667 31.9506V26.2129C19.1604 25.6435 19.0065 25.0855 18.7201 24.594C18.4337 24.1025 18.0247 23.6943 17.5333 23.4096C17.9392 22.9333 18.2005 22.3502 18.2863 21.7294C18.3722 21.1087 18.2789 20.4762 18.0177 19.907C17.7565 19.3377 17.3381 18.8556 16.8123 18.5176C16.2864 18.1796 15.6751 18 15.0507 18C14.4262 18 13.8149 18.1796 13.2891 18.5176C12.7632 18.8556 12.3449 19.3377 12.0836 19.907C11.8224 20.4762 11.7292 21.1087 11.815 21.7294C11.9009 22.3502 12.1622 22.9333 12.568 23.4096C12.0888 23.7024 11.6928 24.1141 11.4182 24.6051C11.1436 25.0961 10.9995 25.6498 11 26.2129V31.9506C11 32.168 11.086 32.3764 11.2392 32.5302C11.3924 32.6839 11.6001 32.7702 11.8167 32.7702ZM15.0833 19.6555C15.4064 19.6555 15.7222 19.7516 15.9908 19.9318C16.2594 20.1119 16.4687 20.3679 16.5923 20.6675C16.716 20.967 16.7483 21.2966 16.6853 21.6146C16.6223 21.9327 16.4667 22.2248 16.2383 22.454C16.0098 22.6833 15.7188 22.8394 15.402 22.9027C15.0851 22.9659 14.7567 22.9335 14.4583 22.8094C14.1598 22.6853 13.9047 22.4752 13.7253 22.2056C13.5458 21.936 13.45 21.6191 13.45 21.2948C13.45 20.86 13.6221 20.4431 13.9284 20.1356C14.2347 19.8282 14.6501 19.6555 15.0833 19.6555ZM12.6333 26.2129C12.6333 25.7781 12.8054 25.3611 13.1117 25.0537C13.418 24.7462 13.8335 24.5735 14.2667 24.5735H15.9C16.3332 24.5735 16.7486 24.7462 17.0549 25.0537C17.3613 25.3611 17.5333 25.7781 17.5333 26.2129V31.1309H12.6333V26.2129Z" fill="#6465FF"/>
<path d="M63.7167 24.5574H61.2667C60.8335 24.5574 60.418 24.3847 60.1117 24.0772C59.8054 23.7698 59.6333 23.3528 59.6333 22.918C59.6333 22.4833 59.8054 22.0663 60.1117 21.7588C60.418 21.4514 60.8335 21.2787 61.2667 21.2787H66.1667V19.6393H63.7167V18H62.0833V19.6393H61.2667C60.4003 19.6393 59.5694 19.9848 58.9568 20.5997C58.3442 21.2145 58 22.0485 58 22.918C58 23.7876 58.3442 24.6215 58.9568 25.2364C59.5694 25.8513 60.4003 26.1967 61.2667 26.1967H63.7167C64.1499 26.1967 64.5653 26.3694 64.8716 26.6769C65.1779 26.9843 65.35 27.4013 65.35 27.8361C65.35 28.2708 65.1779 28.6878 64.8716 28.9953C64.5653 29.3027 64.1499 29.4754 63.7167 29.4754H58.8167V31.1148H62.0833V32.7541H63.7167V31.1148C64.583 31.1148 65.4139 30.7693 66.0265 30.1544C66.6392 29.5396 66.9833 28.7056 66.9833 27.8361C66.9833 26.9665 66.6392 26.1326 66.0265 25.5177C65.4139 24.9028 64.583 24.5574 63.7167 24.5574Z" fill="#6465FF"/>
<path fill-rule="evenodd" clip-rule="evenodd" d="M67 11.102L68.0598 11.102L68.0689 11.102C69.3009 11.1069 70.2993 12.1018 70.3093 13.3321C70.3092 13.3382 70.3092 13.3444 70.3092 13.3506V14.4104H71.1032L71.1033 13.3506C71.1033 13.3444 71.1033 13.3382 71.1033 13.3321C71.1132 12.1016 72.1119 11.1066 73.3442 11.102C73.347 11.102 73.3499 11.102 73.3527 11.102H74.4125V10.3084L73.3527 10.3084C73.3498 10.3084 73.3469 10.3084 73.3439 10.3084C72.1118 10.3037 71.1132 9.30876 71.1033 8.07837L71.1033 8.05983V7H70.3094L70.3092 8.05983L70.3093 8.07835C70.2993 9.30862 69.301 10.3035 68.069 10.3084L68.0598 10.3084H67V11.102ZM71.8487 10.7052C71.3729 10.4343 70.9773 10.0389 70.7063 9.56331C70.4353 10.0389 70.0396 10.4343 69.5638 10.7052C70.0396 10.9761 70.4353 11.3715 70.7063 11.8471C70.9773 11.3715 71.3729 10.9761 71.8487 10.7052Z" fill="#BBC6CB"/>
<path fill-rule="evenodd" clip-rule="evenodd" d="M0 41.102L1.05981 41.102L1.06886 41.102C2.30091 41.1069 3.29935 42.1018 3.30928 43.3321C3.30924 43.3382 3.30922 43.3444 3.30922 43.3506V44.4104H4.10318L4.10331 43.3506C4.10331 43.3444 4.10329 43.3382 4.10325 43.3321C4.11319 42.1016 5.1119 41.1066 6.34417 41.102C6.34702 41.102 6.34987 41.102 6.35273 41.102H7.41253V40.3084L6.35273 40.3084C6.34979 40.3084 6.34685 40.3084 6.34392 40.3084C5.11176 40.3037 4.11319 39.3088 4.10325 38.0784L4.10331 38.0598V37H3.30935L3.30922 38.0598L3.30928 38.0784C3.29935 39.3086 2.301 40.3035 1.06903 40.3084L1.05981 40.3084H0V41.102ZM4.8487 40.7052C4.37289 40.4343 3.97727 40.0389 3.70627 39.5633C3.43526 40.0389 3.03965 40.4343 2.56384 40.7052C3.03965 40.9761 3.43526 41.3715 3.70627 41.8471C3.97727 41.3715 4.37289 40.9761 4.8487 40.7052Z" fill="#BBC6CB"/>
</svg>
