<svg width="68" height="49" viewBox="0 0 68 49" fill="none" xmlns="http://www.w3.org/2000/svg">
<path d="M56.7817 21.1764H53.6557C53.1651 21.1764 52.6087 20.759 52.4488 20.2353L50.6511 15.8639L50.6252 15.8105C50.3885 15.3806 50.4861 14.6975 50.8349 14.3482L53.04 12.142C53.3863 11.7957 53.5768 11.3353 53.5768 10.8448C53.5768 10.3542 53.3863 9.89324 53.0406 9.547L50.5027 7.00497C49.7879 6.29692 48.6272 6.29796 47.9124 7.00705L45.7021 9.22101C45.3522 9.56984 44.6701 9.66795 44.2418 9.4302L39.816 7.60297L39.7651 7.58532C39.2932 7.44569 38.8795 6.88869 38.8795 6.39295V3.26901C38.8795 2.2578 38.0552 1.43555 37.0424 1.43555H33.456C32.4453 1.43555 31.623 2.2578 31.623 3.26901V6.39295C31.623 6.88869 31.2083 7.44569 30.7359 7.58532L26.3131 9.40425L26.2592 9.4302C25.8314 9.66691 25.1483 9.56828 24.7984 9.22101L22.5907 7.00912C21.8748 6.29744 20.7115 6.29796 19.9999 7.00964L17.4552 9.54856C16.7467 10.2634 16.7467 11.4261 17.4568 12.142L19.665 14.3482C20.0139 14.697 20.1135 15.3812 19.8779 15.8125L18.0382 20.282C17.8939 20.7585 17.3358 21.1764 16.8448 21.1764H13.7172C12.707 21.1764 11.8848 21.9992 11.8848 23.0104V26.5979C11.8848 27.6096 12.7065 28.4329 13.7172 28.4329H16.8442C17.3369 28.4329 17.8944 28.8487 18.0543 29.3704L19.8524 33.7376L19.8763 33.7879C20.1125 34.2219 20.0144 34.9066 19.6661 35.2534L17.4552 37.4626C16.742 38.1785 16.7425 39.3407 17.4557 40.053L19.9988 42.5971C20.7141 43.3025 21.8769 43.3004 22.5912 42.5898L24.7974 40.3867C25.1473 40.0379 25.8319 39.9398 26.2612 40.1755L30.685 42.0011L30.7374 42.0193C31.2093 42.1569 31.623 42.7123 31.623 43.208V46.3351C31.623 47.3458 32.4453 48.1686 33.456 48.1686H37.0424C38.0552 48.1686 38.8795 47.3458 38.8795 46.3351V43.208C38.8795 42.7118 39.2927 42.1569 39.763 42.0193L44.1878 40.2004L44.2403 40.1755C44.6711 39.9393 45.3537 40.0363 45.7015 40.3857L47.9108 42.5929C48.255 42.9402 48.7154 43.1317 49.2075 43.1317C49.6991 43.1317 50.1606 42.9402 50.5042 42.5939L53.0375 40.0545C53.3842 39.7109 53.5758 39.2515 53.5763 38.7604C53.5768 38.2678 53.3858 37.8063 53.0395 37.4616L50.8302 35.2534C50.483 34.905 50.3869 34.2214 50.6247 33.79L52.4649 29.3216C52.6066 28.8482 53.1626 28.4329 53.6547 28.4329H56.7807C57.7929 28.4329 58.6167 27.6096 58.6167 26.5979V23.0104C58.6178 21.9992 57.794 21.1764 56.7817 21.1764ZM57.5796 26.5979C57.5796 27.0376 57.2219 27.3947 56.7817 27.3947H53.6557C52.7042 27.3947 51.7449 28.11 51.4885 28.9748L49.7012 33.3171C49.2589 34.1518 49.4297 35.3182 50.0968 35.9874L52.3076 38.1972C52.4571 38.3461 52.5396 38.546 52.5391 38.7594C52.5386 38.9717 52.4571 39.17 52.306 39.3195L49.7692 41.862C49.6213 42.0115 49.4219 42.0935 49.2091 42.0935C48.9963 42.0935 48.7969 42.011 48.6474 41.8605L46.4376 39.6522C45.7716 38.9836 44.6052 38.8087 43.7689 39.2504L39.4448 41.0315C38.5437 41.3092 37.8418 42.2591 37.8418 43.208V46.3351C37.8418 46.7737 37.4837 47.1304 37.0429 47.1304H33.4565C33.0184 47.1304 32.6617 46.7732 32.6617 46.3351V43.208C32.6617 42.2596 31.9594 41.3097 31.0572 41.0315L26.7336 39.2504C25.901 38.8113 24.7346 38.9836 24.0644 39.6517L21.8588 41.8547C21.5468 42.1646 21.0401 42.1662 20.7313 41.8605L18.1903 39.3184C17.8866 39.0153 17.8871 38.5008 18.1903 38.1961L20.4001 35.9879C21.0671 35.3234 21.2415 34.1565 20.8029 33.3181L19.0312 29.0226C18.7556 28.1095 17.7947 27.3947 16.8442 27.3947H13.7172C13.2791 27.3947 12.923 27.0376 12.923 26.5979V23.0104C12.923 22.5717 13.2791 22.2146 13.7172 22.2146H16.8442C17.7932 22.2146 18.754 21.4982 19.0146 20.6298L20.8029 16.2828C21.2421 15.4487 21.0671 14.2822 20.3985 13.6136L18.1918 11.4085C17.883 11.0976 17.883 10.5909 18.1898 10.281L20.7328 7.74417C21.0365 7.43998 21.552 7.44049 21.8572 7.74365L24.0654 9.95605C24.7377 10.6241 25.9036 10.7949 26.7341 10.3532L31.0577 8.57213C31.9594 8.29078 32.6612 7.33979 32.6612 6.39243V3.26901C32.6612 2.83037 33.0178 2.47375 33.456 2.47375H37.0424C37.4831 2.47375 37.8413 2.83089 37.8413 3.26901V6.39295C37.8413 7.34031 38.5431 8.2913 39.4433 8.57265L43.7674 10.3537C44.601 10.797 45.7664 10.6257 46.4366 9.9545L48.6453 7.74209C48.9516 7.43946 49.4666 7.43946 49.7697 7.74053L52.306 10.281C52.4561 10.431 52.5386 10.6314 52.5386 10.8448C52.5386 11.0581 52.4561 11.2574 52.306 11.4075L50.0999 13.6142C49.4313 14.2843 49.2584 15.4507 49.7007 16.2839L51.4703 20.582C51.7454 21.4977 52.7052 22.2146 53.6547 22.2146H56.7807C57.2209 22.2146 57.5785 22.5717 57.5785 23.0104V26.5979H57.5796Z" fill="url(#paint0_linear)"/>
<path d="M45.8494 21.8507C44.928 18.5415 42.4565 15.8089 39.2636 14.5543C39.1571 12.5495 37.4976 10.9496 35.4669 10.9496C33.4906 10.9496 31.8627 12.4639 31.679 14.3928C28.2223 15.5779 25.6092 18.3608 24.6436 21.8783C22.752 22.0978 21.2783 23.7076 21.2783 25.6573C21.2783 27.7565 22.9861 29.4644 25.0849 29.4644C25.1539 29.4644 25.2209 29.4576 25.2889 29.454C26.5524 32.158 28.8525 34.2318 31.6702 35.201C31.7755 37.2068 33.4351 38.8077 35.4663 38.8077C37.5526 38.8077 39.2506 37.1201 39.2713 35.0385C41.9016 34.0039 44.0455 31.9768 45.2322 29.4088C45.4336 29.4415 45.6376 29.4633 45.8483 29.4633C47.9476 29.4633 49.6554 27.7555 49.6554 25.6563C49.6554 23.557 47.9481 21.8507 45.8494 21.8507ZM44.8122 21.9977C43.6349 22.332 42.6912 23.2186 42.2754 24.3596H37.9404C37.7504 23.2637 36.8741 22.4093 35.7695 22.2447V18.5477C37.4285 18.4164 38.7891 17.2173 39.166 15.6387C41.8793 16.8041 43.9785 19.1571 44.8122 21.9977ZM36.9473 24.8023C36.9473 25.6609 36.2481 26.3602 35.3895 26.3602C34.5309 26.3602 33.8322 25.6609 33.8322 24.8023C33.8322 23.9438 34.5309 23.245 35.3895 23.245C36.2481 23.245 36.9473 23.9432 36.9473 24.8023ZM35.4674 11.9878C36.9941 11.9878 38.2357 13.2301 38.2357 14.7562C38.2357 16.2829 36.9935 17.5251 35.4674 17.5251C33.9412 17.5251 32.699 16.2829 32.699 14.7562C32.6985 13.2295 33.9407 11.9878 35.4674 11.9878ZM31.7314 15.4788C32.0242 16.9951 33.2181 18.1932 34.7323 18.4906V22.3013C33.7606 22.5578 33.0126 23.3572 32.8387 24.3596H28.6594C28.1969 23.0904 27.0803 22.1368 25.7176 21.9073C26.6084 18.9755 28.8629 16.5653 31.7314 15.4788ZM25.0854 28.4262C23.5592 28.4262 22.317 27.184 22.317 25.6573C22.317 24.1306 23.5592 22.8889 25.0854 22.8889C26.6115 22.8889 27.8537 24.1306 27.8537 25.6573C27.8537 27.184 26.6115 28.4262 25.0854 28.4262ZM26.3442 29.2458C27.8252 28.7241 28.8919 27.3148 28.8919 25.6573C28.8919 25.5696 28.8847 25.4839 28.879 25.3978H32.8698C33.0899 26.3285 33.8109 27.0604 34.7323 27.3034V31.2672C33.2685 31.5548 32.1062 32.6838 31.7657 34.1285C29.4058 33.246 27.4712 31.5034 26.3442 29.2458ZM35.4674 37.77C33.9412 37.77 32.699 36.5278 32.699 35.0011C32.699 33.4744 33.9412 32.2322 35.4674 32.2322C36.9941 32.2322 38.2357 33.4744 38.2357 35.0011C38.2357 36.5278 36.9935 37.77 35.4674 37.77ZM39.1291 33.9733C38.7055 32.4669 37.3782 31.3373 35.77 31.2096V27.36C36.8222 27.2032 37.6678 26.4204 37.9097 25.3983H42.0558C42.0496 25.4844 42.0428 25.5701 42.0428 25.6578C42.0428 27.1783 42.9403 28.489 44.2313 29.0989C43.1822 31.288 41.3612 33.0275 39.1291 33.9733ZM45.8489 28.4262C44.3227 28.4262 43.081 27.184 43.081 25.6573C43.081 24.1306 44.3227 22.8889 45.8489 22.8889C47.3755 22.8889 48.6177 24.1312 48.6177 25.6573C48.6177 27.184 47.3755 28.4262 45.8489 28.4262Z" fill="url(#paint1_linear)"/>
<path d="M56.7817 21.1764H53.6557C53.1651 21.1764 52.6087 20.759 52.4488 20.2353L50.6511 15.8639L50.6252 15.8105C50.3885 15.3806 50.4861 14.6975 50.8349 14.3482L53.04 12.142C53.3863 11.7957 53.5768 11.3353 53.5768 10.8448C53.5768 10.3542 53.3863 9.89324 53.0406 9.547L50.5027 7.00497C49.7879 6.29692 48.6272 6.29796 47.9124 7.00705L45.7021 9.22101C45.3522 9.56984 44.6701 9.66795 44.2418 9.4302L39.816 7.60297L39.7651 7.58532C39.2932 7.44569 38.8795 6.88869 38.8795 6.39295V3.26901C38.8795 2.2578 38.0552 1.43555 37.0424 1.43555H33.456C32.4453 1.43555 31.623 2.2578 31.623 3.26901V6.39295C31.623 6.88869 31.2083 7.44569 30.7359 7.58532L26.3131 9.40425L26.2592 9.4302C25.8314 9.66691 25.1483 9.56828 24.7984 9.22101L22.5907 7.00912C21.8748 6.29744 20.7115 6.29796 19.9999 7.00964L17.4552 9.54856C16.7467 10.2634 16.7467 11.4261 17.4568 12.142L19.665 14.3482C20.0139 14.697 20.1135 15.3812 19.8779 15.8125L18.0382 20.282C17.8939 20.7585 17.3358 21.1764 16.8448 21.1764H13.7172C12.707 21.1764 11.8848 21.9992 11.8848 23.0104V26.5979C11.8848 27.6096 12.7065 28.4329 13.7172 28.4329H16.8442C17.3369 28.4329 17.8944 28.8487 18.0543 29.3704L19.8524 33.7376L19.8763 33.7879C20.1125 34.2219 20.0144 34.9066 19.6661 35.2534L17.4552 37.4626C16.742 38.1785 16.7425 39.3407 17.4557 40.053L19.9988 42.5971C20.7141 43.3025 21.8769 43.3004 22.5912 42.5898L24.7974 40.3867C25.1473 40.0379 25.8319 39.9398 26.2612 40.1755L30.685 42.0011L30.7374 42.0193C31.2093 42.1569 31.623 42.7123 31.623 43.208V46.3351C31.623 47.3458 32.4453 48.1686 33.456 48.1686H37.0424C38.0552 48.1686 38.8795 47.3458 38.8795 46.3351V43.208C38.8795 42.7118 39.2927 42.1569 39.763 42.0193L44.1878 40.2004L44.2403 40.1755C44.6711 39.9393 45.3537 40.0363 45.7015 40.3857L47.9108 42.5929C48.255 42.9402 48.7154 43.1317 49.2075 43.1317C49.6991 43.1317 50.1606 42.9402 50.5042 42.5939L53.0375 40.0545C53.3842 39.7109 53.5758 39.2515 53.5763 38.7604C53.5768 38.2678 53.3858 37.8063 53.0395 37.4616L50.8302 35.2534C50.483 34.905 50.3869 34.2214 50.6247 33.79L52.4649 29.3216C52.6066 28.8482 53.1626 28.4329 53.6547 28.4329H56.7807C57.7929 28.4329 58.6167 27.6096 58.6167 26.5979V23.0104C58.6178 21.9992 57.794 21.1764 56.7817 21.1764ZM57.5796 26.5979C57.5796 27.0376 57.2219 27.3947 56.7817 27.3947H53.6557C52.7042 27.3947 51.7449 28.11 51.4885 28.9748L49.7012 33.3171C49.2589 34.1518 49.4297 35.3182 50.0968 35.9874L52.3076 38.1972C52.4571 38.3461 52.5396 38.546 52.5391 38.7594C52.5386 38.9717 52.4571 39.17 52.306 39.3195L49.7692 41.862C49.6213 42.0115 49.4219 42.0935 49.2091 42.0935C48.9963 42.0935 48.7969 42.011 48.6474 41.8605L46.4376 39.6522C45.7716 38.9836 44.6052 38.8087 43.7689 39.2504L39.4448 41.0315C38.5437 41.3092 37.8418 42.2591 37.8418 43.208V46.3351C37.8418 46.7737 37.4837 47.1304 37.0429 47.1304H33.4565C33.0184 47.1304 32.6617 46.7732 32.6617 46.3351V43.208C32.6617 42.2596 31.9594 41.3097 31.0572 41.0315L26.7336 39.2504C25.901 38.8113 24.7346 38.9836 24.0644 39.6517L21.8588 41.8547C21.5468 42.1646 21.0401 42.1662 20.7313 41.8605L18.1903 39.3184C17.8866 39.0153 17.8871 38.5008 18.1903 38.1961L20.4001 35.9879C21.0671 35.3234 21.2415 34.1565 20.8029 33.3181L19.0312 29.0226C18.7556 28.1095 17.7947 27.3947 16.8442 27.3947H13.7172C13.2791 27.3947 12.923 27.0376 12.923 26.5979V23.0104C12.923 22.5717 13.2791 22.2146 13.7172 22.2146H16.8442C17.7932 22.2146 18.754 21.4982 19.0146 20.6298L20.8029 16.2828C21.2421 15.4487 21.0671 14.2822 20.3985 13.6136L18.1918 11.4085C17.883 11.0976 17.883 10.5909 18.1898 10.281L20.7328 7.74417C21.0365 7.43998 21.552 7.44049 21.8572 7.74365L24.0654 9.95605C24.7377 10.6241 25.9036 10.7949 26.7341 10.3532L31.0577 8.57213C31.9594 8.29078 32.6612 7.33979 32.6612 6.39243V3.26901C32.6612 2.83037 33.0178 2.47375 33.456 2.47375H37.0424C37.4831 2.47375 37.8413 2.83089 37.8413 3.26901V6.39295C37.8413 7.34031 38.5431 8.2913 39.4433 8.57265L43.7674 10.3537C44.601 10.797 45.7664 10.6257 46.4366 9.9545L48.6453 7.74209C48.9516 7.43946 49.4666 7.43946 49.7697 7.74053L52.306 10.281C52.4561 10.431 52.5386 10.6314 52.5386 10.8448C52.5386 11.0581 52.4561 11.2574 52.306 11.4075L50.0999 13.6142C49.4313 14.2843 49.2584 15.4507 49.7007 16.2839L51.4703 20.582C51.7454 21.4977 52.7052 22.2146 53.6547 22.2146H56.7807C57.2209 22.2146 57.5785 22.5717 57.5785 23.0104V26.5979H57.5796Z" stroke="#6465FF"/>
<path d="M45.8494 21.8507C44.928 18.5415 42.4565 15.8089 39.2636 14.5543C39.1571 12.5495 37.4976 10.9496 35.4669 10.9496C33.4906 10.9496 31.8627 12.4639 31.679 14.3928C28.2223 15.5779 25.6092 18.3608 24.6436 21.8783C22.752 22.0978 21.2783 23.7076 21.2783 25.6573C21.2783 27.7565 22.9861 29.4644 25.0849 29.4644C25.1539 29.4644 25.2209 29.4576 25.2889 29.454C26.5524 32.158 28.8525 34.2318 31.6702 35.201C31.7755 37.2068 33.4351 38.8077 35.4663 38.8077C37.5526 38.8077 39.2506 37.1201 39.2713 35.0385C41.9016 34.0039 44.0455 31.9768 45.2322 29.4088C45.4336 29.4415 45.6376 29.4633 45.8483 29.4633C47.9476 29.4633 49.6554 27.7555 49.6554 25.6563C49.6554 23.557 47.9481 21.8507 45.8494 21.8507ZM44.8122 21.9977C43.6349 22.332 42.6912 23.2186 42.2754 24.3596H37.9404C37.7504 23.2637 36.8741 22.4093 35.7695 22.2447V18.5477C37.4285 18.4164 38.7891 17.2173 39.166 15.6387C41.8793 16.8041 43.9785 19.1571 44.8122 21.9977ZM36.9473 24.8023C36.9473 25.6609 36.2481 26.3602 35.3895 26.3602C34.5309 26.3602 33.8322 25.6609 33.8322 24.8023C33.8322 23.9438 34.5309 23.245 35.3895 23.245C36.2481 23.245 36.9473 23.9432 36.9473 24.8023ZM35.4674 11.9878C36.9941 11.9878 38.2357 13.2301 38.2357 14.7562C38.2357 16.2829 36.9935 17.5251 35.4674 17.5251C33.9412 17.5251 32.699 16.2829 32.699 14.7562C32.6985 13.2295 33.9407 11.9878 35.4674 11.9878ZM31.7314 15.4788C32.0242 16.9951 33.2181 18.1932 34.7323 18.4906V22.3013C33.7606 22.5578 33.0126 23.3572 32.8387 24.3596H28.6594C28.1969 23.0904 27.0803 22.1368 25.7176 21.9073C26.6084 18.9755 28.8629 16.5653 31.7314 15.4788ZM25.0854 28.4262C23.5592 28.4262 22.317 27.184 22.317 25.6573C22.317 24.1306 23.5592 22.8889 25.0854 22.8889C26.6115 22.8889 27.8537 24.1306 27.8537 25.6573C27.8537 27.184 26.6115 28.4262 25.0854 28.4262ZM26.3442 29.2458C27.8252 28.7241 28.8919 27.3148 28.8919 25.6573C28.8919 25.5696 28.8847 25.4839 28.879 25.3978H32.8698C33.0899 26.3285 33.8109 27.0604 34.7323 27.3034V31.2672C33.2685 31.5548 32.1062 32.6838 31.7657 34.1285C29.4058 33.246 27.4712 31.5034 26.3442 29.2458ZM35.4674 37.77C33.9412 37.77 32.699 36.5278 32.699 35.0011C32.699 33.4744 33.9412 32.2322 35.4674 32.2322C36.9941 32.2322 38.2357 33.4744 38.2357 35.0011C38.2357 36.5278 36.9935 37.77 35.4674 37.77ZM39.1291 33.9733C38.7055 32.4669 37.3782 31.3373 35.77 31.2096V27.36C36.8222 27.2032 37.6678 26.4204 37.9097 25.3983H42.0558C42.0496 25.4844 42.0428 25.5701 42.0428 25.6578C42.0428 27.1783 42.9403 28.489 44.2313 29.0989C43.1822 31.288 41.3612 33.0275 39.1291 33.9733ZM45.8489 28.4262C44.3227 28.4262 43.081 27.184 43.081 25.6573C43.081 24.1306 44.3227 22.8889 45.8489 22.8889C47.3755 22.8889 48.6177 24.1312 48.6177 25.6573C48.6177 27.184 47.3755 28.4262 45.8489 28.4262Z" stroke="#6465FF"/>
<path fill-rule="evenodd" clip-rule="evenodd" d="M60 38.102V38.102H61.0598L61.0689 38.102C62.3009 38.1069 63.2993 39.1018 63.3093 40.3321C63.3092 40.3382 63.3092 40.3444 63.3092 40.3506V41.4104H63.3094H64.1032H64.1033V40.3506C64.1033 40.3444 64.1033 40.3382 64.1033 40.3321C64.1132 39.1016 65.1119 38.1066 66.3442 38.102C66.347 38.102 66.3499 38.102 66.3527 38.102H67.4125V38.102V37.3084V37.3084H66.3527C66.3498 37.3084 66.3469 37.3084 66.3439 37.3084C65.1118 37.3037 64.1132 36.3088 64.1033 35.0784L64.1033 35.0598V34H64.1032H63.3094H63.3092V35.0598L63.3093 35.0784C63.2993 36.3086 62.301 37.3035 61.069 37.3084L61.0598 37.3084H60V37.3084V38.102ZM64.8487 37.7052C64.3729 37.4343 63.9773 37.0389 63.7063 36.5633C63.4353 37.0389 63.0396 37.4343 62.5638 37.7052C63.0396 37.9761 63.4353 38.3715 63.7063 38.8471C63.9773 38.3715 64.3729 37.9761 64.8487 37.7052Z" fill="#BBC6CB"/>
<path fill-rule="evenodd" clip-rule="evenodd" d="M0 15.102V15.102H1.05981L1.06886 15.102C2.30091 15.1069 3.29935 16.1018 3.30928 17.3321C3.30924 17.3382 3.30922 17.3444 3.30922 17.3506V18.4104H3.30935H4.10318H4.10331V17.3506C4.10331 17.3444 4.10329 17.3382 4.10325 17.3321C4.11319 16.1016 5.1119 15.1066 6.34417 15.102C6.34702 15.102 6.34987 15.102 6.35273 15.102H7.41253V15.102V14.3084V14.3084H6.35273C6.34979 14.3084 6.34685 14.3084 6.34392 14.3084C5.11176 14.3037 4.11319 13.3088 4.10325 12.0784L4.10331 12.0598V11H4.10318H3.30935H3.30922V12.0598L3.30928 12.0784C3.29935 13.3086 2.301 14.3035 1.06903 14.3084L1.05981 14.3084H0V14.3084V15.102ZM4.8487 14.7052C4.37289 14.4343 3.97727 14.0389 3.70627 13.5633C3.43526 14.0389 3.03965 14.4343 2.56384 14.7052C3.03965 14.9761 3.43526 15.3715 3.70627 15.8471C3.97727 15.3715 4.37289 14.9761 4.8487 14.7052Z" fill="#BBC6CB"/>
<defs>
<linearGradient id="paint0_linear" x1="-18.5" y1="32" x2="54.5" y2="33" gradientUnits="userSpaceOnUse">
<stop stop-color="#4B4CEF"/>
<stop offset="1" stop-color="#914BEF"/>
</linearGradient>
<linearGradient id="paint1_linear" x1="-18.5" y1="32" x2="54.5" y2="33" gradientUnits="userSpaceOnUse">
<stop stop-color="#4B4CEF"/>
<stop offset="1" stop-color="#914BEF"/>
</linearGradient>
</defs>
</svg>
