<svg width="290" height="546" viewBox="0 0 290 546" fill="none" xmlns="http://www.w3.org/2000/svg">
<path opacity="0.08" d="M410 269.798V260.191H333.857L334.257 270.198C334.257 270.999 334.257 271.799 334.257 273C334.257 381.479 249.297 469.944 145.101 469.944C40.9049 469.944 -44.0551 381.479 -44.4558 273C-44.4558 164.921 40.1034 76.456 144.3 76.0557H152.315V0H144.3C-2.3766 0.400293 -121 122.89 -121 273C-121 423.51 -1.97585 545.6 144.3 546C290.575 546 409.599 423.51 409.599 273C410 271.799 410 270.999 410 269.798Z" fill="white"/>
<path opacity="0.08" d="M197.647 72V158.269C182.373 151.447 165.088 147.435 147 147.435C79.0686 147.435 24 202.406 24 270.217C24 336.825 77.0588 390.994 142.98 393H197.647V321.979H179.961H150.618H144.186C116.853 320.374 95.1471 297.904 95.1471 270.217C95.1471 241.729 118.461 218.456 147 218.456C171.922 218.456 192.824 236.111 197.647 259.384V321.979H270V72H197.647Z" fill="white"/>
</svg>
