<svg width="194" height="49" viewBox="0 0 194 49" fill="none" xmlns="http://www.w3.org/2000/svg">
<path d="M46.7037 23.6394V22.7976H40.0066L40.0418 23.6745C40.0418 23.7446 40.0418 23.8148 40.0418 23.92C40.0418 33.4248 32.5692 41.176 23.4047 41.176C14.2402 41.176 6.76763 33.4248 6.73238 23.92C6.73238 14.4502 14.1697 6.699 23.3342 6.66392H24.0392V0H23.3342C10.4334 0.0350733 0 10.7675 0 23.92C0 37.1075 10.4687 47.8049 23.3342 47.8399C36.1998 47.8399 46.6685 37.1075 46.6685 23.92C46.7037 23.8148 46.7037 23.7446 46.7037 23.6394Z" fill="#6465FF"/>
<path d="M28.0226 6.3833V13.9241C26.6832 13.3278 25.1675 12.9771 23.5813 12.9771C17.6244 12.9771 12.7954 17.7821 12.7954 23.7095C12.7954 29.5317 17.4482 34.2666 23.2288 34.4419H28.0226V28.2339H26.4717H23.8986H23.3346C20.9377 28.0937 19.0343 26.1296 19.0343 23.7095C19.0343 21.2193 21.0787 19.185 23.5813 19.185C25.7667 19.185 27.5996 20.7283 28.0226 22.7625V28.2339H34.3672V6.3833H28.0226Z" fill="#6465FF"/>
<path d="M67.7102 19.9433C68.8089 19.9433 69.7895 20.0477 70.6656 20.2456C71.5275 20.4552 72.2697 20.7692 72.8939 21.2118C73.5173 21.6544 73.9181 22.2122 74.0963 22.8986C74.2745 23.5851 74.2302 24.4118 73.9482 25.3888C73.3691 27.2042 72.181 28.5537 70.3836 29.4614C68.5863 30.3691 66.5513 30.8226 64.2494 30.8226H58.6792L62.14 19.9317H67.7102V19.9433ZM64.9766 28.5537C65.4368 28.5537 65.8677 28.5312 66.2693 28.4727C66.6852 28.4259 67.1011 28.3216 67.5613 28.1704C67.9848 28.0316 68.3891 27.8399 68.7645 27.6001C69.1377 27.3517 69.4685 27.0453 69.7444 26.6923C70.0414 26.3199 70.2648 25.8773 70.428 25.3896C70.5911 24.7491 70.6204 24.2256 70.5317 23.8064C70.443 23.3872 70.2054 23.0732 69.8038 22.8293C69.4072 22.599 68.976 22.4338 68.5269 22.34C68.0809 22.2473 67.5613 22.2122 66.9822 22.2122H64.8879L62.8822 28.542H64.9766V28.5537ZM74.1557 30.8351L77.2901 21.0481H81.5224L78.3595 30.8359H74.1557V30.8351ZM80.6614 16.7317C81.1668 16.7317 81.5818 16.7901 81.8797 16.9179C82.1768 17.0457 82.37 17.2085 82.4144 17.4064C82.473 17.6043 82.4889 17.7672 82.4889 17.8841C82.4738 18.0002 82.4587 18.1162 82.4136 18.2331C82.0286 19.2219 81.1367 19.7112 79.7109 19.7112C79.295 19.7112 78.9536 19.6636 78.6716 19.5592C78.3888 19.4548 78.2114 19.3505 78.1219 19.2219C78.0255 19.0963 77.9641 18.9477 77.9436 18.791C77.9135 18.6281 77.8993 18.512 77.9135 18.4302C77.9286 18.3492 77.9436 18.2908 77.9587 18.244C78.3444 17.2319 79.2356 16.7317 80.6614 16.7317ZM93.7172 21.444C94.1632 21.6419 94.5196 21.8865 94.7573 22.1655C95.01 22.4452 95.1288 22.7592 95.143 23.1199C95.1581 23.4807 95.143 23.737 95.1137 23.8882C95.0836 24.0385 95.0242 24.2723 94.9355 24.5863L92.975 30.8351H88.9645L91.0438 24.3183C91.2069 23.7713 90.8212 23.5274 89.8707 23.5625C88.9131 23.6145 87.9747 23.8516 87.1077 24.2606L85.0284 30.8351H81.0179L83.5432 22.887C83.6319 22.573 83.8695 22.2941 84.2259 22.0494C84.5957 21.7966 85.0013 21.6004 85.4292 21.4673C85.8601 21.3279 86.291 21.2118 86.7069 21.13C87.1228 21.0373 87.4792 20.9905 87.7612 20.9554L88.1921 20.897L88.0139 21.4673C89.0682 21.1884 89.9593 21.0248 90.7024 20.9905C91.8755 20.9438 92.9005 21.0949 93.7172 21.444ZM109.06 22.3283C109.863 23.1433 110.04 24.2489 109.625 25.6218C109.402 26.3433 108.63 26.704 107.323 26.704H99.9853C99.9409 27.1692 100.104 27.5767 100.461 27.914C100.817 28.2514 101.322 28.4259 102.005 28.4259C102.748 28.4259 103.535 28.3332 104.397 28.1353C105.243 27.9374 105.837 27.8439 106.164 27.8439C106.461 27.8439 106.847 27.914 107.293 28.0535C107.739 28.193 108.11 28.3207 108.422 28.4493L108.882 28.6581C106.209 30.1478 103.654 30.8927 101.204 30.8927C100.921 30.8927 100.624 30.881 100.342 30.8576C99.9688 30.8206 99.5974 30.7705 99.228 30.7073C98.8264 30.6396 98.433 30.5305 98.054 30.3817C97.6766 30.2192 97.314 30.0241 96.9705 29.7988C96.5839 29.5549 96.317 29.2518 96.153 28.9145C95.9898 28.5654 95.871 28.1462 95.7965 27.6577C95.7229 27.1692 95.8116 26.5988 96.0492 25.9592C96.5245 24.4694 97.5051 23.2711 99.0046 22.3517C100.505 21.4331 102.332 20.9788 104.485 20.9788C106.669 20.9554 108.199 21.4097 109.061 22.3283H109.06ZM100.818 24.7141H105.629C105.629 24.4001 105.451 24.1087 105.094 23.8531C104.738 23.5968 104.263 23.469 103.699 23.469C103.089 23.4702 102.486 23.6012 101.931 23.8531C101.367 24.1203 100.995 24.4001 100.818 24.7141ZM116.947 20.9321L116.784 21.4331C117.542 21.13 118.314 20.9671 119.087 20.9671C119.487 20.9671 119.918 21.0022 120.363 21.084C120.824 21.1651 121.18 21.2344 121.448 21.3162L121.819 21.4331L120.23 23.7128C119.472 23.5274 118.804 23.4339 118.24 23.4339C117.334 23.4339 116.546 23.7254 115.878 24.3191L113.798 30.8351H109.699L112.224 22.887C112.372 22.3867 112.848 21.9684 113.635 21.6427C114.422 21.317 115.165 21.1183 115.863 21.049L116.947 20.9321ZM123.705 22.34C125.28 21.4214 127.181 20.9671 129.424 20.9671C131.666 20.9671 133.271 21.4214 134.252 22.34C135.231 23.2594 135.499 24.4469 135.023 25.9241C134.548 27.4021 133.523 28.6005 131.949 29.5082C130.374 30.4268 128.473 30.881 126.231 30.881C123.988 30.881 122.383 30.4276 121.403 29.5082C120.424 28.5896 120.156 27.4021 120.631 25.9241C121.106 24.4577 122.131 23.2602 123.705 22.34ZM127.122 28.1813C129.201 28.1813 130.494 27.4255 130.983 25.9241C131.459 24.4235 130.642 23.6669 128.533 23.6669C126.424 23.6669 125.146 24.4235 124.671 25.9241C124.181 27.4372 124.997 28.1813 127.122 28.1813ZM148.851 27.9374C149.521 27.7863 150.025 27.7044 150.382 27.7044C150.931 27.7044 151.392 27.8439 151.777 28.1236C152.164 28.4026 152.446 28.7057 152.624 29.0314C150.352 30.2648 148.005 30.881 145.599 30.881C143.49 30.881 142.004 30.4159 141.114 29.4731C140.237 28.5312 140.014 27.3554 140.475 25.9241C140.965 24.4118 141.945 23.2018 143.415 22.3057C144.886 21.398 146.743 20.9554 148.971 20.9554C149.876 20.9554 150.812 21.0832 151.777 21.3396C152.728 21.5959 153.471 21.8406 153.976 22.0961L154.748 22.4803C154.596 22.616 154.437 22.7442 154.273 22.8644C154.08 23.0147 153.679 23.2126 153.084 23.469C152.49 23.7254 151.911 23.8531 151.332 23.8531C151.006 23.8531 150.501 23.7947 149.832 23.6778C149.148 23.5625 148.599 23.5041 148.184 23.5041C147.218 23.5041 146.431 23.737 145.807 24.1905C145.198 24.6439 144.767 25.226 144.544 25.9475C144.336 26.5988 144.381 27.1583 144.693 27.6001C144.99 28.0426 145.584 28.2631 146.46 28.2631C147.266 28.2346 148.067 28.1255 148.851 27.9374ZM161.848 20.9905C162.725 20.9905 163.482 21.1183 164.15 21.363L164.254 21.049C164.373 21.0607 164.507 21.0724 164.67 21.0949C164.833 21.1183 165.145 21.1767 165.576 21.2703C166.006 21.3747 166.378 21.4907 166.69 21.6185C167.002 21.7471 167.255 21.9442 167.462 22.1888C167.671 22.4452 167.73 22.7241 167.625 23.0381L165.145 30.8234H162.813C162.364 30.8322 161.928 30.6698 161.595 30.3691C160.838 30.7182 159.858 30.9044 158.67 30.9044C156.932 30.9044 155.565 30.5086 154.6 29.7178C153.634 28.9261 153.427 27.6694 153.976 25.9475C154.362 24.7608 154.986 23.783 155.877 23.0156C156.768 22.2473 157.704 21.712 158.699 21.4206C159.723 21.1292 160.783 20.9844 161.848 20.9905ZM159.62 28.2397C160.496 28.2397 161.328 28.0418 162.145 27.6577L163.289 24.0744C162.813 23.7137 162.1 23.5274 161.12 23.5274C160.347 23.5274 159.694 23.7479 159.174 24.1905C158.655 24.6331 158.283 25.2026 158.046 25.9124C157.585 27.4606 158.105 28.2397 159.62 28.2397ZM166.645 29.2635C166.972 29.0547 167.433 28.8209 168.056 28.5654C168.666 28.3099 169.215 28.1813 169.66 28.1813C170.047 28.1813 170.522 28.2631 171.101 28.4376C171.68 28.6122 172.201 28.694 172.676 28.694C173.567 28.694 174.072 28.4844 174.176 28.0652C174.235 27.8673 174.087 27.6694 173.715 27.4723C173.359 27.2744 172.899 27.0765 172.364 26.8786C171.82 26.6781 171.289 26.4449 170.774 26.1804C170.255 25.9132 169.854 25.5633 169.572 25.1216C169.289 24.679 169.229 24.1788 169.408 23.6084C169.601 23.0272 170.002 22.5262 170.641 22.1078C171.28 21.6886 171.948 21.3863 172.676 21.2227C173.366 21.0536 174.074 20.9678 174.785 20.9671C175.795 20.9671 176.686 21.0949 177.473 21.3396C178.26 21.5843 179.167 21.9675 180.192 22.4803C179.909 22.6665 179.419 22.887 178.736 23.1316C178.052 23.3763 177.458 23.5041 176.938 23.5158C176.686 23.5274 176.285 23.469 175.721 23.3295C175.156 23.1901 174.696 23.1199 174.354 23.1199C174.057 23.1199 173.79 23.1667 173.552 23.2711C173.33 23.3763 173.196 23.5041 173.15 23.6552C173.092 23.8414 173.24 24.0393 173.611 24.2256C173.968 24.4118 174.428 24.6214 174.993 24.8302C175.557 25.0398 176.107 25.2844 176.641 25.5516C177.177 25.8189 177.607 26.1688 177.933 26.5871C178.26 27.018 178.364 27.4948 178.245 28.0301C178.038 28.8101 177.384 29.4965 176.285 30.0668C175.185 30.6372 173.775 30.9278 172.052 30.9278C170.985 30.9246 169.926 30.7437 168.918 30.3925C167.878 30.0084 167.121 29.6359 166.646 29.2635H166.645ZM191.91 21.444C193.232 22.0494 193.648 23.0974 193.158 24.5863L191.183 30.8351H187.172L189.193 24.4577C189.281 24.1788 189.281 23.9692 189.162 23.8181C189.044 23.6669 188.806 23.5968 188.419 23.6093C187.869 23.6205 187.322 23.6905 186.786 23.8181C186.251 23.9458 185.88 24.0393 185.672 24.132C185.464 24.2256 185.33 24.2723 185.271 24.3183L183.176 30.846H179.167L182.672 19.7922C182.82 19.2912 183.295 18.8728 184.083 18.5354C184.87 18.1981 185.613 17.9885 186.311 17.8949L187.365 17.7672L186.177 21.5024C187.261 21.2118 188.153 21.049 188.88 21.0014C190.143 20.9554 191.153 21.1066 191.91 21.444Z" fill="#101C48"/>
</svg>
