<svg width="39" height="38" viewBox="0 0 39 38" fill="none" xmlns="http://www.w3.org/2000/svg">
<path fill-rule="evenodd" clip-rule="evenodd" d="M6.07572 37.6221C6.42951 38.0398 7.04786 38.0855 7.45686 37.7242L12.2707 33.4716C12.8044 33 13.4866 32.7405 14.1924 32.7405H22.8889C25.9958 32.7405 28.9954 31.58 31.3226 29.4777L37.7758 23.648C38.768 22.7517 38.8943 21.2168 38.0625 20.1639C37.2453 19.1296 35.8232 18.8354 34.6764 19.4635L26.6582 23.8551C26.4162 22.4199 25.1915 21.328 23.7172 21.328H17.5871C14.1032 19.0473 10.7192 19.1049 7.65755 21.5389C4.86531 23.7588 2.5911 25.5763 0.83463 26.9916C0.410075 27.3336 0.337442 27.9624 0.672398 28.396C1.00735 28.8296 1.62306 28.9038 2.04761 28.5617C3.8003 27.1495 6.07136 25.3345 8.86051 23.1171C11.3061 21.1728 13.8556 21.1728 16.7484 23.158L16.9961 23.328H23.7172C24.2838 23.328 24.7432 23.7972 24.7432 24.3759C24.7432 24.9547 24.2838 25.4238 23.7172 25.4238H17.2945C16.7538 25.4238 16.3154 25.8716 16.3154 26.4238C16.3154 26.9761 16.7538 27.4238 17.2945 27.4238H23.7172C24.4844 27.4238 25.1839 27.1282 25.7126 26.6424L35.6019 21.2261C35.9191 21.0524 36.3124 21.1337 36.5384 21.4198C36.7127 21.6404 36.6863 21.9621 36.4783 22.15L30.0251 27.9797C28.056 29.7585 25.5178 30.7405 22.8889 30.7405H14.1924C13.0161 30.7405 11.8791 31.173 10.9895 31.9589L6.17567 36.2116C5.76668 36.5729 5.72193 37.2044 6.07572 37.6221Z" fill="#6465FF"/>
<path fill-rule="evenodd" clip-rule="evenodd" d="M7.44461 0.333313H33.5557C34.9978 0.333313 36.1668 1.52722 36.1668 2.99998V15C36.1668 16.4727 34.9978 17.6666 33.5557 17.6666H7.44461C6.00253 17.6666 4.8335 16.4727 4.8335 15V2.99998C4.8335 1.52722 6.00253 0.333313 7.44461 0.333313ZM7.44461 2.33331C7.08409 2.33331 6.79183 2.63179 6.79183 2.99998V15C6.79183 15.3682 7.08409 15.6666 7.44461 15.6666H33.5557C33.9162 15.6666 34.2085 15.3682 34.2085 15V2.99998C34.2085 2.63179 33.9162 2.33331 33.5557 2.33331H7.44461ZM20.5002 15C17.616 15 15.2779 12.3137 15.2779 8.99998C15.2779 5.68627 17.616 2.99998 20.5002 2.99998C23.3843 2.99998 25.7224 5.68627 25.7224 8.99998C25.7224 12.3137 23.3843 15 20.5002 15ZM20.5002 13C22.248 13 23.764 11.2582 23.764 8.99998C23.764 6.7418 22.248 4.99998 20.5002 4.99998C18.7523 4.99998 17.2363 6.7418 17.2363 8.99998C17.2363 11.2582 18.7523 13 20.5002 13Z" fill="#6465FF"/>
</svg>
