<?xml version="1.0" encoding="UTF-8"?>
<svg width="297px" height="261px" viewBox="0 0 297 261" version="1.1" xmlns="http://www.w3.org/2000/svg" xmlns:xlink="http://www.w3.org/1999/xlink">
    <!-- Generator: Sketch 52.5 (67469) - http://www.bohemiancoding.com/sketch -->
    <title>Group 6</title>
    <desc>Created with Sketch.</desc>
    <defs>
        <linearGradient x1="0%" y1="27.7760255%" x2="50%" y2="100%" id="linearGradient-1">
            <stop stop-color="#C39A6B" offset="0%"></stop>
            <stop stop-color="#A87544" offset="48.540435%"></stop>
            <stop stop-color="#824F25" offset="100%"></stop>
        </linearGradient>
        <linearGradient x1="79.0354391%" y1="2.89337819%" x2="50%" y2="76.9388423%" id="linearGradient-2">
            <stop stop-color="#BF9464" offset="0%"></stop>
            <stop stop-color="#824F25" offset="100%"></stop>
        </linearGradient>
        <linearGradient x1="0%" y1="16.0200475%" x2="100%" y2="70.9313622%" id="linearGradient-3">
            <stop stop-color="#AD7B4B" offset="0%"></stop>
            <stop stop-color="#784419" offset="100%"></stop>
        </linearGradient>
        <linearGradient x1="3.52476115%" y1="6.69503111%" x2="39.2987658%" y2="94.476757%" id="linearGradient-4">
            <stop stop-color="#C39A6B" offset="0%"></stop>
            <stop stop-color="#824F25" offset="100%"></stop>
        </linearGradient>
        <linearGradient x1="100%" y1="20.424643%" x2="0.337837838%" y2="62.128628%" id="linearGradient-5">
            <stop stop-color="#9E6F39" offset="0%"></stop>
            <stop stop-color="#824F25" offset="100%"></stop>
        </linearGradient>
        <linearGradient x1="100%" y1="20.424643%" x2="0%" y2="62.2699975%" id="linearGradient-6">
            <stop stop-color="#9E6F39" offset="0%"></stop>
            <stop stop-color="#824F25" offset="99.6621622%"></stop>
        </linearGradient>
        <linearGradient x1="8.84569405%" y1="36.6044973%" x2="50%" y2="100%" id="linearGradient-7">
            <stop stop-color="#C39A6B" offset="0%"></stop>
            <stop stop-color="#A87544" offset="48.540435%"></stop>
            <stop stop-color="#824F25" offset="100%"></stop>
        </linearGradient>
        <path d="M0,187 L65,187 C88.7482442,187 108,206.251756 108,230 L0,230 L0,187 Z" id="path-8"></path>
        <filter x="-3.7%" y="-27.9%" width="114.8%" height="137.2%" filterUnits="objectBoundingBox" id="filter-9">
            <feOffset dx="4" dy="-4" in="SourceAlpha" result="shadowOffsetOuter1"></feOffset>
            <feGaussianBlur stdDeviation="2" in="shadowOffsetOuter1" result="shadowBlurOuter1"></feGaussianBlur>
            <feColorMatrix values="0 0 0 0 0   0 0 0 0 0   0 0 0 0 0  0 0 0 0.0376966783 0" type="matrix" in="shadowBlurOuter1"></feColorMatrix>
        </filter>
        <linearGradient x1="0%" y1="100%" x2="100%" y2="0%" id="linearGradient-10">
            <stop stop-color="#E7E7E7" offset="0%"></stop>
            <stop stop-color="#C5C0C0" offset="37.4947213%"></stop>
            <stop stop-color="#F8F8F8" offset="100%"></stop>
        </linearGradient>
    </defs>
    <g id="User---User-statuses" stroke="none" stroke-width="1" fill="none" fill-rule="evenodd">
        <g id="Promo---User---Statuses---320" transform="translate(-12.000000, -1027.000000)">
            <g id="Group-6" transform="translate(12.000000, 1027.000000)">
                <rect id="Rectangle-Copy-9" fill="#F1F6F9" x="0" y="0" width="296" height="229" rx="8"></rect>
                <g id="Img/Statuses/Silver">
                    <g id="Group" transform="translate(-19.220779, 23.524109)">
                        <path d="M66.9596143,114.486743 C51.6738735,121.906173 36.6707016,126.394921 21.9500985,127.952989 C17.9499513,137.376745 10.0789283,155.919713 6.62663765,164.0528 C31.0132939,163.275916 56.8383277,156.480981 84.1017391,143.667994 L66.9596143,114.486743 Z" id="Path-3-Copy" fill="#EF6100" transform="translate(45.364188, 139.269771) rotate(-23.000000) translate(-45.364188, -139.269771) "></path>
                        <path d="M234.850984,138.6622 C231.572082,151.687249 227.973495,161.414745 224.163749,167.758883 C220.933812,173.137499 217.965525,175.51422 215.414647,175.691376 C205.809275,176.358458 194.222767,176.358458 180.674444,175.684083 C177.228731,175.512571 174.296264,178.164303 174.124597,181.606892 C173.952929,185.049481 176.607067,187.979289 180.05278,188.150801 C194.064125,188.848223 206.133759,188.848223 216.281004,188.143508 C230.001305,187.190649 239.498301,171.37588 246.967149,141.706773 C247.808647,138.36402 245.778521,134.972632 242.432734,134.131896 C239.086948,133.29116 235.692483,135.319446 234.850984,138.6622 Z" id="Path-2-Copy" fill="#C0C0C2" fill-rule="nonzero"></path>
                        <path d="M137.116858,188.192872 L231.779196,188.192872 L231.779196,188.953878 C231.779196,191.715302 229.54062,193.953878 226.779196,193.953878 L142.116858,193.953878 C139.355435,193.953878 137.116858,191.715302 137.116858,188.953878 L137.116858,188.192872 Z" id="Rectangle-Copy-2" fill="#4A4A4A"></path>
                        <path d="M238.72931,193.953878 C237.185354,176.271989 231.007939,140.649994 236.257962,134.450835 C241.507984,128.251676 251.751792,126.742138 261.860609,126.742138 C271.869253,126.742138 281.958584,130.356596 285.531497,134.450835 C289.10441,138.545074 288.429807,152.54241 288.429807,163.102495 C288.429807,170.619511 287.667098,186.721157 286.911283,193.953878 C277.242764,193.953878 249.286807,193.953878 238.72931,193.953878 Z" id="Path-Copy-10" fill="#D3D3D8" transform="translate(261.331144, 160.348008) scale(-1, 1) translate(-261.331144, -160.348008) "></path>
                        <path d="M251.751179,115.220126 C251.580358,122.687893 251.179643,128.128799 250.549035,131.542846 C249.603123,136.663915 271.665462,136.663915 270.668463,131.542846 C270.003797,128.128799 269.615722,123.492745 269.504236,117.634683 L251.751179,115.220126 Z" id="Path-7-Copy-17" fill="#8D5A2E" transform="translate(260.610365, 125.301887) scale(-1, 1) translate(-260.610365, -125.301887) "></path>
                        <ellipse id="Oval-Copy-2" fill="#A5A5A5" transform="translate(239.948027, 89.055556) scale(-1, 1) translate(-239.948027, -89.055556) " cx="239.948027" cy="89.0555556" rx="7.68831169" ry="10.8018868"></ellipse>
                        <path d="M251.480495,122.246843 C253.830777,126.203874 256.941392,128.18239 260.812339,128.18239 C264.683287,128.18239 267.499079,126.269247 269.259716,122.442962 L269.086651,119.284851 C266.545262,119.604281 263.787158,119.763997 260.812339,119.763997 C257.837521,119.763997 254.726906,118.089345 251.480495,114.740042 L251.480495,122.246843 Z" id="Path-10-Copy-7" fill="#68401C" transform="translate(260.370105, 121.461216) scale(-1, 1) translate(-260.370105, -121.461216) "></path>
                        <path d="M236.608981,68.9340716 C234.069346,90.2915453 238.994823,120.176795 253.507443,122.281247 C263.182524,123.684215 272.554646,115.857815 281.623809,98.8020468 C286.640265,97.2844403 289.319833,94.5747028 289.662511,90.6728342 C290.00519,86.7709656 288.323817,84.8255402 284.618391,84.8365579 C285.882856,65.8057723 281.760034,54.3723461 272.249927,50.5362792 C257.984765,44.7821788 239.148617,47.5765978 236.608981,68.9340716 Z" id="Path-2-Copy-3" fill="url(#linearGradient-1)" transform="translate(262.838549, 85.186152) rotate(1.000000) translate(-262.838549, -85.186152) "></path>
                        <ellipse id="Oval-Copy-65" fill="#1E1E1E" cx="261.811664" cy="84.9748428" rx="3.12337662" ry="4.32075472"></ellipse>
                        <ellipse id="Oval-Copy-66" fill="#1E1E1E" cx="244.272703" cy="85.2148847" rx="2.4025974" ry="3.60062893"></ellipse>
                        <path d="M245.714261,106.248634 C250.07522,107.980844 254.560069,107.93081 259.168807,106.098532 C258.059125,110.089064 255.899243,112.670124 251.591465,112.305377 C248.719614,112.062212 246.760546,110.043298 245.714261,106.248634 Z" id="Path-14-Copy-9" fill="#DAC0A5"></path>
                        <path d="M250.793574,85.9350105 C245.97684,94.1092407 244.289822,98.9922274 245.732519,100.58397 C247.175216,102.175714 249.892074,102.175714 253.883092,100.58397 C251.167977,101.038819 249.23162,100.353229 248.074023,98.5271991 C246.916426,96.7011693 247.822943,92.5037731 250.793574,85.9350105 Z" id="Path-17-Copy-10" fill="#68401C"></path>
                        <path d="M257.912907,76.065215 C260.408474,73.6672932 262.99304,73.3012619 265.910041,74.9196043 L266.843156,73.240747 C263.180312,71.2086133 259.678297,71.7045753 256.58055,74.6811162 L257.912907,76.065215 Z" id="Path-16-Copy-15" fill="#1E1E1E" fill-rule="nonzero" transform="translate(261.711853, 74.038879) scale(-1, 1) rotate(4.000000) translate(-261.711853, -74.038879) "></path>
                        <path d="M241.127702,77.4721966 C242.63723,75.8730558 244.490312,75.4592937 246.860126,76.2249198 L247.451513,74.3977405 C244.396568,73.4107667 241.764802,73.9983959 239.729392,76.1546377 L241.127702,77.4721966 Z" id="Path-16-Copy-16" fill="#1E1E1E" fill-rule="nonzero"></path>
                        <path d="M274.728593,137.243997 C270.730296,153.37484 265.038473,160.784854 258.304537,161.242084 C249.761666,161.822139 240.394235,158.574619 230.134342,151.222223 C227.330929,149.213255 223.428245,149.855219 221.417454,152.65609 C219.406662,155.456962 220.049209,159.356108 222.852622,161.365076 C235.305491,170.288993 247.427802,174.49158 259.151654,173.695538 C272.684439,172.77667 281.702009,161.036966 286.855773,140.244472 C287.685084,136.89868 285.642611,133.5147 282.293782,132.686142 C278.944954,131.857583 275.557903,133.898205 274.728593,137.243997 Z" id="Path-2" fill="#E1E1E5" fill-rule="nonzero"></path>
                        <path d="M284.15582,99.8574423 C281.089277,108.819008 275.323044,113.29979 266.857118,113.29979" id="Path-3" stroke="#C4C4C4" stroke-width="4"></path>
                        <rect id="Rectangle" fill="#D8D8D8" x="260.129845" y="110.419287" width="8.16883117" height="5.28092243" rx="2.64046122"></rect>
                        <path d="M131.886287,129.142558 L195.884113,129.142558 C198.354117,129.142558 200.454016,130.946168 200.82683,133.387874 L208.316122,182.438189 C208.732922,185.167976 206.857875,187.718789 204.128088,188.135589 C203.878335,188.173723 203.626051,188.192872 203.373404,188.192872 L139.375578,188.192872 C136.905574,188.192872 134.805675,186.389261 134.432861,183.947555 L126.943569,134.897241 C126.526769,132.167454 128.401816,129.61664 131.131603,129.19984 C131.381356,129.161707 131.63364,129.142558 131.886287,129.142558 Z" id="Rectangle-Copy" fill="#5F5F5F"></path>
                        <g id="manrest-thumbup-copy-2" transform="translate(220.967508, 150.152543) rotate(-8.000000) translate(-220.967508, -150.152543) translate(203.428547, 129.508937)">
                            <g id="Group-50" transform="translate(17.442050, 20.592396) rotate(10.000000) translate(-17.442050, -20.592396) translate(3.026466, 2.589251)">
                                <path d="M16.1718209,12.6178779 C21.6070332,7.86313207 17.708023,-0.798166262 22.0434769,1.42398613 C24.9337795,2.90542106 24.7697142,7.81357809 21.5512809,16.1484572 C23.4854541,18.398748 24.2817392,20.9197287 23.9401361,23.7113991 C23.598533,26.5030695 22.4026933,28.8949425 20.3526171,30.887018 C16.7601926,29.5390066 14.2955512,27.4852793 12.958693,24.7258362 C10.9534057,20.5866716 12.3977173,15.9194791 16.1718209,12.6178779 Z" id="Path-15-Copy-2" fill="url(#linearGradient-2)" transform="translate(18.074769, 15.976537) scale(-1, 1) rotate(-8.000000) translate(-18.074769, -15.976537) "></path>
                                <path d="M13.2048494,11.6855188 C9.89158784,12.3112975 6.02992556,15.6743737 4.46378091,18.7437054 C3.20265584,21.2152595 3.93189029,24.0193886 6.74360141,27.6800978 C9.55531252,31.3408069 11.4110405,32.0008705 14.7561214,31.1801732 C17.0685745,30.6128255 22.2768576,28.8713125 23.9750499,26.0196547 C25.489189,23.4770647 24.1996975,20.1787872 21.2706425,15.7253803 C18.3415874,11.2719734 15.8959593,11.1772464 13.2048494,11.6855188 Z" id="Path-7-Copy-24" fill="url(#linearGradient-3)" transform="translate(14.240411, 21.485034) rotate(-326.000000) translate(-14.240411, -21.485034) "></path>
                            </g>
                        </g>
                        <path d="M123.974001,193.953878 L315.389586,193.953878 L315.389586,193.953878 C315.389586,200.31731 310.231005,205.475891 303.867573,205.475891 L115.974001,205.475891 L115.974001,201.953878 C115.974001,197.5356 119.555723,193.953878 123.974001,193.953878 Z" id="Rectangle" fill="#BAAA8B"></path>
                        <path d="M236.696939,77.3419833 C236.117057,72.1128745 234.896004,66.3074172 235.187157,59.0870924 C235.47831,51.8667676 243.228916,41.3332839 262.131087,41.6610603 C281.033258,41.9888367 288.598743,53.1327919 288.929001,63.6008624 C289.149174,70.579576 288.231339,76.7228349 286.175498,82.0306389 C285.000224,81.9071549 283.740223,82.1138024 282.395496,82.6505816 C280.360647,83.462839 279.138264,84.9477944 278.068354,86.7809934 C278.289849,79.250471 279.279994,62.1495633 266.883049,60.143445 C259.113903,58.8862139 256.923305,62.8908705 249.873859,63.1633005 C244.9698,63.3528208 243.040992,60.4442319 240.258257,61.9751522 C237.257667,63.6259246 236.742163,72.7586843 236.696939,77.3419833 Z" id="Path-3-Copy-2" fill="#1E1E1E" transform="translate(262.051956, 64.217293) rotate(2.000000) translate(-262.051956, -64.217293) "></path>
                        <path d="M258.230262,81.4807262 C257.51569,58.0430312 261.583387,39.9325561 287.999975,42.0641167 C287.754674,41.1979453 285.570184,40.327044 281.817835,40.327044 C258.479745,40.327044 253.113634,53.6064652 253.96754,81.6142558 L258.230262,81.4807262 Z" id="Path" fill="#C4C4C4" fill-rule="nonzero" transform="translate(270.941534, 60.970650) scale(-1, 1) translate(-270.941534, -60.970650) "></path>
                        <path d="M282.474001,101.777778 C286.587447,101.777778 289.922053,96.9416083 289.922053,90.975891 C289.922053,85.0101736 286.587447,80.1740042 282.474001,80.1740042 C282.1872,80.1740042 279.802799,80.1740042 279.522657,80.1740042 C278.272946,80.1740042 275.025949,85.4261209 275.025949,90.975891 C275.025949,94.5089759 277.440685,101.777778 279.680982,101.777778 C280.072632,101.777778 280.796667,101.777778 282.474001,101.777778 Z" id="Oval" fill="#A5A5A5" transform="translate(282.474001, 90.975891) scale(-1, 1) translate(-282.474001, -90.975891) "></path>
                        <ellipse id="Oval-Copy" fill="#C4C4C4" transform="translate(286.077897, 90.975891) scale(-1, 1) translate(-286.077897, -90.975891) " cx="286.077897" cy="90.975891" rx="7.68831169" ry="10.8018868"></ellipse>
                        <g id="Group-Copy-2" transform="translate(52.545430, 0.000000)">
                            <path d="M6.57446934,86.4290058 C7.70674491,74.4768093 6.21064708,65.2541315 2.30843927,58.6138835 C0.368895281,55.3134306 -0.553727735,51.6462375 2.1925019,49.4560806 C4.93873153,47.2659237 12.0648231,50.9807492 14.0043671,54.2812021 C18.4641573,61.8702684 20.0392244,69.7145316 19.6719008,79.4611123 C32.8026077,79.884987 49.4908969,92.8278337 52.438028,99.20699 C56.5377649,108.080997 54.3988305,114.736794 50.1232437,121.025024 C45.847657,127.313253 26.1663573,137.562501 12.0446154,128.074755 C-1.91746263,118.694279 -3.74108064,103.295305 6.57446934,86.4290058 Z" id="Combined-Shape-Copy-57" fill="url(#linearGradient-4)"></path>
                            <path d="M19.9523163,0 L69.075273,0 C73.3214103,2.98861291e-15 76.7635847,3.43905383 76.7635847,7.68134172 L76.7635847,110.443291 C76.7635847,114.685579 73.3214103,118.124633 69.075273,118.124633 L19.9523163,118.124633 C15.706179,118.124633 12.2640047,114.685579 12.2640047,110.443291 L12.2640047,7.68134172 C12.2640047,3.43905383 15.706179,7.60169759e-15 19.9523163,0 Z" id="Rectangle" fill="#434D66"></path>
                            <polygon id="Rectangle-Copy-6" fill="#FFFFFF" points="15.8668953 7.20692526 73.5432569 7.20138975 73.5336345 110.725674 15.8572729 110.73121"></polygon>
                            <rect id="Rectangle" fill="#EF6100" x="15.8977838" y="7.20125786" width="57.6862441" height="11.8580713"></rect>
                            <path d="M40.2066469,12.9009046 C40.530982,13.0035177 40.7850408,13.1749869 40.9688307,13.4153173 C41.1526206,13.6556478 41.2445142,13.9513309 41.2445142,14.3023755 C41.2445142,14.7992385 41.0512674,15.1813313 40.664768,15.4486652 C40.2782686,15.7159991 39.7147447,15.8496641 38.9741795,15.8496641 L36.038961,15.8496641 L36.038961,10.1789729 L38.8120127,10.1789729 C39.5039277,10.1789729 40.0350185,10.3112877 40.4053012,10.5759212 C40.7755838,10.8405548 40.9607223,11.199695 40.9607223,11.6533526 C40.9607223,11.9287875 40.8945049,12.174515 40.7620681,12.3905424 C40.6296312,12.6065698 40.4444927,12.7766889 40.2066469,12.9009046 Z M37.3444035,11.1672933 L37.3444035,12.5039563 L38.6498459,12.5039563 C38.9741811,12.5039563 39.2201316,12.4472499 39.3877047,12.3338355 C39.5552779,12.2204211 39.6390632,12.0530024 39.6390632,11.8315743 C39.6390632,11.6101462 39.5552779,11.4440776 39.3877047,11.3333636 C39.2201316,11.2226495 38.9741811,11.1672933 38.6498459,11.1672933 L37.3444035,11.1672933 Z M38.8768794,14.8613436 C39.2228369,14.8613436 39.4836525,14.8046373 39.6593341,14.6912229 C39.8350156,14.5778085 39.922855,14.4022888 39.922855,14.1646587 C39.922855,13.6947991 39.5742,13.4598728 38.8768794,13.4598728 L37.3444035,13.4598728 L37.3444035,14.8613436 L38.8768794,14.8613436 Z M44.0743242,10.1789729 L44.0743242,15.8496641 L42.7607734,15.8496641 L42.7607734,11.2321012 L41.6256061,11.2321012 L41.6256061,10.1789729 L44.0743242,10.1789729 Z M47.2527928,10.1789729 L47.2527928,15.8496641 L45.939242,15.8496641 L45.939242,11.2321012 L44.8040747,11.2321012 L44.8040747,10.1789729 L47.2527928,10.1789729 Z M50.6745115,15.9468759 C50.2042256,15.9468759 49.7852989,15.8307629 49.4177191,15.5985335 C49.0501393,15.366304 48.7622961,15.0301164 48.5541811,14.5899605 C48.346066,14.1498047 48.2420101,13.6245959 48.2420101,13.0143185 C48.2420101,12.404041 48.346066,11.8788323 48.5541811,11.4386764 C48.7622961,10.9985206 49.0501393,10.6623329 49.4177191,10.4301035 C49.7852989,10.197874 50.2042256,10.081761 50.6745115,10.081761 C51.1447975,10.081761 51.5637241,10.197874 51.9313039,10.4301035 C52.2988838,10.6623329 52.5867269,10.9985206 52.794842,11.4386764 C53.002957,11.8788323 53.107013,12.404041 53.107013,13.0143185 C53.107013,13.6245959 53.002957,14.1498047 52.794842,14.5899605 C52.5867269,15.0301164 52.2988838,15.366304 51.9313039,15.5985335 C51.5637241,15.8307629 51.1447975,15.9468759 50.6745115,15.9468759 Z M50.6745115,14.8370406 C51.020469,14.8370406 51.2920956,14.688524 51.4893995,14.3914863 C51.6867034,14.0944486 51.7853539,13.6353973 51.7853539,13.0143185 C51.7853539,12.3932397 51.6867034,11.9341883 51.4893995,11.6371506 C51.2920956,11.3401129 51.020469,11.1915963 50.6745115,11.1915963 C50.3339596,11.1915963 50.0650358,11.3401129 49.8677319,11.6371506 C49.670428,11.9341883 49.5717775,12.3932397 49.5717775,13.0143185 C49.5717775,13.6353973 49.670428,14.0944486 49.8677319,14.3914863 C50.0650358,14.688524 50.3339596,14.8370406 50.6745115,14.8370406 Z" id="B110" fill="#FFFFFF" fill-rule="nonzero"></path>
                            <g id="Group-2-Copy-9" transform="translate(64.499580, 49.712683)" fill-rule="nonzero">
                                <path d="M6.25376002,52.3447588 C6.25264991,52.3308059 6.25217542,52.3256902 6.25275497,52.3310288 C6.25608177,52.361674 6.26129456,52.4024484 6.26955047,52.4567988 C6.2852255,52.5599911 6.30634274,52.6755451 6.33687882,52.8120304 C6.38970435,53.0481417 6.45906091,53.2975325 6.56112177,53.5822815 C6.43302363,53.2250806 6.33435964,52.8644919 6.26400513,52.5033353 C6.26064238,52.4410334 6.25720035,52.3880002 6.25376002,52.3447588 Z M6.62826779,53.4194653 C6.62120658,53.3995205 6.61421305,53.3795682 6.60728709,53.3596086 C6.61406713,53.379149 6.62110697,53.3992391 6.62826779,53.4194653 Z M10.5687391,43.8842991 C14.0686862,42.5039489 17.9096429,44.5481732 19.1477559,48.4502019 C19.4416089,49.376307 19.5314382,50.0582197 19.597806,51.0201191 C19.631075,51.5023033 19.6520176,52.0613392 19.6642745,52.7243395 C19.7407763,56.8624454 16.7938675,60.2861845 13.0821696,60.3714749 C9.37047174,60.4567653 6.29952922,57.1713092 6.22302751,53.0332033 C6.21753611,52.7361644 6.21010439,52.4974742 6.20216089,52.3277706 C5.59915864,48.7583732 7.40174948,45.1333336 10.5687391,43.8842991 Z" id="Path-21-Copy-4" fill="url(#linearGradient-5)" transform="translate(12.876195, 51.913154) rotate(-96.000000) translate(-12.876195, -51.913154) "></path>
                                <path d="M6.5418034,40.0550251 C6.53957362,40.0453357 6.53735887,40.0356462 6.53515915,40.0259569 C6.53730768,40.0354182 6.53953846,40.0451829 6.5418034,40.0550251 Z M12.1198188,31.2688013 C16.0669111,30.3706493 20.0024082,32.8090314 20.9099977,36.7150801 C21.1555005,37.7716658 21.2104807,38.8598342 21.2410543,41.1182067 C21.2953091,45.1258257 18.0563365,48.4181677 14.0066066,48.4718584 C9.95687674,48.525549 6.62993984,45.3202566 6.57568507,41.3126376 C6.56600539,40.5976322 6.55078202,40.0427006 6.53170678,39.6651628 C6.528105,39.5938764 6.52461835,39.5340692 6.52157135,39.4875174 C5.91321166,35.7472878 8.33451634,32.1301384 12.1198188,31.2688013 Z" id="Path-21-Copy-3" fill="url(#linearGradient-6)" transform="translate(13.834959, 39.777580) rotate(-96.000000) translate(-13.834959, -39.777580) "></path>
                                <path d="M13.2813626,16.9218972 C17.5436096,16.3548421 21.480354,19.1938003 22.0743272,23.2628877 C22.2226269,24.2788333 22.2764452,25.9743508 22.3029462,29.0903182 C22.3378866,33.1985918 18.877703,36.5560468 14.5744097,36.5894038 C10.2711165,36.6227608 6.75428314,33.3193883 6.71934265,29.2111147 C6.70831983,27.9150598 6.69062105,26.8880989 6.66690909,26.1410657 C6.65605304,25.7990517 6.64424249,25.526356 6.63241862,25.33125 C6.62913698,25.2770996 6.62614944,25.2338492 6.62375162,25.2031955 C6.10068538,21.177821 9.0586621,17.483691 13.2813626,16.9218972 Z" id="Path-21-Copy-2" fill="url(#linearGradient-6)" transform="translate(14.433519, 26.719719) rotate(-111.000000) translate(-14.433519, -26.719719) "></path>
                                <path d="M11.3860632,2.73914166 C15.6363387,2.07588504 19.6282545,4.9288069 20.3022566,9.11132097 C20.4702769,10.1539692 20.5248394,11.7110543 20.5523833,14.6446684 C20.5921423,18.8792643 17.1359396,22.3437998 12.8327384,22.3829249 C8.52953727,22.4220501 5.00887244,19.020949 4.96911344,14.7863531 C4.9582171,13.6258215 4.94077943,12.7092948 4.91765807,12.0494653 C4.90739078,11.756461 4.89641237,11.5268496 4.88593827,11.3702921 C4.88480034,11.3532835 4.88376114,11.3385083 4.88285936,11.3261671 C4.32345131,7.21418552 7.19919804,3.39250307 11.3860632,2.73914166 Z" id="Path-21-Copy" fill="url(#linearGradient-6)" transform="translate(12.683033, 12.513324) rotate(-124.000000) translate(-12.683033, -12.513324) "></path>
                            </g>
                            <rect id="Rectangle" fill="#DBE5E6" x="24.987013" y="77.7735849" width="39.0631259" height="3.64863732" rx="1.82431866"></rect>
                            <rect id="Rectangle-Copy-5" fill="#DBE5E6" x="26.9090909" y="84.9748428" width="35.4293468" height="3.64863732" rx="1.82431866"></rect>
                            <ellipse id="Oval" fill="#DBE5E6" cx="44.6903916" cy="45.8" rx="14.5351166" ry="14.5945493"></ellipse>
                            <g id="Group-2" transform="translate(35.883569, 33.485849)">
                                <path d="M6.60312458,22.3419434 C6.5602849,23.8723268 6.45979094,25.083468 6.30164268,25.975367 C6.0644203,27.3132154 11.5973655,27.3132154 11.3473313,25.975367 C11.1806418,25.083468 11.0833176,23.8723268 11.0553584,22.3419434 L6.60312458,22.3419434 Z" id="Path-7-Copy-6" fill="#8D5A2E"></path>
                                <path d="M6.29422461,23.5001415 C6.91182895,24.5312133 7.72923249,25.0467492 8.74643524,25.0467492 C9.76363799,25.0467492 10.5035684,24.5482473 10.9662264,23.5512436 L10.9207488,22.7283442 C10.2529257,22.8115773 9.52815448,22.8531938 8.74643524,22.8531938 C7.964716,22.8531938 7.16290696,22.8531938 6.34100813,22.8531938 L6.29422461,23.5001415 Z" id="Path-10-Copy-2" fill="#68401C"></path>
                                <path d="M14.700441,16.5220641 C13.5397774,20.7222178 11.5451895,23.8875467 8.83423852,23.8875467 C6.11638093,23.8875467 3.69783342,20.7520843 2.52982716,16.5243244 C1.2869921,16.3338279 0.596032955,15.7099196 0.456949715,14.6525993 C0.314136503,13.5669236 0.78041203,12.9040051 1.8557763,12.6638437 C1.83912182,12.4540978 1.82551908,12.2433381 1.81505337,12.0317478 C1.50366187,5.7361961 4.77200526,3.40830288 8.83423852,3.40830288 C12.8964718,3.40830288 16.3676972,5.81779742 15.5818353,12.0317478 C15.5537237,12.2540314 15.5236202,12.4755828 15.4915378,12.6961702 C16.4731757,12.9601542 16.8955723,13.6122973 16.7587277,14.6525993 C16.6201897,15.7057748 15.9340941,16.3289297 14.700441,16.5220641 Z" id="Combined-Shape-Copy-2" fill="url(#linearGradient-7)"></path>
                                <ellipse id="Oval-Copy-14" fill="#1E1E1E" transform="translate(6.294225, 13.929433) scale(-1, 1) translate(-6.294225, -13.929433) " cx="6.29422461" cy="13.9294331" rx="1" ry="1.15920248"></ellipse>
                                <ellipse id="Oval-Copy-15" fill="#1E1E1E" transform="translate(11.744893, 13.929433) scale(-1, 1) translate(-11.744893, -13.929433) " cx="11.7448933" cy="13.9294331" rx="1" ry="1.15920248"></ellipse>
                                <path d="M6.68355809,18.533694 C8.19787234,19.1771655 9.75520626,19.1585792 11.3555599,18.4779351 C10.9702303,19.9603151 10.2202255,20.9191129 8.72437832,20.7836187 C7.72714689,20.6932892 7.04687348,19.9433143 6.68355809,18.533694 Z" id="Path-14-Copy-3" fill="#DAC0A5" transform="translate(9.019559, 19.637138) scale(-1, 1) translate(-9.019559, -19.637138) "></path>
                                <path d="M9.35314805,13.0683235 C8.0522533,15.2613636 7.59662641,16.5714056 7.9862674,16.9984496 C8.37590838,17.4254937 9.10967239,17.4254937 10.1875594,16.9984496 C9.45426593,17.1204797 8.9312983,16.9365446 8.61865654,16.4466445 C8.30601477,15.9567444 8.55084528,14.8306374 9.35314805,13.0683235 Z" id="Path-17-Copy-3" fill="#68401C" transform="translate(9.019559, 15.193528) scale(-1, 1) translate(-9.019559, -15.193528) "></path>
                                <path d="M15.6136988,4.73070438 C16.3413761,5.55669434 16.6975207,6.76634828 16.7927753,7.8349776 C16.8903995,8.93019112 16.4567141,10.697866 15.4917192,13.1380024 C15.3749498,10.4851179 14.809604,8.84216979 13.7956819,8.20915814 C12.2747987,7.25964066 10.4146754,8.3193815 8.78945584,8.1613017 C8.6532024,8.14804878 8.54715569,8.12035406 8.46845065,8.07998834 C6.90249722,7.81011 5.00031429,7.41807098 3.56052456,8.31151861 C2.53949984,8.94510565 1.96492321,10.5444808 1.83679467,13.1096442 C0.915079818,11.0699591 0.454222395,9.30726883 0.454222395,7.8215732 C0.454222395,6.03682267 0.896103278,4.77910554 1.99379629,4.14200053 C1.99359002,4.12959244 1.99348655,4.11716442 1.99348655,4.10471698 C1.99348655,2.59340192 3.51870375,1.36823899 5.40015451,1.36823899 C5.47556641,1.36823899 5.55040601,1.37020728 5.62459802,1.37408338 C6.2125844,0.552926316 7.31576224,-1.24344979e-14 8.57971127,-1.24344979e-14 C10.0722097,-1.24344979e-14 11.3405384,0.770967186 11.8011563,1.84415979 C11.9363227,1.83106013 12.0739265,1.82431866 12.2134904,1.82431866 C14.0949412,1.82431866 15.6201584,3.04948159 15.6201584,4.56079665 C15.6201584,4.61785731 15.6179842,4.67451007 15.6136988,4.73070438 Z" id="Combined-Shape-Copy-3" fill="#1E1E1E"></path>
                                <path d="M4.88474191,11.4559527 C5.63440361,11.06751 6.44629336,11.0055055 7.34077251,11.2731139 L7.54753807,10.583254 C6.47788407,10.2632372 5.47288424,10.3399896 4.55289994,10.8166862 L4.88474191,11.4559527 Z" id="Path-16-Copy-6" fill="#1E1E1E" fill-rule="nonzero"></path>
                                <path d="M10.730812,11.430507 C11.3480459,11.1392292 12.1870753,11.065287 13.2499373,11.2210087 L13.3545172,10.5085032 C12.1623231,10.3338329 11.1844629,10.42001 10.4229739,10.7793629 L10.730812,11.430507 Z" id="Path-16-Copy-7" fill="#1E1E1E" fill-rule="nonzero" transform="translate(11.888746, 10.925872) scale(-1, 1) translate(-11.888746, -10.925872) "></path>
                            </g>
                        </g>
                        <g id="Group-8-Copy-4" transform="translate(98.194781, 52.809224)">
                            <ellipse id="Oval-Copy" fill="#09B222" cx="8.64935065" cy="8.64150943" rx="8.64935065" ry="8.64150943"></ellipse>
                            <polygon id="Path-26" fill="#FFFFFF" fill-rule="nonzero" points="4.45924223 7.54768352 3.44873551 8.57484045 7.31053337 12.3671532 13.8499658 5.9453844 12.8394591 4.91822746 7.31053337 10.3476716"></polygon>
                        </g>
                    </g>
                </g>
                <g id="Rectangle-Copy">
                    <use fill="black" fill-opacity="1" filter="url(#filter-9)" xlink:href="#path-8"></use>
                    <use fill="#FFFFFF" fill-rule="evenodd" xlink:href="#path-8"></use>
                </g>
                <g id="Stacked-Group-7" transform="translate(0.000000, 199.000000)">
                    <g id="Status/Siver">
                        <g id="Group-2" stroke-width="1" fill-rule="evenodd" transform="translate(20.719424, 15.155556)">
                            <path d="M5.52517986,0 L49.0359712,0 C52.0874438,-5.59119101e-16 54.5611511,2.46740849 54.5611511,5.51111111 L54.5611511,33.4111111 C54.5611511,36.4548137 52.0874438,38.9222222 49.0359712,38.9222222 L5.52517986,38.9222222 C2.47370728,38.9222222 3.73697612e-16,36.4548137 0,33.4111111 L0,5.51111111 C-3.73697612e-16,2.46740849 2.47370728,5.59119101e-16 5.52517986,0 Z" id="Rectangle-Copy-17" fill="url(#linearGradient-10)" fill-rule="nonzero"></path>
                            <rect id="Rectangle-Copy-4" fill="#A8A7A7" x="0" y="5.51111111" width="54.5611511" height="6.54444444"></rect>
                            <rect id="Rectangle-Copy-5" fill="#A8A7A7" x="6.21582734" y="15.1555556" width="8.28776978" height="8.61111111" rx="4"></rect>
                            <rect id="Rectangle" fill="#A8A7A7" x="6.21582734" y="29.9666667" width="8.28776978" height="3.44444444" rx="1.72222222"></rect>
                            <rect id="Rectangle-Copy" fill="#A8A7A7" x="17.2661871" y="29.9666667" width="8.63309353" height="3.44444444" rx="1.72222222"></rect>
                            <rect id="Rectangle-Copy-2" fill="#A8A7A7" x="28.6618705" y="29.9666667" width="8.28776978" height="3.44444444" rx="1.72222222"></rect>
                            <rect id="Rectangle-Copy-3" fill="#A8A7A7" x="39.7122302" y="29.9666667" width="8.28776978" height="3.44444444" rx="1.72222222"></rect>
                        </g>
                        <path d="M6.58033867,11.1851379 C6.58033867,11.1851379 3.38633009,9.61117788 2.61000855,6.52244002 C1.83368702,3.43370217 3.76606178,-2.58287836e-12 3.76606178,-2.58287836e-12 C3.76606178,-2.58287836e-12 6.96017105,1.57482054 7.7363919,4.66269783 C8.51261275,7.75057511 6.58033867,11.1851379 6.58033867,11.1851379 Z M10.3679526,17.5206136 C10.3679526,17.5206136 8.00662379,14.4967448 8.36757962,11.3002537 C8.72833409,8.10204153 11.673217,5.94188174 11.673217,5.94188174 C11.673217,5.94188174 14.0345458,8.9657506 13.6751235,12.1628603 C13.3128355,15.3604538 10.3679526,17.5206136 10.3679526,17.5206136 Z M12.6390455,17.6751481 C13.901208,14.8258483 17.2860066,14.0280002 17.2860066,14.0280002 C17.2860066,14.0280002 18.6278458,17.8479348 17.3655827,20.696374 C16.1055694,23.545311 12.7186216,24.343522 12.7186216,24.343522 C12.7186216,24.343522 11.3767824,20.5235874 12.6390455,17.6751481 Z M14.9264587,25.6495749 C16.8569943,23.4052888 20.283445,23.900088 20.283445,23.900088 C20.283445,23.900088 20.5797021,28.0308101 18.6489651,30.273375 C16.7183288,32.5168005 13.2919788,32.0228618 13.2919788,32.0228618 C13.2919788,32.0228618 12.9958223,27.8930004 14.9264587,25.6495749 Z M15.1979875,34.2021525 C17.4052236,32.3622231 20.7194245,33.5148428 20.7194245,33.5148428 C20.7194245,33.5148428 20.456449,37.6487096 18.2491122,39.4877785 C16.0434096,41.3283266 12.7275746,40.1742276 12.7275746,40.1742276 C12.7275746,40.1742276 12.9906507,36.0412214 15.1979875,34.2021525 Z M13.3602367,42.6220216 C15.9122235,41.6119895 18.815444,43.8475844 18.815444,43.8475844 C18.815444,43.8475844 17.5877657,47.7222057 15.0364953,48.7321169 C12.4852249,49.742028 9.57975456,47.5059354 9.57975456,47.5059354 C9.57975456,47.5059354 10.8091677,43.6336539 13.3602367,42.6220216 Z M10.5343857,50.0081917 C13.221563,50.0600111 15.3520411,53.3211837 15.3520411,53.3211837 C15.3520411,53.3211837 13.1303186,56.4921978 10.4445741,56.4401365 C7.75852749,56.3854935 5.62681798,53.126284 5.62681798,53.126284 C5.62681798,53.126284 7.8485405,49.9552698 10.5343857,50.0081917 Z M5.1774541,56.4006288 C7.60210195,57.0365848 8.65396382,59.2715645 9.19735816,60.5061024 C7.97134145,61.2622617 5.67654219,62.1179862 3.05945014,61.3618269 C0.442358091,60.6056675 1.80689941e-05,57.2982005 1.80689943e-05,57.2982005 C1.80689943e-05,57.2982005 2.37798097,55.6663607 5.1774541,56.4006288 Z" id="Combined-Shape-Copy-5" fill="#E1E1DE" fill-rule="nonzero" transform="translate(10.359712, 30.827778) scale(-1, 1) translate(-10.359712, -30.827778) "></path>
                        <path d="M81.5155905,11.1851379 C81.5155905,11.1851379 78.3215819,9.61117788 77.5452604,6.52244002 C76.7689388,3.43370217 78.7013136,-2.24226193e-12 78.7013136,-2.24226193e-12 C78.7013136,-2.24226193e-12 81.8954228,1.57482054 82.6716437,4.66269783 C83.4478645,7.75057511 81.5155905,11.1851379 81.5155905,11.1851379 Z M85.3032044,17.5206136 C85.3032044,17.5206136 82.9418756,14.4967448 83.3028314,11.3002537 C83.6635859,8.10204153 86.6084688,5.94188174 86.6084688,5.94188174 C86.6084688,5.94188174 88.9697976,8.9657506 88.6103753,12.1628603 C88.2480873,15.3604538 85.3032044,17.5206136 85.3032044,17.5206136 Z M87.5742973,17.6751481 C88.8364598,14.8258483 92.2212584,14.0280002 92.2212584,14.0280002 C92.2212584,14.0280002 93.5630976,17.8479348 92.3008344,20.696374 C91.0408212,23.545311 87.6538734,24.343522 87.6538734,24.343522 C87.6538734,24.343522 86.3120342,20.5235874 87.5742973,17.6751481 Z M89.8617105,25.6495749 C91.7922461,23.4052888 95.2186968,23.900088 95.2186968,23.900088 C95.2186968,23.900088 95.5149539,28.0308101 93.5842169,30.273375 C91.6535806,32.5168005 88.2272306,32.0228618 88.2272306,32.0228618 C88.2272306,32.0228618 87.9310741,27.8930004 89.8617105,25.6495749 Z M90.1332393,34.2021525 C92.3404754,32.3622231 95.6546763,33.5148428 95.6546763,33.5148428 C95.6546763,33.5148428 95.3917008,37.6487096 93.184364,39.4877785 C90.9786614,41.3283266 87.6628264,40.1742276 87.6628264,40.1742276 C87.6628264,40.1742276 87.9259025,36.0412214 90.1332393,34.2021525 Z M88.2954885,42.6220216 C90.8474753,41.6119895 93.7506958,43.8475844 93.7506958,43.8475844 C93.7506958,43.8475844 92.5230175,47.7222057 89.9717471,48.7321169 C87.4204767,49.742028 84.5150064,47.5059354 84.5150064,47.5059354 C84.5150064,47.5059354 85.7444195,43.6336539 88.2954885,42.6220216 Z M85.4696375,50.0081917 C88.1568148,50.0600111 90.2872929,53.3211837 90.2872929,53.3211837 C90.2872929,53.3211837 88.0655704,56.4921978 85.3798259,56.4401365 C82.6937793,56.3854935 80.5620698,53.126284 80.5620698,53.126284 C80.5620698,53.126284 82.7837923,49.9552698 85.4696375,50.0081917 Z M80.1127059,56.4006288 C82.5373537,57.0365848 83.5892156,59.2715645 84.13261,60.5061024 C82.9065932,61.2622617 80.611794,62.1179862 77.9947019,61.3618269 C75.3776099,60.6056675 74.9352699,57.2982005 74.9352699,57.2982005 C74.9352699,57.2982005 77.3132328,55.6663607 80.1127059,56.4006288 Z" id="Combined-Shape-Copy-6" fill="#E1E1DE" fill-rule="nonzero"></path>
                    </g>
                </g>
            </g>
        </g>
    </g>
</svg>